<svg width="44" height="42" viewBox="0 0 44 42" fill="none" xmlns="http://www.w3.org/2000/svg">
<g clip-path="url(#clip0_5218_38102)">
<path d="M12.6723 0.473145C11.3112 0.479779 9.96722 0.776994 8.73024 1.34491C6.94064 2.13008 5.34363 3.2958 4.05035 4.76093C2.75707 6.22606 1.79858 7.95542 1.2416 9.82864C-0.157472 14.5064 0.841864 19.856 4.061 24.9378C4.21835 25.1887 4.38419 25.431 4.55004 25.6777L14.4924 26.6345L16.9206 1.45972C15.5941 0.822899 14.1437 0.486059 12.6723 0.473145Z" fill="#FAE8C9"/>
<path d="M27.3985 29.4668L25.7188 29.3052L27.3985 29.4668Z" fill="#FAE8C9"/>
<path d="M8.80273 30.7979C9.07915 31.0955 9.35556 31.3932 9.65323 31.6781C9.36406 31.3889 9.08056 31.0955 8.80273 30.7979Z" fill="#FAE8C9"/>
<path d="M11.6519 33.6426C12.1919 34.1444 12.732 34.6292 13.2593 35.0884C12.7292 34.6377 12.1933 34.1557 11.6519 33.6426Z" fill="#FAE8C9"/>
<path d="M23.41 29.0839V29.0797L22.2108 28.9648H22.2065L23.41 29.0839Z" fill="#FAE8C9"/>
<path d="M9.98047 32.0308C10.4908 32.5453 11.0053 33.0471 11.5156 33.5276C11.0053 33.0514 10.4908 32.5496 9.98047 32.0308Z" fill="#FAE8C9"/>
<path d="M18.8641 28.6458L13.8844 28.161L13.5527 28.1143L18.8641 28.6458Z" fill="#FAE8C9"/>
<path d="M7.6543 29.5093C7.94347 29.8452 8.23689 30.1769 8.53456 30.5001L7.6543 29.5093Z" fill="#FAE8C9"/>
<path d="M25.1408 29.2499L23.9374 29.1309L23.9331 29.1351L25.1408 29.2499Z" fill="#FAE8C9"/>
<path d="M5.95312 27.3998L12.7571 28.0546L12.3872 28.0164L5.96588 27.3955C6.15299 27.6422 6.3401 27.8845 6.53146 28.1269C6.32734 27.8888 6.15299 27.6464 5.95312 27.3998Z" fill="#FAE8C9"/>
<path d="M6.70166 28.3608C6.92279 28.6415 7.15242 28.9137 7.37781 29.1858C7.15242 28.9137 6.92704 28.6373 6.70166 28.3608Z" fill="#FAE8C9"/>
<path d="M31.7406 29.8878V29.8835L30.8646 29.8027H30.8604L31.7406 29.8878Z" fill="#FAE8C9"/>
<path d="M28.6574 29.5899H28.6617L27.4795 29.4751L28.6574 29.5899Z" fill="#FAE8C9"/>
<path d="M13.689 35.4756C14.3651 36.0539 15.0242 36.594 15.6579 37.0915C15.0285 36.5926 14.3722 36.0539 13.689 35.4756Z" fill="#FAE8C9"/>
<path d="M21.5938 28.9051L19.4463 28.6968V28.701L21.5938 28.9051Z" fill="#FAE8C9"/>
<path d="M30.4308 29.7599L29.1338 29.6323V29.6366L30.4308 29.7599Z" fill="#FAE8C9"/>
<path d="M16.0527 37.4019C16.478 37.725 16.865 38.027 17.2477 38.3119C16.865 38.0227 16.4695 37.7208 16.0527 37.4019Z" fill="#FAE8C9"/>
<path d="M17.6348 38.5967C18.0898 38.9284 18.5193 39.2346 18.9105 39.5025C18.5278 39.2346 18.1025 38.9284 17.6348 38.5967Z" fill="#FAE8C9"/>
<path d="M23.8263 36.4791C25.2924 35.766 26.6853 34.9115 27.9852 33.9276C29.4749 32.8321 30.7482 31.4695 31.7402 29.909L30.8599 29.8154C30.7536 29.9643 30.6473 30.0961 30.5708 30.2024C30.4262 30.3895 30.2221 30.6659 30.0009 30.9806L29.21 31.8992L29.0186 32.1203L28.823 32.3159L28.487 32.6476C28.2914 32.8475 28.1553 32.9623 28.1468 32.9708L27.5047 33.4938L26.9434 33.9191C26.5989 34.1827 26.28 34.3869 25.9611 34.608C25.1174 35.1777 24.2349 35.6878 23.3203 36.1346C22.6186 36.4833 22.0445 36.7045 21.5257 36.9043L20.807 37.1382C20.5927 37.2137 20.374 37.2762 20.1521 37.3253L19.5058 37.4699L19.3314 37.5124H19.1528H18.7956C18.2137 37.5524 17.6297 37.5524 17.0478 37.5124C16.7842 37.4699 16.4652 37.4699 16.0995 37.4061H16.0527C16.478 37.7251 16.865 38.027 17.2477 38.3119C17.3795 38.3119 17.5113 38.3374 17.6432 38.3417C18.7455 38.335 19.8375 38.1289 20.8666 37.7336C21.8806 37.3834 22.8695 36.9643 23.8263 36.4791Z" fill="#FAE8C9"/>
<path d="M22.9928 40.5957L22.2317 40.8168C21.9872 40.8926 21.7387 40.9551 21.4875 41.0039L21.2876 41.0507L21.3599 41.0932L22.0956 41.5185L22.8313 41.0932C22.9248 41.0379 23.4989 40.6935 24.3962 40.0981L23.8178 40.3108C23.5244 40.4128 23.2565 40.5234 22.9928 40.5957Z" fill="#FAE8C9"/>
<path d="M19.7613 39.4514H19.9824C20.025 39.4514 20.1143 39.4216 20.178 39.4088C20.7351 39.2728 21.2497 39.1537 21.743 38.9836C22.8224 38.6377 23.8743 38.2113 24.8898 37.7078C26.4485 36.9721 27.9228 36.0695 29.2869 35.016C30.2975 34.2265 31.2276 33.3391 32.0638 32.3667C32.6893 31.6436 33.2674 30.8808 33.7945 30.0831L32.1531 29.9258C31.949 30.249 31.7661 30.5169 31.63 30.704C31.193 31.3253 30.7231 31.923 30.2224 32.4943L29.457 33.281L29.0998 33.6084C28.3695 34.2177 27.6057 34.7856 26.8119 35.3094C26.4717 35.5391 26.106 35.7347 25.6765 36.0281L24.9493 36.4534L24.5241 36.683L24.0436 36.9169C22.9862 37.4483 21.8795 37.8756 20.7394 38.1926C19.7394 38.5105 18.6922 38.6543 17.6436 38.6179C18.1028 38.9496 18.5281 39.2558 18.9193 39.5237L19.3148 39.4981L19.7613 39.4514Z" fill="#FAE8C9"/>
<path d="M34.092 30.1133C33.6667 30.7682 33.2967 31.2785 33.0586 31.5889C32.897 31.7888 32.6631 32.0822 32.4037 32.4394C32.1443 32.7966 31.8211 33.1113 31.5532 33.443L30.7325 34.2382C30.5241 34.4551 30.3668 34.5742 30.3583 34.5869C29.5991 35.2361 28.801 35.8382 27.9684 36.39C27.0367 37.0041 26.0633 37.5526 25.0554 38.0314C24.6727 38.2313 24.307 38.3674 23.9838 38.5077C23.6606 38.648 23.3587 38.7586 23.078 38.8564C22.7973 38.9542 22.5464 39.052 22.2955 39.1201L21.5769 39.3242L21.2282 39.422L20.8667 39.4985L20.114 39.6601C19.8291 39.6942 19.5484 39.6857 19.2295 39.7027C20.165 40.3405 20.8497 40.77 21.1771 40.9784C21.6364 40.8721 22.0744 40.77 22.4954 40.6297C23.3542 40.3728 24.1964 40.0632 25.0171 39.7027C28.984 36.9995 32.6231 33.8442 35.861 30.3004L34.092 30.1133Z" fill="#FAE8C9"/>
<path d="M16.5295 35.5904H17.38C17.6521 35.5904 17.9073 35.5606 18.1497 35.5479C18.643 35.5479 19.0937 35.4586 19.5402 35.4118C19.7567 35.4001 19.9725 35.3774 20.1866 35.3438C20.3992 35.2842 20.6119 35.2417 20.8415 35.1737C21.0711 35.1056 21.2923 35.0291 21.5304 34.9398L22.2618 34.6336C23.5915 34.0088 24.8362 33.2171 25.9658 32.2777C26.9495 31.485 27.8474 30.5913 28.6448 29.6114L27.4669 29.4966L27.2245 29.841C27.0508 30.0987 26.862 30.3458 26.6589 30.581L26.3953 30.9042C26.2369 31.0949 26.0665 31.2753 25.885 31.4442C25.7276 31.6016 25.583 31.7504 25.4597 31.8695C25.1705 32.1246 24.9026 32.3287 24.6092 32.5541C24.3166 32.7934 24.0098 33.0149 23.6907 33.2175C23.2478 33.51 22.7877 33.7756 22.3129 34.0127L21.4368 34.3955L20.6842 34.6506C20.2665 34.7749 19.84 34.8673 19.4084 34.927C19.0029 34.9676 18.5955 34.9861 18.1879 34.9823C17.9668 34.9823 17.7287 34.9823 17.4735 34.9823C17.1892 34.9795 16.9053 34.961 16.623 34.927C16.3891 34.927 16.1 34.8845 15.7725 34.8292C15.4451 34.7739 15.0751 34.7101 14.6796 34.6336C13.83 34.431 12.9936 34.1768 12.1749 33.8724L11.6519 33.6428C12.1933 34.1474 12.7277 34.6293 13.255 35.0886C13.523 35.1652 13.7951 35.2332 14.063 35.2885C14.8748 35.461 15.7001 35.5621 16.5295 35.5904Z" fill="#FAE8C9"/>
<path d="M13.1228 29.5517C13.7974 29.7064 14.4897 29.7693 15.181 29.7388C15.8422 29.7061 16.4953 29.5786 17.1202 29.3603L17.7028 29.1562L18.3449 28.8713L18.7021 28.7139L18.8637 28.6459L13.5523 28.1143L12.7359 28.0378L5.95312 27.3999C6.14023 27.6465 6.32734 27.8889 6.51871 28.1271C7.59884 28.2929 8.67472 28.5013 9.73785 28.7437C10.8733 28.9946 11.9959 29.322 13.1228 29.5517Z" fill="#FAE8C9"/>
<path d="M16.7589 34.8589C17.0438 34.8887 17.3159 34.8887 17.5753 34.8972H17.9538H18.311C18.7554 34.9012 19.1993 34.867 19.6378 34.7951C20.5479 34.6154 21.4311 34.3196 22.2659 33.9149C23.532 33.28 24.6948 32.457 25.7146 31.4739C25.8762 31.3081 26.0506 31.1508 26.2164 30.9679L26.7055 30.3811C26.7905 30.2818 26.8756 30.1798 26.9606 30.0749L27.203 29.7389L27.3944 29.4668L25.6934 29.3052L25.6338 29.386C25.4425 29.6624 25.2469 29.909 25.1108 30.0961C24.9747 30.2833 24.8726 30.3938 24.8684 30.4023C24.3477 30.9715 23.797 31.5123 23.2184 32.0225L22.8187 32.35L22.3552 32.6987C21.9435 32.9895 21.5015 33.2348 21.0369 33.4301C20.5133 33.6366 19.9611 33.7614 19.3997 33.8001C18.9973 33.8478 18.5928 33.8747 18.1877 33.8809C17.3094 33.899 16.4316 33.8263 15.5682 33.664L14.7772 33.5024C14.471 33.4258 14.1308 33.345 13.7651 33.2345C13.0422 33.0261 12.2342 32.7369 11.4305 32.469C10.9329 32.3032 10.4354 32.1543 9.96338 32.0438C10.4737 32.5626 10.9882 33.0644 11.4985 33.5449L12.1151 33.7788C13.6013 34.3659 15.1662 34.7299 16.7589 34.8589Z" fill="#FAE8C9"/>
<path d="M13.5657 32.9237C14.2704 33.1429 14.9913 33.3065 15.7217 33.4128C15.9853 33.4383 16.2362 33.4766 16.4744 33.4893L17.1548 33.5148C17.58 33.5148 18.0053 33.5148 18.388 33.451L18.9834 33.3873L19.5915 33.2937C20.0308 33.2393 20.4602 33.1234 20.8672 32.9493C22.0291 32.3929 23.0696 31.6125 23.929 30.6529C24.316 30.2277 24.7242 29.8024 25.1537 29.2496L23.946 29.1348C23.5372 29.5718 23.0997 29.9809 22.6362 30.3595C22.0179 30.88 21.3381 31.3227 20.6121 31.6778C20.3271 31.8053 20.072 31.9202 19.8339 32.0095C19.5957 32.0988 19.3746 32.171 19.1662 32.2306C18.9578 32.2901 18.741 32.3199 18.5751 32.3497L18.0308 32.3922C17.2135 32.3962 16.3982 32.3135 15.5984 32.1455C14.7904 32.0052 13.2212 31.6522 11.6818 31.295C10.6272 31.0611 9.58108 30.8698 8.80713 30.7762C9.09063 31.0739 9.36704 31.3673 9.63637 31.6565C10.2487 31.8011 10.8483 31.9882 11.4437 32.1881C12.1496 32.4475 12.8555 32.7069 13.5657 32.9237Z" fill="#FAE8C9"/>
<path d="M14.7218 30.8613C15.4617 31.0127 16.2205 31.0485 16.9714 30.9676C17.3073 30.9345 17.64 30.8748 17.9664 30.789C18.1365 30.7422 18.3066 30.6785 18.4852 30.6232L18.7617 30.5296L19.0466 30.4063C19.2379 30.317 19.4718 30.2489 19.6589 30.1341L20.3436 29.7769C20.785 29.5315 21.2034 29.2468 21.5938 28.9264L19.4421 28.7223C18.726 29.1044 17.9792 29.4259 17.2095 29.6834C16.5007 29.9247 15.7554 30.0413 15.0067 30.0278C14.3258 29.9985 13.65 29.8958 12.991 29.7216C12.3276 29.5643 11.0306 29.2156 9.75062 28.9307C8.47062 28.6458 7.27141 28.4544 6.68457 28.3608C6.90995 28.6373 7.13534 28.9137 7.36497 29.1858C8.58544 29.3984 9.7974 29.6706 10.9966 29.9683C12.1958 30.266 13.4843 30.6359 14.7218 30.8613Z" fill="#FAE8C9"/>
<path d="M18.192 32.0266C18.371 32.0114 18.5487 31.983 18.7235 31.9416C18.9038 31.9018 19.0813 31.8507 19.2551 31.7885C19.438 31.7205 19.6251 31.6567 19.8207 31.5759L20.416 31.3037C21.4951 30.7563 22.4787 30.0383 23.329 29.1775L23.4098 29.0967L22.2063 28.9648C21.8839 29.2741 21.5385 29.5585 21.173 29.8153C21.0624 29.9046 20.9306 29.9727 20.803 30.0577C20.6669 30.1481 20.5248 30.229 20.3778 30.3001C20.0065 30.5114 19.6215 30.6975 19.2253 30.8572C19.0893 30.9125 18.9702 30.972 18.8469 31.0103L18.4854 31.0911C18.2815 31.16 18.0725 31.2126 17.8603 31.2484L17.316 31.3377L16.8184 31.3633H16.576H16.3336L15.8276 31.325C15.4746 31.2697 15.0749 31.2187 14.5859 31.0996C13.8544 30.9423 12.4256 30.5595 11.0265 30.2193C9.62745 29.8791 8.27941 29.624 7.6543 29.5092L8.53456 30.5042C10.9712 30.8317 13.3314 31.5589 15.717 31.9331C16.5344 32.0724 17.3665 32.1038 18.192 32.0266Z" fill="#FAE8C9"/>
<path d="M18.0605 37.2573C18.3454 37.2573 18.6091 37.2105 18.8685 37.1935L19.247 37.1552L19.4043 37.1127L19.5914 37.0446L20.2803 36.8448C21.2488 36.5171 22.1936 36.1236 23.1082 35.6668C24.5042 34.9757 25.8325 34.1556 27.0758 33.2174C27.2799 33.0685 27.4713 32.8942 27.6839 32.7241L28.0029 32.4647L28.3133 32.1755C28.7615 31.7574 29.1873 31.316 29.589 30.853C29.8612 30.5085 30.1419 30.1428 30.4395 29.7516L29.1638 29.624C29.049 29.7644 28.9172 29.9174 28.7811 30.0918L28.4281 30.517L28.2453 30.7467L28.0496 30.9593C27.5011 31.5164 27.0673 32.0224 27.0333 32.0267L25.9191 32.9452C25.5917 33.2174 25.2898 33.4002 24.9964 33.6426C24.6688 33.884 24.3281 34.1069 23.9758 34.3103C23.4953 34.6024 22.9984 34.8665 22.4874 35.1012C21.504 35.5604 20.4414 35.8261 19.3575 35.8837C18.9323 35.9092 18.5326 35.939 18.0818 35.9305C17.8479 35.9305 17.6013 35.9305 17.3291 35.9305L16.4318 35.8879L15.509 35.7689C15.1603 35.7178 14.7648 35.6796 14.3481 35.5945C14.1355 35.5563 13.9229 35.5095 13.689 35.4584C14.3694 36.0254 15.0271 36.5641 15.6621 37.0744C16.1636 37.1565 16.6688 37.2133 17.176 37.2445L18.0605 37.2573Z" fill="#FAE8C9"/>
<path d="M39.9478 24.9419C39.7267 25.2906 39.4971 25.6393 39.2632 25.9795C39.4971 25.6393 39.748 25.2906 39.9478 24.9419Z" fill="#FAE8C9"/>
<path d="M41.3597 12.9669C40.5921 12.4444 39.7487 12.0428 38.8592 11.7762C37.9475 11.6058 37.0256 11.495 36.0994 11.4445C35.5721 11.4019 34.9172 11.3339 34.2495 11.3169C33.636 11.3359 33.0247 11.4013 32.421 11.5125C31.6555 11.7677 31.2388 11.8655 30.4818 12.1206C29.0242 12.5027 27.6016 13.0077 26.2293 13.6303L25.6893 13.8726L25.1662 14.1533L24.6431 14.4297L24.1499 14.7402C23.9883 14.8465 23.8224 14.94 23.6693 15.0506L23.2186 15.3908C22.9279 15.6056 22.6523 15.8401 22.3936 16.0924C22.063 16.3941 21.7519 16.7166 21.4623 17.0578C21.322 17.2236 21.1986 17.4065 21.0668 17.5808L20.8712 17.8445C20.8074 17.9295 20.7606 18.0316 20.7053 18.1209L20.3736 18.6907L20.1142 19.2903C20.0282 19.4889 19.9571 19.6936 19.9016 19.9027L19.8123 20.2174C19.7773 20.3209 19.753 20.4278 19.74 20.5363L19.6422 21.1784C19.6124 21.3911 19.6422 21.6037 19.6167 21.8248V22.148L19.6507 22.4712C19.6805 22.6881 19.6932 22.8964 19.7315 23.1133C19.8152 23.5357 19.9318 23.9509 20.0802 24.355L20.3099 24.9546L20.6075 25.5245C20.6798 25.6606 20.7436 25.7924 20.8159 25.9115L21.0413 26.2432C21.1859 26.4515 21.3134 26.6684 21.4665 26.83L21.8025 27.2552L23.6991 27.4381C22.8512 26.3436 22.181 25.1223 21.7132 23.8192C21.4259 23.023 21.282 22.1822 21.2879 21.3358C21.2566 20.4981 21.4364 19.666 21.811 18.9161C22.0638 18.4012 22.4216 17.9449 22.8614 17.5766C23.095 17.3714 23.3179 17.1543 23.529 16.9259C23.7629 16.675 23.9542 16.4539 23.9542 16.4539C24.3795 16.1562 24.6346 15.9691 24.8983 15.7565C25.162 15.5439 25.4681 15.3568 25.9784 15.0123C26.7769 14.5231 27.6342 14.1373 28.5299 13.8641C28.7341 13.7748 29.0487 13.6728 29.4102 13.5452C29.7999 13.3901 30.1973 13.2553 30.6009 13.1412C31.269 12.926 31.9549 12.7709 32.6506 12.6777C32.8183 12.6542 32.9873 12.6414 33.1566 12.6394L33.6627 12.6182L34.6833 12.5586L35.7081 12.5841H36.2184C36.3885 12.5841 36.5586 12.6182 36.7287 12.6309L37.7408 12.7457L38.7232 12.9626L38.9656 13.0179L39.2037 13.0987L39.6715 13.2603C39.979 13.3618 40.2777 13.4884 40.5645 13.6388C40.9186 13.8054 41.261 13.9958 41.5893 14.2086C41.7509 14.3234 41.9083 14.4552 42.0656 14.5786C42.2173 14.71 42.3594 14.8521 42.4909 15.0038L42.8906 15.4291C43.0138 15.5742 43.1288 15.7261 43.2351 15.8841L43.2946 15.9649C43.3371 15.5864 43.3626 15.2037 43.3796 14.8295C42.7873 14.1262 42.1086 13.5004 41.3597 12.9669Z" fill="#FAE8C9"/>
<path d="M41.0236 14.6806C39.9664 13.8897 38.746 13.3449 37.4515 13.0859L36.3458 12.9073C35.9673 12.869 35.5889 12.8648 35.2061 12.8435C35.019 12.8435 34.8277 12.8223 34.6406 12.8223L34.0707 12.8563L32.9438 12.9328C31.4463 13.1194 29.9847 13.5264 28.6063 14.1405C27.8048 14.5266 27.0329 14.9715 26.2972 15.4716C25.8719 15.765 25.3446 16.0797 24.6685 16.607C24.4984 16.7388 24.3027 16.8579 24.1199 17.0322L23.5033 17.5383C23.0067 17.921 22.5758 18.382 22.2275 18.9033C21.963 19.3322 21.7718 19.8021 21.6619 20.2939C21.5535 20.7922 21.5163 21.3033 21.5514 21.812C21.6451 22.6112 21.8647 23.3906 22.202 24.1211C22.542 24.8595 22.9386 25.5704 23.3885 26.2474C23.6861 26.7024 23.9838 27.0979 24.239 27.4423L25.7188 27.5827C25.57 27.4168 25.3956 27.2212 25.1745 26.932C24.9534 26.6429 24.8598 26.5068 24.7493 26.3367C24.6387 26.1666 24.5579 26.022 24.4771 25.8774C24.3963 25.7328 24.324 25.5883 24.2517 25.4224L24.1284 25.1503C24.0859 25.0524 24.0433 24.9419 23.9966 24.8228C23.7471 24.2404 23.5604 23.6332 23.4395 23.0112C23.3258 22.4064 23.3157 21.7866 23.4097 21.1784C23.6721 20.0126 24.2168 18.9291 24.9959 18.0231C25.7206 17.1522 26.5824 16.4054 27.5474 15.8118C29.7718 14.4781 32.279 13.6871 34.8659 13.5027C35.0275 13.5027 35.1891 13.5027 35.3507 13.5027C35.5136 13.492 35.6769 13.492 35.8398 13.5027L36.3288 13.5367C36.4918 13.5564 36.6536 13.5848 36.8136 13.6217C36.9752 13.6558 37.1368 13.6813 37.2941 13.7195L37.7619 13.8726C38.0723 13.9775 38.3749 14.104 38.6677 14.2511C38.8153 14.3196 38.9574 14.3992 39.0929 14.4892L39.5182 14.7401C39.7818 14.9273 40.0455 15.1229 40.3006 15.3227C40.7982 15.748 41.2234 16.2285 41.7762 16.5985C42.1837 17.0308 42.5417 17.5072 42.8436 18.0188L42.8819 18.0826C42.9669 17.7296 43.0392 17.3724 43.0988 17.0195C42.8776 16.7218 42.631 16.4199 42.3929 16.0967C41.9821 15.5825 41.5236 15.1084 41.0236 14.6806Z" fill="#FAE8C9"/>
<path d="M19.9099 24.5763C19.8198 24.3596 19.7418 24.1382 19.6761 23.9129C19.6165 23.6748 19.5527 23.4324 19.489 23.1857C19.4252 22.9391 19.4209 22.6924 19.3826 22.45C19.3638 22.3346 19.351 22.2182 19.3444 22.1013V21.7654C19.3444 21.5485 19.3444 21.3401 19.3444 21.1786C19.3444 21.017 19.3911 20.8639 19.4124 20.7533C19.564 19.9737 19.8245 19.2193 20.1864 18.5122C20.5484 17.8099 20.9908 17.1521 21.5046 16.5518C22.481 15.3906 23.6541 14.4103 24.9704 13.6559C26.471 12.8092 28.0689 12.1481 29.729 11.687C31.3892 11.2135 33.1056 10.966 34.832 10.9513C35.6825 10.9513 36.533 11.0066 37.3835 11.0789C37.8213 11.1103 38.2571 11.1657 38.689 11.2447C38.8038 11.2702 38.9229 11.2872 39.0292 11.3213L39.3481 11.4276L39.9775 11.6445L40.5983 11.9549L40.9003 12.0995L41.1809 12.2738L41.7465 12.6268C41.9251 12.7586 42.0952 12.8989 42.2696 13.052C42.6153 13.3228 42.9421 13.6169 43.2477 13.9323C43.2902 13.9791 43.3327 14.0259 43.371 14.0769C43.3701 13.4527 43.3304 12.8292 43.2519 12.21C42.8346 11.8694 42.3861 11.569 41.9124 11.3128C41.2301 10.9977 40.5284 10.7264 39.8116 10.5005C38.3998 9.91794 36.6265 9.90093 34.8702 10.0753C33.1747 10.2627 31.4959 10.5783 29.848 11.0193C27.9657 11.5347 26.1712 12.3287 24.5239 13.3752C23.699 13.8923 22.9013 14.4515 22.134 15.0507C21.3558 15.6084 20.6625 16.2758 20.0758 17.0324L19.7866 17.4236L19.5698 17.8063C19.5017 17.9296 19.4294 18.0445 19.3699 18.1593L19.2168 18.5122L19.0637 18.8609C19.0212 18.9843 18.9829 19.1076 18.9404 19.2352L18.8043 19.6264C18.766 19.7625 18.7363 19.9113 18.6937 20.0516C18.4827 20.8518 18.3882 21.6782 18.4131 22.5053C18.4131 22.6414 18.4131 22.7775 18.4131 22.9306C18.4131 23.0837 18.4513 23.2198 18.4684 23.3558C18.5088 23.6818 18.5727 24.0044 18.6597 24.3211C18.6965 24.4998 18.7491 24.6749 18.8171 24.8442C18.8851 25.0228 18.9446 25.2099 19.0169 25.397C19.1924 25.7914 19.3942 26.1736 19.6208 26.5409C19.6888 26.6558 19.8036 26.8344 19.9567 27.0427L21.1644 27.1576C20.8389 26.6524 20.5545 26.122 20.3139 25.5714C20.1624 25.2468 20.0275 24.9147 19.9099 24.5763Z" fill="#FAE8C9"/>
<path d="M17.2311 18.9037C17.3247 18.6826 17.4225 18.4785 17.5075 18.2913C17.7117 17.9384 17.8818 17.662 17.9966 17.4876C18.1114 17.3133 18.1964 17.1985 18.324 17.0028C18.4516 16.8072 18.5792 16.5776 18.7238 16.3947L19.0937 15.8802C19.1915 15.7441 19.2511 15.6548 19.2596 15.6505L19.9102 14.9914L20.4375 14.5066L20.7054 14.2515L21.0158 13.9878C21.2412 13.7965 21.5006 13.5626 21.8663 13.3202C22.1817 13.083 22.5097 12.863 22.8487 12.661C23.0916 12.5057 23.3429 12.3637 23.6014 12.2358C24.0734 11.9849 24.5369 11.7765 25.3024 11.4491C25.8765 11.1939 27.0034 10.6879 28.1388 10.2541C29.2742 9.82037 30.3926 9.44615 30.9072 9.31007C31.8129 9.06343 32.7315 8.81253 33.6713 8.63393L34.3857 8.51911C34.6217 8.47332 34.8603 8.44208 35.1001 8.42556L35.8188 8.37453C36.0589 8.34967 36.3004 8.33973 36.5417 8.34476C38.4147 8.3621 40.2548 8.83964 41.8999 9.73532C42.2401 9.90968 42.5675 10.1053 42.8949 10.3052C42.8524 10.1478 42.8141 9.99047 42.7674 9.83313C42.7206 9.67579 42.6696 9.5312 42.6185 9.38237C40.9146 8.39137 39.0206 7.77116 37.0605 7.5623C36.8771 7.53737 36.6926 7.52176 36.5077 7.51552C36.3127 7.49662 36.1168 7.48811 35.9208 7.49001L34.6451 7.51127C34.2198 7.55805 33.7946 7.62183 33.3693 7.68137C33.1704 7.70439 32.9739 7.74567 32.7825 7.80469L32.2594 7.95353C31.8337 8.09197 31.4175 8.25818 31.0135 8.45107C30.6392 8.62117 30.265 8.77426 29.7717 8.96987C27.8844 9.65419 26.0385 10.4479 24.2435 11.347C23.7672 11.5724 23.3207 11.8531 22.8614 12.104C22.4022 12.3549 21.9727 12.6483 21.5347 12.9162C20.6992 13.4296 19.9109 14.0159 19.1788 14.6682C18.3641 15.4559 17.6871 16.3743 17.1758 17.3856L16.9292 19.9371C16.9547 19.835 16.9802 19.7287 17.01 19.6309C17.0525 19.3715 17.1546 19.1333 17.2311 18.9037Z" fill="#FAE8C9"/>
<path d="M19.051 26.3876L18.766 25.8475C18.6298 25.593 18.52 25.3251 18.4386 25.0481C18.4046 24.9247 18.3153 24.7547 18.26 24.5463C18.2047 24.3379 18.1282 24.121 18.0601 23.9041C17.9921 23.6873 17.9666 23.4789 17.9283 23.3386C17.89 23.1982 17.8773 23.0919 17.873 23.0877C17.8388 22.5808 17.8388 22.0722 17.873 21.5653C17.8769 21.3271 17.8997 21.0897 17.941 20.8551C17.9803 20.5286 18.0457 20.2058 18.1367 19.8898C18.2238 19.5376 18.3404 19.1933 18.4854 18.8607C18.5877 18.6151 18.7085 18.3777 18.8468 18.1505C18.9719 17.9286 19.1141 17.7168 19.2721 17.5169C19.3529 17.4063 19.4337 17.283 19.5315 17.1597L19.8717 16.76C20.0503 16.5303 20.3522 16.2326 20.6924 15.8712L21.275 15.3566L21.9129 14.8378C22.596 14.2559 23.3162 13.7189 24.0689 13.2304C25.5523 12.3146 27.1184 11.5401 28.7466 10.917C29.1719 10.7512 29.5674 10.6321 29.9756 10.4918C30.3839 10.3514 30.7878 10.2536 31.1876 10.1473C31.9956 9.9347 32.7908 9.74759 33.5732 9.62002C34.5159 9.47364 35.4685 9.40112 36.4224 9.40314C37.4061 9.38229 38.3863 9.52602 39.3226 9.82839C40.7244 10.3316 42.0398 11.0489 43.2221 11.9546C43.1881 11.7293 43.1541 11.5039 43.1116 11.2827L42.7246 10.9893C41.2172 9.87465 39.4694 9.12893 37.6216 8.81204C36.5648 8.66747 35.4933 8.66747 34.4365 8.81204C33.905 8.87467 33.378 8.97126 32.8588 9.10121C32.5994 9.165 32.34 9.22453 32.0806 9.29257L31.3109 9.51796C29.2493 10.0625 27.2455 10.806 25.3276 11.7378C24.7567 12.0274 24.203 12.3497 23.6692 12.7031C23.4268 12.8519 23.1971 13.0178 22.9547 13.1879L22.572 13.4558L22.168 13.7662C21.4144 14.3199 20.7036 14.9297 20.0418 15.5905C19.8334 15.8074 19.6165 16.0158 19.3869 16.2964C19.1432 16.5683 18.9133 16.8521 18.698 17.1469C18.5832 17.3085 18.4556 17.4701 18.3408 17.6445L18.0601 18.2228C18.0048 18.3164 17.9368 18.4142 17.8858 18.512L17.7327 18.8267C17.6221 19.035 17.5456 19.2519 17.4478 19.4986C17.2111 20.185 17.0681 20.9002 17.0225 21.6248C16.9736 22.3502 17.0164 23.0789 17.1501 23.7936C17.4024 24.9003 17.8534 25.9521 18.4811 26.8979L19.4762 26.9957V26.9702C19.3018 26.7618 19.1658 26.5747 19.051 26.3876Z" fill="#FAE8C9"/>
<path d="M17.8137 26.4558C17.2483 25.4113 16.8889 24.2679 16.7548 23.0878C16.715 22.8059 16.6908 22.5219 16.6825 22.2373L16.4019 25.1375C16.5752 25.6991 16.8046 26.2419 17.0865 26.7577L18.0306 26.8513L17.9753 26.7577C17.92 26.6599 17.8647 26.5578 17.8137 26.4558Z" fill="#FAE8C9"/>
<path d="M19.6293 3.0248C19.3401 2.80367 19.0339 2.59955 18.7192 2.37842L18.5917 2.46347L18.4854 3.7945C18.6342 3.69244 18.783 3.58187 18.9361 3.48407L19.6293 3.0248Z" fill="#FAE8C9"/>
<path d="M16.359 25.8223L16.2739 26.6728L16.7587 26.7195C16.6652 26.5282 16.5673 26.3241 16.4653 26.0944C16.41 26.0136 16.359 25.9201 16.359 25.8223Z" fill="#FAE8C9"/>
<path d="M39.1014 16.8324C38.1904 16.1279 37.1459 15.6158 36.0311 15.327C35.6624 15.2181 35.2833 15.1482 34.8999 15.1186C34.6975 15.1037 34.4943 15.1037 34.2918 15.1186C34.1122 15.1194 33.9335 15.1437 33.7603 15.1909C33.6502 15.2207 33.5423 15.2576 33.4371 15.3015C33.3432 15.3289 33.2509 15.3616 33.1607 15.3993C32.9675 15.483 32.7685 15.5526 32.5653 15.6077C31.6779 15.8618 30.8096 16.1787 29.967 16.556C29.1025 16.9359 28.3031 17.4497 27.5984 18.0784C26.7897 18.7937 26.1802 19.7065 25.8294 20.7277C25.5041 21.7441 25.5041 22.8368 25.8294 23.8532C25.8749 24.0189 25.9361 24.1798 26.0122 24.3338C26.076 24.4741 26.1355 24.6059 26.1908 24.759L26.6458 25.5542C26.8457 25.8519 27.0711 26.2346 27.4198 26.7194C27.7129 27.1243 28.0325 27.5093 28.3766 27.8719L30.5369 28.0802C30.1365 27.8366 29.7716 27.5389 29.4525 27.1957C29.3844 27.1107 29.2143 26.9746 29.0783 26.847L28.8019 26.6131C28.6275 26.3835 28.5382 26.2346 28.4191 26.0943C28.2631 25.9064 28.121 25.7075 27.9939 25.499C27.852 25.2691 27.7338 25.0255 27.6409 24.7718C27.5771 24.5719 27.5431 24.3465 27.4538 24.0531C27.427 23.8824 27.3901 23.7134 27.3433 23.5471C27.3137 23.4385 27.2938 23.3275 27.2837 23.2154C27.2837 23.1006 27.2454 22.9772 27.2284 22.8582C27.1987 22.62 27.2284 22.3776 27.2284 22.1693C27.2365 22.0062 27.2578 21.8441 27.2922 21.6845C27.6467 20.2114 28.521 18.9158 29.7544 18.0358C31.1578 17.1187 32.8123 16.6623 34.4874 16.7303C35.3149 16.7733 36.1243 16.9876 36.8646 17.3597C37.5959 17.7361 38.254 18.2401 38.808 18.8481C39.0813 19.1068 39.3397 19.3808 39.5819 19.6688C39.7465 19.8607 39.8891 20.0704 40.0072 20.2939C40.0685 20.4101 40.1238 20.5293 40.173 20.6511C40.2156 20.7744 40.2581 20.8978 40.2921 21.0253C40.4044 21.4841 40.446 21.9573 40.4154 22.4287C40.4172 22.6938 40.3785 22.9577 40.3006 23.2111C40.2535 22.6353 40.1495 22.0655 39.9902 21.5101C39.8263 20.9356 39.5966 20.3819 39.3055 19.8602C39.2035 19.6645 39.0674 19.4902 38.9526 19.3031C38.8377 19.116 38.6804 18.9544 38.5273 18.7843C38.2226 18.4673 37.8864 18.1823 37.5237 17.9338C36.7883 17.4327 35.9498 17.1028 35.07 16.9685C34.4921 16.8642 33.9002 16.8642 33.3223 16.9685C32.9565 17.079 32.7694 17.1853 32.4165 17.3129C31.7438 17.5429 31.091 17.8273 30.4646 18.1634C29.8262 18.4962 29.2437 18.9267 28.7381 19.4392C28.1691 20.0348 27.7633 20.7671 27.5601 21.5654C27.3762 22.3604 27.425 23.1915 27.7005 23.9596C27.8849 24.3988 28.1143 24.8178 28.3851 25.2098C28.4659 25.3204 28.5467 25.4479 28.6403 25.5925L28.9975 26.0816C29.1293 26.2687 29.3079 26.4643 29.4993 26.7024C29.7329 26.9617 29.9799 27.2087 30.2392 27.4424L30.4986 27.672L30.9239 27.9782L31.0769 28.0887L37.0304 28.6628C37.1776 28.5747 37.3196 28.4782 37.4557 28.3737L37.8809 27.8166L37.9702 27.6975C38.1701 27.4381 38.3657 27.183 38.5571 26.9193L38.8377 26.5281L39.263 25.954C39.4969 25.6138 39.7265 25.2651 39.9476 24.9164L39.9774 24.8653C40.0114 24.7165 40.0369 24.5847 40.0625 24.4741C40.122 24.0489 40.173 23.8703 40.2071 23.6917C40.2411 23.513 40.2878 23.3344 40.3304 23.1984C40.3368 23.1946 40.3442 23.1927 40.3516 23.1927C40.3591 23.1927 40.3664 23.1946 40.3729 23.1984C40.3389 23.4493 40.3729 23.6236 40.3729 23.8618C40.3729 24.0999 40.3261 24.1977 40.3049 24.3508C40.9603 23.2632 41.529 22.1257 42.0059 20.9488C41.8709 20.3988 41.659 19.8705 41.3765 19.3796C40.7957 18.3872 40.0221 17.5211 39.1014 16.8324ZM38.876 22.3606C38.8629 22.5652 38.8079 22.765 38.7144 22.9475C38.6072 22.0941 38.3464 21.2671 37.9447 20.5065C37.8767 20.3619 37.7789 20.2344 37.6981 20.0813C37.6173 19.9282 37.5067 19.8219 37.4047 19.6986C37.1852 19.462 36.9399 19.2509 36.6732 19.0692C36.1365 18.7064 35.5269 18.4655 34.8872 18.3633C34.4675 18.2661 34.0311 18.2661 33.6114 18.3633C33.3478 18.4738 33.2245 18.5887 32.9778 18.712C32.5071 18.9197 32.0485 19.154 31.6042 19.4136C31.1455 19.6678 30.7282 19.9904 30.3668 20.3705C29.9563 20.8095 29.6535 21.338 29.4823 21.9141C29.3214 22.4799 29.3317 23.0807 29.512 23.6406C29.6334 23.955 29.7949 24.2523 29.9926 24.5251C30.1031 24.6825 30.2137 24.8824 30.4178 25.146C30.6629 25.5087 30.9482 25.8425 31.2683 26.1411C31.3066 26.1751 31.3704 26.2389 31.4512 26.3069L31.7446 26.5238C31.9572 26.6684 32.1698 26.796 32.2676 26.8428C32.8684 27.0529 33.4951 27.1802 34.1302 27.2212C34.4984 27.2718 34.8727 27.2574 35.2359 27.1787C35.7854 27.0456 36.2873 26.763 36.686 26.3622C36.8639 26.1978 37.0528 26.0458 37.2516 25.9072C37.3536 25.8307 37.4727 25.7669 37.5918 25.6946C37.7108 25.6223 37.8427 25.5457 37.9787 25.4649C38.1926 24.947 38.3577 24.4103 38.472 23.8618C38.5022 23.6704 38.5506 23.4825 38.6166 23.3004C38.6542 23.1766 38.7011 23.0557 38.7569 22.939C38.7643 22.9358 38.7723 22.9342 38.7803 22.9342C38.7884 22.9342 38.7963 22.9358 38.8037 22.939C38.791 23.1017 38.791 23.2652 38.8037 23.428C38.7782 23.5938 38.757 23.7129 38.7357 23.8532C38.7144 23.9936 38.6591 24.1254 38.6081 24.338C38.4385 24.9323 38.1634 25.4912 37.7959 25.988C37.6853 26.1156 37.5577 26.2942 37.3706 26.4813L37.2346 26.6344L37.0815 26.779L36.9114 26.9363L36.72 27.0724C36.1322 27.4586 35.4459 27.6681 34.7426 27.6762C34.112 27.6848 33.4842 27.59 32.8843 27.3956L32.5526 27.2637L32.2804 27.1447C32.1696 27.1002 32.0629 27.0461 31.9615 26.9831C31.4364 26.7802 30.9619 26.4653 30.5709 26.0603C30.4811 25.9706 30.3844 25.8882 30.2817 25.8136L30.1286 25.7031L30.0606 25.6563C29.9805 25.5151 29.888 25.3813 29.7842 25.2566C29.7076 25.1418 29.6098 25.0269 29.478 24.8101C29.3741 24.6352 29.3008 24.444 29.2611 24.2445C29.2224 24.064 29.1996 23.8804 29.1931 23.6959C29.1676 23.513 29.091 23.1643 29.0655 22.8029C29.0507 22.6303 29.0507 22.4567 29.0655 22.2841C29.0691 22.1618 29.0877 22.0404 29.1208 21.9226C29.3054 21.3834 29.5508 20.8669 29.8522 20.3832C30.1328 19.9086 30.5025 19.4928 30.9409 19.1585C31.9588 18.4166 33.1995 18.0445 34.4577 18.1039C35.0762 18.1457 35.6797 18.3135 36.231 18.5972C36.5013 18.7374 36.7589 18.9011 37.0007 19.0862C37.2431 19.2691 37.4557 19.4859 37.6811 19.6943C37.8214 19.8219 38.0638 20.0047 38.3274 20.2641C38.4371 20.4061 38.5245 20.5638 38.5868 20.7319C38.6336 20.8212 38.6804 20.9105 38.7187 21.0041C38.757 21.0976 38.774 21.1954 38.7995 21.289C38.892 21.6353 38.9251 21.9948 38.8973 22.3521L38.876 22.3606ZM33.5987 22.7859C33.6284 22.8624 33.6922 22.8879 33.722 22.9517C33.7518 23.0155 33.7773 23.1048 33.8836 23.2919C33.9019 23.3261 33.9248 23.3575 33.9516 23.3855L34.0452 23.4578C34.1031 23.4752 34.1633 23.4838 34.2238 23.4833C34.2816 23.4747 34.3403 23.4747 34.3981 23.4833C34.5002 23.4833 34.5938 23.4833 34.6023 23.4833C34.6581 23.4706 34.7086 23.4409 34.7468 23.3982C34.7827 23.3656 34.8141 23.3284 34.8404 23.2877C34.8914 23.2154 34.9765 23.1984 35.1678 23.1771C35.1813 23.0638 35.2026 22.9515 35.2316 22.8412C35.2349 22.8015 35.2514 22.7641 35.2784 22.7348L35.3507 22.6625C35.3507 22.7008 35.3507 22.7306 35.3507 22.7689C35.3496 22.8349 35.3351 22.9 35.3082 22.9602C35.2717 23.0866 35.2142 23.2059 35.1381 23.3132C35.0802 23.4061 35.0133 23.493 34.9382 23.5726C34.8141 23.6607 34.6651 23.7069 34.513 23.7044C34.3063 23.7185 34.1002 23.6695 33.9219 23.5641C33.8536 23.5421 33.7901 23.5075 33.7348 23.462C33.6913 23.4375 33.6582 23.3983 33.6412 23.3515C33.6412 23.3132 33.5264 23.2664 33.5221 23.2622C33.5221 23.1686 33.4753 23.1643 33.4243 23.0665C33.3947 22.987 33.3947 22.8994 33.4243 22.8199C33.4243 22.7774 33.4243 22.7093 33.386 22.6328C33.3697 22.5703 33.3611 22.506 33.3605 22.4414C33.4371 22.2245 33.4583 21.9269 33.6497 21.761C33.7602 21.6666 33.8909 21.5988 34.0317 21.5627C34.1724 21.5265 34.3196 21.5231 34.4619 21.5526C34.7272 21.6096 34.9628 21.7606 35.1253 21.9779C35.2192 22.0784 35.2916 22.1971 35.3379 22.3266C35.3975 22.4797 35.372 22.637 35.3039 22.6668C35.2769 22.4937 35.2313 22.324 35.1678 22.1608C35.0337 21.9317 34.8156 21.7639 34.5597 21.693C34.4874 21.693 34.3684 21.6207 34.2961 21.6675C34.2533 21.7039 34.2134 21.7437 34.177 21.7865C33.9934 21.8714 33.8252 21.9864 33.6795 22.1267C33.6123 22.2212 33.5697 22.331 33.5556 22.4461C33.5415 22.5612 33.5563 22.6779 33.5987 22.7859ZM34.6108 20.851C34.4398 20.8022 34.2586 20.8022 34.0877 20.851C33.9814 20.9063 33.9346 20.9658 33.8368 21.0168C33.4499 21.1805 33.0955 21.4124 32.7907 21.7015C32.6279 21.8732 32.5116 22.0836 32.4528 22.3128C32.394 22.542 32.3947 22.7824 32.4547 23.0113C32.5038 23.1376 32.5727 23.2553 32.6589 23.36C32.7909 23.6012 32.9539 23.8242 33.1437 24.0233C33.2639 24.1365 33.3983 24.2337 33.5434 24.3125C33.7892 24.388 34.0435 24.4323 34.3003 24.4443C34.3995 24.4508 34.4989 24.4508 34.598 24.4443C34.6788 24.4443 34.7341 24.4443 34.7426 24.4443C34.9619 24.3843 35.1605 24.2651 35.3167 24.0999C35.3848 24.0302 35.462 23.9701 35.5463 23.9213C35.6476 23.858 35.7543 23.8039 35.8653 23.7597C35.9886 23.4152 36.0141 23.2239 36.0566 23.1048C36.0623 23.0253 36.0825 22.9475 36.1161 22.8752C36.139 22.8256 36.1646 22.7773 36.1927 22.7306H36.2182C36.2118 22.7985 36.2118 22.8668 36.2182 22.9347C36.2145 23.062 36.1871 23.1874 36.1374 23.3047C36.1374 23.3557 36.1034 23.4152 36.0864 23.4748C36.0614 23.5317 36.033 23.5871 36.0013 23.6406C35.9758 23.7002 35.946 23.7597 35.9163 23.815L35.7972 23.9766C35.6791 24.1475 35.5357 24.2995 35.372 24.4273C35.2567 24.5104 35.1269 24.571 34.9892 24.6059L34.7766 24.6612C34.7043 24.6612 34.6278 24.6612 34.5555 24.6612C34.1577 24.6751 33.7632 24.5842 33.4116 24.3976C33.1946 24.3178 32.9994 24.1881 32.8417 24.0191C32.7772 23.9562 32.7059 23.9005 32.6291 23.8532C32.5441 23.7002 32.5058 23.6831 32.3952 23.5045C32.3557 23.4315 32.3284 23.3525 32.3144 23.2707C32.3067 23.1943 32.3067 23.1174 32.3144 23.041C32.3144 22.9645 32.2761 22.8199 32.2634 22.6753C32.2415 22.5558 32.2415 22.4333 32.2634 22.3138C32.3923 21.8672 32.6408 21.4643 32.9821 21.1487C33.3982 20.8331 33.9159 20.6818 34.4364 20.7234C34.6896 20.747 34.9357 20.8204 35.1604 20.9393C35.3852 21.0583 35.5843 21.2205 35.7462 21.4166C35.7887 21.4804 35.878 21.5654 35.9503 21.6802C36.0348 21.8123 36.1006 21.9554 36.1459 22.1055C36.1979 22.241 36.2225 22.3856 36.2182 22.5307C36.2286 22.6136 36.2106 22.6975 36.1672 22.7689C36.1447 22.6896 36.129 22.6085 36.1204 22.5265V22.3904L36.0821 22.2586C36.0617 22.1702 36.0346 22.0835 36.0013 21.9992C35.9631 21.9141 35.9205 21.8376 35.8865 21.7653C35.756 21.527 35.5736 21.3211 35.3528 21.1628C35.132 21.0045 34.8784 20.898 34.6108 20.851ZM34.7894 19.6986C34.4997 19.6092 34.1914 19.599 33.8963 19.6688C33.7135 19.7623 33.6369 19.8729 33.4711 19.9622C33.1819 20.1068 32.8587 20.2641 32.5355 20.4427C32.2184 20.6099 31.931 20.8283 31.685 21.0891C31.4048 21.3923 31.2045 21.7607 31.1025 22.1608C31.0125 22.5545 31.0421 22.9661 31.1875 23.3429C31.2808 23.5531 31.4008 23.7504 31.5447 23.9298C31.6255 24.0319 31.6936 24.1722 31.8126 24.355C31.9596 24.6131 32.1366 24.8529 32.3399 25.0695C32.4347 25.172 32.5371 25.2672 32.6461 25.3544C32.7572 25.4397 32.8737 25.5179 32.9948 25.5883C33.408 25.7205 33.8371 25.7963 34.2706 25.8136C34.5183 25.8503 34.7707 25.8402 35.0148 25.7839C35.3825 25.6853 35.7126 25.4796 35.9631 25.1928C36.075 25.0732 36.2057 24.9727 36.35 24.8951C36.5364 24.8018 36.7281 24.7194 36.9241 24.6485C37.048 24.2802 37.1516 23.9054 37.2346 23.5258C37.2543 23.3929 37.2945 23.2638 37.3536 23.1431C37.3921 23.0572 37.4376 22.9747 37.4897 22.8964C37.4971 22.8933 37.5051 22.8916 37.5131 22.8916C37.5211 22.8916 37.5291 22.8933 37.5365 22.8964C37.5257 23.011 37.5257 23.1263 37.5365 23.2409C37.5088 23.4517 37.4618 23.6595 37.3962 23.8618C37.273 24.2768 37.0803 24.6679 36.8263 25.0184C36.6168 25.3106 36.3727 25.5762 36.0991 25.8094C35.6843 26.0846 35.1979 26.2324 34.7001 26.2346C34.2566 26.2393 33.8154 26.1704 33.3946 26.0305C33.1688 25.9572 32.952 25.8588 32.7482 25.7371C32.3762 25.6024 32.0462 25.3721 31.7914 25.0695C31.6748 24.9493 31.5466 24.841 31.4086 24.7463C31.2924 24.5513 31.166 24.3625 31.0302 24.1807C30.9018 23.9364 30.8472 23.6602 30.8728 23.3855C30.8728 23.2579 30.7963 23.0155 30.7623 22.7604C30.7265 22.5535 30.7265 22.3421 30.7623 22.1352C30.8888 21.7494 31.0452 21.3741 31.23 21.0126C31.4071 20.6563 31.6613 20.344 31.9742 20.0983C32.7091 19.5586 33.6191 19.3129 34.5257 19.4094C35.3979 19.5108 36.1997 19.9375 36.771 20.6043C36.8646 20.7021 37.0092 20.851 37.1963 21.0296C37.3796 21.2292 37.5239 21.4614 37.6215 21.7142C37.6747 21.8378 37.7022 21.9709 37.7023 22.1055C37.6987 22.2264 37.6802 22.3464 37.647 22.4627C37.6291 22.6177 37.5687 22.7649 37.4727 22.8879C37.4132 22.6285 37.3579 22.3266 37.2601 22.0374C37.1899 21.7423 37.0842 21.4567 36.9454 21.1869C36.7209 20.7928 36.4105 20.4544 36.0372 20.1967C35.664 19.939 35.2375 19.7688 34.7894 19.6986Z" fill="#FAE8C9"/>
<path d="M41.8743 17.4447L41.5553 17.0195C41.4448 16.8792 41.3597 16.7261 41.2449 16.5942C41.0269 16.321 40.7881 16.0651 40.5305 15.8288L40.1435 15.4758L39.7183 15.1569C39.4397 14.9466 39.1486 14.7535 38.8465 14.5786C38.6977 14.485 38.5318 14.4255 38.3787 14.3447C38.2233 14.2648 38.0628 14.1952 37.8982 14.1363C37.5721 14.0129 37.2364 13.9162 36.8946 13.8471C36.7248 13.806 36.5531 13.7733 36.3801 13.7493L35.857 13.7068C34.934 13.6391 34.006 13.7137 33.1056 13.9279C32.5316 14.1023 32.2551 14.2384 31.664 14.434C30.5823 14.7876 29.529 15.2226 28.5129 15.7352C27.4796 16.2426 26.5244 16.8957 25.6765 17.6744C24.6975 18.5598 24.0058 19.718 23.6906 20.9998C23.4381 22.2844 23.6269 23.6165 24.2264 24.7803C24.5779 25.4657 25.0059 26.1091 25.5022 26.6982C25.7148 26.9576 25.9614 27.268 26.2931 27.638L27.7943 27.7826L27.5604 27.5529L27.1947 27.2638C26.9863 26.9491 26.8545 26.7662 26.7056 26.5791C26.5568 26.392 26.4292 26.1539 26.1911 25.7881C25.8625 25.203 25.6421 24.5634 25.5405 23.9C25.5192 23.7384 25.4597 23.5088 25.4044 23.2409C25.3491 22.973 25.3193 22.6541 25.3108 22.3394C25.3108 22.1863 25.3108 22.0289 25.3108 21.8759C25.3065 21.7333 25.3179 21.5907 25.3448 21.4506C25.3874 21.1827 25.4299 20.9616 25.4639 20.8297C26.1375 18.9993 27.4078 17.4489 29.07 16.4284C29.9997 15.876 31.0015 15.4553 32.0468 15.1782C33.0993 14.8867 34.1924 14.7689 35.2829 14.8295C36.3835 14.9458 37.4465 15.2967 38.4 15.8586C38.8758 16.1256 39.3269 16.4344 39.748 16.7814C40.1757 17.1243 40.5611 17.5169 40.8962 17.9508C41.209 18.3379 41.4932 18.7472 41.7467 19.1755C41.9533 19.5492 42.1187 19.9441 42.24 20.3535C42.4271 19.8389 42.5887 19.3244 42.7333 18.8098C42.6397 18.6397 42.5462 18.4739 42.4484 18.3165C42.2528 18.0188 42.0401 17.7382 41.8743 17.4447Z" fill="#FAE8C9"/>
<path d="M17.8094 13.7875L18.1113 13.4983L18.7704 12.8604C19.0383 12.6435 19.3615 12.4054 19.7655 12.0992L20.0845 11.8568L20.3821 11.6612L20.9094 11.321C21.184 11.1352 21.4679 10.9635 21.7599 10.8065C22.3128 10.5088 22.8358 10.2324 23.7246 9.81989C24.3837 9.49245 25.685 8.85457 26.982 8.26348C28.279 7.67238 29.559 7.13231 30.1501 6.9367C32.2747 6.16293 34.5109 5.73925 36.7713 5.68221C37.8816 5.66759 38.9901 5.77886 40.0754 6.01391C40.4369 6.0947 40.7899 6.19251 41.1386 6.29457C40.8426 5.84087 40.5203 5.40495 40.1733 4.98905C39.3672 4.84678 38.5508 4.7714 37.7323 4.76367C37.3964 4.76367 37.0562 4.76367 36.7202 4.78919H36.2142C36.0441 4.78919 35.8782 4.82746 35.7081 4.84447L34.7003 4.95929L33.6797 5.15065L33.1779 5.2442L32.6889 5.37603L31.7065 5.63543L30.7412 5.95862C30.5839 6.01391 30.4223 6.06494 30.2649 6.12447L29.7929 6.32009C29.1678 6.57524 28.5172 6.83038 27.9048 7.07703C27.2924 7.32367 26.6291 7.58733 26.0295 7.85098C24.7928 8.38256 23.5836 8.97582 22.4063 9.62853C21.9811 9.87943 21.6281 10.1091 21.2922 10.3174C20.9562 10.5258 20.6671 10.7427 20.3694 10.9638L19.9441 11.2785L19.5189 11.6315L19.0554 12.0057C18.8938 12.1332 18.7279 12.2693 18.5663 12.4309C18.4047 12.5925 18.2176 12.7414 18.039 12.9242L17.7583 13.2006L17.5542 13.4218L17.4819 14.1915L17.5457 14.1192L17.8094 13.7875Z" fill="#FAE8C9"/>
<path d="M19.0678 14.1659C19.4356 13.8141 19.8278 13.4886 20.2415 13.1921C21.0079 12.5976 21.8042 12.0427 22.6272 11.5294C24.5624 10.3555 26.6147 9.38634 28.7508 8.6377C29.2823 8.45059 29.8011 8.25498 30.3455 8.08488C30.8839 7.89508 31.4318 7.73327 31.9869 7.60009L32.8374 7.40448C33.1138 7.33218 33.403 7.31518 33.6879 7.2684L34.5384 7.14508L35.3889 7.10255C37.7035 6.99212 40.0064 7.49376 42.0653 8.5569L42.397 8.73551C42.1634 8.137 41.8877 7.55579 41.572 6.99624C40.4572 6.53894 39.2857 6.23426 38.0892 6.09046C35.581 5.87244 33.0556 6.21226 30.6942 7.08554C28.3357 7.92989 26.0418 8.94466 23.8306 10.1218C22.5343 10.8352 21.2946 11.6469 20.1224 12.55C19.2345 13.1784 18.4275 13.9139 17.7198 14.74C17.6092 14.8676 17.4859 14.9952 17.3753 15.1398L17.2393 16.5303C17.48 16.1231 17.7455 15.7312 18.0345 15.3566C18.3471 14.9332 18.6926 14.5351 19.0678 14.1659Z" fill="#FAE8C9"/>
<path d="M18.5661 10.6535C18.6548 10.5646 18.7485 10.4808 18.8468 10.4026C19.6122 9.78598 20.0928 9.45004 20.6073 9.08007L21.4578 8.50173C21.7938 8.30186 22.1722 8.04246 22.6825 7.7703C22.9589 7.61721 23.2098 7.47688 23.4395 7.34505L24.0816 7.03037C24.4686 6.83475 24.813 6.70718 25.1405 6.56684C25.8039 6.29894 26.4417 6.0693 27.5134 5.74186L28.2661 5.5505L28.4872 5.48671C28.5467 5.48671 28.6318 5.42717 28.7041 5.40166L29.1846 5.19329L29.6992 4.97641L30.2477 4.76804L30.8176 4.55116L31.3959 4.36405L32.5441 3.99408L33.6242 3.73043C33.9644 3.65388 34.2706 3.55608 34.547 3.52206L35.2316 3.42425L36.1757 3.30093L37.1368 3.2499C37.4557 3.2499 37.7746 3.20312 38.0978 3.20737H38.3317C37.8369 2.81455 37.3154 2.45648 36.7711 2.13574H36.6732C35.9163 2.24205 35.1509 2.33561 34.3982 2.49295C32.8885 2.77362 31.3916 3.14784 29.9075 3.54332C28.4197 3.90024 26.9622 4.37373 25.5487 4.9594C24.1605 5.57895 22.8359 6.33237 21.5939 7.20897C21.1346 7.51515 20.7434 7.82983 20.4032 8.09774C20.063 8.36565 19.7611 8.65907 19.4506 8.93548C18.9233 9.42452 18.4045 9.90931 17.8134 10.5344L17.7241 11.4572L17.9538 11.2276L18.5661 10.6535Z" fill="#FAE8C9"/>
<path d="M17.9325 12.3374L18.2259 12.0822C18.8775 11.5183 19.5712 11.0051 20.3011 10.5471C20.8667 10.1729 21.428 9.87093 22.3593 9.37338C23.0695 9.02043 24.4473 8.28049 25.8549 7.67239C27.2625 7.06428 28.6445 6.49444 29.2569 6.24355C31.4877 5.32721 33.8398 4.7399 36.2395 4.50002C37.4069 4.39173 38.5823 4.4017 39.7478 4.52979C39.4289 4.18959 39.0887 3.86215 38.7357 3.55172C37.7421 3.50593 36.7464 3.54292 35.7589 3.66228C35.0443 3.73487 34.3344 3.84846 33.6327 4.00248C33.284 4.07903 32.931 4.15132 32.5823 4.23212L31.5532 4.54255C30.8712 4.74512 30.1998 4.98215 29.5418 5.25271L29.0485 5.46534L28.8061 5.5674C28.7192 5.60867 28.6297 5.64418 28.5382 5.67371L27.5134 5.97564C26.6921 6.24524 25.8871 6.56187 25.1022 6.92395L24.5791 7.16634L24.0136 7.43425C23.6478 7.61285 23.2694 7.82122 22.8484 8.06362C21.7418 8.68417 20.6803 9.38189 19.6718 10.1516C18.9726 10.6956 18.304 11.2777 17.6688 11.8951L17.5923 12.6606L17.6688 12.5883L17.9325 12.3374Z" fill="#FAE8C9"/>
<path d="M27.658 2.45906L27.8026 2.41228H27.8451L27.9174 2.38677L28.198 2.28046L28.7551 2.07634C29.1251 1.9275 29.5078 1.81693 29.8863 1.69361C31.1208 1.30955 32.3776 1.00138 33.6497 0.770819C32.8941 0.575218 32.1169 0.475212 31.3364 0.473145C27.76 0.473145 24.8641 2.55687 23.0312 4.34717C23.8043 3.93833 24.5977 3.5693 25.4084 3.24152C26.1483 2.94951 26.8982 2.68869 27.658 2.45906Z" fill="#FAE8C9"/>
<path d="M19.302 8.42971C19.9144 7.96618 20.497 7.53243 21.5091 6.89881C22.7315 6.08676 24.0105 5.3634 25.3363 4.73429C25.7318 4.54292 26.1401 4.39409 26.527 4.23249C26.914 4.0709 27.301 3.94757 27.6539 3.84551C28.3599 3.62864 28.9297 3.45003 29.3167 3.36073C30.6179 3.02478 31.9447 2.7101 33.2715 2.41242C33.9391 2.26359 34.611 2.13601 35.2787 1.98717L36.2653 1.83408C35.9378 1.65548 35.6061 1.48538 35.2617 1.32804C34.9172 1.17069 34.611 1.05588 34.2836 0.945312L33.7946 1.08139L32.9441 1.26425C32.387 1.39182 31.8427 1.57468 31.1197 1.75329L30.6477 1.87236L30.1757 2.01694L29.2104 2.32312L28.2365 2.67608L27.9856 2.76963L27.722 2.85043L27.2032 3.02478C25.8034 3.45976 24.4422 4.01022 23.1335 4.6705C22.8529 4.81083 22.5807 4.95967 22.3086 5.09575C22.2363 5.17655 22.1597 5.25734 22.0959 5.33389L22.0236 5.25734C20.6145 6.06025 19.2871 6.99884 18.0603 8.05974L17.9072 9.64167C18.0688 9.49283 18.2219 9.3525 18.358 9.21642C18.7067 8.91874 19.0044 8.66359 19.302 8.42971Z" fill="#FAE8C9"/>
<path d="M21.8195 5.02308C21.5388 4.7169 21.2156 4.39371 20.8584 4.06201C19.9552 4.63292 19.0862 5.25627 18.2559 5.92886L18.0815 7.74893C19.0469 6.88793 20.0808 6.10714 21.1731 5.41431C21.3857 5.27823 21.6026 5.15065 21.8195 5.02308Z" fill="#FAE8C9"/>
<path d="M20.0124 3.32227C19.4624 3.65396 18.928 3.99983 18.4092 4.35987L18.3071 5.39748C19.0169 4.81198 19.7579 4.26544 20.5269 3.76027L20.0124 3.32227Z" fill="#FAE8C9"/>
</g>
<defs>
<clipPath id="clip0_5218_38102">
<rect width="42.7503" height="41.0536" fill="white" transform="translate(0.625 0.473145)"/>
</clipPath>
</defs>
</svg>
