<svg width="34" height="36" viewBox="0 0 34 36" fill="none" xmlns="http://www.w3.org/2000/svg">
<g clip-path="url(#clip0_298_5212)">
<path d="M20.3184 19.1167H5.97715e-07C-0.000490863 20.4888 0.302095 21.8433 0.885273 23.0797C1.46845 24.316 2.31723 25.4024 3.36853 26.2581C6.13529 31.9776 9.67674 33.83 12.7063 34.9273C13.642 35.2515 14.596 35.5177 15.563 35.7248L20.3184 19.1167Z" fill="#E62617"/>
<path d="M1.14475 12.3916C1.22983 12.4138 1.31905 12.4138 1.40413 12.3916C1.43995 12.3827 1.47096 12.3599 1.49059 12.3281C1.56067 12.2323 1.5983 12.1159 1.5978 11.9964C1.60464 11.8789 1.60464 11.7611 1.5978 11.6436C1.59269 11.5618 1.59969 11.4797 1.61856 11.4001L1.32113 11.0967C1.29554 11.28 1.25857 11.4615 1.21046 11.64C1.20553 11.6696 1.1962 11.6981 1.18279 11.7247C1.16906 11.7597 1.14779 11.7911 1.12054 11.8165C1.07671 11.8579 1.02309 11.8871 0.964909 11.9011C0.872132 11.9164 0.777552 11.9164 0.684775 11.9011C0.580163 11.8898 0.477 11.8673 0.376973 11.8341C0.258895 11.8158 0.142995 11.7851 0.0311279 11.7424V12.1446C0.148715 12.2046 0.276678 12.2646 0.325096 12.2822C0.553354 12.3493 0.899198 12.3493 1.14475 12.3916Z" fill="#E62617"/>
<path d="M0.44614 17.289C0.301289 17.2433 0.151431 17.216 0 17.2079L0 17.7548C0.065665 17.7513 0.131467 17.7513 0.197132 17.7548L0.408097 17.8007L0.515309 17.8536H1.40413C1.2766 17.7468 1.14386 17.6467 1.00641 17.5537C0.832282 17.4399 0.643797 17.3509 0.44614 17.289Z" fill="#E62617"/>
<path d="M0.456515 11.7142C0.550657 11.7265 0.645966 11.7265 0.740108 11.7142C0.809379 11.7058 0.877007 11.6867 0.940698 11.6577V11.6295V11.5801C0.953717 11.5415 0.959581 11.5009 0.95799 11.4601C0.978521 11.2737 0.978521 11.0855 0.95799 10.8991C0.954537 10.8745 0.954537 10.8496 0.95799 10.825L0.805818 10.5851C0.805726 10.6352 0.798741 10.6851 0.785068 10.7333C0.777264 10.7889 0.757159 10.842 0.726274 10.8885C0.726274 10.9168 0.726274 10.9344 0.708982 10.9591C0.699608 10.9811 0.686756 11.0013 0.670939 11.0191C0.653647 11.0191 0.639813 11.0544 0.622521 11.0685L0.560269 11.1002C0.489551 11.1226 0.416335 11.1356 0.342386 11.139C0.262424 11.145 0.182031 11.1391 0.103753 11.1214C0.0692559 11.1249 0.0344976 11.1249 0 11.1214L0 11.4742L0.114129 11.5519C0.223705 11.6154 0.338219 11.6697 0.456515 11.7142Z" fill="#E62617"/>
<path d="M0.318177 10.9627C0.355662 10.9475 0.395457 10.9391 0.435764 10.938C0.459667 10.9344 0.482285 10.9247 0.501475 10.9097C0.501475 10.9097 0.518767 10.8815 0.501475 10.878C0.514411 10.7607 0.514411 10.6424 0.501475 10.5251C0.502002 10.4939 0.509801 10.4632 0.524231 10.4356C0.538662 10.408 0.55931 10.3842 0.584478 10.3664L0 9.7489V10.938C0.0493427 10.9634 0.101632 10.9824 0.15563 10.9944C0.211156 10.993 0.266076 10.9823 0.318177 10.9627Z" fill="#E62617"/>
<path d="M1.48022 16.8127C1.63327 16.9388 1.79771 17.0499 1.97132 17.1443C2.07555 17.2007 2.18431 17.2479 2.29641 17.2855C2.40792 17.3272 2.5241 17.3544 2.64225 17.3666L2.81863 17.3913C2.87738 17.3948 2.93627 17.3948 2.99502 17.3913C3.11098 17.3908 3.22668 17.3802 3.34086 17.3596C3.81393 17.2985 4.2702 17.1413 4.68274 16.8973C5.08583 16.6419 5.42366 16.2924 5.6684 15.8776C5.71336 15.8036 5.75486 15.7259 5.7929 15.6483L5.10121 14.9426C5.08046 14.9779 5.05971 15.0132 5.03204 15.052C4.96016 15.2175 4.87332 15.3758 4.77266 15.5248C4.62726 15.7061 4.45307 15.8611 4.25735 15.9835C3.9311 16.1971 3.55524 16.3189 3.16794 16.3363C2.96589 16.3412 2.7649 16.3052 2.57654 16.2305C2.40161 16.1464 2.23872 16.0384 2.09236 15.9094C1.97854 15.8162 1.84456 15.7521 1.70156 15.7224C1.555 15.6976 1.40543 15.6976 1.25888 15.7224H1.20008H1.10324C1.04342 15.7279 0.98323 15.7279 0.923406 15.7224C0.823433 15.7019 0.725154 15.6736 0.629438 15.6377C0.449598 15.5707 0.283593 15.4966 0.138338 15.4295L0 15.3625V16.0364C0.337225 16.121 0.660949 16.254 0.961448 16.4316C1.1441 16.5442 1.31758 16.6717 1.48022 16.8127Z" fill="#E62617"/>
<path d="M1.124 15.3801C1.20354 15.3801 1.32113 15.3801 1.41796 15.3801C1.62916 15.3791 1.83765 15.4286 2.02665 15.5248C2.19566 15.6328 2.35848 15.7506 2.51429 15.8776C2.66799 15.9839 2.85102 16.0371 3.03652 16.0294C3.787 16.0294 4.57899 15.6307 4.8107 14.9215L4.88679 14.7274L4.44411 14.2758C4.42336 14.3181 4.40952 14.3604 4.38877 14.4028C4.28897 14.6125 4.16472 14.8092 4.01872 14.9885C3.9215 15.1102 3.80452 15.2141 3.67287 15.2955C3.51598 15.3917 3.33284 15.4338 3.15065 15.4154C3.05567 15.4005 2.96351 15.3708 2.87743 15.3272L2.76676 15.2637L2.65955 15.2002C2.58692 15.1579 2.51429 15.112 2.43821 15.0732L2.19957 14.9814C2.12003 14.9532 2.03357 14.9461 1.95056 14.925C1.86756 14.9038 1.77764 14.925 1.69118 14.925C1.5148 14.925 1.34534 14.9497 1.13783 14.925C0.769988 14.8835 0.416906 14.7541 0.107212 14.5474L0 14.491V14.8438C0.31126 15.0026 0.584478 15.1967 0.857695 15.299C0.940913 15.3423 1.03114 15.3698 1.124 15.3801Z" fill="#E62617"/>
<path d="M0.525664 14.5263C0.598291 14.558 0.66746 14.5898 0.740087 14.6145C0.803688 14.6411 0.869723 14.6612 0.937219 14.6745C1.05092 14.6984 1.16708 14.7078 1.28306 14.7027L1.70154 14.678C2.07523 14.6747 2.443 14.7733 2.76674 14.9638L2.88087 15.0202L2.97424 15.0626L3.06071 15.1014H3.14717C3.25215 15.1179 3.35954 15.1057 3.45843 15.0661C3.66987 14.9401 3.85542 14.7736 4.00486 14.5757C4.10862 14.4487 4.21237 14.311 4.31612 14.1629L3.71089 13.5454C3.6804 13.6043 3.64572 13.6609 3.60714 13.7147C3.56564 13.7783 3.51722 13.8312 3.47226 13.8876C3.41794 13.9442 3.36019 13.9972 3.29934 14.0464C3.03564 14.208 2.72105 14.2599 2.42089 14.1911C1.85025 14.0817 1.34877 13.87 0.937219 13.7606C0.525664 13.6512 0.245529 13.5807 0.134859 13.5595C0.0898991 13.5595 0.0449393 13.5595 -0.003479 13.5383V14.244L0.0587731 14.2722C0.231695 14.371 0.37695 14.4663 0.525664 14.5263Z" fill="#E62617"/>
<path d="M1.954 13.8524C2.15771 13.9155 2.36581 13.9627 2.57652 13.9936C2.65607 13.9936 2.72178 13.9936 2.77365 13.9936C2.80426 13.9918 2.8345 13.9859 2.86357 13.9759C2.97898 13.9539 3.08767 13.9043 3.18081 13.8314C3.27394 13.7584 3.34891 13.6641 3.39963 13.5561C3.44482 13.4828 3.48193 13.4047 3.5103 13.3232L2.65607 12.4552C2.65329 12.6654 2.62305 12.8742 2.56615 13.0762C2.54683 13.1375 2.52134 13.1966 2.49006 13.2526L2.42089 13.3444C2.40014 13.3726 2.37247 13.3937 2.34827 13.422C2.29307 13.4665 2.22755 13.4956 2.15805 13.5067C2.08886 13.5116 2.0194 13.502 1.954 13.4784L1.86062 13.4396L1.80529 13.4079C1.76068 13.3854 1.71443 13.3665 1.66695 13.3514C1.57431 13.3188 1.47954 13.2929 1.38336 13.2738C1.21102 13.2328 1.03671 13.201 0.861133 13.1785C0.546414 13.1362 0.314698 13.1044 0.242071 13.0903H-0.003479V13.4008C0.145234 13.429 0.273197 13.4608 0.342366 13.4749C0.886539 13.5675 1.42473 13.6936 1.954 13.8524Z" fill="#E62617"/>
<path d="M1.6566 13.0549C1.75436 13.0789 1.8494 13.1132 1.94019 13.1573L2.00244 13.182H2.02665C2.04262 13.1854 2.0591 13.1854 2.07507 13.182C2.09463 13.1884 2.11575 13.1881 2.13514 13.1811C2.15452 13.1741 2.1711 13.1608 2.18228 13.1431C2.22456 13.0868 2.25088 13.0197 2.25837 12.9491C2.27401 12.8678 2.28097 12.7849 2.27912 12.7021C2.27912 12.5257 2.27912 12.3493 2.25145 12.1905C2.24799 12.1388 2.24799 12.0869 2.25145 12.0352L1.98515 11.7635V11.82C1.97245 11.9848 1.93148 12.146 1.8641 12.2963C1.82469 12.3814 1.76788 12.457 1.69749 12.5178C1.6271 12.5787 1.54476 12.6235 1.45601 12.6492C1.29637 12.6835 1.13146 12.6835 0.971824 12.6492C0.830028 12.6209 0.698607 12.5892 0.584478 12.561C0.436734 12.5223 0.291247 12.4752 0.148713 12.4198L0 12.381V12.8503L0.397722 12.9279C0.820603 12.9239 1.24267 12.9665 1.6566 13.0549Z" fill="#E62617"/>
<path d="M5.95888 17.3208C6.05523 17.2272 6.14644 17.1283 6.2321 17.0244C6.36347 16.8495 6.47921 16.6629 6.57795 16.4669L5.92776 15.8036C5.89663 15.86 5.86897 15.9165 5.83438 15.9694C5.76521 16.0929 5.68221 16.2094 5.60958 16.3223C5.53695 16.4352 5.44012 16.5269 5.36403 16.6222C5.23402 16.7642 5.08771 16.8898 4.92827 16.9962C4.55254 17.2358 4.13977 17.4088 3.70743 17.5078C3.26932 17.6311 2.8099 17.654 2.3621 17.5748C1.92874 17.4676 1.52301 17.2667 1.17239 16.9856C1.02127 16.8742 0.860341 16.7773 0.691668 16.6963C0.52844 16.6157 0.359684 16.5473 0.186735 16.4916C0.121024 16.4705 0.0518555 16.4563 -0.013855 16.4387V16.8903C0.210273 16.9093 0.430478 16.9616 0.639792 17.0456C1.06371 17.2464 1.45087 17.5197 1.78454 17.8536H5.03202L5.28449 17.7442C5.34713 17.7196 5.40833 17.6913 5.46778 17.6595L5.64071 17.5607C5.75179 17.4879 5.85808 17.4078 5.95888 17.3208Z" fill="#E62617"/>
<path d="M7.37343 17.2678L7.02758 16.9326C6.97225 17.109 6.91691 17.2855 6.84429 17.476C6.79093 17.6102 6.72121 17.7371 6.63678 17.8535H7.15901C7.23163 17.6665 7.28697 17.4689 7.35614 17.2713L7.37343 17.2678Z" fill="#E62617"/>
<path d="M7.50137 17.402C7.45296 17.5431 7.408 17.6984 7.35266 17.8536H7.95443L7.50137 17.402Z" fill="#E62617"/>
<path d="M6.91689 16.7986L6.71284 16.5869C6.61809 16.7691 6.50817 16.9426 6.38429 17.1056C6.2875 17.2305 6.18234 17.3484 6.06957 17.4584C5.96201 17.5577 5.8463 17.6474 5.72372 17.7266C5.65558 17.7715 5.58516 17.8127 5.51276 17.8501H6.41887L6.4742 17.7971C6.56166 17.6898 6.63491 17.5711 6.69209 17.4443C6.77509 17.2361 6.83734 17.0174 6.91689 16.7986Z" fill="#E62617"/>
<path d="M33.4328 25.6019C33.5677 25.3973 33.6818 25.2491 33.7787 25.0833L32.7135 22.684C32.7028 22.7682 32.6878 22.8518 32.6685 22.9345C32.6271 23.1708 32.5376 23.3955 32.4057 23.5943C32.5188 23.1776 32.5678 22.7455 32.5509 22.3135L31.3128 19.5261C31.0623 19.2352 30.7829 18.9715 30.4793 18.7392C29.8656 18.2458 29.1594 17.8855 28.4042 17.6807C28.1523 17.6075 27.894 17.559 27.633 17.5361C27.496 17.5272 27.3585 17.5272 27.2215 17.5361C27.0989 17.5369 26.9769 17.5535 26.8583 17.5855C26.7843 17.607 26.7115 17.6329 26.6404 17.6631C26.5713 17.6878 26.509 17.7019 26.4502 17.7301C26.3194 17.7903 26.1841 17.8399 26.0456 17.8783C25.4365 18.0529 24.8401 18.271 24.261 18.5311C23.6726 18.7932 23.1295 19.1506 22.6528 19.5896C22.0982 20.0891 21.681 20.7276 21.4424 21.442C21.221 22.1489 21.221 22.9086 21.4424 23.6155C21.4731 23.7299 21.5148 23.841 21.5669 23.9471L21.6879 24.2259C21.7848 24.3952 21.8782 24.5787 21.9957 24.7798C22.1133 24.9809 22.2759 25.2526 22.5249 25.5878C22.8475 26.0403 23.2136 26.4587 23.6178 26.8369L23.846 27.0486C23.9463 27.1403 24.0743 27.232 24.1919 27.3308L24.3786 27.4755L24.5585 27.5955L24.8178 27.7613C25.5222 28.1194 26.2792 28.3578 27.0589 28.467L27.5708 28.5058H28.01C28.2624 28.5058 28.4319 28.5058 28.4734 28.5058C29.1886 28.5139 29.8969 28.3621 30.5485 28.0612C30.8102 27.9331 31.0544 27.7706 31.2748 27.5778C31.5224 27.3698 31.728 27.1145 31.88 26.8263C31.9397 26.3913 31.9721 25.9529 31.9768 25.5137C31.9899 25.2465 32.0176 24.9803 32.0598 24.7163C32.091 24.4736 32.1538 24.2363 32.2466 24.0106C32.3025 23.8707 32.3684 23.735 32.4437 23.6049C32.4478 23.602 32.4526 23.6004 32.4575 23.6004C32.4625 23.6004 32.4673 23.602 32.4714 23.6049C32.4068 23.7889 32.3559 23.9776 32.3192 24.1694C32.2272 24.5246 32.1636 24.8869 32.129 25.2526C32.0944 25.5808 32.084 25.9583 32.046 26.3111C32.0139 26.7078 31.8958 27.0923 31.7001 27.4367C31.5583 27.6604 31.3833 27.8604 31.1814 28.0295C30.9048 28.2565 30.5877 28.4266 30.2476 28.5305C29.4568 28.7322 28.6396 28.8036 27.8267 28.7422H27.5223L27.2145 28.7175C26.8352 28.6764 26.4609 28.596 26.0975 28.4776C25.9263 28.4344 25.7578 28.3814 25.5925 28.3188C25.2128 28.1684 24.849 27.9792 24.5066 27.7542C23.913 27.4304 23.3737 27.0123 22.9088 26.5158C22.8431 26.4452 22.7082 26.3076 22.5871 26.1912L22.3554 25.9724C22.2136 25.7536 22.1237 25.6196 22.0096 25.4961C21.8954 25.3726 21.8194 25.2067 21.6637 24.9492C21.4489 24.5418 21.3072 24.0985 21.2453 23.6402C21.2453 23.5308 21.1865 23.3685 21.1519 23.1815C21.1173 22.9945 21.0965 22.7722 21.0965 22.5534C21.0965 22.444 21.0965 22.3382 21.0965 22.2323C21.0925 22.1331 21.0994 22.0336 21.1173 21.9359C21.1484 21.7525 21.1761 21.5831 21.2003 21.5055C21.6594 20.2347 22.5243 19.1584 23.6558 18.4499C24.2887 18.0654 24.9707 17.7721 25.6824 17.5784C26.3994 17.3782 27.1433 17.2972 27.8855 17.3385C28.6344 17.417 29.3584 17.6576 30.009 18.0441C30.3296 18.2366 30.6339 18.4561 30.9185 18.7004L30.9566 18.7357L30.2649 17.1621C30.1715 17.1091 30.0712 17.0668 29.9744 17.0174C29.8699 16.9605 29.7612 16.9122 29.6493 16.8727C29.4254 16.7828 29.1939 16.7143 28.9576 16.6681C28.8435 16.6469 28.7259 16.6152 28.6118 16.601L28.2659 16.5728C27.6381 16.525 27.0069 16.5774 26.3949 16.7281C26.0041 16.848 25.8 16.9398 25.4127 17.0809C24.6737 17.3318 23.9536 17.6372 23.2581 17.9948C22.6637 18.2963 22.1055 18.6669 21.5946 19.0991V19.1274L20.2112 23.9753C20.2492 24.0777 20.2942 24.1765 20.3391 24.2753C20.5785 24.7509 20.8685 25.1981 21.2038 25.609C21.3905 25.8454 21.6222 26.1382 21.9715 26.5122C22.4365 27.0078 22.9409 27.4633 23.4794 27.8742C23.6039 27.9695 23.9152 28.1988 24.2437 28.4105C24.5723 28.6222 24.9078 28.8092 25.0461 28.8798C25.918 29.302 26.8533 29.5716 27.8129 29.6772C28.7224 29.7019 29.4556 29.7584 29.5421 29.7442C30.0055 29.7621 30.4694 29.7278 30.9255 29.6419C31.1309 29.5968 31.3314 29.5306 31.5238 29.4443C31.9618 28.926 32.3695 28.3816 32.7446 27.8142C32.8103 27.5955 32.8795 27.3696 32.9556 27.1332C32.9873 26.8356 33.0404 26.5408 33.1147 26.2511C33.1869 26.0191 33.2942 25.8001 33.4328 25.6019ZM31.3578 22.624C31.3575 22.8081 31.3307 22.9912 31.2782 23.1674C31.2449 22.7662 31.1742 22.3693 31.0673 21.9818C30.9553 21.5831 30.7974 21.1994 30.5969 20.8386C30.5239 20.7052 30.4443 20.5756 30.3583 20.4505C30.2718 20.3235 30.175 20.2106 30.0781 20.0977C29.8698 19.8735 29.6379 19.6735 29.3864 19.5014C28.8884 19.1551 28.3194 18.9295 27.7229 18.8416C27.3307 18.7692 26.9289 18.7692 26.5367 18.8416C26.2877 18.9192 26.1597 18.9933 25.9176 19.0815C24.983 19.3738 24.1264 19.8808 23.4137 20.5634C23.0271 20.9806 22.752 21.4921 22.6148 22.0489C22.4868 22.6005 22.5205 23.1784 22.7116 23.7107C22.834 24.0138 22.9882 24.3025 23.1716 24.5716C23.2269 24.6493 23.2823 24.7375 23.3445 24.8398C23.4068 24.9421 23.4967 25.048 23.5866 25.1926C23.6765 25.3373 23.8011 25.4573 23.9325 25.6231C24.0639 25.7889 24.2299 25.9759 24.4374 26.1382C24.7262 26.4045 25.0401 26.6409 25.3746 26.8439C25.923 27.101 26.5058 27.2734 27.1039 27.3555C27.453 27.4155 27.8095 27.4155 28.1587 27.3555C28.6885 27.256 29.1794 27.0037 29.5732 26.6287C29.6562 26.5475 29.7461 26.4734 29.8291 26.3958C29.9103 26.2957 29.9969 26.2002 30.0885 26.11C30.1715 26.0253 30.2649 25.9442 30.3617 25.863C30.4586 25.7819 30.5519 25.6831 30.6592 25.5878C30.8719 25.0986 31.0286 24.5859 31.126 24.06C31.1675 23.7636 31.2021 23.6437 31.2263 23.5167C31.2505 23.3896 31.2782 23.2697 31.3093 23.1638C31.3183 23.1609 31.328 23.1609 31.337 23.1638C31.3163 23.3402 31.337 23.4673 31.337 23.626C31.337 23.7848 31.3024 23.8942 31.2851 24.0177C31.2678 24.1412 31.2263 24.2788 31.1848 24.4764C31.0509 25.0387 30.8164 25.571 30.4931 26.0465C30.3671 26.2106 30.232 26.3673 30.0885 26.5158C29.7886 26.8677 29.4159 27.1473 28.9972 27.3347C28.5786 27.522 28.1245 27.6122 27.6676 27.599C27.0849 27.5911 26.5088 27.4714 25.9695 27.2462C25.6759 27.1361 25.3943 26.9954 25.1291 26.8263C24.6641 26.5931 24.2409 26.2818 23.8771 25.9054C23.8287 25.8454 23.7146 25.7536 23.6212 25.6619L23.4345 25.4996C23.3169 25.3408 23.2546 25.2385 23.1751 25.1468C23.0702 25.016 22.9743 24.8781 22.888 24.7339C22.7931 24.5743 22.7143 24.4053 22.6528 24.2294C22.6079 24.0883 22.5837 23.9506 22.5249 23.7319C22.5249 23.6437 22.4834 23.5237 22.4488 23.3791C22.4136 23.2219 22.387 23.0629 22.3693 22.9027C22.361 22.7429 22.361 22.5827 22.3693 22.4229C22.3729 22.304 22.3879 22.1858 22.4142 22.07C22.6623 21.049 23.2642 20.1541 24.1089 19.5508C25.0636 18.9225 26.1869 18.6141 27.3218 18.6687C27.8848 18.6984 28.4357 18.8461 28.9403 19.1027C29.4377 19.3656 29.886 19.7155 30.2649 20.1365C30.3859 20.2635 30.5831 20.454 30.7906 20.7081C30.8993 20.8418 30.9932 20.9874 31.0707 21.1421C31.1088 21.2232 31.1503 21.3044 31.1848 21.389C31.2194 21.4737 31.2402 21.5619 31.2644 21.6501C31.3432 21.9682 31.3758 22.2963 31.3612 22.624H31.3578ZM26.7269 22.871C26.7269 22.9274 26.7891 22.9415 26.8099 22.9874C26.8307 23.0333 26.8445 23.0933 26.9171 23.2238C26.9344 23.2471 26.9541 23.2684 26.9759 23.2873L27.0382 23.3402C27.0783 23.3459 27.119 23.3459 27.1592 23.3402C27.1982 23.3349 27.2378 23.3349 27.2768 23.3402C27.3494 23.3402 27.4117 23.3402 27.4151 23.3402C27.4535 23.3324 27.4885 23.3127 27.5154 23.2838C27.5409 23.2613 27.5631 23.2352 27.5811 23.2062C27.6157 23.1568 27.6711 23.1462 27.8025 23.1321C27.8118 23.0534 27.8268 22.9756 27.8474 22.8992C27.8501 22.8708 27.8609 22.8437 27.8786 22.8216C27.8929 22.8034 27.9092 22.7868 27.927 22.7722C27.927 22.7969 27.927 22.818 27.927 22.8427C27.9264 22.8888 27.917 22.9344 27.8993 22.9768C27.8729 23.0638 27.8332 23.1459 27.7817 23.2203C27.7429 23.2859 27.6977 23.3473 27.6468 23.4038C27.5597 23.463 27.4575 23.4948 27.3529 23.4955C27.2208 23.5023 27.0896 23.4692 26.9759 23.4002C26.9288 23.3862 26.8852 23.3622 26.8479 23.3297C26.8099 23.305 26.7857 23.2767 26.7857 23.2556C26.7857 23.2344 26.7061 23.1956 26.7061 23.1956C26.7061 23.1285 26.6716 23.125 26.637 23.058C26.618 23.002 26.618 22.9411 26.637 22.8851C26.6353 22.8406 26.6271 22.7966 26.6128 22.7545C26.6009 22.712 26.594 22.6682 26.592 22.624C26.6474 22.4723 26.6612 22.2711 26.7926 22.1512C26.8678 22.0854 26.9568 22.0382 27.0528 22.0131C27.1487 21.9881 27.249 21.9858 27.346 22.0065C27.5253 22.0462 27.6848 22.1501 27.7956 22.2994C27.8597 22.3696 27.9091 22.4524 27.9408 22.5428C27.9823 22.6487 27.9616 22.7581 27.9201 22.7792C27.8751 22.6769 27.8786 22.5252 27.8129 22.4264C27.7215 22.2669 27.5725 22.1504 27.3978 22.1018C27.3494 22.1018 27.2699 22.0489 27.218 22.0806C27.1661 22.1124 27.1661 22.1371 27.1385 22.1653C27.0107 22.2232 26.8937 22.3032 26.7926 22.4017C26.7417 22.4669 26.7091 22.545 26.6981 22.6276C26.6871 22.7102 26.6983 22.7943 26.7304 22.871H26.7269ZM27.4186 21.5267C27.3054 21.4951 27.186 21.4951 27.0727 21.5267C27.0001 21.5655 26.969 21.6043 26.8998 21.6396C26.6367 21.7558 26.3955 21.9182 26.1874 22.1194C26.0724 22.2371 25.9891 22.383 25.9455 22.5431C25.9019 22.7031 25.8994 22.872 25.9384 23.0333C25.9733 23.1205 26.0198 23.2025 26.0767 23.2767C26.1721 23.4442 26.2884 23.5984 26.4226 23.7354C26.5054 23.8134 26.5971 23.8809 26.6958 23.9365C26.9592 24.0219 27.2373 24.0495 27.512 24.0177C27.6605 23.9763 27.7947 23.8931 27.8993 23.7778C27.9458 23.73 27.9981 23.6885 28.0549 23.6543C28.1242 23.6102 28.1971 23.5725 28.2728 23.5414C28.3593 23.305 28.3766 23.1885 28.4042 23.0862C28.4095 23.0313 28.4235 22.9777 28.4457 22.9274C28.463 22.8921 28.4803 22.8533 28.4976 22.8251C28.4907 22.8719 28.4907 22.9195 28.4976 22.9662C28.4934 23.0546 28.4747 23.1417 28.4423 23.2238C28.4423 23.2591 28.4181 23.2979 28.4077 23.3402C28.3973 23.3826 28.3697 23.4179 28.3489 23.4567L28.2901 23.5802L28.2106 23.6895C28.1301 23.8088 28.0321 23.9147 27.9201 24.0036C27.8414 24.0601 27.7536 24.1019 27.6607 24.1271L27.5154 24.1659H27.3667C27.1014 24.1786 26.8376 24.1189 26.6024 23.993C26.4533 23.9395 26.3192 23.8499 26.2116 23.7319C26.1684 23.6892 26.1208 23.6514 26.0698 23.619C26.011 23.5096 25.9833 23.499 25.9107 23.372C25.8813 23.3221 25.8614 23.2671 25.8519 23.2097C25.8475 23.1569 25.8475 23.1037 25.8519 23.0509C25.8519 23.0015 25.8242 22.8992 25.8173 22.7969C25.8036 22.714 25.8036 22.6293 25.8173 22.5464C25.9055 22.2362 26.0753 21.9568 26.3084 21.7384C26.5891 21.5136 26.9415 21.403 27.2975 21.4279C27.4696 21.4433 27.6369 21.4936 27.7895 21.5761C27.9422 21.6585 28.0771 21.7712 28.1864 21.9077C28.2175 21.9536 28.2763 22.0136 28.3282 22.0947C28.384 22.183 28.4293 22.2777 28.463 22.377C28.4922 22.4486 28.5071 22.5253 28.5071 22.6028C28.5071 22.6803 28.4922 22.757 28.463 22.8286C28.4363 22.583 28.3673 22.3441 28.259 22.123C28.1687 21.9678 28.0471 21.8341 27.9021 21.7307C27.7572 21.6272 27.5924 21.5565 27.4186 21.5231V21.5267ZM27.5362 20.7292C27.3401 20.666 27.1308 20.6587 26.9309 20.7081C26.8064 20.7716 26.7546 20.8492 26.6404 20.9092C26.4398 21.0115 26.222 21.1209 26.0006 21.262C25.783 21.3776 25.5855 21.529 25.4161 21.7101C25.229 21.9247 25.096 22.1827 25.0288 22.4617C24.9685 22.7345 24.9889 23.0194 25.0876 23.2803C25.1493 23.4275 25.2308 23.5652 25.3297 23.6895C25.385 23.7601 25.43 23.8554 25.5095 23.9859C25.6084 24.163 25.7243 24.3296 25.8554 24.4834C25.9209 24.5533 25.9914 24.6182 26.0663 24.6775C26.1406 24.7376 26.2192 24.7919 26.3015 24.8398C26.5806 24.9304 26.8701 24.9838 27.1627 24.9986C27.3747 25.034 27.5921 25.013 27.7939 24.9376C27.9956 24.8622 28.1749 24.7349 28.3143 24.5681C28.3904 24.4847 28.4791 24.4145 28.5772 24.3599C28.7043 24.2963 28.8348 24.2398 28.968 24.1906C29.0526 23.9349 29.123 23.6746 29.1789 23.4108C29.1923 23.3175 29.2203 23.2269 29.2619 23.1426C29.2895 23.0831 29.3207 23.0254 29.3553 22.9698H29.3968C29.3899 23.0496 29.3899 23.1299 29.3968 23.2097C29.3823 23.3555 29.3545 23.4996 29.3138 23.6402C29.229 23.9289 29.0968 24.2009 28.923 24.4446C28.7817 24.6445 28.6154 24.8248 28.4285 24.9809C28.1467 25.1726 27.816 25.2757 27.4774 25.2773C27.1755 25.2801 26.8753 25.2324 26.5886 25.1362C26.4341 25.0876 26.2864 25.0189 26.1493 24.9315C25.8954 24.8389 25.6699 24.6794 25.4957 24.4693C25.4228 24.3921 25.3388 24.3267 25.2467 24.2753C25.1533 24.0812 25.1049 24.0671 24.9804 23.8519C24.8898 23.6789 24.8513 23.4825 24.8697 23.2873C24.8697 23.1991 24.8213 23.0333 24.7971 22.8569C24.7712 22.7122 24.7712 22.564 24.7971 22.4193C24.8828 22.1524 24.9892 21.8928 25.1153 21.6431C25.2348 21.3955 25.4074 21.1784 25.6202 21.008C26.1188 20.6359 26.7347 20.465 27.3494 20.5281C27.9434 20.5998 28.4892 20.8971 28.8781 21.3608C29.116 21.5765 29.3099 21.8378 29.4487 22.13C29.4845 22.2171 29.5022 22.3108 29.5006 22.4052C29.4986 22.4887 29.487 22.5716 29.466 22.6522C29.4532 22.7567 29.4125 22.8555 29.3484 22.938C29.3069 22.7581 29.2689 22.5499 29.2031 22.3452C29.1552 22.1414 29.082 21.9445 28.9853 21.7595C28.8344 21.4883 28.626 21.255 28.3752 21.0768C28.1245 20.8985 27.8378 20.7797 27.5362 20.7292ZM29.3173 20.7292C29.1669 20.5669 28.9999 20.4215 28.8193 20.2953C28.4553 20.0419 28.0407 19.8743 27.6053 19.8048C27.3186 19.7377 27.0206 19.7377 26.7338 19.8048C26.554 19.886 26.471 19.9636 26.3015 20.0483C25.9821 20.1938 25.6704 20.3563 25.3677 20.5352C25.0551 20.7114 24.7706 20.9351 24.5239 21.1985C24.2458 21.5054 24.041 21.8737 23.9256 22.2747C23.8077 22.6643 23.8077 23.0811 23.9256 23.4708C24.0138 23.6912 24.1301 23.8988 24.2714 24.0883C24.344 24.1941 24.4236 24.3352 24.555 24.5152C24.7213 24.7725 24.9163 25.0093 25.136 25.2209L25.2605 25.3373L25.4611 25.4855C25.5716 25.567 25.6872 25.6413 25.807 25.7078C26.2153 25.8535 26.6411 25.9425 27.0727 25.9724C27.324 26.0066 27.5791 25.9958 27.8267 25.9407C28.1997 25.848 28.5406 25.6527 28.8123 25.3761C28.9337 25.2607 29.0631 25.1546 29.1997 25.0586C29.2654 25.0056 29.3484 24.9633 29.4279 24.9104C29.5075 24.8574 29.6009 24.808 29.6942 24.7516C29.8425 24.3914 29.9582 24.0182 30.0401 23.6366C30.0611 23.5034 30.0935 23.3724 30.1369 23.245C30.1638 23.1594 30.1962 23.0757 30.2338 22.9945H30.2649C30.2576 23.112 30.2576 23.2298 30.2649 23.3473L30.2199 23.6366C30.1992 23.7284 30.1681 23.8272 30.1335 23.9895C30.0175 24.4019 29.8288 24.7893 29.5767 25.1327C29.3717 25.4167 29.1283 25.6697 28.8538 25.8842C28.4538 26.1521 27.987 26.2978 27.5085 26.3041C27.0789 26.3115 26.6512 26.2459 26.2427 26.11L26.0075 26.0289L25.8242 25.9442C25.748 25.9143 25.675 25.8765 25.6064 25.8313C25.249 25.6907 24.9257 25.4728 24.6587 25.1926C24.5995 25.1278 24.5334 25.0698 24.4616 25.0197L24.3579 24.9421L24.3129 24.9104C24.2582 24.8127 24.1945 24.7205 24.1227 24.6352C24.0708 24.554 24.0051 24.4764 23.9152 24.3211C23.8453 24.2012 23.7961 24.0699 23.7699 23.933C23.7429 23.8065 23.7267 23.6778 23.7215 23.5484C23.7215 23.4249 23.6523 23.1956 23.635 22.9274C23.6249 22.81 23.6249 22.692 23.635 22.5746C23.6378 22.4898 23.6506 22.4057 23.6731 22.3241C23.7995 21.9532 23.9665 21.5981 24.1711 21.2656C24.3507 20.9144 24.5991 20.6045 24.9008 20.3552C25.5997 19.831 26.4557 19.5715 27.3218 19.6213C27.7424 19.6538 28.152 19.7739 28.5253 19.9742C28.7114 20.0739 28.8875 20.1921 29.051 20.327C29.2135 20.454 29.3588 20.6058 29.5144 20.7504C29.6078 20.8386 29.7738 20.9656 29.9536 21.1456C30.1437 21.3386 30.2746 21.5837 30.3306 21.8513C30.3741 22.0986 30.3741 22.3519 30.3306 22.5993C30.3232 22.7412 30.2854 22.8796 30.2199 23.005C30.1455 22.4134 29.9687 21.84 29.6977 21.3114C29.6493 21.2126 29.5836 21.1209 29.5282 21.0256C29.4729 20.9304 29.3968 20.8175 29.3173 20.7292Z" fill="#E62617"/>
<path d="M28.7432 29.9029C28.4942 29.9029 28.2486 29.8818 28.0065 29.8747C27.7675 29.8672 27.5293 29.8413 27.2941 29.7971C26.8764 29.7124 26.4659 29.5945 26.0664 29.4442C25.6017 29.2731 25.1508 29.0654 24.7176 28.8232C24.2856 28.6037 23.8685 28.355 23.4691 28.0788C23.1942 27.8923 22.9319 27.6872 22.684 27.4648C22.5975 27.3801 22.4177 27.239 22.2621 27.112C22.1825 27.0485 22.1099 26.985 22.058 26.9391L21.9681 26.8615C21.7571 26.6357 21.6222 26.5086 21.4977 26.3463C21.3207 26.1589 21.1534 25.9622 20.9963 25.7571C20.8752 25.5983 20.7853 25.4642 20.7127 25.3478C20.6445 25.2444 20.5822 25.1372 20.5259 25.0267C20.4706 24.9279 20.4222 24.8256 20.3703 24.7092C20.3184 24.5927 20.2596 24.4622 20.1974 24.2963L20.1489 24.1729L19.8031 25.3478C20.1476 25.8945 20.5513 26.3999 21.0066 26.8544C21.738 27.5673 22.5647 28.1708 23.4621 28.6468C23.6593 28.7527 23.8529 28.855 24.0432 28.9679C24.2334 29.0808 24.427 29.1761 24.6173 29.296C24.8075 29.416 25.0046 29.5219 25.2017 29.6489C25.3989 29.7759 25.6064 29.8959 25.8208 30.0264C26.7567 30.2986 27.7056 30.5224 28.6636 30.6968C29.1962 30.7956 29.4176 30.8415 29.6424 30.9015L30.0851 31.0144C30.4897 30.6262 30.8736 30.2311 31.2333 29.8218C30.9126 29.9012 30.5844 29.945 30.2545 29.9523C29.7427 29.9664 29.2412 29.9312 28.7432 29.9029Z" fill="#E62617"/>
<path d="M25.1637 31.0497C24.9665 30.9651 24.7832 30.898 24.6345 30.8204L24.0086 30.5205C23.718 30.3829 23.4206 30.2276 23.1266 30.0794C22.8327 29.9312 22.5629 29.7478 22.307 29.5996C21.9328 29.3656 21.5735 29.1075 21.2314 28.8269C21.1138 28.721 20.8614 28.5481 20.6469 28.3858L20.2423 28.0753C19.938 27.7966 19.7754 27.6096 19.5783 27.4261C19.4953 27.3414 19.3984 27.2567 19.2981 27.1509L19.1529 27.6519C20.2126 28.5551 21.344 29.367 22.5353 30.0794C23.1094 30.4323 23.6523 30.7181 24.0535 30.9368C24.4547 31.1556 24.7452 31.2614 24.8109 31.2897C25.9715 31.7972 27.1836 32.1723 28.425 32.4082C28.5599 32.3094 28.6913 32.207 28.8193 32.1047C27.7965 31.9348 26.7915 31.6678 25.8173 31.3073C25.5925 31.2403 25.3643 31.1415 25.1637 31.0497Z" fill="#E62617"/>
<path d="M22.7842 8.72569H22.8119L22.8603 8.70805L23.0506 8.63748L23.431 8.49281C23.6834 8.39049 23.9428 8.31287 24.1988 8.22819C25.7445 7.73766 27.3398 7.42753 28.9541 7.30375L28.0618 6.39343L27.8924 6.42519C26.8548 6.66512 26.2842 6.83448 25.2328 7.09911C24.3336 7.32845 23.3514 7.5578 22.3623 7.86124C22.1064 7.93886 21.8505 8.02707 21.5945 8.11881V9.13498C21.9404 8.99737 22.3174 8.87035 22.6874 8.75744L22.7842 8.72569Z" fill="#E62617"/>
<path d="M27.927 30.7286C26.9244 30.5058 25.9421 30.1966 24.9908 29.8042L24.555 29.6136L24.0224 29.3631C23.8287 29.2714 23.6281 29.162 23.4103 29.0491C23.1924 28.9362 22.978 28.8021 22.7497 28.6645C22.5214 28.5269 22.2966 28.3681 22.0753 28.1952C21.854 28.0223 21.6292 27.8424 21.4147 27.6342C20.9759 27.2389 20.5678 26.8095 20.1939 26.3499C20.0244 26.1347 19.8481 25.9194 19.7201 25.6971L19.4123 26.7768L19.5852 26.9709L20.2147 27.606C20.8734 28.2301 21.5749 28.8055 22.3139 29.3278C22.3969 29.3914 22.5526 29.4831 22.7324 29.6066C22.9122 29.7301 23.1301 29.8747 23.3584 29.9947L23.9982 30.3475L24.4478 30.5663C25.6349 31.0867 26.8699 31.485 28.1345 31.7554C28.4285 31.8295 28.7155 31.8577 28.9749 31.9071H29.0752C29.421 31.6354 29.7254 31.3531 30.0297 31.0638C29.8222 31.0426 29.6424 31.0426 29.4383 31.0144C28.8919 30.9368 28.636 30.8839 27.927 30.7286Z" fill="#E62617"/>
<path d="M23.6143 31.0497C22.4253 30.4106 21.2905 29.6718 20.2215 28.8409C19.7581 28.4881 19.3811 28.1353 19.0975 27.8777L18.935 28.4422C19.0975 28.5798 19.2566 28.6998 19.3915 28.7951C19.6238 28.9996 19.8699 29.187 20.1282 29.3561L20.6331 29.7089L21.1346 30.0194C21.4804 30.2241 21.7778 30.4111 22.0926 30.5734C22.4073 30.7357 22.7012 30.9262 23.0056 31.0426L23.884 31.459C24.1711 31.5931 24.4581 31.713 24.7417 31.8471L25.1637 32.0482L25.5925 32.2493C25.8796 32.3799 26.1597 32.5351 26.4537 32.6727C26.7476 32.8104 27.052 32.9621 27.3632 33.1244H27.4186C27.6157 32.9938 27.8128 32.8597 28.003 32.7221L27.6883 32.648C26.2757 32.2734 24.909 31.7372 23.6143 31.0497Z" fill="#E62617"/>
<path d="M22.9364 31.4378C22.2345 31.0867 21.5563 30.6883 20.9063 30.2452C20.5605 30.03 20.2146 29.7865 19.893 29.5395C19.5714 29.2925 19.2359 29.035 18.9177 28.7739C18.8943 28.7582 18.8724 28.7405 18.852 28.7209L18.7932 28.9326C18.9385 29.0561 19.0941 29.1832 19.267 29.3172L19.8342 29.7795C20.0383 29.9382 20.2631 30.1041 20.4982 30.284C20.7334 30.464 20.9859 30.658 21.266 30.8486C21.5461 31.0391 21.8366 31.2578 22.1583 31.4625C22.3935 31.6072 22.9572 31.9953 23.559 32.3269C24.1607 32.6586 24.7625 32.9691 25.0011 33.0961C25.347 33.262 25.7482 33.4031 26.1424 33.5689C26.2635 33.6183 26.3845 33.6607 26.509 33.703C26.7822 33.5442 27.0485 33.3749 27.3114 33.2055C26.9309 33.0855 26.5505 32.955 26.1735 32.8209C25.0724 32.4156 23.992 31.9539 22.9364 31.4378Z" fill="#E62617"/>
<path d="M25.0253 16.9362C25.8619 16.6617 26.7284 16.4934 27.6053 16.4351C27.716 16.4351 27.8232 16.4351 27.9512 16.4351C28.0791 16.4351 28.1725 16.4351 28.297 16.4351L28.6428 16.4598C28.7596 16.4697 28.8753 16.4897 28.9887 16.5198C29.0994 16.541 29.21 16.5586 29.3172 16.5868L29.6354 16.6927C29.8353 16.7589 30.0296 16.8415 30.2164 16.9397L29.9225 16.2764C29.753 16.227 29.5766 16.1811 29.421 16.1458L28.6567 16.0188C28.4007 15.9941 28.1414 15.9906 27.882 15.9764C27.754 15.9764 27.6261 15.9764 27.4946 15.9764L27.1073 15.9976L26.2842 16.0294C25.2645 16.1591 24.2692 16.4421 23.3307 16.8691C22.7841 17.1344 22.2591 17.4435 21.7605 17.7936L21.6014 17.9029V18.8203C21.9246 18.5282 22.2717 18.265 22.639 18.0335C23.387 17.5686 24.1885 17.2 25.0253 16.9362Z" fill="#E62617"/>
<path d="M24.5169 12.6739C24.8818 12.5365 25.2536 12.4187 25.6306 12.3211L26.1977 12.187C26.388 12.1341 26.5851 12.1235 26.7753 12.0882L27.3563 12.007L27.9408 11.9965H27.9685L27.882 11.8024L28.9403 11.259C27.5099 11.246 26.0888 11.4958 24.7452 11.9965C23.6765 12.3952 22.6217 12.8397 21.5945 13.3302V13.8277C22.1963 13.5489 22.8119 13.2984 23.431 13.0726C23.7941 12.9315 24.1434 12.7939 24.5169 12.6739Z" fill="#E62617"/>
<path d="M23.0955 10.9027L23.2477 10.8603C23.2892 10.8603 23.348 10.818 23.3964 10.8004L23.7249 10.6557L24.0708 10.504L24.4443 10.3593L24.8282 10.2111L25.2225 10.0806L25.8415 9.87945C25.7116 9.81869 25.5968 9.72873 25.5058 9.6163C25.4147 9.50387 25.3498 9.37188 25.3158 9.23022C24.9492 9.32196 24.5861 9.41723 24.223 9.51602C23.3318 9.74299 22.4542 10.0222 21.5945 10.3522V11.379C21.8712 11.2802 22.1859 11.1744 22.5906 11.0473L23.0955 10.9027Z" fill="#E62617"/>
<path d="M22.6909 9.72062C23.1716 9.5689 23.5728 9.44541 23.8252 9.36778C24.3094 9.24076 24.797 9.1208 25.2881 9.01494C25.2858 8.79714 25.3569 8.58514 25.4896 8.41451C25.6223 8.24389 25.8085 8.12502 26.017 8.07785C26.2254 8.03069 26.4434 8.0581 26.6344 8.15549C26.8253 8.25288 26.9777 8.41431 27.0658 8.61271L27.882 8.44688L28.5737 8.3375C28.6878 8.31985 28.8019 8.29868 28.9195 8.28457L29.2654 8.25987C29.4625 8.2387 29.6562 8.22812 29.8464 8.22459L29.1201 7.4801C28.9506 7.4801 28.7743 7.51186 28.6152 7.52597C28.2244 7.56478 27.8543 7.6036 27.5292 7.65299C27.2837 7.70239 27.0658 7.75884 26.8617 7.80824L26.2842 7.92821C25.9038 8.01641 25.5337 8.14344 25.0391 8.28104L24.721 8.3622L24.3993 8.46452L23.7422 8.67622L23.0782 8.92321L22.9087 8.98672L22.7289 9.04317L22.3831 9.14902C22.1202 9.23018 21.8608 9.32191 21.6014 9.42071V10.1264L21.9473 9.98878C22.1928 9.8794 22.4522 9.79119 22.6909 9.72062Z" fill="#E62617"/>
<path d="M24.3959 11.8659C25.8334 11.3327 27.3456 11.0384 28.8746 10.9944C29.0544 10.9944 29.2343 10.9944 29.4141 10.9944L30.5416 10.4123C30.2052 10.3712 29.867 10.3488 29.5282 10.3452C29.2965 10.3452 29.0683 10.3452 28.8366 10.3664H28.4907C28.3731 10.3664 28.259 10.3911 28.1449 10.4017L27.4532 10.4828L26.7615 10.6134L26.4156 10.6804L26.0698 10.7686L25.4023 10.9521L24.7452 11.1779C24.638 11.2132 24.5273 11.2485 24.4201 11.2908L24.0985 11.4249C23.6731 11.6048 23.2442 11.7777 22.8154 11.9506C22.3865 12.1235 21.9715 12.3035 21.5565 12.4834V13.0726L22.1998 12.7657C23.1232 12.3846 23.9913 11.9965 24.3959 11.8659Z" fill="#E62617"/>
<path d="M24.9008 13.5137C25.5164 13.3443 26.1424 13.1608 26.7857 13.0444L27.2699 12.9633C27.4312 12.9334 27.594 12.9122 27.7575 12.8997L28.2451 12.8645H28.3558L28.0895 12.2611H27.4255C27.1281 12.2893 26.8341 12.3352 26.5574 12.374C26.4226 12.3914 26.2895 12.4209 26.1597 12.4622L25.8139 12.5645C25.5241 12.663 25.2411 12.7809 24.9665 12.9174C24.7106 13.0338 24.4581 13.1397 24.1227 13.2702C23.3411 13.5772 22.4799 13.9159 21.6153 14.3076V14.7486C22.013 14.5722 22.5145 14.3534 23.0229 14.1558C23.7734 13.8559 24.555 13.6089 24.9008 13.5137Z" fill="#E62617"/>
<path d="M23.8633 16.4281C24.1281 16.3209 24.3982 16.2278 24.6726 16.1493C25.1238 16.001 25.5866 15.8924 26.0559 15.8247C26.5159 15.7859 26.9793 15.7789 27.4393 15.7436L28.131 15.7612H28.4769C28.591 15.7612 28.7051 15.7824 28.8227 15.793L29.5144 15.8741L29.6804 15.9094L29.3069 15.0697L28.4284 14.9956C28.0826 14.9673 27.6261 14.9215 27.173 14.9073C26.7552 14.921 26.339 14.967 25.928 15.045C25.4058 15.2214 25.1222 15.2884 24.6069 15.4648C23.6105 15.7355 22.6376 16.0895 21.6983 16.5233L21.5945 16.5763V17.4301C22.1212 17.1034 22.6859 16.845 23.2754 16.661C23.4137 16.5833 23.6281 16.5163 23.8633 16.4281Z" fill="#E62617"/>
<path d="M27.5811 14.6675C28.1172 14.6675 28.6498 14.7028 29.1893 14.7451L28.8435 13.9653C28.4319 13.9653 28.0134 13.99 27.5984 14.0324C26.4435 14.1618 25.3001 14.3812 24.178 14.6886C23.2831 14.9365 22.417 15.2819 21.5945 15.7189V16.1459C22.3978 15.7456 23.2347 15.4197 24.095 15.172C25.2295 14.8446 26.4021 14.6749 27.5811 14.6675Z" fill="#E62617"/>
<path d="M24.2541 14.3499C24.5342 14.2582 24.8074 14.1841 25.0806 14.11C25.6271 13.9618 26.17 13.8348 26.6992 13.7571C27.3438 13.6447 27.9959 13.5833 28.6498 13.5737L28.4422 13.1079C28.063 13.1138 27.6843 13.1409 27.3079 13.1891C26.9464 13.2312 26.5882 13.2984 26.2358 13.3902L25.7032 13.5207L25.1775 13.6795C23.9461 14.0167 22.7432 14.4544 21.5807 14.9885V15.479C22.1715 15.1649 22.7801 14.8868 23.4033 14.6463C23.6903 14.5228 23.9739 14.4381 24.2541 14.3499Z" fill="#E62617"/>
<path d="M22.0199 32.3799C21.6084 32.1753 21.1899 31.9565 20.7645 31.7378C19.9484 31.2983 19.1637 30.8007 18.4162 30.2488L18.2225 30.9333C18.5338 31.1415 18.8139 31.3426 19.0664 31.4943C19.6094 31.826 19.9725 32.0483 20.0728 32.0871C21.6789 32.9594 23.3351 33.7323 25.0322 34.4017L25.1221 34.437C25.3366 34.3346 25.5544 34.2288 25.7654 34.1159C25.0288 33.8266 24.1503 33.4525 23.2165 32.9762C22.8257 32.7857 22.428 32.5881 22.0199 32.3799Z" fill="#E62617"/>
<path d="M18.1465 33.5195L17.5482 33.3008L17.4583 33.6078C18.1742 33.8406 18.98 34.0876 19.848 34.4228C20.0417 34.5004 20.3806 34.6275 20.7853 34.7968L21.432 35.0861C21.6603 35.1885 21.8989 35.2873 22.1237 35.4143L22.2551 35.4848C22.4107 35.446 22.5629 35.4037 22.7151 35.3578C21.9871 34.9476 21.2298 34.5938 20.4498 34.2993C19.4192 33.9359 18.5477 33.6748 18.1465 33.5195Z" fill="#E62617"/>
<path d="M20.142 33.0573C19.433 32.7045 18.6894 32.3128 17.9597 31.8577L17.8352 32.2846C18.0185 32.3905 18.1811 32.4822 18.3505 32.5704C18.9869 32.9232 19.4261 33.1067 19.5368 33.1526C20.6331 33.6748 21.6499 34.0911 22.5767 34.5357C22.9226 34.7086 23.2684 34.8885 23.6143 35.0614L23.9394 34.945C23.5555 34.7333 23.099 34.4898 22.5802 34.2393C21.8747 33.8724 21.0343 33.4948 20.142 33.0573Z" fill="#E62617"/>
<path d="M33.9896 25.5772L33.8167 25.1891L33.6922 25.3761C33.564 25.5434 33.4484 25.7203 33.3463 25.9053C33.2515 26.1025 33.1818 26.3112 33.1388 26.5263C33.0662 26.8368 33.0212 27.1614 32.9694 27.4861C33.3498 26.8823 33.6851 26.2501 33.9723 25.5949L33.9896 25.5772Z" fill="#E62617"/>
<path d="M17.5862 33.1667C18.3505 33.4666 19.2428 33.7348 20.2388 34.1053C20.969 34.3697 21.6788 34.6893 22.3623 35.0615L22.843 35.3261L23.1405 35.2344C21.4735 34.3487 19.5402 33.5549 17.7591 32.5704L17.5862 33.1667Z" fill="#E62617"/>
<path d="M20.059 34.7228C18.9626 34.3099 18.0289 34.0418 17.5966 33.8936L17.3994 33.8301L17.2161 34.4687H17.2645C17.7038 34.6487 18.1845 34.7651 18.7033 34.9415L19.5056 35.2061C19.7924 35.2935 20.0741 35.3972 20.3495 35.5166L20.9236 35.7601C21.2971 35.6966 21.6637 35.619 22.0268 35.5308L21.7882 35.4108C21.1864 35.1814 20.6054 34.9309 20.059 34.7228Z" fill="#E62617"/>
<path d="M16.9879 35.2626L16.8011 35.9153C17.5731 35.9978 18.3501 36.019 19.1252 35.9788C18.4024 35.7142 17.811 35.5307 17.4825 35.4178C17.358 35.372 17.185 35.319 16.9879 35.2626Z" fill="#E62617"/>
<path d="M21.5945 5.3208V5.57484C21.7951 5.48781 21.9992 5.40313 22.2067 5.3208H21.5945Z" fill="#E62617"/>
<path d="M17.9493 34.9662C17.7591 34.9097 17.4651 34.818 17.1435 34.7086L17.064 34.9909C17.8767 35.2449 18.7759 35.5378 19.7512 35.9365C20.014 35.9118 20.2769 35.88 20.5362 35.8412C19.9725 35.5942 19.433 35.4496 18.9903 35.3014L17.9493 34.9662Z" fill="#E62617"/>
<path d="M22.6805 7.40957C23.2373 7.25785 23.7872 7.11672 24.344 6.98264C24.9008 6.84856 25.4611 6.72507 26.0214 6.59805C26.5816 6.47102 27.1419 6.36164 27.7091 6.26991L27.8993 6.23815L27.8647 6.20287C27.5128 5.87258 27.09 5.6309 26.6301 5.49719L26.2842 5.58187C26.0525 5.63127 25.845 5.69831 25.6306 5.76182L24.9804 5.95235C24.7521 6.01234 24.5135 6.1076 24.2368 6.18875C23.3383 6.46978 22.4571 6.80558 21.598 7.19434V7.76241L21.8539 7.66714C22.1341 7.5754 22.4004 7.48014 22.6805 7.40957Z" fill="#E62617"/>
<path d="M28.5322 10.1758C29.338 10.1019 30.1489 10.1102 30.9531 10.2005L31.4995 9.91821L31.1883 9.59713C30.1878 9.47365 29.1764 9.47365 28.176 9.59713C27.6902 9.65015 27.2076 9.73024 26.7303 9.83706L26.6404 9.8547C26.5075 9.92783 26.3591 9.9666 26.2081 9.96761H26.1597L26.0144 9.99936L25.3227 10.2146C24.8527 10.352 24.3908 10.5169 23.9394 10.7086L23.5935 10.8532L23.4275 10.9273C23.3679 10.9556 23.3067 10.9804 23.2442 11.0014L22.5525 11.2096C22.1825 11.3366 21.8608 11.4566 21.5738 11.5624V12.314C22.4799 11.9082 23.3549 11.5483 23.7595 11.3825C25.2847 10.7463 26.8924 10.3398 28.5322 10.1758Z" fill="#E62617"/>
<path d="M27.2802 8.78916L27.1384 8.81739C27.1456 8.88069 27.1456 8.94462 27.1384 9.00792C27.148 9.21269 27.0909 9.41492 26.9759 9.58305C27.2643 9.51387 27.5565 9.46203 27.8509 9.4278L28.4941 9.34312L29.1443 9.30783C29.3622 9.30783 29.5801 9.27608 29.8014 9.27961H30.4585L30.9393 9.30783L30.1265 8.4822C29.6983 8.47575 29.27 8.49223 28.8435 8.53159C28.3109 8.61274 27.7921 8.67626 27.2802 8.78916Z" fill="#E62617"/>
<path d="M26.0594 5.38081C25.8703 5.3522 25.6798 5.33453 25.4888 5.32788H23.2581C22.7116 5.53253 22.1548 5.76187 21.5945 6.00886V6.81333C22.1447 6.56059 22.7081 6.33914 23.2823 6.14999C24.1926 5.8388 25.1198 5.58197 26.0594 5.38081Z" fill="#E62617"/>
<path d="M22.1825 31.8118C21.8367 31.6177 21.5427 31.4131 21.2937 31.2473C21.0447 31.0814 20.8476 30.9438 20.7265 30.8486C20.6055 30.7533 20.2285 30.4957 19.9311 30.2981C19.7824 30.2029 19.644 30.1111 19.5437 30.0406L19.3673 29.9241C19.0734 29.6771 18.8624 29.5042 18.6756 29.349L18.4993 29.9594C18.8969 30.2701 19.314 30.5542 19.7478 30.8097C20.5285 31.277 21.3371 31.6941 22.1687 32.0588L24.3025 33.0679L26.1563 33.9077L26.2669 33.8477C25.3193 33.4666 24.6691 33.142 24.4443 33.015C23.6705 32.6541 22.9155 32.2525 22.1825 31.8118Z" fill="#E62617"/>
<path d="M22.5837 33.6713C22.1375 33.456 21.6845 33.2232 21.228 32.9868C20.7714 32.7504 20.3184 32.4928 19.8446 32.2423C19.6198 32.1117 19.3984 31.9706 19.1736 31.84C18.9488 31.7095 18.7275 31.5684 18.5165 31.4202C18.3886 31.339 18.2641 31.2508 18.1396 31.1626L18.0012 31.646C18.2917 31.8224 18.5788 31.9988 18.8624 32.1364C19.6993 32.5881 20.5051 32.9585 21.2833 33.329C22.0614 33.6995 22.8119 34.077 23.5486 34.5004C23.7492 34.6169 23.9463 34.7333 24.1434 34.8533L24.7106 34.6169C24.4409 34.504 24.1676 34.3911 23.8875 34.264C23.4725 34.0841 23.0298 33.89 22.5837 33.6713Z" fill="#E62617"/>
<path d="M22.2344 0.239959C22.2689 0.17292 22.307 0.109409 22.3416 0.0458984C22.1266 0.109857 21.9377 0.243038 21.8031 0.425551C21.6684 0.608064 21.5953 0.830115 21.5945 1.05854V2.26525C21.603 2.08269 21.625 1.90105 21.6603 1.72188C21.7654 1.19752 21.9597 0.695976 22.2344 0.239959Z" fill="#E62617"/>
<path d="M22.0338 2.11702C22.1304 1.61774 22.3131 1.13989 22.5733 0.705675C22.6978 0.486916 22.8223 0.271685 22.9503 0.0670391C22.8498 0.0266993 22.7434 0.0040315 22.6356 0L22.5768 0C22.291 0.435961 22.0674 0.911167 21.9127 1.41135C21.7458 1.99522 21.7033 2.60881 21.7882 3.21082C21.8284 3.50203 21.8896 3.7898 21.9715 4.07174H22.1341C22.0926 3.91414 22.058 3.74831 22.0303 3.57424C21.9504 3.09183 21.9515 2.59904 22.0338 2.11702Z" fill="#E62617"/>
<path d="M23.3273 1.59829C23.4379 1.39365 23.5521 1.19959 23.6731 1.00553C23.6631 0.811546 23.6022 0.62387 23.4967 0.462158L23.4172 0.585651C23.2581 0.832637 23.1163 1.09727 22.9676 1.35131C22.823 1.60903 22.707 1.88241 22.6217 2.16636C22.4706 2.70262 22.434 3.26573 22.5145 3.81764C22.5145 3.90232 22.5422 3.987 22.5595 4.07168H22.8258C22.767 3.68115 22.767 3.28374 22.8258 2.89321C22.9136 2.43384 23.0836 1.99489 23.3273 1.59829Z" fill="#E62617"/>
<path d="M22.39 2.46992C22.4839 1.98747 22.6594 1.5254 22.9088 1.10443C23.0575 0.836278 23.2166 0.575179 23.3757 0.324664C23.2946 0.243827 23.2012 0.17708 23.099 0.127075C23.0945 0.137237 23.0887 0.146732 23.0817 0.155302C22.7335 0.666591 22.4565 1.22469 22.2586 1.81364C22.1014 2.37055 22.0649 2.95566 22.1514 3.52843C22.1753 3.70918 22.2099 3.88828 22.2551 4.06474H22.4177C22.4177 3.99417 22.39 3.92361 22.3796 3.84951C22.3073 3.3923 22.3108 2.92594 22.39 2.46992Z" fill="#E62617"/>
<path d="M24.2403 1.45364C24.071 1.5423 23.9288 1.67675 23.8294 1.84228C23.73 2.00781 23.6771 2.19805 23.6765 2.39219V1.35132C23.5797 1.51715 23.4863 1.68299 23.3929 1.84882C23.2608 2.09102 23.1563 2.34793 23.0817 2.61448C22.9545 3.08877 22.9216 3.58423 22.9848 4.07169H23.2788C23.2746 3.89012 23.2838 3.70848 23.3065 3.52833C23.368 3.09453 23.5125 2.67732 23.7319 2.30045C23.8944 2.00054 24.0639 1.71827 24.2403 1.45364Z" fill="#E62617"/>
<path d="M25.7516 2.27576C25.596 2.48746 25.4507 2.70975 25.3089 2.93909C25.0714 3.28457 24.8904 3.66708 24.7729 4.0717H25.1741C25.219 3.96938 25.264 3.86705 25.3159 3.77179C25.4577 3.51422 25.6064 3.2637 25.762 3.03436V2.39219C25.762 2.35338 25.7551 2.31457 25.7516 2.27576Z" fill="#E62617"/>
<path d="M25.1948 1.45018C25.0485 1.37231 24.886 1.33119 24.721 1.33022C24.6623 1.32466 24.6033 1.32466 24.5446 1.33022C24.4305 1.49605 24.3164 1.68305 24.1988 1.84183C24.0812 2.00061 23.9325 2.29346 23.808 2.52281C23.6865 2.7516 23.5925 2.99444 23.5278 3.24612C23.4698 3.49119 23.4385 3.74205 23.4344 3.99414V4.05412H23.884C23.884 4.02942 23.884 4.00472 23.884 3.9765C23.9348 3.5685 24.0679 3.17565 24.2749 2.82272C24.5445 2.3405 24.8522 1.88147 25.1948 1.45018Z" fill="#E62617"/>
<path d="M25.7066 2.06409C25.6448 1.86081 25.5242 1.68128 25.3608 1.54895C25.1498 1.82769 24.9458 2.1276 24.7556 2.4381C24.4814 2.83885 24.2724 3.28205 24.1365 3.75066C24.1114 3.85637 24.0929 3.96362 24.0812 4.07174H24.6242C24.6749 3.80507 24.7683 3.54876 24.9008 3.31314C25.1372 2.87603 25.4066 2.45841 25.7066 2.06409Z" fill="#E62617"/>
<path d="M21.5945 2.90027V3.88116C21.6153 3.9482 21.636 4.01876 21.6603 4.0858H21.8124C21.7325 3.81649 21.6713 3.54177 21.6291 3.26369C21.6153 3.13667 21.6015 3.02023 21.5945 2.90027Z" fill="#E62617"/>
<path d="M25.34 4.07176H25.762V3.32727C25.7412 3.35903 25.7205 3.38725 25.7032 3.41901C25.5925 3.63424 25.4438 3.84947 25.34 4.07176Z" fill="#0A0A0A"/>
</g>
<defs>
<clipPath id="clip0_298_5212">
<rect width="34" height="36" fill="white"/>
</clipPath>
</defs>
</svg>
