<svg width="706" height="709" viewBox="0 0 706 709" fill="none" xmlns="http://www.w3.org/2000/svg">
<path d="M344.241 317.423C344.096 311.987 341.342 306.842 340.067 304.595C335.906 297 329.174 291.136 321.079 288.057C312.779 285.089 303.701 285.125 295.424 288.158C291.842 289.471 288.535 291.437 285.669 293.956C282.67 296.555 279.918 299.428 277.451 302.537C276.965 303.261 276.566 304.039 276.262 304.856C275.881 306.022 275.581 307.214 275.364 308.422C274.929 311.016 275.103 313.524 274.886 314.799C274.632 316.1 274.472 317.418 274.407 318.742C274.362 320.169 274.613 321.591 275.146 322.916C275.558 324.12 276.088 325.28 276.726 326.38C277.196 327.48 277.892 328.467 278.77 329.279C279.794 330.298 280.542 331.559 280.944 332.946C281.437 334.613 284.988 338.86 288.684 341.643C293.459 346.433 299.188 350.166 305.498 352.601C307.897 353.464 310.415 353.953 312.962 354.05C315.429 354.053 317.879 353.642 320.21 352.833C323.46 351.302 326.46 349.288 329.109 346.861C332.435 344.13 335.333 340.915 337.704 337.323C338.972 335.586 340.047 333.715 340.908 331.743C342.654 329.173 343.621 326.153 343.691 323.046C344.179 321.214 344.365 319.315 344.241 317.423ZM331.849 341.57C330.603 342.695 329.115 343.518 327.5 343.976C326.554 344.068 325.621 344.262 324.717 344.556C323.192 345.061 321.732 345.748 320.369 346.6C317.615 348.122 314.325 350.122 309.89 349.499C309.094 349.464 308.305 349.332 307.541 349.107C305.967 348.543 304.423 347.894 302.918 347.165C299.468 345.295 294.67 343.455 291.525 340.846C290.532 339.835 289.612 338.754 288.771 337.613C287.931 336.477 287.152 335.296 286.438 334.077C282.843 327.032 282.176 323.423 280.944 321.191C280.379 320.046 279.814 319.176 279.379 318.292C278.773 317.283 278.351 316.174 278.132 315.017C277.39 311.094 278.156 307.035 280.277 303.653C282.49 300.106 285.503 297.128 289.076 294.956C295.372 291.156 302.552 289.068 309.904 288.898C310.89 288.898 311.629 288.796 312.354 288.898H313.484C313.904 288.811 321.108 290.028 323.297 291.318C327.362 293.188 331.006 295.863 334.008 299.182C337.01 302.5 339.308 306.393 340.763 310.625C341.674 313.511 342.11 316.527 342.053 319.553C342.171 323.034 341.523 326.498 340.154 329.699C339.915 329.954 339.664 330.196 339.4 330.424C337.646 331.584 333.704 339.976 331.849 341.57ZM331.762 320.264C331.949 319.309 332.007 318.334 331.936 317.365C331.897 316.494 331.746 315.631 331.486 314.799C331.345 313.978 331.097 313.179 330.747 312.422C330.051 311.045 329.529 309.813 329.109 309.088C326.478 304.092 322.261 300.11 317.122 297.768C311.629 295.406 301.816 295.101 296.627 298.855C295.592 299.682 294.623 300.588 293.728 301.566C291.902 303.537 290.293 305.566 288.568 307.581C287.918 308.831 287.57 310.216 287.554 311.625C287.438 313.393 287.67 315.002 287.452 315.828C287.223 316.663 287.039 317.51 286.901 318.365C286.806 319.299 286.95 320.242 287.322 321.104C287.684 322.334 288.169 323.524 288.771 324.655C289.699 326.177 290.757 326.917 291.583 328.12C292.802 330.001 294.402 331.605 296.279 332.83C299.281 335.942 302.887 338.408 306.875 340.077C308.424 340.722 310.07 341.104 311.745 341.208C313.364 341.245 314.977 340.979 316.499 340.425C317.741 339.845 318.889 339.083 319.905 338.164L322.094 336.28C324.17 334.486 326.015 332.441 327.587 330.192C328.449 329.122 329.157 327.937 329.689 326.67C329.979 325.974 332.052 321.67 331.834 320.264H331.762ZM328.022 325.366C327.587 325.916 326.964 326.119 326.283 327.264C325.252 329.133 323.98 330.858 322.5 332.395C321.05 333.497 312.354 337.005 309.803 336.628C309.672 336.715 309.179 336.628 308.44 336.367C307.701 336.106 306.831 335.686 305.773 335.12C303.802 333.917 300.657 333.207 298.627 331.656C297.478 330.338 296.503 328.876 295.728 327.308C293.83 322.771 293.583 320.669 292.743 319.394C292.391 318.821 291.999 318.273 291.569 317.756C291.105 317.201 290.764 316.554 290.568 315.857C290.258 314.718 290.189 313.527 290.363 312.359C290.538 311.191 290.953 310.073 291.583 309.074C292.928 306.927 294.805 305.164 297.033 303.957C297.946 303.479 302.396 300.769 302.961 300.624C305.14 299.997 307.41 299.752 309.672 299.899C310.266 299.899 316.803 299.899 318.05 300.943C323.09 303.458 326.987 307.794 328.95 313.074C329.222 313.948 329.411 314.846 329.515 315.756C329.713 316.709 329.757 317.688 329.645 318.655C329.936 321.021 329.343 323.411 327.979 325.366H328.022ZM374.607 308.045C374.245 306.117 373.853 303.769 373.288 301.479C372.84 299.042 372.19 296.647 371.346 294.319C368.056 284.52 360.779 276.012 357.112 272.577C351.282 266.61 344.183 262.033 336.342 259.184C328.436 256.427 320.056 255.288 311.701 255.836C303.378 256.214 295.119 257.473 287.061 259.59C279.031 261.75 270.987 264.706 264.232 269.924C261.273 272.002 258.423 274.233 255.695 276.606C252.875 279.141 250.253 281.889 247.853 284.825C242.736 290.799 239.172 297.943 237.475 305.624C236.939 307.813 237.33 312.871 238.664 317.553C239.239 319.826 239.991 322.05 240.911 324.206C241.751 326.148 242.244 327.931 242.751 329.091C244.998 335.28 245.157 336.86 249.361 343.049C252.736 347.741 256.504 352.139 260.623 356.195C261.959 357.27 263.214 358.443 264.377 359.703C266.319 362.341 274.436 369.313 282.321 373.719C283.031 374.154 284.452 375.052 286.452 376.342C289.049 377.834 291.724 379.184 294.467 380.386L299.787 382.459C301.744 382.966 303.773 383.59 305.904 384.068C310.494 384.925 315.198 384.969 319.804 384.198C329.101 382.512 337.769 378.346 344.894 372.139C351.474 366.341 355.474 360.123 358.33 356.703C363.335 350 367.384 342.634 370.36 334.816C371.389 332.019 371.94 330.076 372.534 328.308C373.129 326.54 373.288 324.873 373.694 322.641C373.882 320.785 375.332 312.683 374.564 308.045H374.607ZM372.172 318.524C371.94 319.423 371.259 322.554 370.94 323.728C370.621 324.902 370.331 326.395 369.665 328.453C368.447 332.598 362.417 345.02 360.258 348.644C358.431 351.702 346.604 363.819 345.314 365.008C339.886 370.894 333.169 375.444 325.688 378.299C320.943 380.199 315.829 380.996 310.73 380.633C306.443 380.231 302.207 379.391 298.091 378.125L294.844 377.14C293.786 376.748 292.743 376.256 291.728 375.821C290.713 375.386 289.713 374.937 288.742 374.487C287.771 374.038 286.872 373.487 285.959 373.038C283.379 371.762 274.581 364.501 272.668 362.37C268.276 357.977 264.184 353.295 260.42 348.354L256.71 343.513C255.68 342.063 254.782 340.831 253.912 339.744C250.651 335.396 248.419 333.149 245.578 327.975C241.882 320.901 239.476 312.697 240.78 304.697C242.085 296.696 247.419 289.637 253.477 284.158C258.391 279.621 265.189 276.244 271.349 271.751C274.475 269.663 277.831 267.941 281.35 266.62C284.742 265.243 288.104 264.083 291.25 263.156C293.062 262.576 294.482 262.155 295.859 261.706C296.555 261.46 297.308 261.228 298.004 260.996C298.744 260.516 299.537 260.122 300.367 259.822C305.063 258.082 312.832 257.938 317.861 258.025C326.771 258.016 335.543 260.225 343.386 264.45C351.23 268.676 357.9 274.786 362.794 282.23C366.149 287.239 368.665 292.762 370.244 298.58C371.795 304.146 373.172 312.277 372.129 318.524H372.172ZM361.838 303.465C361.664 302.537 361.475 301.595 361.301 300.566C361.127 299.537 360.736 298.667 360.475 297.667C358.257 289.782 352.75 282.781 350.054 279.81C345.7 274.778 340.271 270.79 334.168 268.142C327.926 265.609 321.141 264.711 314.455 265.533C301.193 266.837 289.09 271.896 277.132 278.041C272.043 281.463 267.719 285.902 264.431 291.079C261.143 296.255 258.963 302.057 258.029 308.117C258.029 308.552 257.913 309.132 257.869 309.813C257.826 310.494 258.057 311.263 258.173 312.089C258.289 312.915 258.449 313.799 258.594 314.727C258.739 315.654 259.058 316.567 259.304 317.495C259.742 319.292 260.279 321.063 260.913 322.8C261.391 324.409 261.812 325.786 262.058 326.743C262.638 329.294 262.87 330.888 263.377 332.54C263.953 334.598 264.796 336.571 265.884 338.411C266.785 340.112 267.802 341.748 268.928 343.31C270.363 345.538 271.911 347.691 273.567 349.76C274.565 350.691 275.472 351.715 276.277 352.818C277.408 355.21 283.408 361.312 289.539 365.066C290.527 365.901 291.589 366.644 292.714 367.283C294.755 368.547 296.898 369.638 299.12 370.545C300.57 370.951 302.019 371.443 303.469 371.849C305.14 372.146 306.83 372.32 308.527 372.371C310.336 372.39 312.142 372.23 313.919 371.893C314.818 371.719 315.76 371.559 316.673 371.371L319.383 370.545C326.5 368.244 333.043 364.448 338.574 359.413C339.79 358.314 340.923 357.127 341.966 355.862C342.965 354.779 343.904 353.642 344.778 352.456C345.618 351.354 346.401 350.368 347.14 349.557L348.966 347.107C352.949 341.811 356.295 336.066 358.939 329.989C359.707 327.772 360.316 326.264 360.794 324.887C361.272 323.51 361.446 322.133 361.794 320.38C363.2 314.524 362.2 305.291 361.794 303.465H361.838ZM360.04 318.756C359.808 321.438 358.895 321.438 358.011 324.699C356.895 327.902 353.373 337.164 350.865 340.237C349.59 341.831 341.719 348.934 338.081 353.195C333.884 357.852 328.856 361.686 323.253 364.501C322.101 365.172 320.894 365.745 319.644 366.211L316.122 367.283C314.832 367.689 313.354 367.82 311.861 368.182C308.651 368.572 305.399 368.464 302.222 367.863C298.912 367.199 295.74 365.974 292.844 364.24C291.05 362.956 289.35 361.547 287.757 360.022C286.164 358.472 284.668 356.827 283.278 355.094C280.304 351.267 277.602 347.237 275.19 343.034C273.436 339.831 272.074 337.613 270.986 335.787C269.899 333.961 268.914 332.555 267.957 331.105C266.857 329.507 265.92 327.803 265.16 326.018C262.401 320.173 261.15 313.729 261.522 307.277C262.394 300.86 265.389 294.921 270.03 290.405C273.581 286.521 278.799 283.622 283.379 279.81C285.756 278.073 288.324 276.614 291.032 275.461C293.518 274.283 296.063 273.233 298.656 272.316C299.865 271.897 301.05 271.413 302.207 270.867C302.735 270.585 303.282 270.343 303.845 270.142C304.435 269.778 305.056 269.467 305.701 269.214C309.324 267.649 315.484 267.33 319.456 267.518C322.948 267.531 326.426 267.984 329.805 268.866C333.151 269.848 336.353 271.266 339.328 273.084C345.277 276.792 350.224 281.903 353.735 287.97C356.128 292.094 357.915 296.541 359.04 301.174C360.109 306.97 360.431 312.879 359.997 318.756H360.04ZM401.422 289.883C401.156 288.544 400.793 287.227 400.335 285.941C399.39 282.836 398.178 279.82 396.711 276.925C395.943 275.36 395.175 273.707 394.262 272.099C393.348 270.49 392.247 268.953 391.261 267.344C383.057 254.415 370.172 244.153 364.07 239.689C354.123 232.313 343.012 226.655 331.196 222.948C325.143 221.068 318.851 220.067 312.513 219.977C306.231 220.31 299.992 221.212 293.873 222.673C287.793 223.892 281.811 225.554 275.973 227.644C273.066 228.736 270.221 229.984 267.45 231.384C264.551 232.674 262.145 235.225 259.623 237.08C257.507 238.645 243.795 246.038 243.795 246.038C238.141 248.688 232.795 251.949 227.851 255.763C219.209 262.918 212.546 272.171 208.501 282.636C204.351 293.475 202.86 305.15 204.153 316.683C205.096 322.481 206.701 328.152 208.936 333.584C211.559 340.324 215.111 346.73 216.603 350.108C217.662 352.325 218.546 354.108 219.299 355.702C220.053 357.297 220.894 358.601 221.633 360.051C223.661 363.541 225.989 366.849 228.59 369.936C231.881 373.849 233.953 376.009 235.939 377.98C237.925 379.952 239.679 381.836 242.65 384.996C242.65 385.068 244.694 386.518 246.998 388.213C249.303 389.909 251.854 391.794 253.1 392.924C256.55 396.403 269.856 405.433 282.495 410.462C288.791 413.442 295.384 415.749 302.164 417.347C308.028 418.793 314.083 419.312 320.108 418.884C323.549 418.682 326.936 417.928 330.138 416.651C331.775 415.993 333.355 415.203 334.863 414.289C336.313 413.463 337.936 412.622 339.487 411.752C351.691 404.665 363.678 395.808 372.288 386.17C379.116 378.57 385.103 370.255 390.145 361.37C396.55 350.535 401.027 338.672 403.379 326.308C404.571 320.103 404.98 313.772 404.596 307.465C404.408 304.001 403.292 293.768 401.422 289.883ZM400.161 330.294C399.653 333.077 398.711 336.164 397.929 339.701C397.349 341.44 396.769 343.266 396.146 345.208C395.58 346.643 394.881 348.021 394.059 349.325C392.783 351.485 378.767 372.284 373.853 377.285C366.331 384.967 358.649 393.939 346.894 402.345C346.358 402.853 343.995 404.389 340.328 406.694C338.531 407.897 336.298 408.984 333.892 410.346C332.689 410.984 331.414 411.796 330.138 412.376C328.861 412.977 327.532 413.463 326.167 413.825C314.76 417.217 298.845 414.303 287.452 409.854L282.713 407.65C280.698 406.563 278.263 405.404 275.958 404.012C272.241 401.92 268.641 399.627 265.174 397.142C257.576 391.585 250.481 385.372 243.969 378.575C239.041 373.502 235.678 369.646 232.924 366.472C227.532 360.094 224.228 356.717 219.517 349.078C216.371 343.754 213.703 338.162 211.545 332.366C209.429 326.487 207.97 320.391 207.197 314.19C205.809 301.693 208.548 289.084 214.995 278.288C220.082 269.591 228.271 261.373 237.49 254.836C242.114 251.546 246.955 248.661 251.665 245.922C253.999 244.472 256.362 243.24 258.637 241.921C260.925 240.771 263.1 239.408 265.131 237.848C267.058 236.329 269.179 235.072 271.436 234.109C272.45 233.645 273.465 233.181 274.538 232.659C275.625 231.922 276.758 231.254 277.929 230.659C284.64 227.267 296.12 225.267 303.555 224.093C305.193 223.789 306.846 223.586 308.513 223.441C310.179 223.296 311.846 223.02 313.513 223.006C316.848 222.974 320.179 223.226 323.471 223.76C330.08 224.804 336.533 226.673 342.676 229.326C354.941 234.764 366.137 242.347 375.738 251.719C382.221 258.122 387.835 265.349 392.435 273.215C396.389 280.447 399.506 288.106 401.726 296.043C402.267 299.086 402.529 302.172 402.509 305.262C402.509 306.711 402.262 308.059 402.248 309.9C402.233 311.741 402.335 314.045 401.886 317.307C401.755 318.916 401.596 320.785 401.422 322.931C401.248 325.076 400.654 327.569 400.175 330.352L400.161 330.294ZM390.768 307.393C390.656 301.233 389.449 295.142 387.203 289.405C386.811 288.231 386.377 286.984 385.927 285.694C385.38 284.374 384.765 283.082 384.086 281.824C382.71 279.053 381.105 276.401 379.289 273.896C371.882 263.344 360.446 255.56 354.996 252.357C346.192 246.881 336.461 243.059 326.283 241.081C323.696 240.662 321.088 240.396 318.47 240.283L314.513 240.196L310.556 240.559C305.353 241.211 300.41 242.139 295.323 243.11C290.285 244.112 285.34 245.533 280.538 247.357C275.726 249.183 271.465 252.43 267.001 254.879C262.536 257.329 257.811 259.228 253.042 261.228C248.102 263.094 243.394 265.526 239.012 268.475C231.413 274.261 225.772 282.239 222.851 291.333C219.901 300.718 219.451 310.71 221.546 320.322C222.752 325.066 224.453 329.672 226.619 334.062C227.257 335.425 227.837 336.845 228.489 338.15L230.547 341.831C231.881 344.15 232.765 346.296 233.547 347.629C235.475 351.253 236.446 353.601 237.823 355.876C239.624 358.73 241.62 361.457 243.795 364.037C246.694 367.168 248.433 368.979 250.1 370.603C251.767 372.226 253.361 373.704 255.898 376.4C255.898 376.487 257.695 377.589 259.681 378.894C261.488 380.068 263.225 381.345 264.884 382.72C265.653 383.401 266.914 384.358 268.551 385.532L271.233 387.416C272.233 388.039 273.335 388.634 274.465 389.3C276.862 390.746 279.345 392.043 281.901 393.185C284.514 394.433 287.201 395.522 289.945 396.446C291.83 397.289 293.766 398.011 295.743 398.606L300.628 400.055C302.483 400.476 304.556 400.824 306.759 401.229C308.962 401.635 311.397 401.577 314.006 401.795C315.252 401.722 316.586 401.548 317.905 401.447L319.92 401.244L321.891 400.751C324.529 399.997 327.326 399.577 330.022 398.591C332.718 397.606 335.574 396.751 338.255 395.432C349.01 390.622 358.583 383.518 366.302 374.618C367.983 372.472 369.573 370.414 371.07 368.443C372.346 366.327 373.578 364.356 374.738 362.486C376.955 358.746 378.637 355.456 380.014 353.006C384.745 343.629 388.02 333.585 389.725 323.22C390.377 319.568 390.464 317.017 390.768 314.741C391.073 312.466 390.826 310.277 390.783 307.45L390.768 307.393ZM386.55 326.467C385.435 332.425 383.615 338.23 381.13 343.759C379.434 346.658 367.867 363.747 366.505 365.501C365.142 367.254 362.939 369.69 361.562 371.545C360.185 373.4 358.475 375.096 356.822 376.966C353.116 380.916 348.94 384.396 344.386 387.329C343.842 387.781 343.265 388.193 342.661 388.561C341.661 389.054 340.371 389.735 338.806 390.533C334.826 392.543 330.667 394.178 326.384 395.417C323.833 395.982 321.239 396.867 318.528 397.446L314.542 398.012C313.154 398.121 311.76 398.15 310.368 398.099C307.553 398.065 304.746 397.798 301.976 397.301C299.28 396.693 296.642 396.011 294.178 395.345L290.177 393.62C289.322 393.257 288.365 392.866 287.394 392.388L284.495 390.837C281.328 389.165 278.268 387.297 275.335 385.242C268.965 380.741 263.018 375.671 257.565 370.095C253.332 366.022 250.68 362.718 248.201 360.283C245.723 357.848 244.128 355.659 242.172 353.659C240.13 351.316 238.237 348.847 236.504 346.267C230.865 337.586 226.816 327.971 224.546 317.872C222.306 307.651 223.851 296.964 228.895 287.796C233.565 279.98 240.163 273.492 248.056 268.953C256.188 264.214 264.739 260.764 271.552 255.908C273.567 254.56 275.045 253.328 276.639 252.314C277.446 251.811 278.278 251.352 279.132 250.937C280.002 250.429 280.93 249.908 282.031 249.4C287.67 246.748 297.192 245.052 303.382 243.994C308.817 242.787 314.383 242.266 319.949 242.443C325.478 242.87 330.934 243.97 336.197 245.719C346.852 249.134 356.711 254.66 365.186 261.967C371 266.866 375.991 272.664 379.97 279.143C383.295 284.765 385.923 290.772 387.797 297.029C388.468 299.876 388.736 302.804 388.594 305.726C388.594 306.9 388.319 308.059 388.232 309.581C388.145 311.103 388.232 313.045 387.899 315.741C387.754 317.075 387.623 318.64 387.449 320.437C387.275 322.235 386.927 324.192 386.565 326.525L386.55 326.467ZM423.772 282.984C423.062 281.027 421.41 278.128 420.656 276.07C419.902 274.012 418.772 272.055 417.757 270.011C417.264 268.997 416.8 267.939 416.308 266.953L414.583 264.054C413.394 262.097 412.293 260.097 411.046 258.256C408.611 254.652 405.969 251.191 403.132 247.893C401.799 246.342 400.523 244.806 399.204 243.414L395.349 239.646C393.317 237.638 391.178 235.741 388.942 233.964C377.615 224.468 364.592 217.204 350.561 212.556C347.024 211.497 343.56 210.193 339.951 209.497L334.53 208.251C332.733 207.859 330.892 207.671 329.066 207.367C321.743 206.172 314.313 205.764 306.904 206.149C299.523 206.415 292.184 207.386 284.988 209.048C277.876 210.894 270.881 213.169 264.044 215.86L243.52 223.47C236.428 225.743 229.566 228.679 223.024 232.239C211.8 239.344 202.588 249.21 196.268 260.894C189.499 272.896 186.267 286.752 185.527 300.218C185.468 307.203 186.212 314.173 187.745 320.988C189.263 328.091 191.244 335.088 193.673 341.933C194.528 344.832 195.268 347.02 196.05 348.963C196.833 350.905 197.384 352.702 198.196 354.412C200.136 358.832 202.49 363.059 205.225 367.037C207.665 370.628 210.287 374.092 213.081 377.415L220.546 386.315L221.995 387.634C222.88 388.402 224.097 389.431 225.402 390.533C227.938 392.779 230.982 395.127 232.33 396.62C236.301 400.969 251.68 412.405 266.363 419.26C273.67 423.194 281.28 426.538 289.119 429.262C295.839 431.674 302.761 433.483 309.803 434.668C313.773 435.321 317.782 435.718 321.804 435.857C326.141 435.884 330.436 435.006 334.414 433.277C338.392 431.605 342.194 429.541 345.763 427.116C349.328 424.77 352.773 422.245 356.083 419.55C359.373 416.912 362.548 414.202 365.577 411.52C368.606 408.839 371.375 406.027 374.071 403.288L388.377 388.213C392.725 383.865 396.436 380.183 399.248 377.372C404.805 371.997 409.978 366.238 414.728 360.138C419.189 354.371 422.86 348.034 425.642 341.295C428.48 334.229 429.898 326.674 429.816 319.061C430.001 306.798 427.958 294.604 423.787 283.071L423.772 282.984ZM426.816 325.511C426.66 327.185 426.384 328.847 425.99 330.482C425.568 332.684 425.011 334.857 424.323 336.99C423.903 338.208 423.555 339.541 423.018 340.918C422.482 342.295 421.83 343.745 421.178 345.266C418.351 351.369 408.901 364.182 406.422 366.834C404.219 369.211 395.682 375.284 390.609 379.415C385.509 383.512 380.735 387.999 376.332 392.837C371.853 397.635 367.287 402.635 362.127 407.752C356.641 413.437 350.654 418.617 344.241 423.232C341.78 425.094 339.138 426.706 336.356 428.044C333.859 429.34 331.237 430.38 328.529 431.146C325.275 431.887 321.921 432.093 318.601 431.755C310.564 431.039 302.602 429.643 294.801 427.58C287.058 425.449 279.498 422.705 272.19 419.376C269.899 418.202 264.16 415.216 258.739 411.709C253.318 408.201 248.129 404.375 246.1 402.795C237.273 395.81 229.161 387.969 221.879 379.386C216.444 372.907 212.835 367.965 209.994 363.892C207.153 359.819 204.95 356.645 202.892 353.18C201.784 351.447 200.768 349.657 199.848 347.817C199.326 346.846 198.819 345.832 198.268 344.774C197.717 343.716 197.311 342.527 196.819 341.309C193.937 334.497 191.841 327.377 190.571 320.09C189.255 312.746 188.769 305.278 189.122 297.826C189.768 282.777 195.014 268.288 204.153 256.314C212.231 245.984 222.615 237.689 234.475 232.094C246.781 226.398 259.232 221.948 270.073 217.208C276.364 214.425 279.756 212.584 286.423 210.903C295.018 208.613 308.875 208.004 317.876 208.758C319.891 208.758 321.862 209.091 323.862 209.222L329.805 210.004C333.791 210.381 337.646 211.454 341.56 212.193C343.531 212.584 345.401 213.28 347.358 213.788C349.314 214.295 351.213 214.831 353.083 215.585C356.857 216.903 360.554 218.432 364.157 220.165C371.396 223.565 378.256 227.719 384.623 232.558C399.625 244.209 411.35 259.551 418.656 277.085C425.425 293.623 425.787 305.798 426.729 310.074C427.196 313.989 427.424 317.929 427.41 321.872C427.193 322.945 427.019 324.177 426.831 325.598L426.816 325.511ZM455.051 311.32C454.836 306.757 454.244 302.22 453.283 297.754C452.761 295.333 452.225 292.826 451.688 290.304C450.906 287.811 450.08 285.289 449.253 282.738C447.804 277.563 445.267 272.707 443.195 267.808C442.122 265.359 440.702 263.127 439.499 260.865C438.296 258.604 437.107 256.329 435.73 254.343C432.933 250.342 430.614 246.429 428.106 243.313C425.598 240.196 423.511 237.515 421.83 235.355C410.636 222.001 397.345 210.556 382.478 201.467C367.582 192.191 351.003 185.945 333.689 183.088C316.108 181.03 298.526 183.088 281.509 187.118C264.444 191.288 247.98 197.62 232.518 205.961C225.936 209.651 219.727 213.971 213.98 218.861C207.905 223.913 202.306 229.512 197.253 235.587C186.846 247.942 179.046 262.275 174.323 277.722C174.048 278.81 173.729 280.259 173.352 281.955C172.912 283.891 172.588 285.851 172.381 287.825C171.789 292.635 171.455 297.474 171.381 302.319C171.472 310.929 172.029 319.527 173.048 328.076C173.801 331.497 174.381 334.251 174.917 336.7C175.178 337.918 175.439 339.063 175.671 340.15C175.903 341.237 176.294 342.31 176.599 343.368C178.132 348.841 180.124 354.174 182.556 359.312C188.731 372.357 190.513 374.212 196.471 384.909L208.153 399.403C209.659 401.528 211.285 403.565 213.023 405.505C215.342 407.969 218.038 411.013 221.256 414.115C228.218 420.781 235.75 426.824 243.766 432.175C246.51 434.268 249.37 436.203 252.332 437.973C254.492 439.292 256.912 440.872 259.695 442.437L269.03 447.278C272.407 448.902 276.19 450.38 280.046 452.119C283.901 453.859 288.22 455.018 292.554 456.598L299.309 458.453L302.758 459.41C303.338 459.54 303.903 459.743 304.614 459.859L306.469 460.019L313.847 460.541C316.325 460.541 318.847 460.439 321.369 460.396C331.652 459.915 341.667 456.956 350.561 451.771C358.886 446.686 366.246 440.17 372.302 432.523C378.1 425.493 382.97 418.724 387.551 413.115C391.295 408.401 395.337 403.932 399.653 399.736C412.568 386.981 428.642 377.14 439.716 365.385C443.091 361.863 446.013 357.934 448.413 353.688C448.92 352.847 449.398 352.006 449.862 351.151C450.326 350.296 450.63 349.354 451.022 348.441C451.886 346.44 452.594 344.376 453.138 342.266C454.262 338.41 455.01 334.454 455.37 330.453C455.587 326.902 455.298 313.248 455.051 311.32ZM451.442 337.715C450.138 341.44 449.717 346.078 445.137 353.992C441.787 359.177 437.815 363.933 433.31 368.153C427.512 373.806 412.872 384.865 408.915 387.895C405.234 390.793 395.711 397.62 390.073 403.099C384.515 408.542 379.397 414.416 374.767 420.666C369.952 427.163 364.729 433.345 359.127 439.176C356.032 442.268 352.633 445.041 348.981 447.452C345.04 450.103 340.733 452.164 336.197 453.569C332.772 454.774 329.215 455.563 325.601 455.917C322.202 456.334 318.778 456.518 315.354 456.468C313.441 456.54 311.411 456.25 309.31 456.12C308.266 456.12 307.208 455.975 306.121 455.902H305.338C305.147 455.9 304.956 455.871 304.773 455.815L303.193 455.381C298.845 454.134 294.207 453.163 289.626 451.482L282.611 449.206L275.726 446.423C271.148 444.633 266.663 442.61 262.29 440.364C257.942 438.19 254.043 435.668 250.202 433.552C248.984 432.639 246.824 431.059 244.201 429.131C242.911 428.175 241.418 427.174 239.997 426.015C238.577 424.855 237.099 423.565 235.649 422.333L231.301 418.637C229.967 417.362 228.721 416.115 227.547 414.97C225.242 412.68 223.285 410.854 222.285 409.68C213.195 399.87 205.227 389.077 198.529 377.502C197.239 375.342 196.065 373.313 194.949 371.429L192.151 365.95C191.267 364.254 190.412 362.689 189.629 361.196L187.644 356.847L184.165 349.513C183.194 347.194 182.281 345.049 181.382 342.846C179.338 337.93 177.59 332.897 176.149 327.772C173.178 311.016 173.251 292.521 178.338 275.592C183.634 258.526 193.356 243.167 206.515 231.079C212.035 225.938 217.979 221.274 224.285 217.136C231.013 212.786 238.009 208.865 245.23 205.395C259.166 198.835 273.698 193.622 288.626 189.828C296.482 187.814 300.657 186.35 308.672 184.9C314.866 184.038 321.134 183.839 327.37 184.306C329.037 184.393 330.733 184.567 332.356 184.784C333.979 185.002 335.646 185.248 337.226 185.552C340.386 186.06 343.256 187.103 345.923 187.727C350.499 188.935 355 190.411 359.402 192.147C361.634 192.933 363.813 193.863 365.925 194.93L372.375 197.829C376.462 200.221 380.695 202.351 384.666 204.975C388.638 207.598 392.638 210.106 396.262 213.193C411.276 224.89 424.103 239.15 434.15 255.314C440.662 266.469 445.792 278.374 449.427 290.767C454.863 309.059 452.616 334.352 451.442 337.715ZM472.329 331.105C472.329 324.728 472.198 321.38 472.111 318.597C471.746 307.647 469.834 296.804 466.429 286.39C462.815 275.175 457.953 264.401 451.935 254.27C447.427 246.731 442.42 239.502 436.948 232.63C424.942 217.262 410.695 203.786 394.682 192.655C378.666 181.61 360.736 172.913 341.4 168.898C321.891 165.246 302.034 166.42 282.799 169.826C263.413 173.292 244.644 179.598 227.097 188.538C212.458 195.785 198.514 207.164 186.672 220.571C180.792 227.413 175.621 234.834 171.236 242.718C168.96 246.617 167.134 250.748 165.221 254.836C163.641 259.039 161.887 263.185 160.684 267.475C160.175 269.011 159.749 270.574 159.408 272.157C159.046 274.07 158.64 276.273 158.191 278.665C157.524 283.506 156.944 289.173 156.741 294.855C156.333 304.479 156.643 314.121 157.669 323.699C157.973 325.655 158.176 327.424 158.452 329.047C158.727 330.671 159.162 332.134 159.481 333.526C160.322 336.193 161.075 338.483 161.8 340.875C163.786 346.917 166.129 352.836 168.815 358.601C175.831 373.096 177.512 375.371 183.933 387.431C183.933 387.547 186.238 390.721 188.847 394.388C191.456 398.055 194.644 402.056 195.949 404.36C196.442 405.172 197.094 406.23 197.949 407.447C198.804 408.665 199.862 409.97 201.022 411.491C203.661 415.059 206.486 418.484 209.487 421.754C211.154 423.609 212.907 425.522 214.705 427.551C216.502 429.581 218.575 431.334 220.502 433.248C222.43 435.161 224.416 437.147 226.59 438.886C228.764 440.625 230.822 442.379 232.881 444.089C233.62 444.698 234.678 445.771 236.243 446.988C237.809 448.206 239.766 449.612 242.041 451.337L245.694 454.076C246.998 455.018 248.491 455.859 250.042 456.844L254.811 459.859C256.52 460.986 258.296 462.008 260.13 462.918C268.422 467.49 277.111 471.303 286.09 474.31C288.554 475.122 291.047 475.919 293.583 476.731C296.12 477.543 298.801 477.948 301.425 478.586C306.838 480.053 312.413 480.837 318.021 480.92C329.457 481.297 340.966 477.716 350.967 472.469C360.497 467.291 369.275 460.834 377.057 453.279C383.912 446.995 390.429 440.352 396.581 433.378C399.306 430.334 401.552 427.261 403.654 424.551C405.756 421.84 407.857 419.637 409.669 417.71C416.53 410.249 424.081 403.455 432.222 397.417C440.18 391.46 448.268 385.996 454.587 379.401C458.395 375.441 461.554 370.907 463.951 365.964C464.458 364.95 464.907 363.964 465.4 362.993C465.893 362.022 466.168 360.978 466.589 359.92C467.422 357.646 468.134 355.328 468.719 352.977C469.415 350.339 470.633 347.252 471.082 344.759C471.858 340.233 472.275 335.653 472.329 331.062V331.105ZM466.98 349.223C465.611 355.293 463.483 361.166 460.646 366.704C457.313 372.808 452.892 378.251 447.601 382.763C440.977 388.851 423.511 401.026 420.728 403.418C417.945 405.81 402.784 418.057 398.987 421.84C392.711 428.175 386.391 433.537 380.782 440.132C378.028 443.466 375.245 446.901 372.085 450.148C370.558 451.849 368.911 453.437 367.157 454.902C365.418 456.352 363.707 458.062 361.794 459.482C353.916 466.178 344.787 471.242 334.936 474.383C331.087 475.721 327.064 476.492 322.992 476.673C322.166 476.673 321.326 476.832 320.441 476.876L317.644 476.803C316.702 476.803 315.731 476.803 314.745 476.803L311.672 476.426C310.6 476.282 309.527 476.209 308.397 475.977C307.266 475.745 306.164 475.484 305.005 475.209L297.83 473.644C295.31 473.059 292.823 472.338 290.38 471.484C287.858 470.716 285.307 469.918 282.684 469.092L275.016 466.077L271.146 464.628C269.856 464.077 268.609 463.439 267.363 462.845L259.855 459.236C257.42 457.961 255.101 456.468 252.782 455.12C248.316 452.478 243.996 449.599 239.838 446.495L237.099 444.408C236.026 443.466 234.779 442.35 233.446 441.118C230.326 438.493 227.341 435.711 224.503 432.784C219.645 427.916 215.039 422.802 210.704 417.463C201.381 405.626 193.08 393.019 185.89 379.778C180.44 369.776 176.947 362.384 173.932 356.282C171.192 350.122 168.699 345.498 166.685 340.541L163.38 332.888C162.844 331.555 162.467 330.192 161.93 328.728C161.394 327.264 161.22 325.612 160.829 323.931C159.322 314.194 158.918 304.319 159.626 294.492C160.089 284.563 161.799 274.731 164.713 265.228C170.837 246.137 181.921 229.015 196.833 215.614C208.588 204.729 224.372 195.249 241.041 188.074C256.992 181.433 273.584 176.45 290.554 173.203C299.483 171.449 304.28 170.116 313.325 169.116C320.312 168.609 327.333 168.847 334.269 169.826C341.239 170.867 348.099 172.54 354.764 174.827C374.904 181.811 393.51 192.608 409.568 206.627C425.756 220.534 439.524 237.03 450.311 255.445C453.802 261.528 456.915 267.821 459.631 274.287C462.491 281.173 464.836 288.26 466.647 295.493C468.151 302.721 469.12 310.051 469.546 317.423C470.14 324.496 470.256 337.541 466.98 349.18V349.223ZM486.49 339.164C486.634 337.961 486.606 338.193 486.49 339.164ZM487.62 329.67C487.28 317.223 485.564 304.852 482.504 292.782C481.677 289.506 480.982 286.216 480.054 282.94C479.126 279.665 477.822 276.548 476.749 273.389C476.17 271.809 475.633 270.229 475.097 268.663C474.561 267.098 473.778 265.663 473.14 264.17C471.778 261.271 470.459 258.372 469.169 255.589C467.949 252.912 466.564 250.313 465.023 247.806C463.574 245.356 462.255 243.023 460.994 240.849C459.859 238.833 458.59 236.897 457.196 235.051C455.964 233.312 454.877 231.717 453.892 230.326C428.657 194.481 390.232 168.826 348.082 156.882C345.485 156.037 342.837 155.354 340.154 154.839L332.124 152.998C326.786 151.681 321.368 150.712 315.905 150.099C304.957 148.798 293.911 148.546 282.915 149.345C271.903 150.08 260.979 151.802 250.274 154.491C247.578 155.1 244.94 155.94 242.273 156.694C240.94 157.056 239.635 157.549 238.331 157.984C237.736 158.39 236.881 157.984 236.2 158.187L234.214 158.825C231.591 159.738 229.025 160.781 226.402 161.724C223.778 162.666 221.314 163.985 218.821 165.188C201.351 174 186.05 186.573 174.019 202.004C161.423 217.802 152.799 236.674 147.059 255.633C146.175 258.314 145.305 262.793 144.16 268.142C143.783 270.838 143.349 273.765 142.885 276.838C142.421 279.911 142.32 283.056 141.986 286.231C141.049 296.988 140.676 307.786 140.87 318.582C141.178 325.164 141.943 331.717 143.16 338.193C143.619 341.198 144.288 344.167 145.16 347.078C145.624 348.716 146.146 350.499 146.697 352.47C147.255 354.664 147.942 356.822 148.755 358.935C150.407 363.153 151.654 366.515 152.799 369.385C153.944 372.255 155.191 374.516 156.191 376.792C158.307 381.271 160.09 385.561 163.713 392.344C163.713 392.431 164.351 393.359 165.25 394.852C166.148 396.345 167.351 398.374 168.83 400.403C171.729 404.549 174.99 409.259 176.454 411.868C177.57 413.724 179.599 416.478 182.049 419.927C183.324 421.638 184.73 423.522 186.209 425.537C187.687 427.551 189.586 429.479 191.398 431.624C193.209 433.769 195.036 435.973 197.108 438.176L203.544 444.684C207.747 449.22 212.69 453.163 217.169 457.192C226.429 465.402 236.401 472.77 246.969 479.209L253.318 482.934L256.637 484.848L260.203 486.587C265.163 489.138 270.264 491.408 275.48 493.385C278.19 494.4 280.901 495.53 283.727 496.501L292.424 498.98C293.96 499.4 295.25 499.864 296.975 500.226L301.613 500.719C304.701 501.067 307.817 501.415 310.991 501.516C323.744 502.534 336.577 501.487 348.995 498.414C360.973 495.323 372.014 489.352 381.159 481.021C389.855 473.151 396.001 464.396 401.175 456.801C406.35 449.206 410.597 442.625 414.061 437.828C420.772 428.493 427.526 418.985 436.759 412.825C445.76 406.36 455.602 401.519 463.53 395.098L465.763 393.315L467.734 391.489C468.919 390.43 470.042 389.302 471.096 388.112C472.097 386.952 472.995 385.894 473.879 384.894C474.764 383.894 475.329 382.734 476.083 381.72C478.971 377.376 481.212 372.635 482.735 367.646C483.663 364.747 485.634 355.876 486.229 353.151C486.721 350.267 487.693 335.483 487.62 329.67ZM481.982 363.167C481.181 365.787 480.212 368.353 479.083 370.849C478.394 372.59 477.565 374.272 476.604 375.879C475.447 378.098 474.114 380.221 472.618 382.227C467.847 388.39 462.088 393.719 455.573 397.997L441.078 407.549C435.05 411.685 429.245 416.136 423.685 420.884C421.714 422.739 409.944 437.031 403.987 444.727C398.03 452.424 392.653 460.178 386.507 467.541C380.32 475.36 372.773 481.998 364.229 487.138C354.079 492.866 342.79 496.286 331.167 497.153C330.544 497.284 328.964 497.429 326.587 497.632C324.21 497.835 321.021 497.719 317.195 497.777L311.035 497.443C308.846 497.443 306.498 497.197 304.034 496.893C302.816 496.762 301.57 496.646 300.28 496.487L298.337 496.298C297.77 496.266 297.21 496.159 296.671 495.979L288.713 493.733L284.582 492.573L280.437 491.037L271.929 487.863C269.117 486.689 266.334 485.297 263.493 484.051C260.608 482.822 257.788 481.448 255.043 479.934L246.853 475.412C244.085 473.962 241.621 472.093 239.041 470.469C236.461 468.846 233.953 467.223 231.634 465.454L224.836 460.236C218.889 455.31 213.218 450.06 207.849 444.51C204.588 440.944 201.268 437.436 198.558 434.364L192.702 427.029C182.314 413.651 173.287 399.269 165.757 384.097C163.018 378.299 160.901 373.284 158.829 368.907C157.133 364.385 155.611 360.471 154.234 356.963C149.422 342.773 146.204 334.758 144.088 319.017C143.16 308.146 143.943 296.913 144.986 285.796C145.966 274.639 148.074 263.611 151.277 252.879C157.427 231.204 168.977 211.445 184.846 195.452C197.471 182.625 215.284 171.725 234.359 164.796C253.274 157.23 273.581 154.302 291.076 153.288C301.294 152.723 306.817 152.099 317.05 152.549C323.688 152.911 331.936 154.94 340.154 156.897C342.198 157.404 344.299 157.752 346.285 158.448C348.271 159.144 350.242 159.781 352.083 160.419L362.707 163.956C385.227 172.189 406.083 184.404 424.279 200.018C442.421 215.699 457.147 234.939 467.545 256.546C468.995 259.938 470.633 263.46 472.227 267.069C473.821 270.678 474.894 274.635 476.271 278.52C476.909 280.491 477.619 282.433 478.213 284.419C478.808 286.405 479.184 288.492 479.663 290.535L481.112 296.71C481.668 298.74 482.07 300.809 482.315 302.899C485.475 319.51 484.62 334.062 484.475 347.832C484.562 347.542 483.663 358.746 481.982 363.167ZM506.086 288.434C502.443 274.239 497.181 260.51 490.403 247.516C485.292 237.832 479.478 228.536 473.01 219.701C458.865 199.98 441.735 182.581 422.236 168.13C402.757 153.459 380.732 142.52 357.272 135.866C345.467 132.754 333.4 130.741 321.224 129.85C309.065 128.877 296.849 128.838 284.684 129.734C260.391 131.532 236.084 136.982 213.661 147.432C194.267 156.995 177.101 170.532 163.278 187.161C159.626 191.365 156.495 196.017 153.234 200.583C150.335 205.366 147.219 210.033 144.784 215.078C142.044 219.977 139.899 225.137 137.638 230.224C136.522 232.775 135.667 235.428 134.739 238.022C133.811 240.617 132.724 243.182 131.999 245.849C131.55 247.299 131.014 249.313 130.405 251.647C130.072 252.821 129.753 254.068 129.405 255.401C129.057 256.735 128.883 258.155 128.564 259.648C128.043 262.619 127.419 265.823 126.868 269.185C126.318 272.548 126.042 276.07 125.622 279.578C124.348 291.477 123.801 303.442 123.984 315.408C124.1 320.293 124.201 324.221 124.607 327.685C125.013 331.149 125.289 334.164 125.752 337.251C126.992 345.11 128.932 352.842 131.55 360.355C133.857 367.135 136.523 373.788 139.537 380.285C141.856 385.271 144.015 389.924 147.827 397.577C147.914 397.707 150.538 401.766 153.538 406.476C155.118 408.824 156.77 411.303 158.292 413.535C159.814 415.767 161.191 417.753 162.017 419.174C166.952 426.897 172.461 434.237 178.498 441.133C187.223 451.351 196.731 460.873 206.936 469.614C217.169 478.753 228.167 486.996 239.809 494.255C249.816 500.506 260.333 505.903 271.247 510.387L275.77 512.213L280.408 513.822C283.524 514.996 286.771 515.895 290.003 516.837C296.696 518.845 303.563 520.219 310.513 520.939C324.471 520.939 338.893 519.417 352.315 515.054C365.248 510.74 377.182 503.868 387.406 494.849C397.015 486.312 404.219 476.89 410.423 468.759C416.626 460.628 421.497 453.453 425.526 448.235C429.555 443.017 433.295 438.089 437.382 433.248C439.368 430.74 441.571 428.58 443.716 426.348C445.967 424.221 448.323 422.209 450.775 420.319C460.458 412.694 470.952 406.621 479.764 399.707C485.166 395.624 490.078 390.93 494.403 385.72C496.141 383.622 497.72 381.399 499.129 379.067C499.853 377.893 500.578 376.661 501.346 375.371C502.115 374.081 502.651 372.545 503.347 371.023C506.173 364.747 509.376 354.746 509.884 347.948C510.13 344.701 510.681 334.439 510.71 328.685C510.954 315.122 509.399 301.588 506.086 288.434ZM503.187 366.196C502.694 367.472 501.97 368.675 501.317 369.994C500.665 371.313 499.984 372.748 499.071 374.342C498.158 375.937 496.998 377.618 495.722 379.633C494.201 381.488 492.708 383.822 490.504 386.155C486.359 391.083 480.083 396.678 470.879 403.259C466.328 406.592 460.994 410.158 455.153 414.521C449.311 418.884 438.672 428.16 436.672 430.059C434.672 431.958 421.134 447.597 414.235 455.917C407.336 464.237 401.045 472.585 393.943 480.557C386.609 488.958 378.123 496.277 368.737 502.299C357.696 509.119 345.355 513.562 332.501 515.344C331.805 515.503 330.08 515.764 327.457 516.141C324.833 516.518 321.282 516.677 317.079 516.88L310.194 516.967H309.324C309.114 516.989 308.901 516.964 308.701 516.895L306.817 516.576L302.903 515.866C297.113 514.707 291.385 513.256 285.742 511.517C260.116 503.179 236.215 490.264 215.197 473.397C211.965 470.6 203.805 463.628 196.442 455.83C190.458 449.603 184.793 443.077 179.469 436.277C167.857 421.497 157.83 405.538 149.552 388.663C144.705 378.883 140.488 368.803 136.928 358.485C134.13 350.629 132.333 344.382 130.666 337.976C129.999 334.743 129.086 331.511 128.564 327.902C128.289 326.134 127.927 324.279 127.695 322.293C127.463 320.307 127.318 318.263 127.129 316.046C126.47 303.726 126.956 291.373 128.579 279.143L129.825 269.939C130.347 266.866 131.028 263.851 131.608 260.793L132.55 256.242L133.768 251.748C134.637 248.763 135.319 245.733 136.319 242.776C144.03 219.179 156.944 196.96 175.164 179.943C182.88 172.754 191.334 166.399 200.384 160.984C210.098 155.453 220.284 150.796 230.822 147.07C251.181 140.047 272.375 135.734 293.859 134.242C305.164 133.344 311.252 132.459 322.616 132.561C331.328 132.952 339.99 134.102 348.503 135.996C357.066 137.887 365.462 140.471 373.607 143.722C422.888 163.144 464.328 201.409 488.809 248.545C492.752 256.36 496.199 264.415 499.129 272.664C502.125 281.476 504.47 290.497 506.144 299.653C507.732 308.653 508.61 317.764 508.767 326.902C509.028 335.41 507.898 342.744 507.318 350.093C506.45 355.569 505.067 360.951 503.187 366.167V366.196ZM532.176 313.089C531.973 309.987 529.393 294.246 529.074 292.463C528.349 288.767 527.871 284.897 526.885 281.085C525.9 277.273 524.697 273.403 523.595 269.49C522.5 265.544 521.159 261.672 519.58 257.894L517.377 252.198C516.687 250.289 515.889 248.421 514.986 246.603C511.391 239.356 508.159 232.108 504.071 225.919C502.129 222.76 500.419 219.614 498.491 216.802C496.563 213.99 494.621 211.396 492.867 208.917C489.919 204.693 486.735 200.637 483.33 196.771C481.156 194.264 479.155 191.626 476.909 189.22L469.951 182.117C465.502 177.189 460.689 172.623 456.124 167.623C453.845 165.159 451.373 162.881 448.732 160.81C446.152 158.651 443.47 156.636 440.774 154.679C435.15 150.983 429.353 147.606 423.511 144.432L414.467 140.286C411.458 138.84 408.37 137.563 405.219 136.46C398.9 134.3 392.769 131.677 386.377 129.966C373.78 125.767 360.854 122.63 347.734 120.588C321.463 116.266 294.749 115.292 268.233 117.69C241.693 120.212 215.806 129.546 191.89 142.692C189.426 144.011 173.338 154.708 171.134 156.607C168.931 158.506 166.569 160.26 164.525 162.405C155.753 170.573 148.017 179.788 141.493 189.843C134.822 200.04 129.309 210.949 125.057 222.368L122.013 230.978C120.984 233.877 120.346 236.776 119.476 239.747C117.679 245.545 116.577 251.517 115.389 257.401C114.519 260.706 114.113 266.199 113.273 272.751C112.838 276.027 112.765 279.578 112.519 283.288C112.273 286.999 112.157 290.84 111.968 294.695C111.78 298.551 112.099 302.464 112.171 306.291C112.244 310.117 112.171 313.741 112.635 317.176C113.099 320.611 113.258 323.815 113.766 326.627C114.273 329.439 114.505 331.917 114.94 333.874C115.447 336.497 115.896 338.86 116.302 341.049C116.708 343.237 117.302 345.15 117.751 346.991C118.549 350.716 119.65 353.847 120.549 357.137C123.123 365.433 126.247 373.549 129.898 381.43C134.464 391.417 137.652 397.026 140.551 402.287C142.001 404.94 143.45 407.448 145.088 410.332C146.726 413.216 148.552 416.449 150.886 420.478C150.886 420.478 151.712 421.667 152.871 423.377L157.495 429.928C161.032 434.914 165.061 440.553 167.163 443.495C170.062 447.843 176.802 456.902 185.614 467.223C195.165 478.397 205.404 488.964 216.27 498.864C227.119 509.267 238.921 518.628 251.52 526.824C261.246 532.926 272.972 539.55 287.003 541.985C294.004 542.854 301.149 544.478 308.585 544.202C312.296 544.376 316.079 544.086 319.862 544.014L325.543 543.797C327.428 543.797 329.312 543.376 331.225 543.159C346.672 541.701 361.635 536.989 375.129 529.331C387.813 521.729 399.091 511.996 408.466 500.56C417.351 489.848 424.598 479.282 431.121 470.237C437.643 461.193 443.296 453.583 447.978 448.104C450.172 445.425 452.519 442.874 455.008 440.466C457.602 438.161 460.168 435.828 462.965 433.726C468.4 429.378 474.111 425.45 479.619 421.42C490.722 413.434 501.114 405.041 509.101 395.707C513.917 390.106 518.048 383.951 521.407 377.372C524.239 371.827 526.474 365.996 528.074 359.978C529.932 352.814 531.413 345.557 532.509 338.237C533.036 329.854 532.944 321.444 532.234 313.074L532.176 313.089ZM524.639 364.283C523.929 366.153 523.189 368.313 522.233 370.762C521.276 373.212 519.74 375.85 518.174 379.067C513.42 387.353 507.569 394.958 500.781 401.679C496.433 406.027 490.794 410.042 484.518 414.883C478.242 419.724 465.342 428.957 463.154 430.421C460.965 431.885 453.123 439.118 448.659 443.466C444.412 447.916 440.325 452.351 436.571 457.004C429.048 466.237 422.41 475.774 415.293 485.326C408.176 494.878 400.552 504.401 390.884 513.3C380.443 523.077 368.021 530.492 354.46 535.042C353.097 535.81 347.068 537.462 337.965 539.26C326.216 540.972 314.332 541.588 302.468 541.101C299.019 540.84 295.511 540.173 291.902 539.651L286.467 538.897C284.698 538.564 282.944 538.115 281.147 537.723C273.92 535.599 266.949 532.682 260.362 529.027C247.531 521.861 235.484 513.374 224.416 503.705C220.865 500.676 212.299 492.53 204.24 483.92C196.181 475.31 188.542 466.266 185.6 462.541C177.295 452.221 170.468 442.799 164.757 434.291C159.046 425.783 154.35 418.188 150.378 411.448C142.522 397.939 137.333 387.822 133.521 379.415C129.709 371.009 126.883 364.428 124.201 357.674C121.314 350.014 118.979 342.157 117.215 334.164C115.776 327.578 114.807 320.899 114.316 314.176C114.171 307.421 113.925 300.638 114.041 293.884C114.722 280.302 115.49 266.62 118.389 253.299C119.476 246.53 121.491 239.993 123.23 233.369C125.282 226.855 127.702 220.463 130.478 214.222C135.995 201.695 143.25 190.009 152.031 179.508C159.599 170.741 168.148 162.872 177.512 156.056C180.034 154.404 182.527 152.65 185.223 151.201C187.919 149.751 190.818 148.664 193.47 147.113C196.123 145.562 198.935 144.33 201.689 142.953L205.863 140.968L210.095 139.141C232.837 129.575 257.144 124.734 278.35 121.994C290.713 120.443 297.381 119.095 309.788 118.835C325.891 118.617 350.72 121.922 366.592 126.082C380.66 129.651 394.386 134.453 407.611 140.431C420.656 146.91 433.469 153.81 445.035 162.637C456.906 171.029 467.458 181.161 477.546 191.626L484.605 199.931L488.127 204.076L491.287 208.425L497.665 217.31C499.708 220.325 501.433 223.528 503.347 226.615C513.491 243.653 520.965 262.145 525.509 281.447C530.147 301.464 530.871 331.265 530.118 338.135C529.596 343.31 526.262 360.529 524.697 364.254L524.639 364.283ZM556.324 302.87C555.106 289.376 549.888 266.083 542.177 250.154C534.814 234.094 524.494 218.933 514.957 206.091C505.419 193.249 496.636 182.581 490.751 175.87L487.185 171.826C485.939 170.522 484.663 169.29 483.402 168.014C480.88 165.449 478.344 162.912 475.619 160.564L467.719 153.215C465.052 150.809 462.53 148.157 459.747 145.867C458.414 144.664 456.979 143.577 455.689 142.287C455.129 141.556 454.441 140.932 453.66 140.446C452.949 139.909 452.21 139.417 451.428 138.996L442.397 133.039C436.208 129.285 430.034 125.589 423.656 122.212C410.949 115.375 397.757 109.479 384.188 104.572C370.571 99.559 356.439 96.0734 342.053 94.1796C338.487 93.6868 334.805 93.6143 331.167 93.3099C327.529 93.0055 323.92 93.136 320.34 93.1215C313.093 93.1215 305.962 93.3679 298.787 93.9477C284.448 94.9087 270.205 96.9828 256.188 100.151C242.128 103.327 228.38 107.756 215.111 113.385C211.791 114.834 208.574 116.4 205.298 117.892C202.022 119.385 198.891 121.183 195.717 122.908C189.455 126.502 183.165 129.72 176.976 133.459C166.554 139.504 157.394 148.621 148.77 158.1C140.022 167.751 132.366 178.338 125.941 189.669C119.417 201.216 113.987 213.347 109.722 225.905C105.559 238.435 102.171 251.21 99.5755 264.156C98.8218 267.779 98.126 273.736 97.3723 280.882C97.2564 284.506 96.923 288.434 96.981 292.478C97.0389 296.522 97.2564 300.798 97.8361 304.986C98.7941 313.088 100.246 321.123 102.184 329.047C103.127 332.671 103.634 336.106 104.504 339.077C105.373 342.049 105.953 344.672 106.489 346.759C107.939 352.354 109.388 356.761 110.548 360.703C111.707 364.645 113.055 367.95 114.287 371.414C115.519 374.879 117.012 378.299 118.781 382.43C120.549 386.561 122.781 391.243 125.767 397.055C131.217 407.65 134.84 413.579 138.174 419.174C139.855 421.956 141.493 424.638 143.378 427.711C145.262 430.784 147.436 434.132 150.118 438.408C150.262 438.582 153.654 443.147 157.611 448.467L168.583 462.787C175.058 471.496 181.971 479.87 189.296 487.877C199.958 499.67 211.328 510.803 223.343 521.214C225.445 523.127 229.909 527.084 236.388 532.375C244.605 539.007 253.295 545.029 262.391 550.392C268.129 553.837 274.274 556.554 280.683 558.479C287.793 560.426 295.126 561.445 302.497 561.509C317.717 561.712 334.11 560.161 349.952 554.928C365.839 549.612 380.617 541.428 393.551 530.781C405.827 520.637 417.001 509.23 426.888 496.748C436.237 485.036 444.383 473.803 451.529 464.121C453.341 461.715 455.037 459.294 456.79 457.308C457.66 456.279 458.66 455.381 459.559 454.409C460.458 453.438 461.501 452.743 462.458 451.931C465.975 449.21 469.685 446.749 473.561 444.568C486.605 437.089 500.636 430.407 512.391 421.13C523.77 412.501 533.161 401.527 539.93 388.953C543.672 381.895 546.712 374.486 549.004 366.834C550.91 360.377 552.363 353.795 553.352 347.136C554.468 339.353 557.251 312.77 556.382 302.841L556.324 302.87ZM551.888 340.947C551.294 344.194 551.033 348.194 550.149 352.456C549.656 354.572 549.105 356.963 548.468 359.703C547.613 362.442 546.931 365.675 545.569 369.313C542.467 379.189 538.013 388.588 532.335 397.243C528.159 403.559 523.255 409.363 517.725 414.535C511.492 420.333 498.665 428.421 493.954 431.102C489.78 433.494 482.011 437.465 475.981 440.234C469.902 442.958 464.138 446.335 458.791 450.308C456.109 452.382 453.678 454.761 451.543 457.395L445.659 464.918L434.063 480.238C426.251 490.501 418.119 501.067 408.452 511.59C398.079 523.174 386.031 533.141 372.708 541.159C367.442 544.328 361.925 547.062 356.214 549.333C344.265 553.958 331.716 556.848 318.949 557.914C311.146 558.424 303.321 558.497 295.511 558.132C293.525 558.016 291.54 557.624 289.568 557.421C287.597 557.218 285.568 556.595 283.568 556.204C281.567 555.812 279.712 555.131 277.77 554.609C275.828 554.088 273.987 553.16 272.103 552.392C257.159 545.579 243.751 535.622 232.373 526.461C228.46 523.214 218.923 514.721 210.023 505.531C201.123 496.342 192.63 486.862 189.281 482.92C174.743 465.843 161.46 447.736 149.538 428.74C140.566 414.39 134.637 403.664 129.97 394.794C127.608 390.446 125.709 386.373 123.767 382.662L118.636 371.777C116.998 368.182 115.563 364.457 113.881 360.457C112.2 356.456 110.78 351.977 109.142 346.919C105.257 332.917 100.358 318.756 99.9813 303.885C99.0827 289.101 101.228 274.316 104.011 259.764C106.729 245.167 110.865 230.871 116.36 217.078C121.869 203.307 128.977 190.23 137.536 178.117C144.872 167.932 153.305 158.585 162.684 150.244C172.569 141.75 182.976 133.184 194.876 126.691C218.285 113.312 244.23 105.297 267.073 101.006C280.393 98.4265 287.597 97.6727 300.903 95.9914C311.194 95.0879 321.537 94.9425 331.849 95.5566C343.053 96.0639 353.967 98.8758 362.577 100.992C392.914 109.225 421.569 123.197 447.717 140.591C460.834 149.312 473.033 159.34 484.127 170.522C487.026 173.247 489.417 176.319 492.128 179.218C494.838 182.117 497.114 185.335 499.636 188.35C504.564 194.495 509.449 200.699 514.13 207.077C520.361 215.396 526.119 224.058 531.379 233.022C537.052 242.503 541.836 252.489 545.67 262.851C549.262 273.081 551.754 283.663 553.106 294.42C555.454 312.335 552.41 337.831 551.946 340.918L551.888 340.947ZM573.529 297.942C572.615 283.607 569.919 264.982 560.484 248.473C555.904 240.212 550.7 232.314 544.917 224.847C539.278 217.484 533.741 210.352 528.538 203.583C518.131 190.162 510.42 177.769 504.245 170.333C501.636 167.434 499.143 164.536 496.462 161.84L488.098 153.955C485.2 151.491 482.402 148.838 479.634 146.157C476.807 143.556 473.82 141.135 470.691 138.909C458.089 130.178 444.896 122.333 431.208 115.428C417.515 108.601 403.425 102.599 389.015 97.4553C374.563 92.1698 359.673 88.173 344.517 85.5119C340.661 85.0336 336.82 84.4828 332.921 84.0625C329.022 83.6421 325.254 83.5117 321.413 83.4537C313.728 83.2187 306.036 83.3687 298.366 83.903C283.06 84.9288 267.857 87.1532 252.897 90.556C237.925 93.9653 223.26 98.6048 209.052 104.427C194.925 110.494 181.229 117.521 168.062 125.459C146.088 138.706 126.579 159.39 112.186 183.436C97.7926 207.482 89.125 235.239 85.11 262.706C83.8925 270.504 82.8199 288.028 83.3707 305.885C83.4285 310.346 83.7577 314.799 84.3563 319.22C84.6462 321.409 84.9071 323.568 85.168 325.641C85.4289 327.714 86.0812 329.714 86.5015 331.656C87.3712 335.555 88.4438 339.092 89.2264 342.281L91.6035 350.397C95.1692 362.138 97.6187 369.153 100.445 376.487C104.087 385.79 108.224 394.891 112.838 403.751C118.636 415.014 122.419 421.362 125.883 427.348C129.347 433.335 132.652 438.944 138.189 448.061C138.189 448.162 139.116 449.51 140.566 451.453L145.958 458.917C150.103 464.599 154.857 471.049 157.205 474.47C163.788 483.958 170.891 493.075 178.483 501.777C189.511 514.628 201.472 526.648 214.27 537.738C215.328 538.81 217.169 540.274 219.488 542.275L223.416 545.608L228.315 549.42C237.168 556.35 246.667 562.412 256.681 567.524C268.537 573.438 283.408 578.453 299.714 578.728C316.82 579.805 333.976 577.702 350.314 572.524C367.239 566.825 383.057 558.254 397.073 547.188C410.415 536.745 422.632 524.941 433.527 511.967C443.905 499.82 452.761 487.993 460.429 477.673C468.198 467.599 475.938 460.004 482.706 455.265C495.404 445.539 510.246 438.625 523.291 429.407C526.532 427.169 529.643 424.749 532.611 422.159C534.125 420.939 535.54 419.602 536.843 418.159C538.206 416.782 539.568 415.419 540.887 414.057C543.409 411.158 545.569 408.129 547.873 405.244C549.946 402.215 551.656 399.012 553.497 395.982C554.822 393.779 555.966 391.472 556.918 389.083C557.904 386.923 558.773 384.909 559.614 383.024C560.428 381.255 561.111 379.429 561.658 377.56C562.223 375.806 562.745 374.139 563.295 372.501C565.658 366.037 566.745 359.935 568.571 351.745C569.615 347.6 570.92 339.672 571.47 335.802C572.557 327.221 574.485 312.089 573.587 297.913L573.529 297.942ZM564.672 357.079C564.122 359.341 563.498 361.892 562.788 364.848C561.846 367.747 560.759 371.095 559.483 374.994C558.868 377.107 558.148 379.187 557.324 381.227C556.382 383.401 555.367 385.72 554.265 388.213C553.744 389.46 553.178 390.75 552.584 392.098C551.99 393.446 551.135 394.663 550.366 396.026C549.598 397.388 548.787 398.765 547.946 400.186C547.163 401.717 546.241 403.172 545.192 404.534C544.148 405.984 543.032 407.433 541.902 408.882C540.79 410.484 539.549 411.992 538.191 413.39C535.362 416.598 532.29 419.583 529.002 422.319C522.218 428.392 506.448 438.002 503.405 439.408C500.361 440.814 477.633 452.786 467.313 462.468C465.973 463.601 464.727 464.842 463.588 466.179L460.081 470.063C457.631 472.658 455.631 475.325 453.544 477.992L441.035 494.066C432.305 505.432 422.951 516.305 413.017 526.635C401.617 538.59 388.618 548.912 374.39 557.305C373.65 557.798 371.723 558.914 368.809 560.567C365.896 562.219 361.722 563.828 356.866 566.016C344.18 570.815 330.876 573.787 317.354 574.844L305.179 575.162C301.019 575.003 296.801 574.597 292.525 574.336C283.933 573.641 275.489 571.687 267.464 568.539C251.202 562.306 236.374 552.595 224.213 542.97C215.908 536.014 208.005 528.591 200.544 520.736C191.093 510.967 182.513 500.444 179.077 496.182C164.225 477.511 150.619 457.882 138.348 437.422C129.072 421.971 122.868 410.462 117.911 401.026C112.954 391.591 109.214 384.169 105.634 376.56C101.601 368.018 98.0063 359.277 94.8648 350.368C92.3136 343.024 90.1938 335.537 88.5162 327.946C87.0282 320.334 86.2662 312.598 86.2406 304.842C86.1101 297.029 86.3421 289.159 86.7914 281.317L87.69 269.562C87.9654 265.649 88.7046 261.779 89.212 257.88C91.5371 242.307 95.6668 227.058 101.518 212.44C107.419 197.836 115.274 184.101 124.868 171.609C140.232 151.563 162.757 132.996 187.818 119.269C212.878 105.543 240.447 97.093 264.638 92.1794L274.219 90.3241C277.118 89.7878 279.857 89.324 282.582 88.8746C285.307 88.4253 288.046 88.1064 290.96 87.6716C293.873 87.2368 297.047 86.8309 300.584 86.4396C311.546 85.5258 322.569 85.6132 333.515 86.7005C344.514 88.0953 355.385 90.3587 366.026 93.4694C398.219 102.688 428.997 116.275 457.501 133.851C471.835 142.569 485.063 152.989 496.897 164.883L501.1 169.536C502.572 171.025 503.929 172.624 505.158 174.319C507.622 177.682 510.202 180.987 512.522 184.465C517.218 191.413 522.126 198.221 527.248 204.888C533.509 213.222 540.539 221.977 547.25 231.369C554.239 240.819 560.023 251.102 564.47 261.981C568.53 272.789 570.915 284.153 571.543 295.681C571.989 305.352 571.699 315.043 570.673 324.67C570.006 329.627 568.716 340.382 567.6 345.832C566.905 349.31 565.803 352.543 564.73 357.05L564.672 357.079ZM590.009 326.279C590.415 323.626 590.371 316.785 590.4 313.466C590.429 310.146 590.603 306.523 590.4 302.667C589.577 284.349 585.96 266.264 579.674 249.038C572.898 230.473 563.524 212.964 551.83 197.032C543.096 185.147 533.369 174.023 522.755 163.782C519.943 160.883 516.783 158.216 513.739 155.476C510.695 152.737 507.651 149.998 504.39 147.534C501.129 145.07 498.172 142.2 495.157 139.373C492.142 136.547 488.881 134.039 485.576 131.604C472.024 122.429 458.153 113.849 443.934 105.717C429.758 97.4567 415.075 90.0983 399.972 83.6856C392.385 80.5573 384.645 77.8144 376.781 75.4673L370.984 73.7135L368.085 72.8438L365.055 72.2205L352.981 69.7855C336.704 67.22 312.542 66.4807 306.02 67.3504C302.092 67.9012 295.221 68.6839 291.525 69.1332C287.829 69.5826 279.669 71.1769 279.669 71.1769C275.625 71.6408 271.639 72.5249 267.624 73.1482L261.58 74.1918C259.594 74.6121 257.623 75.1339 255.651 75.6412C251.694 76.6123 247.723 77.4965 243.809 78.5401L232.214 82.3521C228.3 83.5407 224.59 85.1641 220.778 86.7005C216.966 88.2369 213.226 89.7733 209.53 91.4401C194.528 97.9191 179.425 104.355 165.351 113.051C153.479 120.674 142.497 129.6 132.608 139.663C122.383 150.325 113.2 161.939 105.185 174.348C89.4551 200.005 78.1834 228.14 71.8476 257.561C71.6157 258.604 71.3983 259.793 71.1229 261.141C70.8475 262.489 70.804 264.04 70.6446 265.605C70.3257 268.866 69.8184 272.577 69.7604 276.679C69.7025 280.781 69.3981 285.144 69.572 289.724C69.572 292.028 69.572 294.348 69.688 296.725C69.8039 299.102 69.9489 301.464 70.0938 303.856C71.0922 320.003 73.111 336.071 76.138 351.963C77.4253 357.362 79.0125 362.685 80.8922 367.907C82.5445 372.255 84.023 376.096 85.7478 379.937C90.066 389.734 94.9292 399.281 100.315 408.535C107.113 420.232 111.432 426.885 115.403 433.175L129.405 454.83C129.55 455.047 133.347 460.28 137.797 466.425C142.247 472.571 147.349 479.47 149.842 483.079C157.089 493.878 182.614 527.737 206.283 555.03C208.414 557.494 212.704 562.755 219.212 569.727C220.912 571.678 222.834 573.424 224.938 574.931L228.358 577.409C229.547 578.235 230.837 578.931 232.17 579.714C237.873 583.041 243.801 585.966 249.912 588.468C256.855 591.55 264.071 593.976 271.465 595.716C279.588 597.601 287.816 599 296.105 599.904C314.423 600.939 332.787 599.035 350.503 594.266C368.871 589.011 386.005 580.141 400.9 568.176C415.005 556.753 427.687 543.677 438.672 529.23C449.224 515.764 458.298 502.821 466.502 491.762C468.545 488.993 470.488 486.268 472.502 483.949C473.517 482.79 474.648 481.746 475.662 480.673L478.981 477.774C482.999 474.663 487.271 471.895 491.751 469.498C499.259 465.295 507.13 461.584 514.768 457.482C522.393 453.488 529.687 448.893 536.582 443.742C549.525 433.929 560.265 421.511 568.108 407.288C572.482 399.324 576.126 390.98 578.993 382.358C580.153 378.864 581.254 375.545 582.167 371.951L583.617 366.414C584.037 364.457 585.588 356.456 586.066 354.253C588.008 345.397 589.849 328.598 590.067 326.25L590.009 326.279ZM584.356 353.528C582.501 360.775 581.602 368.602 575.79 385.271C571.863 396.449 566.53 407.081 559.918 416.912C555.038 424.088 549.348 430.678 542.96 436.552C535.829 443.234 521.218 452.496 515.71 454.989C510.202 457.482 501.767 461.947 494.853 465.135C487.907 468.16 481.348 472.004 475.314 476.586C472.309 478.954 469.594 481.668 467.226 484.674L460.602 493.37C456.254 499.168 451.906 504.966 447.558 510.967C438.553 523.496 428.901 535.548 418.641 547.072C407.596 559.03 394.435 570.959 377.39 580.25C376.564 580.728 374.491 581.873 371.273 583.598C367.969 585.048 363.562 586.917 358.228 588.99C344.295 593.611 329.809 596.36 315.151 597.165C310.803 597.295 306.454 597.382 301.918 597.498C297.41 597.4 292.915 596.978 288.467 596.237C283.872 595.614 279.219 594.788 274.61 593.817C270.002 592.943 265.463 591.737 261.029 590.208C252.195 587.204 243.624 583.476 235.403 579.061C233.46 577.916 231.446 576.829 229.605 575.641C227.764 574.452 225.923 573.148 224.271 571.829C221.126 569.017 218.183 565.741 215.357 562.668C211.501 558.32 202.138 547.13 193.108 535.636C184.078 524.142 175.222 512.445 171.729 507.734C152.118 481.311 138.232 460.787 127.622 444.539C117.012 428.291 109.78 416.246 103.953 406.36C98.126 396.475 93.9371 388.634 89.7917 380.575C85.1846 371.578 81.4194 362.175 78.5441 352.485L77.2251 346.411L76.2105 340.237C75.4664 336.111 74.8673 331.961 74.4131 327.786C73.8189 323.641 73.3985 319.452 73.0507 315.263C72.7028 311.074 72.3404 306.871 72.1665 302.696C71.3983 285.897 71.7172 268.881 75.3553 252.43C79.355 235.982 84.8571 219.937 91.792 204.497C98.8971 189.133 107.712 174.619 118.07 161.231C126.924 149.96 136.953 139.664 147.987 130.517C150.886 128.184 153.785 125.821 156.857 123.531C159.93 121.241 163.162 119.327 166.38 117.284C172.964 113.426 179.737 109.899 186.672 106.717C190.064 105.05 193.485 103.398 196.963 101.891C198.703 101.079 213.328 93.4259 216.792 91.933C220.256 90.44 223.778 88.3528 227.271 87.0773C230.764 85.8018 233.997 84.0335 237.417 82.9319C240.838 81.8303 244.215 80.5983 247.679 79.8446C254.506 78.1633 261.116 76.2355 267.624 75.1774C271.407 74.4527 274.741 73.728 277.77 72.9308C289.251 70.6638 300.874 69.1819 312.557 68.4955C316.818 68.4955 338.154 68.9738 341.299 69.4811C344.444 69.9884 347.604 70.2783 350.735 70.6986C353.866 71.119 356.822 72.0321 359.779 72.6844C362.736 73.3366 365.577 73.9454 368.331 74.7136L375.984 77.1921C384.579 79.7286 392.769 83.4392 401.074 86.7295C409.176 90.6285 417.366 94.2665 425.207 98.6439C441.079 106.993 456.399 116.414 471.589 126.053C502.259 144.707 529.929 168.753 551.135 197.873C564.18 215.947 576.34 239.095 582.79 263.619C589.038 286.81 589.125 316.118 588.269 327.09C588.066 330.192 585.11 350.035 584.414 353.499L584.356 353.528ZM607.677 317.133C607.895 314.234 607.431 310.813 607.677 307.32C607.677 303.827 607.605 299.986 607.547 295.898C607.547 293.855 607.474 291.739 607.431 289.564C607.431 288.492 607.431 287.39 607.359 286.274C607.286 285.158 607.112 284.057 606.996 282.911C606.503 278.375 605.996 273.621 605.46 268.721C603.887 258.494 601.522 248.405 598.386 238.544C591.986 218.529 581.963 199.86 568.818 183.465C567.281 181.552 565.803 179.682 564.354 177.827C562.904 175.972 561.165 174.464 559.643 172.826C556.556 169.594 553.758 166.347 550.714 163.753C547.67 161.158 545.018 158.549 542.539 156.259C540.061 153.969 537.51 152.201 535.437 150.461C532.103 147.722 528.726 144.997 525.146 142.533C521.566 140.069 518.16 137.387 514.522 135.039C510.884 132.691 507.434 130.053 503.955 127.401C500.455 124.798 496.821 122.379 493.07 120.154C477.88 111.674 462.516 103.891 447.311 95.8899L424.41 83.9175L400.987 72.7133C397.131 70.7421 392.986 69.3651 389 67.7128L376.897 62.9441C368.851 59.56 360.47 57.0337 351.894 55.407C317.441 49.4353 282.321 53.4937 248.984 62.3933C232.274 66.8671 215.996 72.8187 200.341 80.178C196.471 82.1057 192.557 83.9465 188.745 85.9757C184.933 88.005 181.179 90.1501 177.497 92.3968C173.816 94.6434 169.859 96.4697 166.134 98.7018C162.636 101.063 159.012 103.231 155.278 105.195C148.871 108.558 141.812 112.254 136.435 117.53C133.536 119.98 130.724 122.429 128.086 125.169C125.448 127.908 122.564 130.445 119.984 133.344C109.28 144.859 99.8478 157.494 91.8499 171.029C89.8932 174.508 87.7045 177.841 85.9797 181.436C84.2549 185.031 82.4431 188.596 80.6457 192.191C77.5729 199.569 74.2827 206.903 71.9491 214.556C69.1372 222.064 67.3979 229.891 65.2817 237.573C63.8322 245.4 61.89 253.125 61.0493 260.996C60.7884 263.214 60.4405 266.112 60.0202 269.533C59.5999 272.954 59.6288 276.838 59.3534 281.187C59.0781 285.535 58.9621 290.159 58.7447 295C58.5273 299.841 58.8606 304.914 58.9186 310.002C59.2665 330.294 61.7305 350.861 64.2671 361.094C64.8179 364.228 65.5388 367.33 66.4267 370.385C67.0374 373.01 67.807 375.594 68.7313 378.125C70.1238 382.551 71.9391 386.832 74.1522 390.909C78.7905 398.461 83.8055 406.346 92.4587 419.521C100.387 431.465 105.025 438.466 109.359 445.017C113.983 451.38 118.201 457.352 125.071 467.382L134.29 479.34C139.131 485.703 144.537 492.994 147.233 496.849C151.147 502.516 159.814 514.344 170.424 528.505C175.802 535.564 181.411 543.376 187.093 551.319C192.775 559.262 198.688 567.335 204.269 575.076C205.254 576.525 206.762 578.656 208.762 581.511C209.762 582.96 210.82 584.54 212.168 586.28C212.849 587.149 213.531 588.062 214.27 588.99L216.893 591.643C224.387 598.73 236.374 604.876 250.897 609.036C267.179 613.665 283.981 616.217 300.903 616.631H314.948C319.673 616.312 324.5 615.805 329.341 615.399C331.778 615.183 334.199 614.81 336.588 614.283L343.835 612.833C345.053 612.587 346.271 612.428 347.474 612.094L351.083 611.022L358.33 608.847C377.538 602.298 395.248 591.985 410.423 578.511C414.061 575.09 417.916 571.916 421.337 568.365C424.758 564.813 428.323 561.436 431.483 557.784C434.643 554.131 437.948 550.681 440.861 547.014C443.774 543.347 446.659 539.767 449.398 536.129C460.414 521.751 470.009 507.995 478.605 496.255C486.663 484.239 498.013 478.412 506.144 473.875C514.174 469.527 522.494 465.599 530.582 461.193C538.626 456.899 546.326 451.99 553.613 446.51C560.64 441.124 567.047 434.975 572.717 428.175C578.029 421.739 582.704 414.802 586.675 407.462C591.202 398.934 594.891 389.988 597.691 380.749C598.821 377.024 599.908 373.502 600.749 369.632C601.198 367.733 601.662 365.776 602.198 363.689C602.735 361.602 604.387 349.455 604.822 347.093C606.416 337.599 607.547 319.626 607.735 317.104L607.677 317.133ZM602.358 350.397C600.546 358.166 599.459 365.95 593.792 383.735C589.948 395.629 584.543 406.961 577.717 417.434C572.644 425.078 566.706 432.111 560.02 438.393C551.46 446.289 542.014 453.167 531.872 458.888C516.493 465.961 501.332 470.701 487.939 479.905C486.243 480.992 484.721 482.384 483.127 483.63C481.588 484.988 480.136 486.44 478.779 487.979L476.735 490.327L474.952 492.631L471.473 497.24C466.821 503.386 462.313 509.648 457.689 515.953C448.456 528.577 439.006 541.593 427.686 554.653C416.366 567.712 403.045 580.844 385.652 591.744C383.607 593.09 381.482 594.31 379.289 595.397L373.491 598.571C371.259 599.687 368.635 600.629 365.853 601.847C360.374 604.47 353.474 606.195 346.024 608.471C342.212 609.224 338.168 609.92 334.008 610.761C331.893 611.206 329.746 611.482 327.587 611.587L320.934 612.196C318.673 612.326 316.398 612.703 314.078 612.689H307.034C302.294 612.689 297.468 612.775 292.54 612.384C282.623 611.762 272.759 610.474 263.015 608.529C253.362 606.702 243.948 603.784 234.953 599.832C230.688 597.943 226.619 595.637 222.807 592.947C219.257 590.369 216.111 587.277 213.473 583.772C209.994 578.699 201.225 565.901 192.412 553.116C188.064 546.724 183.629 540.303 179.904 534.839L171.047 522.504C160.974 508.3 151.987 495.892 144.276 484.819C136.565 473.745 129.854 464.164 123.984 455.714L115.679 443.93C113.026 440.292 110.91 436.683 108.75 433.479L97.3723 416.26C90.5889 406.114 85.197 398.403 79.6746 390.518L77.6019 387.532C76.9787 386.518 76.5003 385.459 75.9496 384.416C74.8003 382.228 73.7745 379.978 72.8767 377.676C72.3984 376.502 71.8911 375.27 71.4273 374.023C70.9635 372.777 70.5866 371.429 70.1808 370.066C69.1841 367.216 68.347 364.313 67.6732 361.37L66.2238 354.949C65.6884 352.811 65.2818 350.642 65.0063 348.455C64.3975 344.107 63.7308 339.759 63.1945 335.338C62.6582 326.482 61.745 317.64 61.9335 308.726V295.348L62.7306 281.984C63.0785 277.534 63.1365 273.041 63.6728 268.62L65.2962 255.329C70.7895 220.049 84.4433 185.755 105.996 157.23C125.003 132.33 148.882 111.562 176.178 96.1943C204.24 80.0475 234.301 67.5678 261.696 60.9439C275.014 57.6541 288.593 55.5299 302.28 54.5953C314.728 53.4231 327.262 53.5203 339.69 54.8852C352.197 56.2787 364.417 59.5781 375.926 64.6689C411.35 78.4241 444.137 98.0061 477.938 115.399C494.858 124.135 511.069 134.181 526.422 145.446C541.834 156.67 555.703 169.872 567.673 184.712C569.47 187.06 571.427 189.35 573.195 191.857L578.254 199.655C579.123 200.989 579.979 202.308 580.863 203.641C581.747 204.975 582.312 206.468 583.124 207.859L587.646 216.556C589.226 219.455 590.212 222.6 591.531 225.644C592.85 228.688 594.169 231.761 595.154 234.949L598.053 244.603L599.503 249.415C599.894 251.038 600.169 252.705 600.532 254.343C606.329 279.998 605.837 306.03 605.025 327.525C604.663 331.439 603.054 346.658 602.416 350.368L602.358 350.397ZM630.144 326.699C630.318 323.67 629.97 318.597 630.144 314.843C630.144 311.118 629.419 306.972 629.289 302.609C629.028 285.216 625.824 263.315 619.853 241.414L617.461 233.225C616.72 230.45 615.82 227.721 614.765 225.05C612.692 219.716 610.634 214.382 608.576 209.106C606.098 204.033 603.662 198.96 601.242 194.075C600.085 191.625 598.778 189.248 597.328 186.958L593.241 180.189C588.442 171.934 582.776 164.213 576.34 157.158C571.461 151.821 566.2 146.846 560.6 142.272C553.419 136.369 545.77 131.061 537.727 126.401C529.799 121.618 521.783 116.805 513.565 112.501C505.347 108.196 496.679 104.934 488.185 101.311L462.733 90.6864C446.181 83.4827 430.411 74.0323 414.104 65.3067C397.798 56.5811 381.014 48.0873 362.548 43.5651C353.409 41.375 344.114 39.8922 334.747 39.1298L327.747 38.579L320.746 38.3326C316.093 38.0717 311.44 38.2311 306.759 38.3326C288.136 38.8197 269.606 41.1305 251.434 45.2319C233.32 49.2553 215.604 54.897 198.5 62.0889C194.152 63.9007 189.934 65.727 185.774 67.8142L179.498 70.8581C177.439 71.9017 175.425 73.0902 173.396 74.2063L167.366 77.6849C165.38 78.9025 163.452 80.2215 161.568 81.497L155.77 85.3525L149.219 89.0486C147.668 90.1936 132.811 98.412 129.333 100.992L120.1 108.703L111.186 117.124C87.1259 141.045 68.6711 170.005 57.1503 201.917C51.4723 217.924 47.2802 234.421 44.6271 251.198C42.4972 268.562 41.7556 286.069 42.4095 303.551C42.6849 308.958 42.8008 314.408 43.2356 319.669C43.6705 324.931 44.1488 330.062 44.5546 334.83C44.9605 339.599 45.3808 344.063 46.12 348.02C46.8593 351.977 47.1491 355.471 47.8449 358.166C49.857 369.161 52.8301 379.957 56.73 390.431C60.1796 399.345 64.9483 408.506 75.4278 421.869C85.226 433.595 90.6034 440.712 95.7199 447.336C100.836 453.96 105.286 460.381 112.533 471.092L122.129 484.109C127.173 490.979 132.797 498.878 135.478 503.125C139.406 509.343 148.146 522.316 158.785 537.912C169.424 553.508 181.976 571.843 194.079 588.323C196.253 591.295 200.573 597.643 207.515 605.963C209.377 608.268 211.542 610.311 213.951 612.036C216.618 613.587 219.401 615.312 222.387 616.993C228.358 620.327 234.924 623.922 242.215 627.429L247.839 629.995C249.767 630.821 251.81 631.444 253.84 632.14C255.869 632.836 257.927 633.589 260.014 634.271C262.101 634.952 264.363 635.43 266.508 636.039C268.653 636.648 270.856 637.242 273.19 637.72L280.147 638.894C281.321 639.112 282.51 639.3 283.669 639.503C284.829 639.706 286.061 639.692 287.293 639.779L294.612 640.315C314.267 640.474 335.4 638.199 355.793 631.43C376.287 624.53 395.343 613.934 412.017 600.165C420.164 593.525 427.885 586.38 435.136 578.772C438.803 575.148 442.035 571.22 445.441 567.553C448.848 563.886 451.717 559.827 454.819 556.117C466.922 540.999 477.286 526.403 486.577 513.88C488.857 510.72 491.05 507.691 493.157 504.792C494.23 503.401 495.302 502.067 496.375 500.792C497.549 499.603 498.636 498.371 499.839 497.298C504.087 493.444 508.727 490.044 513.681 487.152C530.379 477.18 548.729 469.498 564.977 458.975C581.327 448.742 595.415 435.697 605.358 421.29C611.341 412.675 616.252 403.364 619.983 393.562C621.528 389.687 622.853 385.729 623.955 381.705C624.505 379.647 624.926 377.502 625.404 375.255C625.882 373.009 626.303 370.646 626.578 368.008C626.854 365.37 627.883 357.253 628.144 354.818C628.854 349.977 630.042 329.25 630.202 326.67L630.144 326.699ZM624.795 360.906C624.36 363.008 623.969 365.08 623.52 367.312C623.302 368.443 623.07 369.617 622.853 370.849C622.636 372.081 622.23 373.342 621.882 374.705C621.186 377.459 620.432 380.502 619.273 384.097C618.693 385.865 618.084 387.779 617.36 389.822C616.635 391.866 615.722 393.997 614.794 396.316C609.625 408.736 602.533 420.265 593.777 430.479C587.325 437.909 580.122 444.651 572.282 450.597C562.278 458.014 551.768 464.722 540.829 470.672C532.582 474.441 524.552 477.919 516.812 481.717C509.072 485.514 501.564 489.776 495.201 495.748L492.824 498.038L490.678 500.516C489.156 502.212 488.069 503.806 486.765 505.444L479.315 515.243L464.458 535.1C454.428 548.435 443.977 562.074 431.498 575.684C419.018 589.295 404.321 602.731 385.347 613.819C384.449 614.399 382.086 615.747 378.535 617.747C377.636 618.225 376.68 618.762 375.636 619.341L372.172 620.863L364.026 624.444C348.607 630.483 332.402 634.281 315.905 635.72C313.47 635.999 311.021 636.14 308.571 636.141L301.033 636.372C298.489 636.51 295.939 636.51 293.395 636.372C290.858 636.242 288.307 636.068 285.742 635.894C275.283 634.752 264.983 632.458 255.028 629.053C250 627.458 245.106 625.471 240.389 623.11C235.606 620.776 230.924 618.414 226.358 615.863C224.054 614.674 221.792 613.442 219.618 612.138C217.47 611.043 215.419 609.768 213.487 608.326C210.066 604.982 206.884 601.403 203.964 597.614C195.746 587.468 166.728 543.043 159.452 531.853C118.983 469.368 96.952 438.277 79.7326 418.42C71.7607 408.448 66.2818 400.215 62.0059 391.127C57.2391 380.765 53.5901 369.925 51.1206 358.79C49.8016 354.224 49.2943 349.615 48.4391 345.02C47.8594 340.338 47.3376 335.584 46.9897 330.859L45.7867 316.669L45.2359 302.435C44.7831 283.362 46.0102 264.287 48.903 245.429C51.9254 226.543 57.3365 208.118 65.0063 190.596C72.7407 173.089 82.7615 156.683 94.8068 141.808C105.086 129.274 116.643 117.844 129.289 107.703C130.956 106.398 132.565 105.021 134.275 103.76C135.985 102.499 140.203 99.8904 141.972 98.5569C143.74 97.2234 148.175 93.9622 149.944 92.7591C153.509 90.3241 156.727 87.2223 160.481 85.0046C164.235 82.787 167.728 80.2939 171.671 78.2792C200.912 62.3741 232.578 51.4042 265.392 45.8117C274.088 44.3623 280.683 43.4781 287.351 42.9128C290.684 42.5215 294.004 42.2896 297.598 42.1156C301.164 41.7098 304.99 41.217 309.31 41.1155C322.671 40.5074 336.06 41.3432 349.242 43.6085C363.548 45.7247 377.115 51.2181 387.565 55.8129C406.002 64.2776 423.511 74.5541 441.484 83.9755C459.457 93.3969 478.547 100.543 497.244 108.486C515.942 116.429 534.452 125.169 551.077 136.953C567.834 148.575 581.844 163.723 592.125 181.335C605.474 202.772 616.389 230.195 622.027 258.227C627.897 286.028 628.288 313.002 627.506 336.149C627.129 340.28 625.419 356.862 624.795 360.906ZM658.654 329.54C659.814 322.713 660.104 311.045 661.104 296.855C661.653 286.51 661.304 276.136 660.06 265.852C658.628 254.157 655.64 242.707 651.175 231.804C641.913 209.352 628.564 188.06 616.693 169.478C613.649 164.898 610.982 160.318 607.909 156.23C606.315 154.201 604.808 152.172 603.271 150.302L598.256 145.301C596.72 143.735 595.073 142.282 593.328 140.953C591.69 139.62 590.096 138.344 588.603 137.112L580.066 131.155C571.748 125.82 563.124 120.98 554.236 116.66L547.642 113.341L540.974 110.094C536.626 107.833 532.103 105.746 527.596 103.702C518.609 99.6005 509.289 96.3103 500.056 93.02L472.155 83.3088C453.602 77.2211 436.107 68.7564 418.815 59.422C401.523 50.0876 384.333 40.3183 365.49 33.8103C356.078 30.5201 346.308 28.3645 336.385 27.3893C326.527 26.4624 316.611 26.317 306.73 26.9545C287.054 28.3045 267.55 31.5075 248.477 36.5208C229.416 41.4134 210.767 47.7911 192.702 55.5954C183.658 59.5089 174.874 63.8862 165.815 67.8287C156.756 71.7712 147.523 75.6267 138.928 80.6708C135.411 82.7615 132.105 85.1886 129.057 87.918C125.825 90.6285 122.1 93.02 118.65 95.4841C111.128 99.7165 105.199 106.181 98.7058 112.022C85.8565 124.404 74.4183 138.17 64.6004 153.07C44.7431 183.248 32.0894 219.035 29.5529 254.937C28.9152 259.996 28.9152 268.142 28.6977 277.998C28.8137 282.897 28.9297 288.144 29.0601 293.739C29.1906 299.334 29.7268 304.972 30.0602 310.741C30.9734 322.22 32.3069 333.801 33.9737 343.918C34.7129 348.977 35.4232 353.702 36.0029 357.906C36.5827 362.109 37.0175 365.776 37.7278 368.704C39.0758 376.545 40.902 382.677 42.366 388.17C44.3517 393.489 45.6417 398.316 47.9029 402.853C48.9609 405.157 49.9466 407.578 51.1931 409.999L55.5414 417.55C57.0923 420.275 59.223 422.899 61.3392 425.986C62.4243 427.579 63.6361 429.081 64.9628 430.479C66.4122 432.016 67.8617 433.624 69.3111 435.335C80.3269 447.278 87.0958 453.975 92.9225 460.714L101.547 471.324L106.489 477.514C107.373 478.615 108.287 479.789 109.272 481.007C110.258 482.224 111.084 483.659 112.07 485.065L122.375 498.777C125.187 502.313 127.767 506.43 130.173 510.111C132.579 513.793 134.666 517.083 136.072 519.359C138.145 522.678 141.232 527.983 145.059 534.636C148.885 541.289 153.567 549.13 158.51 557.972C168.453 575.51 180.164 596.092 191.528 614.674C192.947 617.349 194.612 619.887 196.5 622.255C199.848 625.889 203.693 629.032 207.921 631.589C217.676 637.836 231.228 644.112 247.317 650.055C255.376 652.954 264.102 655.853 273.407 658.505C278.06 659.781 282.843 661.027 287.901 661.97C290.429 662.49 293.003 662.757 295.584 662.767L303.367 663.028C308.585 663.303 313.919 663.144 319.311 663.028C324.703 662.912 330.153 662.303 335.675 661.781C338.444 661.531 341.193 661.105 343.908 660.506L352.184 658.882C354.909 658.071 357.649 657.273 360.359 656.447L364.447 655.215L368.433 653.592L376.375 650.258L383.942 646.127L387.739 644.054C388.971 643.301 390.131 642.446 391.334 641.634L398.479 636.778C403.06 633.271 407.553 629.632 411.901 625.878C416.25 622.124 420.366 618.196 424.323 614.109C439.559 598.518 453.824 582.007 467.038 564.668C479.75 548.449 491.142 533.143 501.114 519.852C503.607 516.533 505.97 513.242 508.362 510.416C509.507 508.966 510.898 507.734 512.13 506.401C513.362 505.067 514.754 504.024 516.058 502.879C520.849 499.035 525.966 495.616 531.35 492.66C549.482 482.514 569.035 474.223 586.284 462.947C594.849 457.493 602.898 451.269 610.33 444.35C617.352 437.747 623.702 430.464 629.289 422.609C631.332 419.608 633.289 416.811 634.825 414.144C636.362 411.477 637.985 409.027 639.174 406.578C640.362 404.128 641.652 401.954 642.667 399.751C643.682 397.548 644.58 395.403 645.493 393.359C647.163 389.249 648.614 385.055 649.842 380.792C651.13 376.021 652.156 371.182 652.915 366.298C653.364 363.544 653.77 360.949 654.06 358.369C654.349 355.789 655.321 352.108 655.581 349.528C656.205 344.498 657.698 335.57 658.654 329.468V329.54ZM651.552 358.529C650.349 362.877 649.552 367.341 647.812 373.125C646.914 376.024 646.16 379.314 644.711 383.024C644.029 384.909 643.261 386.909 642.507 389.069C641.754 391.228 640.623 393.417 639.609 395.91C638.594 398.403 637.275 400.94 635.869 403.679C634.463 406.418 632.854 409.317 631.042 412.376C629.231 415.434 627.042 418.55 624.81 421.942C622.331 425.16 619.853 428.711 616.751 432.088C609.885 440.035 602.232 447.266 593.908 453.67C583.367 461.733 572.222 468.973 560.571 475.325C551.874 479.514 543.337 483.268 535.089 487.297C526.842 491.327 518.856 495.661 511.898 501.56C508.366 504.478 505.159 507.767 502.332 511.373L494.186 521.794C488.852 528.751 483.533 535.738 478.126 542.825C467.386 557.044 456.138 571.568 443.615 586.917C430.889 602.021 416.815 618.138 398.32 632.589C396.141 634.343 393.867 635.973 391.508 637.474C389.696 638.663 387.681 640.242 385.203 641.648L376.883 646.2C369.765 649.755 362.312 652.595 354.634 654.679L351.387 655.664C350.285 655.882 349.155 656.099 348.024 656.346L341.009 657.679C338.585 658.144 336.136 658.473 333.675 658.665C331.182 658.897 328.645 659.158 326.08 659.433C320.905 659.81 315.557 659.795 310.136 660.013L293.511 659.563C288.003 658.975 282.553 657.927 277.219 656.433C271.711 654.983 266.189 653.432 260.739 651.736C249.94 648.383 239.326 644.464 228.938 639.996C218.894 635.532 209.197 630.705 201.558 624.429C199.832 622.963 198.259 621.327 196.862 619.544C195.979 618.302 195.175 617.004 194.456 615.66L191.789 611.022C188.064 604.514 183.6 596.933 179.309 589.193L158.858 552C154.161 543.304 149.378 535.201 145.073 527.534C142.957 523.693 140.725 520.084 138.507 516.591L132.188 506.444C128.216 499.762 123.839 494.008 119.998 488.428C116.157 482.848 112.591 477.615 108.736 473.122C94.343 454.279 82.0082 442.278 72.4999 432.045L66.0644 424.928L60.8464 417.855C59.1215 415.608 57.875 413.115 56.4111 410.839C55.6864 409.665 54.9616 408.52 54.2949 407.361L52.5121 403.737C46.9884 392.902 42.9516 381.372 40.5107 369.458C39.2352 364.616 38.7279 359.572 37.9017 354.586L35.6551 339.57L34.51 332.033C34.1766 329.54 33.9882 326.989 33.6983 324.467C33.2345 319.408 32.5678 314.321 32.3648 309.306C30.7897 289.002 30.9691 268.601 32.9011 248.328C35.0538 228.031 40.2783 208.179 48.3957 189.451C56.5783 170.741 67.4157 153.309 80.5733 137.692C91.7895 124.569 104.298 112.609 117.911 101.992C119.568 100.44 121.315 98.9884 123.143 97.6438C125.013 96.3827 126.97 95.1507 128.941 93.9477C132.84 91.5416 136.71 89.121 140.624 86.7005L146.421 83.0044L152.379 79.4822L158.336 75.9601L164.38 72.5974C196.848 54.8417 231.997 42.8114 263.073 35.6366C267.638 34.593 271.624 33.6364 275.393 32.9117C279.161 32.1869 282.64 31.3028 286.148 30.723C293.843 29.2269 301.638 28.3015 309.469 27.9546C321.384 27.3748 336.864 27.6067 351.822 31.3463C366.78 35.0858 380.811 41.7823 391.58 47.4061C410.684 57.4652 429.266 68.7564 449.094 77.4095C458.994 81.7579 469.256 85.2945 479.532 88.8311C489.809 92.3678 499.984 95.8754 510.13 99.6585C520.276 103.442 530.422 107.355 540.336 111.776C550.287 116.11 560.011 120.948 569.47 126.27C578.919 131.582 587.806 137.836 595.995 144.939C604.271 152.07 609.924 161.448 615.852 170.536C623.099 181.9 630.854 194.162 637.942 207.338C645.03 220.513 651.61 234.529 655.48 249.284C659.35 264.04 659.988 279.331 659.379 293.681C658.814 306.595 657.103 318.64 655.987 329.917C655.379 333.758 654.451 341.773 653.726 345.571C652.842 349.644 652.451 354.253 651.552 358.427V358.529ZM680.541 315.046C680.541 311.19 680.179 307.45 680.28 303.247C680.28 301.145 680.28 298.899 680.381 296.667C680.483 294.434 680.164 291.999 680.048 289.55C678.976 266.259 674.733 243.223 667.438 221.078C663.09 209.062 658.364 196.8 651.653 185.915C645.377 175.31 638.033 165.373 629.738 156.259C614.084 138.866 597.386 127.27 586.718 120.023C577.958 114.381 568.895 109.222 559.57 104.572C554.889 102.325 550.323 99.7744 545.554 97.6582C540.786 95.5421 536.22 93.049 531.292 91.1937C526.478 89.1593 521.557 87.3884 516.551 85.8888C511.536 84.4393 506.579 82.7435 501.477 81.5404C491.186 78.917 481.489 76.6413 471.908 73.0032C452.848 65.756 434.657 55.7694 416.409 46.0001C398.161 36.2309 379.796 26.1863 359.881 19.2869C349.898 15.9404 339.475 14.0892 328.95 13.7935C318.502 13.4629 308.044 13.9475 297.671 15.243C277.015 17.7153 256.616 21.993 236.707 28.027C216.803 33.9371 197.35 41.2709 178.498 49.9716C169.265 54.7113 159.51 58.3784 150.219 63.0166L136.449 70.4087L123.013 78.4531L112.099 85.7004C110.229 86.8889 108.504 88.2659 106.721 89.5704C104.938 90.8749 103.112 92.2228 101.387 93.6433C97.8361 96.3538 94.5314 99.4411 91.1107 102.456C89.4294 103.905 87.6755 105.456 86.0522 107.022L81.0951 111.877C67.7354 125.04 55.9187 139.682 45.8736 155.52C35.6181 171.734 27.6666 189.296 22.2477 207.7C16.8946 226.038 13.8705 244.976 13.2467 264.069C13.2467 269.417 13.2467 278.041 13.2467 288.376C13.2467 293.55 13.7685 299.131 14.0149 304.957C14.2613 310.784 14.5512 316.828 15.3339 322.873C16.1166 328.917 16.5224 335.004 17.3921 340.889C18.2618 346.774 19.2619 352.485 20.146 357.804C22.4506 368.4 24.3639 377.531 26.3352 383.546C28.2465 390.302 30.5601 396.938 33.2635 403.418C34.4665 406.128 35.8 408.607 36.9886 411.042C37.6263 412.245 38.1626 413.463 38.8149 414.637L40.989 418.014C46.7868 427.015 54.034 435.639 66.4992 449.902C89.154 475.673 93.4153 479.76 111.533 502.661C111.649 502.777 112.983 504.459 114.998 507.01C117.012 509.561 119.868 513.068 122.622 516.967C125.376 520.866 128.579 524.896 131.101 528.78C133.623 532.665 135.913 536.028 137.507 538.463C139.653 541.97 142.943 547.551 146.972 554.566L153.118 566.292C155.234 570.553 157.176 575.249 159.379 580.062C161.583 584.874 163.177 590.208 165.177 595.542C166.144 598.209 167.163 600.914 168.236 603.659C169.221 606.427 170.758 608.963 172.019 611.63C177.639 622.064 185.03 631.441 193.862 639.344L196.761 642.025C197.964 643.054 199.486 644.141 201.109 645.431C205.239 648.553 209.573 651.396 214.081 653.94L222.387 658.969C225.286 660.781 228.46 662.651 231.866 664.448C235.272 666.245 238.751 668.333 242.534 670.115C246.317 671.898 250.375 673.768 254.68 675.188C271.682 681.725 292.496 684.827 314.557 684.624C336.617 684.755 360.49 680.638 382.333 670.202C404.176 659.766 423.091 643.228 438.6 625.038C454.109 606.847 466.908 587.178 478.822 569.031C490.736 550.884 501.926 534.129 512.42 520.301C517.421 514.174 523.319 508.838 529.915 504.473C532.78 502.542 535.762 500.789 538.843 499.226C540.224 498.435 541.681 497.785 543.192 497.284C544.641 496.893 546.25 496.69 547.7 496.414C550.378 495.736 552.953 494.697 555.353 493.327C557.802 492.095 560.237 490.776 562.6 489.428C567.412 486.66 572.137 483.746 576.978 481.094C586.733 475.905 596.401 470.658 605.445 464.7C623.578 452.96 639.464 438.437 650.291 422.246C656.923 412.611 662.419 402.241 666.67 391.344C670.043 382.133 672.656 372.66 674.482 363.022C676.816 351.557 680.483 320.626 680.57 315.002L680.541 315.046ZM675.41 341.686C674.627 346.035 674.366 351.369 673.772 353.905C673.178 356.442 671.96 364.269 670.308 370.4C669.38 373.415 668.496 376.908 667.191 380.879C665.887 384.851 664.365 389.46 662.017 394.576C656.162 408.577 648.258 421.629 638.565 433.306C631.376 441.777 623.305 449.459 614.49 456.221C603.28 464.666 591.331 472.083 578.79 478.383C569.717 483.007 560.86 487.21 552.106 491.225C549.958 492.329 547.692 493.184 545.351 493.776C542.976 494.237 540.681 495.043 538.539 496.168C534.277 498.263 530.212 500.737 526.393 503.56C518.872 509.171 512.292 515.942 506.898 523.62C501.419 531.099 495.969 538.593 490.389 546.203C484.808 553.812 479.402 561.726 473.923 569.901C471.154 573.959 468.386 578.061 465.531 582.265C462.675 586.468 460.023 590.816 457.124 595.15C445.456 612.428 432.179 630.763 413.394 647.142C406.616 653.113 399.304 658.449 391.551 663.086C375.314 672.681 357.321 678.93 338.632 681.465C335.893 681.798 333.124 682.204 330.312 682.479L326.051 682.682C325.37 682.871 324.601 682.233 323.877 681.812C323.152 681.392 322.427 681.638 321.717 681.595C316.006 681.696 310.121 681.769 304.237 681.494C292.307 681.165 280.443 679.621 268.827 676.884C257.277 674.114 246.152 669.805 235.751 664.071L228.098 659.984L220.72 655.635L206.602 647.229C201.728 643.807 197.138 639.997 192.876 635.836C191.385 634.481 189.985 633.029 188.687 631.488C187.325 629.864 185.788 628.328 184.484 626.574C183.179 624.82 181.846 622.965 180.498 621.139C179.181 619.271 177.962 617.335 176.845 615.341L175.091 612.442L173.642 609.384C172.714 607.311 171.569 605.354 170.859 603.282C169.41 599.209 167.96 595.208 166.612 591.353C165.264 587.497 164.09 584.106 163.032 581.207C161.974 578.308 160.814 575.945 160.046 574.206C152.584 557.04 143.559 540.597 133.087 525.084C123.868 511.546 115.374 500.139 107.475 490.501C91.7775 471.122 79.5152 457.917 69.7894 447.017C60.0637 436.117 52.3961 427.783 45.5403 418.695C44.0039 416.333 42.1776 414.115 40.7861 411.564C39.3946 409.013 37.9887 406.36 36.4378 403.621C34.8869 400.882 33.9157 397.823 32.5678 394.605C31.1361 391.181 29.9163 387.671 28.9152 384.097L26.5236 376.502C25.8278 373.936 25.2771 371.327 24.6538 368.747C23.4653 363.558 22.1028 358.398 21.3926 353.093C20.6823 347.788 19.5808 342.556 18.8995 337.266L17.2616 321.322C16.6094 315.988 16.5224 310.625 16.218 305.262C15.9137 299.899 15.6673 294.536 15.5658 289.159V273.012C15.5658 267.634 15.4788 262.242 15.9571 256.894C16.9646 235.367 21.4279 214.141 29.1761 194.032C37.0629 173.95 47.962 155.187 61.4986 138.388C72.9004 124.108 85.8181 111.108 100.025 99.615C114.751 87.5122 131.768 77.569 149.016 68.539C153.234 66.1039 157.8 64.3066 161.93 61.7701C166.044 59.1984 170.314 56.8845 174.715 54.8417C179.063 52.6821 183.411 50.8413 187.76 48.87C192.108 46.8988 196.456 45.145 200.891 43.3766C217.549 36.6801 234.591 30.9833 251.926 26.3167L258.666 24.4614L264.812 22.925C268.74 21.9104 272.378 20.9828 276.074 20.229C279.77 19.4753 283.423 18.5622 287.423 17.9534C291.424 17.3447 295.671 16.6199 300.468 16.1416C303.599 15.7648 306.962 15.4749 310.513 15.3299L315.934 15.0111H321.572C329.523 14.8828 337.466 15.5872 345.27 17.1127C361.214 20.4175 375.97 27.6502 387.449 33.4769C407.741 43.8839 427.309 55.6389 447.833 65.756C458.035 70.9263 468.612 75.3209 479.474 78.9025C484.924 80.5693 490.49 81.9608 496.027 83.3378C501.564 84.7147 507.144 86.0772 512.58 87.831C534.598 94.2546 555.799 103.204 575.761 114.501C585.643 120.3 595.102 126.79 604.068 133.923C608.692 137.344 612.765 141.344 617.113 145.127C619.229 147.041 621.157 149.171 623.186 151.186C625.216 153.201 627.245 155.245 629.057 157.448C639.174 168.677 647.788 181.175 654.683 194.626C656.335 198.206 658.031 201.873 659.712 205.424C661.152 209.154 662.602 212.889 664.061 216.628C665.641 220.368 666.641 224.282 667.887 228.123L669.699 233.92C670.264 235.848 670.685 237.834 671.148 239.718C679.149 270.156 677.613 321.771 677.164 326.38C676.671 329.453 676.222 336.845 675.439 341.643L675.41 341.686ZM705.805 287.796C705.544 285.173 705.268 282.506 704.978 279.723C704.833 278.273 704.66 276.954 704.486 275.534C704.312 274.113 703.978 272.707 703.732 271.272C703.225 268.374 702.688 265.475 702.152 262.474C701.616 259.474 700.703 256.503 700.021 253.459C698.717 247.313 696.659 241.182 694.919 234.848C694.006 231.674 692.76 228.586 691.702 225.412C690.643 222.238 689.614 219.035 688.208 215.962C686.802 212.889 685.585 209.7 684.295 206.569C683.005 203.439 681.396 200.438 679.947 197.365C677.135 191.147 673.54 185.364 670.264 179.523C668.67 176.624 666.626 173.884 664.858 171.072C663.09 168.261 661.307 165.507 659.321 162.941C657.335 160.376 655.379 157.796 653.451 155.288L650.552 151.549C649.508 150.36 648.465 149.229 647.465 148.07C643.64 143.541 639.581 139.216 635.304 135.112C631.531 131.292 627.564 127.668 623.418 124.256C617 118.602 610.115 113.501 602.836 109.007C583.994 97.6148 563.701 89.0486 543.308 80.9317C533.075 76.9167 522.653 73.5975 512.203 70.2783L480.982 60.3061C460.124 53.7402 440.557 44.5652 421.076 34.5785C401.596 24.5919 382.115 14.2428 360.837 7.54643C350.268 4.10049 339.367 1.77347 328.312 0.603599C317.243 -0.246993 306.123 -0.198519 295.062 0.748543C284.064 1.68248 273.121 3.17735 262.275 5.22732C251.477 7.41598 240.722 9.82205 230.156 12.9094C187.861 24.9977 147.233 43.5941 111.301 69.2202C81.5154 90.2661 53.2078 118.69 32.9011 153.288C22.6676 170.687 14.6757 189.31 9.11578 208.714C3.87346 228.121 0.825062 248.055 0.0277794 268.142C-0.192436 288.844 0.896819 309.54 3.28902 330.105C5.92701 355.63 11.3189 381.314 15.4643 393.968C17.5204 401.127 20.3134 408.054 23.7986 414.637C27.0164 420.014 29.7993 424.783 32.8287 429.479C40.7642 441.477 49.5767 452.872 59.194 463.57C83.5301 490.559 88.8351 494.197 107.359 518.649L110.881 523.403C112.896 526.2 115.795 529.911 118.476 534.172C124.274 542.463 129.767 552.566 132.637 557.769L141.334 575.467C144.668 583.294 149.161 592.527 153.06 603.006C157.191 613.37 161.336 625.096 168.294 635.532C175.064 645.999 183.282 655.456 192.702 663.622C193.485 664.361 194.485 665.361 195.775 666.405C197.065 667.448 198.587 668.68 200.326 670.072C203.689 672.971 208.284 676 213.531 679.667C227.151 688.407 241.864 695.313 257.289 700.206C275.509 706.207 297.41 709.178 320.688 708.163C326.486 708.163 332.414 707.366 338.4 706.946C344.343 706.076 350.416 705.496 356.417 704.134C368.748 701.793 380.74 697.928 392.116 692.625C403.699 687.175 414.363 679.957 423.729 671.231C432.98 662.44 441.149 652.577 448.065 641.851C462.008 620.733 471.691 597.948 482.996 578.076C494.302 558.204 507.231 541.535 520.276 529.288C523.465 526.099 526.813 523.417 529.929 520.692C533.046 517.967 535.988 515.257 538.829 512.619C541.67 509.981 544.525 507.647 547.352 505.647C550.004 503.343 553.149 502.444 555.787 500.951C576.529 490.645 598.531 482.195 618.374 470.513C638.217 458.83 655.799 444.263 667.655 427.305C669.974 423.971 671.873 420.768 673.714 417.825L678.338 409.361C680.932 403.954 683.324 399.302 685.136 394.663C687.208 390.141 688.571 385.59 690.252 380.908C691.049 378.531 691.702 376.024 692.484 373.473C693.267 370.922 694.108 368.168 694.818 365.211C695.528 362.254 696.267 359.413 696.992 356.645C697.717 353.876 698.108 351.064 698.76 348.281C700.21 342.788 707.254 305.494 705.805 287.796ZM697.543 342.73C696.34 347.238 695.977 352.166 694.861 356.79C693.484 361.674 692.484 366.588 690.339 372.951C689.31 376.154 688.165 379.763 686.513 383.894C685.686 385.952 684.933 388.242 683.904 390.547C682.874 392.852 681.729 395.432 680.512 398.142C679.294 400.853 677.714 403.635 676.164 406.708C674.613 409.781 672.569 412.868 670.569 416.289C665.653 423.932 660.101 431.147 653.973 437.857C645.962 446.409 637.066 454.085 627.433 460.758C615.237 469.143 602.443 476.623 589.154 483.137C579.341 487.558 569.861 491.834 560.585 495.95C555.99 498.139 551.367 500.183 547.047 502.748C542.747 505.262 538.595 508.021 534.611 511.01C518.539 522.527 504.698 536.874 493.766 553.348C482.402 569.857 473.575 588.555 463.878 608.34C458.921 618.225 453.66 628.357 447.326 638.445C440.781 649.048 432.996 658.834 424.135 667.593L421.714 669.956C420.54 671.014 418.989 672.304 417.148 673.869C415.029 675.711 412.813 677.439 410.51 679.044C407.988 681.015 404.915 682.784 401.654 684.842C393.989 689.379 385.871 693.105 377.434 695.959C372.766 697.756 367.635 698.858 362.432 700.38C357.098 701.423 351.648 702.8 345.894 703.453C333.89 705.154 321.781 706.012 309.658 706.018C297.019 705.921 284.421 704.581 272.045 702.018C259.801 699.202 247.848 695.242 236.345 690.19C225.627 685.211 215.39 679.258 205.762 672.406C199.63 667.767 184.15 655.389 173.077 639.257C167.758 631.693 163.377 623.512 160.032 614.892C157.031 607.05 154.567 600.586 153.132 596.89C144.827 576.337 136.536 558.639 127.753 543.782C120.126 530.703 111.546 518.204 102.083 506.386C93.7342 496.24 86.1391 487.761 79.3557 480.499C72.5724 473.238 66.7311 466.933 61.5856 461.178C58.9476 458.352 56.6575 455.555 54.3384 452.917C52.0193 450.279 49.99 447.756 47.9608 445.205C45.9316 442.654 44.0473 440.234 42.1631 437.828L36.9886 430.479L34.3216 426.783L31.814 422.783C30.1182 420.145 28.3789 417.463 26.5961 414.651C25.6539 413.202 24.9872 411.752 24.1465 410.23C23.3058 408.709 22.4506 407.216 21.8129 405.505C20.4649 402.143 18.914 398.664 17.7255 394.765C14.2434 384.074 11.5356 373.146 9.62309 362.065C7.65185 350.948 6.02847 339.759 4.89791 328.496C2.66576 305.972 1.37576 283.216 2.39037 260.547C4.72231 214.824 20.6842 170.845 48.2217 134.271C69.8474 104.876 101.924 77.3516 137.536 56.5231C171.622 36.6695 208.355 21.7603 246.636 12.2426C263.586 7.92401 280.819 4.80004 298.207 2.89372C314.004 1.29019 329.955 2.21988 345.459 5.64766C360.963 9.49737 376.001 15.0284 390.305 22.1423C411.974 32.5493 432.976 44.4492 455.283 53.6387C466.4 58.3349 477.88 62.0165 489.388 65.6836L523.914 76.5689C546.844 84.0335 569.688 92.2083 591.081 103.471C601.818 109.011 611.848 115.824 620.954 123.763C623.23 125.719 625.665 127.531 627.854 129.56L634.391 135.866C638.869 139.938 642.696 144.562 646.769 149.113C657.177 161.197 666.232 174.383 673.772 188.437C681.767 203.399 688.184 219.152 692.919 235.442C697.53 251.494 700.392 267.998 701.456 284.665C701.587 286.694 701.804 288.666 701.877 290.637C701.949 292.608 701.877 294.594 701.964 296.551C701.964 300.45 702.123 304.291 701.862 308.146C701.601 312.002 701.645 315.625 701.21 319.234C701.065 322.133 699.978 325.641 699.862 328.192C699.436 333.088 698.656 337.947 697.528 342.73H697.543Z" fill="#1F1F1F"/>
</svg>
