<svg width="22" height="24" viewBox="0 0 22 24" fill="none" xmlns="http://www.w3.org/2000/svg">
<path d="M5.75202 18.1032C4.8293 19.1672 3.39506 19.8285 2.24165 19.5948C1.85489 19.5049 1.49412 19.3282 1.18719 19.0782C0.880251 18.8282 0.635362 18.5116 0.471419 18.1529C0.248759 17.8388 0.100622 17.4789 0.0380953 17.1C-0.0244317 16.7212 0.000270274 16.3332 0.110353 15.9652C0.471419 14.7968 1.75521 13.8819 3.18945 13.7278C5.44612 13.3748 5.54641 14.225 9.13702 12.5593C9.59838 12.1019 9.59838 11.7439 9.18717 11.5948C5.60158 9.8645 5.51632 10.7794 3.18945 10.4413C1.80536 10.1678 0.501508 9.35735 0.110353 8.18395C0.0197971 7.81309 0.00780386 7.42763 0.0751305 7.05193C0.142457 6.67624 0.28764 6.31847 0.501508 6.00123C0.664325 5.65322 0.902369 5.34498 1.19876 5.09838C1.49516 4.85177 1.84264 4.67284 2.21658 4.57426C3.44521 4.32068 4.87944 4.98196 5.75202 6.06587C7.19127 7.84585 6.46914 8.40272 9.76387 10.6401C10.1249 10.844 10.3255 10.6948 10.3255 10.2871C9.96948 6.3095 9.14705 6.67743 8.27447 4.53945C7.77299 3.26661 7.86827 1.69545 8.73584 0.775625C9.0099 0.506517 9.3385 0.298207 9.69987 0.16449C10.0612 0.0307736 10.4472 -0.0252983 10.832 -1.22239e-05C11.8049 -1.22239e-05 12.522 0.253561 12.9332 0.760709C13.7557 1.68053 13.9061 3.24673 13.3946 4.52454C12.522 6.66251 11.6494 6.30452 11.4438 10.2722C11.2432 10.6799 11.8551 11.0329 12.2161 10.7694C15.551 8.532 14.7787 7.97513 16.2681 6.19514C17.0855 5.12615 18.5248 4.41515 19.7785 4.66873C20.143 4.78039 20.481 4.9639 20.7723 5.20825C21.0636 5.4526 21.3021 5.75276 21.4735 6.09073C21.8834 6.74263 22.0286 7.5245 21.8797 8.27842C21.6193 8.8843 21.2054 9.41321 20.6783 9.81392C20.1511 10.2146 19.5285 10.4735 18.8708 10.5656C16.5138 10.9235 16.4085 10.0087 12.853 11.6843C12.3515 11.8881 12.3916 12.2958 12.9031 12.2958C16.4386 14.0261 16.5439 13.1063 18.9209 13.4145C20.2549 13.6681 21.5888 14.583 21.9298 15.7514C22.1023 16.5032 21.9709 17.2921 21.5637 17.949C21.3908 18.2897 21.1452 18.589 20.8438 18.826C20.5424 19.0629 20.1925 19.232 19.8186 19.3213C18.59 19.6246 17.2059 18.9633 16.3082 17.8297C14.8038 15.995 15.5911 15.4381 12.2964 13.2505C11.7347 12.7533 11.168 13.0963 11.4238 13.7079C11.7347 17.6258 12.5521 17.3176 13.4297 19.4556C13.9312 20.7234 13.7908 22.2996 12.9683 23.2144C12.3866 23.717 11.6386 23.9896 10.8671 23.9801C10.0923 24.0097 9.337 23.7345 8.76593 23.2144C7.9435 22.2996 7.76296 20.7284 8.30456 19.4556C9.17213 17.3176 9.99456 17.6258 10.3105 13.7079C10.4659 13.2107 10.0046 12.9969 9.69868 13.504C6.41899 15.7116 7.13611 16.3232 5.75202 18.1032Z" fill="#FAE8C9"/>
</svg>
