<svg width="22" height="24" viewBox="0 0 22 24" fill="none" xmlns="http://www.w3.org/2000/svg">
<path d="M5.74812 18.1149C4.82539 19.179 3.39115 19.8402 2.23774 19.6065C1.85098 19.5167 1.49021 19.34 1.18328 19.09C0.876345 18.84 0.631456 18.5234 0.467513 18.1647C0.244853 17.8506 0.0967161 17.4907 0.0341891 17.1118C-0.0283379 16.733 -0.00363598 16.345 0.106446 15.977C0.467513 14.8085 1.75131 13.8937 3.18554 13.7395C5.44221 13.3865 5.54251 14.2368 9.13312 12.5711C9.59448 12.1137 9.59448 11.7557 9.18326 11.6065C5.59767 9.87628 5.51242 10.7911 3.18554 10.453C1.80145 10.1796 0.497602 9.36913 0.106446 8.19573C0.0158908 7.82487 0.00389761 7.43941 0.0712243 7.06371C0.138551 6.68802 0.283734 6.33025 0.497602 6.01301C0.660419 5.665 0.898463 5.35676 1.19486 5.11016C1.49125 4.86355 1.83873 4.68462 2.21267 4.58604C3.4413 4.33246 4.87554 4.99374 5.74812 6.07765C7.18737 7.85763 6.46523 8.4145 9.75997 10.6519C10.121 10.8558 10.3216 10.7066 10.3216 10.2989C9.96558 6.32128 9.14315 6.68921 8.27057 4.55123C7.76909 3.27839 7.86437 1.70723 8.73193 0.787405C9.00599 0.518296 9.33459 0.309987 9.69597 0.17627C10.0573 0.0425534 10.4432 -0.0135185 10.8281 0.0117676C11.801 0.0117676 12.5181 0.265341 12.9293 0.772488C13.7518 1.69231 13.9022 3.2585 13.3907 4.53632C12.5181 6.67429 11.6455 6.3163 11.4399 10.284C11.2393 10.6917 11.8511 11.0447 12.2122 10.7812C15.5471 8.54377 14.7748 7.98691 16.2642 6.20692C17.0816 5.13793 18.5209 4.42693 19.7746 4.68051C20.1391 4.79217 20.4771 4.97568 20.7684 5.22003C21.0597 5.46438 21.2982 5.76454 21.4696 6.10251C21.8795 6.75441 22.0247 7.53628 21.8758 8.2902C21.6154 8.89608 21.2015 9.42499 20.6744 9.8257C20.1472 10.2264 19.5246 10.4853 18.8669 10.5773C16.5099 10.9353 16.4046 10.0205 12.8491 11.696C12.3476 11.8999 12.3877 12.3076 12.8992 12.3076C16.4347 14.0379 16.54 13.118 18.917 13.4263C20.251 13.6799 21.5849 14.5947 21.9259 15.7632C22.0984 16.515 21.967 17.3039 21.5598 17.9608C21.3869 18.3015 21.1413 18.6007 20.8399 18.8377C20.5385 19.0747 20.1886 19.2438 19.8147 19.3331C18.586 19.6364 17.202 18.9751 16.3043 17.8415C14.7999 16.0068 15.5872 15.4499 12.2924 13.2622C11.7308 12.765 11.1641 13.1081 11.4199 13.7197C11.7308 17.6376 12.5482 17.3294 13.4258 19.4673C13.9273 20.7352 13.7869 22.3113 12.9644 23.2262C12.3827 23.7288 11.6347 24.0013 10.8632 23.9919C10.0884 24.0215 9.3331 23.7463 8.76202 23.2262C7.93959 22.3113 7.75906 20.7402 8.30066 19.4673C9.16822 17.3294 9.99065 17.6376 10.3066 13.7197C10.462 13.2225 10.0007 13.0087 9.69478 13.5158C6.41509 15.7234 7.1322 16.3349 5.74812 18.1149Z" fill="#E62617"/>
</svg>
