<svg width="73" height="71" viewBox="0 0 73 71" fill="none" xmlns="http://www.w3.org/2000/svg">
<g clip-path="url(#clip0_329_5506)">
<path d="M20.5718 0.90918C18.2477 0.920492 15.9527 1.42727 13.8404 2.39561C10.7845 3.73441 8.05748 5.72206 5.84909 8.22024C3.64069 10.7184 2.004 13.6671 1.0529 16.8611C-1.33614 24.8371 0.370315 33.9587 5.86728 42.6235C6.13596 43.0513 6.41916 43.4646 6.70235 43.8851L23.6798 45.5166L27.8261 2.59138C25.5611 1.50554 23.0843 0.931201 20.5718 0.90918Z" fill="#E62617"/>
<path d="M45.7185 50.3458L42.8502 50.0703L45.7185 50.3458Z" fill="#E62617"/>
<path d="M13.9639 52.6152C14.4359 53.1228 14.9079 53.6304 15.4162 54.1162C14.9224 53.6231 14.4383 53.1228 13.9639 52.6152Z" fill="#E62617"/>
<path d="M18.8291 57.4661C19.7513 58.3217 20.6735 59.1483 21.574 59.9314C20.6687 59.1628 19.7537 58.341 18.8291 57.4661Z" fill="#E62617"/>
<path d="M38.9072 49.6933V49.686L36.8594 49.4902H36.8522L38.9072 49.6933Z" fill="#E62617"/>
<path d="M15.9753 54.718C16.8467 55.5954 17.7254 56.451 18.5967 57.2703C17.7254 56.4582 16.8467 55.6026 15.9753 54.718Z" fill="#E62617"/>
<path d="M31.1447 48.9462L22.6415 48.1196L22.0751 48.0398L31.1447 48.9462Z" fill="#E62617"/>
<path d="M12.0033 50.4182C12.4971 50.991 12.9981 51.5566 13.5064 52.1077L12.0033 50.4182Z" fill="#E62617"/>
<path d="M41.8627 49.976L39.8077 49.7729L39.8004 49.7802L41.8627 49.976Z" fill="#E62617"/>
<path d="M9.09863 46.8217L20.7171 47.9383L20.0853 47.8731L9.12042 46.8145C9.43992 47.235 9.75943 47.6483 10.0862 48.0616C9.73765 47.6556 9.43992 47.2423 9.09863 46.8217Z" fill="#E62617"/>
<path d="M10.3767 48.4604C10.7543 48.939 11.1464 49.4031 11.5313 49.8671C11.1464 49.4031 10.7616 48.9318 10.3767 48.4604Z" fill="#E62617"/>
<path d="M53.1325 51.0635V51.0562L51.6367 50.9185H51.6294L53.1325 51.0635Z" fill="#E62617"/>
<path d="M47.8679 50.5559H47.8751L45.8564 50.3601L47.8679 50.5559Z" fill="#E62617"/>
<path d="M22.3074 60.5911C23.462 61.5772 24.5875 62.498 25.6695 63.3464C24.5947 62.4956 23.4741 61.5772 22.3074 60.5911Z" fill="#E62617"/>
<path d="M35.8065 49.3887L32.1394 49.0334V49.0407L35.8065 49.3887Z" fill="#E62617"/>
<path d="M50.896 50.8459L48.6813 50.6284V50.6357L50.896 50.8459Z" fill="#E62617"/>
<path d="M26.3447 63.8757C27.0709 64.4268 27.7317 64.9416 28.3852 65.4274C27.7317 64.9344 27.0564 64.4195 26.3447 63.8757Z" fill="#E62617"/>
<path d="M29.046 65.9133C29.823 66.4789 30.5564 67.001 31.2245 67.4578C30.5709 67.001 29.8448 66.4789 29.046 65.9133Z" fill="#E62617"/>
<path d="M39.6188 62.3023C42.1222 61.0865 44.5008 59.6294 46.7205 57.9518C49.2643 56.0839 51.4385 53.7605 53.1324 51.0997L51.6293 50.9402C51.4478 51.194 51.2662 51.4187 51.1355 51.6C50.8886 51.9191 50.5401 52.3904 50.1625 52.9269L48.8119 54.4931L48.4851 54.8702L48.1511 55.2037L47.5774 55.7693C47.2434 56.1101 47.011 56.3058 46.9965 56.3203L45.9 57.2122L44.9415 57.9373C44.3533 58.3868 43.8087 58.7349 43.2641 59.1119C41.8234 60.0833 40.3166 60.9531 38.7547 61.715C37.5565 62.3096 36.5762 62.6866 35.6903 63.0274L34.4631 63.4262C34.0971 63.555 33.7237 63.6615 33.3448 63.7452L32.2411 63.9918L31.9434 64.0643H31.6384H31.0284C30.0347 64.1324 29.0376 64.1324 28.0439 64.0643C27.5937 63.9918 27.0491 63.9918 26.4246 63.883H26.3447C27.0709 64.4268 27.7317 64.9416 28.3852 65.4274C28.6103 65.4274 28.8354 65.4709 29.0605 65.4782C30.9429 65.4667 32.8076 65.1155 34.5648 64.4413C36.2963 63.8442 37.9849 63.1296 39.6188 62.3023Z" fill="#E62617"/>
<path d="M38.1956 69.3213L36.8957 69.6983C36.4783 69.8276 36.0541 69.9341 35.625 70.0173L35.2837 70.0971L35.4071 70.1696L36.6634 70.8947L37.9196 70.1696C38.0794 70.0753 39.0597 69.488 40.5919 68.4729L39.6043 68.8354C39.1032 69.0095 38.6458 69.198 38.1956 69.3213Z" fill="#E62617"/>
<path d="M32.6768 67.3709H33.0544C33.127 67.3709 33.2795 67.3201 33.3884 67.2984C34.3397 67.0663 35.2183 66.8633 36.0606 66.5733C37.9038 65.9835 39.7 65.2564 41.4342 64.398C44.0957 63.1435 46.6132 61.6045 48.9426 59.8082C50.6682 58.462 52.2565 56.9489 53.6843 55.2909C54.7525 54.0579 55.7397 52.7573 56.6398 51.3972L53.8368 51.1289C53.4883 51.68 53.176 52.1368 52.9437 52.4558C52.1974 53.5153 51.395 54.5343 50.5401 55.5084L49.233 56.8499L48.6231 57.4082C47.3761 58.447 46.0718 59.4153 44.7164 60.3085C44.1355 60.7001 43.511 61.0336 42.7775 61.5339L41.5358 62.259L40.8097 62.6506L39.9891 63.0494C38.1835 63.9555 36.2939 64.684 34.3469 65.2246C32.6393 65.7666 30.8512 66.0119 29.0605 65.9497C29.8448 66.5153 30.5709 67.0373 31.239 67.4941L31.9143 67.4506L32.6768 67.3709Z" fill="#E62617"/>
<path d="M57.1482 51.4478C56.422 52.5644 55.7903 53.4345 55.3836 53.9638C55.1077 54.3046 54.7083 54.8049 54.2653 55.414C53.8224 56.0231 53.2705 56.5596 52.813 57.1252L51.4116 58.4811C51.0557 58.8509 50.7871 59.0539 50.7725 59.0757C49.4762 60.1825 48.1134 61.2092 46.6916 62.1501C45.1006 63.1972 43.4386 64.1324 41.7174 64.9489C41.0639 65.2897 40.4394 65.5217 39.8875 65.761C39.3357 66.0003 38.8201 66.1888 38.3408 66.3556C37.8616 66.5223 37.4331 66.6891 37.0047 66.8051L35.7775 67.1532L35.1821 67.3199L34.5648 67.4504L33.2796 67.726C32.793 67.784 32.3138 67.7695 31.7692 67.7985C33.3667 68.8861 34.5358 69.6185 35.0949 69.9738C35.8792 69.7925 36.6271 69.6185 37.346 69.3792C38.8126 68.9412 40.2506 68.4133 41.6521 67.7985C48.4259 63.1894 54.6399 57.8094 60.1689 51.7668L57.1482 51.4478Z" fill="#E62617"/>
<path d="M27.1581 60.787H28.6104C29.0751 60.787 29.5108 60.7362 29.9247 60.7145C30.767 60.7145 31.5368 60.5622 32.2992 60.4825C32.6689 60.4625 33.0373 60.4238 33.403 60.3664C33.766 60.2649 34.1291 60.1924 34.5212 60.0764C34.9134 59.9604 35.291 59.8299 35.6976 59.6776L36.9466 59.1555C39.2171 58.0902 41.3425 56.7403 43.2714 55.1386C44.9511 53.7868 46.4844 52.2631 47.8461 50.5923L45.8347 50.3965L45.4208 50.9838C45.1242 51.4231 44.8017 51.8445 44.455 52.2455L44.0048 52.7965C43.7344 53.1218 43.4433 53.4294 43.1334 53.7174C42.8647 53.9857 42.6178 54.2395 42.4072 54.4425C41.9135 54.8775 41.456 55.2256 40.9549 55.6099C40.4552 56.0179 39.9314 56.3956 39.3865 56.741C38.6302 57.2397 37.8445 57.6925 37.0337 58.0969L35.5378 58.7495L34.2526 59.1846C33.5394 59.3965 32.8112 59.5541 32.0741 59.6559C31.3817 59.7251 30.6859 59.7566 29.99 59.7501C29.6125 59.7501 29.2058 59.7501 28.7701 59.7501C28.2846 59.7453 27.7998 59.7139 27.3178 59.6559C26.9184 59.6559 26.4246 59.5834 25.8655 59.4891C25.3064 59.3948 24.6746 59.2861 23.9993 59.1555C22.5485 58.8101 21.1202 58.3767 19.7223 57.8576L18.8291 57.4661C19.7537 58.3265 20.6663 59.1483 21.5667 59.9314C22.0242 60.0619 22.4889 60.1779 22.9464 60.2722C24.3325 60.5664 25.7418 60.7387 27.1581 60.787Z" fill="#E62617"/>
<path d="M21.3415 50.4907C22.4934 50.7545 23.6756 50.8618 24.8561 50.8098C25.9851 50.754 27.1002 50.5367 28.1674 50.1644L29.1622 49.8164L30.2587 49.3306L30.8687 49.0623L31.1446 48.9463L22.075 48.0399L20.6807 47.9094L9.09863 46.8218C9.41814 47.2423 9.73765 47.6556 10.0644 48.0617C11.9088 48.3445 13.746 48.6998 15.5614 49.1131C17.5002 49.5409 19.4172 50.0992 21.3415 50.4907Z" fill="#E62617"/>
<path d="M27.5502 59.54C28.0367 59.5907 28.5014 59.5907 28.9444 59.6052H29.5907H30.2006C30.9594 59.6119 31.7174 59.5537 32.4662 59.4312C34.0203 59.1248 35.5285 58.6203 36.9538 57.9303C39.116 56.8477 41.1015 55.4444 42.8429 53.7683C43.1189 53.4855 43.4166 53.2172 43.6998 52.9054L44.5349 51.9048C44.6801 51.7356 44.8253 51.5616 44.9706 51.3827L45.3845 50.8099L45.7112 50.3458L42.8066 50.0703L42.705 50.2081C42.3782 50.6794 42.0442 51.0999 41.8118 51.419C41.5794 51.738 41.4052 51.9265 41.3979 51.941C40.5089 52.9115 39.5684 53.8337 38.5804 54.7036L37.8978 55.2619L37.1063 55.8565C36.4035 56.3525 35.6487 56.7706 34.8553 57.1037C33.9613 57.4558 33.0184 57.6686 32.0596 57.7345C31.3726 57.8158 30.6818 57.8618 29.9901 57.8723C28.4903 57.9031 26.9913 57.7792 25.517 57.5025L24.1663 57.2269C23.6435 57.0964 23.0626 56.9586 22.4381 56.7701C21.2036 56.4148 19.8239 55.9218 18.4515 55.465C17.6019 55.1822 16.7523 54.9284 15.9463 54.7399C16.8177 55.6245 17.6963 56.4801 18.5677 57.2994L19.6206 57.6982C22.1584 58.6992 24.8305 59.3199 27.5502 59.54Z" fill="#E62617"/>
<path d="M22.0968 56.2408C23.3003 56.6146 24.5312 56.8934 25.7784 57.0747C26.2286 57.1182 26.6571 57.1834 27.0637 57.2052L28.2255 57.2487C28.9517 57.2487 29.6778 57.2487 30.3314 57.1399L31.348 57.0312L32.3864 56.8716C33.1365 56.7789 33.8699 56.5812 34.5648 56.2843C36.5488 55.3357 38.3256 54.0051 39.7931 52.3688C40.4539 51.6437 41.151 50.9187 41.8845 49.976L39.8222 49.7803C39.1242 50.5254 38.377 51.2231 37.5856 51.8685C36.5298 52.756 35.369 53.5109 34.1292 54.1163C33.6426 54.3338 33.2069 54.5296 32.8003 54.6819C32.3937 54.8341 32.0161 54.9574 31.6602 55.0589C31.3044 55.1604 30.9341 55.2112 30.6509 55.2619L29.7214 55.3344C28.3259 55.3412 26.9336 55.2003 25.5678 54.9139C24.1881 54.6746 21.5086 54.0728 18.88 53.4637C17.0791 53.0649 15.2928 52.7386 13.9712 52.5791C14.4553 53.0867 14.9273 53.587 15.3872 54.08C16.4328 54.3266 17.4567 54.6456 18.4733 54.9864C19.6787 55.4287 20.8842 55.871 22.0968 56.2408Z" fill="#E62617"/>
<path d="M24.0719 52.724C25.3353 52.982 26.6311 53.0432 27.9133 52.9052C28.4868 52.8488 29.055 52.7469 29.6125 52.6007C29.9029 52.5209 30.1934 52.4122 30.4984 52.3179L30.9704 52.1584L31.4569 51.9481C31.7836 51.7959 32.183 51.6798 32.5025 51.4841L33.6716 50.875C34.4254 50.4565 35.1399 49.9712 35.8065 49.4248L32.1322 49.0768C30.9095 49.7283 29.6343 50.2765 28.3199 50.7155C27.1095 51.127 25.8368 51.3258 24.5584 51.3028C23.3957 51.2528 22.2417 51.0778 21.1165 50.7807C19.9837 50.5124 17.7689 49.9179 15.5832 49.4321C13.3975 48.9463 11.3497 48.62 10.3477 48.4604C10.7325 48.9318 11.1174 49.4031 11.5095 49.8671C13.5936 50.2297 15.6631 50.6937 17.7108 51.2013C19.7586 51.7088 21.9588 52.3397 24.0719 52.724Z" fill="#E62617"/>
<path d="M29.9973 54.7109C30.3031 54.6849 30.6064 54.6364 30.905 54.5658C31.2128 54.4981 31.516 54.4109 31.8127 54.3048C32.125 54.1888 32.4445 54.08 32.7785 53.9423L33.7951 53.4782C35.6377 52.5449 37.3174 51.3206 38.7692 49.8528L38.9072 49.715L36.8522 49.4902C36.3017 50.0176 35.7118 50.5024 35.0877 50.9404C34.8989 51.0927 34.6737 51.2087 34.4559 51.3537C34.2235 51.5077 33.9809 51.6458 33.7297 51.767C33.0958 52.1272 32.4384 52.4446 31.7619 52.7169C31.5295 52.8111 31.3262 52.9126 31.1156 52.9779L30.4984 53.1157C30.1502 53.2331 29.7933 53.3228 29.4309 53.384L28.5015 53.5362L27.6519 53.5797H27.238H26.824L25.9599 53.5145C25.3572 53.4202 24.6746 53.3332 23.8396 53.1302C22.5906 52.8619 20.1507 52.2093 17.7617 51.6292C15.3726 51.0492 13.0707 50.6141 12.0033 50.4183L13.5064 52.1151C17.6673 52.6734 21.6974 53.9133 25.7711 54.5514C27.1668 54.7889 28.5877 54.8425 29.9973 54.7109Z" fill="#E62617"/>
<path d="M29.7722 63.6293C30.2587 63.6293 30.7089 63.5496 31.1519 63.5206L31.7982 63.4553L32.0668 63.3828L32.3864 63.2668L33.5627 62.926C35.2164 62.3674 36.8298 61.6963 38.3916 60.9175C40.7753 59.7391 43.0435 58.3408 45.1666 56.741C45.5152 56.4872 45.8419 56.1899 46.205 55.8999L46.7496 55.4576L47.2797 54.9645C48.0451 54.2516 48.7722 53.4989 49.4582 52.7095C49.9229 52.1222 50.4022 51.4986 50.9105 50.8315L48.732 50.614C48.536 50.8533 48.3109 51.1143 48.0785 51.4116L47.4758 52.1367L47.1635 52.5282L46.8295 52.8908C45.8928 53.8407 45.1521 54.7035 45.094 54.7108L43.1915 56.2769C42.6323 56.741 42.1168 57.0528 41.6157 57.4661C41.0565 57.8776 40.4746 58.2577 39.873 58.6045C39.0526 59.1027 38.204 59.553 37.3314 59.9531C35.6522 60.7361 33.8377 61.1891 31.987 61.2873C31.2608 61.3308 30.5782 61.3816 29.8085 61.3671C29.4091 61.3671 28.988 61.3671 28.5232 61.3671L26.991 61.2946L25.4153 61.0915C24.8199 61.0045 24.1445 60.9393 23.4329 60.7942C23.0698 60.729 22.7068 60.6492 22.3074 60.5622C23.4692 61.529 24.5923 62.4474 25.6767 63.3176C26.533 63.4575 27.3958 63.5543 28.2618 63.6076L29.7722 63.6293Z" fill="#E62617"/>
<path d="M67.1473 42.6306C66.7697 43.2252 66.3775 43.8198 65.9781 44.3998C66.3775 43.8198 66.806 43.2252 67.1473 42.6306Z" fill="#E62617"/>
<path d="M69.5581 22.2123C68.2472 21.3214 66.8072 20.6366 65.2883 20.182C63.7313 19.8915 62.1571 19.7026 60.5756 19.6165C59.6751 19.5439 58.5569 19.4279 57.4168 19.3989C56.369 19.4313 55.3253 19.5428 54.2943 19.7325C52.9873 20.1675 52.2756 20.3343 50.9831 20.7693C48.4941 21.4209 46.0649 22.282 43.7216 23.3434L42.7994 23.7567L41.9062 24.2353L41.013 24.7066L40.1707 25.2359C39.8948 25.4172 39.6116 25.5767 39.3502 25.7652L38.5804 26.3453C38.0841 26.7116 37.6135 27.1113 37.1717 27.5417C36.6072 28.0561 36.076 28.6059 35.5814 29.1876C35.3418 29.4704 35.1312 29.7822 34.9061 30.0795L34.5721 30.529C34.4632 30.674 34.3833 30.8481 34.2889 31.0003L33.7225 31.972L33.2795 32.9943C33.1326 33.3328 33.0113 33.6819 32.9165 34.0385L32.764 34.575C32.7041 34.7515 32.6627 34.9338 32.6405 35.1188L32.4735 36.2137C32.4227 36.5763 32.4735 36.9388 32.4299 37.3158V37.8669L32.488 38.418C32.5389 38.7878 32.5606 39.1431 32.626 39.5129C32.769 40.233 32.968 40.9409 33.2214 41.6301L33.6136 42.6525L34.1219 43.6241C34.2453 43.8561 34.3542 44.0809 34.4777 44.2839L34.8625 44.8495C35.1094 45.2048 35.3273 45.5746 35.5887 45.8501L36.1623 46.5752L39.401 46.887C37.9531 45.0208 36.8087 42.9384 36.0099 40.7165C35.5194 39.3589 35.2735 37.9252 35.2837 36.482C35.2301 35.0537 35.5373 33.6349 36.1769 32.3562C36.6087 31.4783 37.2196 30.7003 37.9705 30.0722C38.3695 29.7224 38.7501 29.3521 39.1105 28.9628C39.5099 28.535 39.8367 28.158 39.8367 28.158C40.5628 27.6504 40.9985 27.3314 41.4487 26.9688C41.8989 26.6063 42.4218 26.2873 43.2932 25.6999C44.6566 24.8658 46.1206 24.2079 47.6501 23.7422C47.9986 23.5899 48.536 23.4159 49.1532 23.1984C49.8186 22.9339 50.4972 22.704 51.1864 22.5096C52.3272 22.1426 53.4986 21.8781 54.6865 21.7192C54.9728 21.6792 55.2615 21.6574 55.5506 21.6539L56.4147 21.6177L58.1575 21.5162L59.9075 21.5597H60.7789C61.0693 21.5597 61.3598 21.6177 61.6503 21.6394L63.3785 21.8352L65.0559 22.205L65.4698 22.2993L65.8765 22.437L66.6752 22.7126C67.2003 22.8857 67.7104 23.1015 68.2001 23.3579C68.8048 23.642 69.3894 23.9666 69.9502 24.3295C70.2261 24.5253 70.4948 24.7501 70.7635 24.9603C71.0225 25.1845 71.2652 25.4268 71.4896 25.6854L72.1722 26.4105C72.3826 26.658 72.579 26.917 72.7604 27.1864L72.862 27.3241C72.9347 26.6788 72.9782 26.0262 73.0073 25.3882C71.9958 24.189 70.8369 23.1219 69.5581 22.2123Z" fill="#E62617"/>
<path d="M68.9844 25.1345C67.1792 23.7859 65.0953 22.857 62.8847 22.4154L60.9967 22.1108C60.3504 22.0456 59.7042 22.0383 59.0506 22.0021C58.7311 22.0021 58.4043 21.9658 58.0848 21.9658L57.1118 22.0238L55.1875 22.1543C52.6304 22.4725 50.1345 23.1664 47.7807 24.2136C46.4121 24.8718 45.0941 25.6304 43.8377 26.4831C43.1116 26.9834 42.2112 27.52 41.0566 28.4191C40.7661 28.6439 40.4321 28.8469 40.1198 29.1442L39.0669 30.007C38.219 30.6596 37.4832 31.4457 36.8885 32.3346C36.4367 33.0658 36.1103 33.8671 35.9227 34.7056C35.7375 35.5552 35.6739 36.4268 35.7339 37.2942C35.894 38.6569 36.2689 39.9857 36.8449 41.2314C37.4254 42.4903 38.1028 43.7024 38.8709 44.8568C39.3792 45.6327 39.8875 46.307 40.3232 46.8943L42.8502 47.1336C42.596 46.8508 42.2983 46.5173 41.9207 46.0242C41.5431 45.5312 41.3834 45.2992 41.1946 45.0091C41.0058 44.7191 40.8678 44.4726 40.7298 44.226C40.5918 43.9795 40.4684 43.733 40.345 43.4502L40.1344 42.9861C40.0618 42.8193 39.9891 42.6308 39.9093 42.4278C39.4833 41.4348 39.1645 40.3993 38.958 39.3389C38.7638 38.3076 38.7467 37.2509 38.9072 36.2138C39.3553 34.226 40.2853 32.3785 41.6157 30.8336C42.8532 29.3488 44.3248 28.0753 45.9726 27.0632C49.771 24.7892 54.0522 23.4404 58.4697 23.126C58.7456 23.126 59.0216 23.126 59.2975 23.126C59.5756 23.1079 59.8545 23.1079 60.1326 23.126L60.9677 23.184C61.246 23.2176 61.5223 23.266 61.7955 23.329C62.0714 23.387 62.3473 23.4305 62.616 23.4958L63.4148 23.7568C63.9448 23.9356 64.4616 24.1512 64.9615 24.4021C65.2135 24.5188 65.4563 24.6546 65.6876 24.8082L66.4138 25.236C66.864 25.555 67.3142 25.8885 67.7499 26.2293C68.5995 26.9544 69.3257 27.7738 70.2697 28.4046C70.9655 29.1417 71.5768 29.954 72.0923 30.8264L72.1577 30.9352C72.3029 30.3333 72.4263 29.7243 72.528 29.1224C72.1504 28.6149 71.7292 28.1001 71.3226 27.549C70.6212 26.6723 69.8383 25.8639 68.9844 25.1345Z" fill="#E62617"/>
<path d="M32.931 42.0072C32.7771 41.6378 32.6438 41.2602 32.5316 40.8761C32.4299 40.47 32.321 40.0567 32.2121 39.6362C32.1032 39.2156 32.0959 38.7951 32.0306 38.3818C31.9984 38.1848 31.9766 37.9864 31.9652 37.7872V37.2144C31.9652 36.8446 31.9652 36.4893 31.9652 36.2137C31.9652 35.9382 32.0451 35.6772 32.0814 35.4887C32.3403 34.1593 32.7851 32.873 33.403 31.6674C34.0212 30.47 34.7766 29.3482 35.6541 28.3248C37.3212 26.3447 39.3245 24.6733 41.5722 23.3869C44.1345 21.9433 46.8631 20.816 49.6978 20.0298C52.5328 19.2225 55.4638 18.8005 58.4116 18.7754C59.8639 18.7754 61.3162 18.8696 62.7685 18.9929C63.5162 19.0465 64.2605 19.1409 64.9978 19.2757C65.1939 19.3192 65.3972 19.3482 65.5788 19.4062L66.1234 19.5875L67.1981 19.9573L68.2583 20.4866L68.7738 20.7331L69.2531 21.0304L70.2189 21.6322C70.5238 21.857 70.8143 22.0963 71.112 22.3573C71.7024 22.819 72.2604 23.3205 72.7822 23.8582C72.8548 23.938 72.9274 24.0178 72.9928 24.1048C72.9913 23.0405 72.9234 21.9774 72.7894 20.9216C72.0769 20.3409 71.311 19.8287 70.5021 19.3917C69.337 18.8545 68.1388 18.392 66.9149 18.0068C64.5041 17.0134 61.476 16.9844 58.477 17.2817C55.5818 17.6012 52.7149 18.1393 49.9011 18.8914C46.687 19.7701 43.6226 21.124 40.8097 22.9084C39.4011 23.79 38.039 24.7435 36.7288 25.7652C35.3999 26.7161 34.2161 27.8542 33.2142 29.1441L32.7204 29.8112L32.3501 30.4638C32.2339 30.6741 32.1104 30.8698 32.0088 31.0656L31.7474 31.6674L31.4859 32.262C31.4133 32.4723 31.348 32.6826 31.2754 32.9001L31.043 33.5672C30.9776 33.7992 30.9268 34.053 30.8542 34.2923C30.4939 35.6566 30.3324 37.0657 30.3749 38.476C30.3749 38.7081 30.3749 38.9401 30.3749 39.2011C30.3749 39.4621 30.4403 39.6942 30.4693 39.9262C30.5383 40.482 30.6475 41.0321 30.7961 41.5721C30.8588 41.8768 30.9487 42.1753 31.0648 42.464C31.181 42.7685 31.2826 43.0876 31.4061 43.4066C31.7057 44.0791 32.0502 44.7307 32.4372 45.3571C32.5534 45.5529 32.7494 45.8574 33.0109 46.2127L35.0731 46.4085C34.5173 45.5472 34.0317 44.6428 33.6208 43.7039C33.362 43.1505 33.1317 42.5842 32.931 42.0072Z" fill="#E62617"/>
<path d="M28.3563 32.3344C28.516 31.9573 28.683 31.6093 28.8283 31.2902C29.1768 30.6884 29.4673 30.2171 29.6633 29.9198C29.8594 29.6225 30.0046 29.4268 30.2225 29.0932C30.4403 28.7597 30.6582 28.3681 30.9051 28.0563L31.5368 27.179C31.7038 26.947 31.8055 26.7947 31.82 26.7874L32.931 25.6636L33.8314 24.837L34.2889 24.4019L34.819 23.9523C35.2039 23.6261 35.6468 23.2273 36.2713 22.814C36.8099 22.4096 37.3698 22.0344 37.9487 21.6901C38.3636 21.4252 38.7927 21.1831 39.234 20.965C40.04 20.5372 40.8315 20.1819 42.1386 19.6236C43.1189 19.1885 45.0432 18.3257 46.982 17.5861C48.9209 16.8465 50.8306 16.2084 51.7093 15.9764C53.256 15.5558 54.8245 15.128 56.4293 14.8235L57.6492 14.6277C58.0522 14.5496 58.4596 14.4964 58.8691 14.4682L60.0963 14.3812C60.5064 14.3388 60.9187 14.3218 61.3308 14.3304C64.5292 14.36 67.6712 15.1742 70.4803 16.7015C71.0612 16.9988 71.6204 17.3323 72.1795 17.6731C72.1069 17.4048 72.0415 17.1365 71.9617 16.8682C71.8818 16.6 71.7946 16.3534 71.7075 16.0996C68.7978 14.4099 65.5637 13.3524 62.2167 12.9963C61.9036 12.9538 61.5885 12.9271 61.2727 12.9165C60.9397 12.8843 60.6052 12.8698 60.2706 12.873L58.0922 12.9093C57.366 12.989 56.6399 13.0978 55.9137 13.1993C55.5739 13.2386 55.2385 13.3089 54.9116 13.4096L54.0185 13.6633C53.2914 13.8994 52.5807 14.1828 51.8908 14.5117C51.2518 14.8017 50.6128 15.0628 49.7705 15.3963C46.5476 16.5631 43.3956 17.9165 40.3305 19.4496C39.5172 19.8338 38.7548 20.3124 37.9705 20.7402C37.1863 21.168 36.4529 21.6683 35.7049 22.1251C34.2783 23.0005 32.9321 24.0002 31.682 25.1125C30.291 26.4555 29.1349 28.0216 28.2619 29.7458L27.8407 34.0963C27.8843 33.9223 27.9278 33.741 27.9787 33.5743C28.0513 33.132 28.2256 32.7259 28.3563 32.3344Z" fill="#E62617"/>
<path d="M31.4641 45.0961L30.9776 44.1753C30.7449 43.7412 30.5575 43.2844 30.4184 42.8121C30.3603 42.6018 30.2079 42.3118 30.1135 41.9565C30.0191 41.6012 29.8883 41.2314 29.7722 40.8616C29.656 40.4918 29.6124 40.1365 29.5471 39.8972C29.4817 39.658 29.4599 39.4767 29.4527 39.4694C29.3943 38.6052 29.3943 37.7379 29.4527 36.8736C29.4594 36.4676 29.4982 36.0627 29.5688 35.6627C29.6359 35.106 29.7476 34.5556 29.9029 34.0168C30.0516 33.4162 30.2508 32.8292 30.4983 32.2621C30.673 31.8434 30.8794 31.4386 31.1155 31.0512C31.3292 30.6728 31.5719 30.3116 31.8417 29.9708C31.9797 29.7823 32.1176 29.572 32.2846 29.3617L32.8656 28.6801C33.1705 28.2886 33.6861 27.781 34.267 27.1647L35.2619 26.2873L36.3511 25.4027C37.5176 24.4105 38.7473 23.4949 40.0327 22.6619C42.5658 21.1004 45.2401 19.7798 48.0203 18.7174C48.7465 18.4346 49.4218 18.2316 50.1189 17.9923C50.816 17.7531 51.5059 17.5863 52.1885 17.405C53.5681 17.0425 54.926 16.7234 56.2622 16.5059C57.8718 16.2563 59.4985 16.1327 61.1274 16.1361C62.8071 16.1006 64.4809 16.3456 66.0797 16.8612C68.4734 17.7193 70.7196 18.9422 72.7385 20.4866C72.6804 20.1023 72.6224 19.718 72.5497 19.341L71.8889 18.8407C69.3149 16.9401 66.3304 15.6686 63.1751 15.1282C61.3706 14.8817 59.5408 14.8817 57.7362 15.1282C56.8286 15.235 55.9288 15.3997 55.0422 15.6213C54.5993 15.7301 54.1563 15.8316 53.7134 15.9476L52.399 16.3319C48.8788 17.2605 45.4571 18.5281 42.1821 20.1168C41.2072 20.6107 40.2617 21.1603 39.3501 21.7628C38.9362 22.0166 38.5441 22.2994 38.1302 22.5894L37.4766 23.0462L36.7868 23.5755C35.4998 24.5196 34.2861 25.5595 33.156 26.6861C32.8002 27.0559 32.4299 27.4112 32.0378 27.8898C31.6217 28.3533 31.229 28.8373 30.8614 29.34C30.6653 29.6155 30.4475 29.891 30.2514 30.1883L29.7722 31.1744C29.6778 31.334 29.5616 31.5007 29.4744 31.6675L29.213 32.2041C29.0242 32.5594 28.8935 32.9292 28.7265 33.3497C28.3224 34.5201 28.0782 35.7396 28.0004 36.9751C27.9168 38.212 27.99 39.4545 28.2182 40.6731C28.649 42.5602 29.4191 44.3536 30.4911 45.9662L32.1902 46.133V46.0895C31.8925 45.7342 31.6602 45.4152 31.4641 45.0961Z" fill="#E62617"/>
<path d="M29.351 45.2122C28.3856 43.4312 27.7718 41.4816 27.5429 39.4695C27.4749 38.9887 27.4337 38.5046 27.4194 38.0193L26.9402 42.9644C27.2363 43.922 27.6279 44.8475 28.1093 45.727L29.7213 45.8865L29.6269 45.727C29.5325 45.5602 29.4381 45.3862 29.351 45.2122Z" fill="#E62617"/>
<path d="M32.4518 5.2596C31.958 4.88256 31.4351 4.53452 30.8978 4.15747L30.68 4.30249L30.4984 6.57201C30.7526 6.39799 31.0067 6.20947 31.2681 6.0427L32.4518 5.2596Z" fill="#E62617"/>
<path d="M26.8676 44.1316L26.7224 45.5818L27.5502 45.6615C27.3905 45.3352 27.2235 44.9872 27.0492 44.5956C26.9548 44.4579 26.8676 44.2984 26.8676 44.1316Z" fill="#E62617"/>
<path d="M65.7021 28.8033C64.1466 27.6021 62.3629 26.7288 60.4593 26.2364C59.8297 26.0507 59.1823 25.9316 58.5277 25.8812C58.1821 25.8557 57.835 25.8557 57.4893 25.8812C57.1827 25.8825 56.8775 25.924 56.5817 26.0044C56.3938 26.0551 56.2094 26.1181 56.0298 26.1929C55.8695 26.2398 55.7119 26.2954 55.5578 26.3597C55.2279 26.5025 54.8882 26.6212 54.5412 26.715C53.0258 27.1484 51.5431 27.6887 50.1044 28.332C48.628 28.9798 47.2631 29.8558 46.0597 30.9278C44.6788 32.1476 43.638 33.7039 43.0389 35.4451C42.4836 37.1783 42.4836 39.0413 43.0389 40.7745C43.1167 41.0569 43.2213 41.3312 43.3512 41.5938C43.4601 41.8331 43.5618 42.0579 43.6562 42.3189L44.4331 43.6748C44.7744 44.1824 45.1593 44.835 45.7547 45.6616C46.2552 46.3519 46.801 47.0084 47.3886 47.6265L51.0774 47.9818C50.3938 47.5664 49.7707 47.0589 49.2257 46.4737C49.1096 46.3286 48.8191 46.0966 48.5867 45.8791L48.1147 45.4803C47.817 45.0887 47.6645 44.835 47.4612 44.5957C47.1948 44.2753 46.9521 43.9361 46.735 43.5806C46.4928 43.1886 46.2909 42.7732 46.1323 42.3407C46.0234 41.9999 45.9653 41.6156 45.8128 41.1153C45.767 40.8242 45.704 40.536 45.624 40.2524C45.5736 40.0672 45.5396 39.878 45.5224 39.6868C45.5224 39.4911 45.457 39.2808 45.428 39.0778C45.3771 38.6717 45.428 38.2584 45.428 37.9031C45.4417 37.6251 45.4781 37.3486 45.5369 37.0765C46.1422 34.5648 47.6351 32.3556 49.7413 30.8553C52.1377 29.2914 54.963 28.5133 57.8234 28.6292C59.2363 28.7025 60.6185 29.0679 61.8826 29.7024C63.1313 30.3441 64.2552 31.2036 65.2011 32.2402C65.6677 32.6813 66.109 33.1486 66.5227 33.6396C66.8036 33.9668 67.0472 34.3243 67.2488 34.7055C67.3535 34.9036 67.448 35.1069 67.532 35.3146C67.6046 35.5248 67.6773 35.7351 67.7353 35.9526C67.9271 36.7349 67.9981 37.5418 67.9459 38.3454C67.949 38.7975 67.8829 39.2474 67.7499 39.6796C67.6695 38.6977 67.4919 37.7262 67.2198 36.7792C66.94 35.7996 66.5477 34.8555 66.0507 33.9659C65.8764 33.6323 65.644 33.3351 65.448 33.016C65.2519 32.697 64.9832 32.4215 64.7218 32.1314C64.2016 31.591 63.6273 31.1051 63.0081 30.6812C61.7522 29.8268 60.3205 29.2643 58.8182 29.0353C57.8313 28.8576 56.8206 28.8576 55.8337 29.0353C55.2092 29.2238 54.8897 29.4051 54.287 29.6226C53.1384 30.0148 52.0237 30.4998 50.954 31.0728C49.8639 31.6403 48.8692 32.3742 48.0058 33.248C47.0342 34.2637 46.3414 35.5124 45.9944 36.8735C45.6804 38.229 45.7636 39.6461 46.234 40.9557C46.5489 41.7048 46.9407 42.4192 47.4031 43.0875C47.5411 43.276 47.679 43.4935 47.8388 43.7401L48.4488 44.5739C48.6739 44.893 48.9789 45.2265 49.3056 45.6326C49.7046 46.0747 50.1264 46.4958 50.5691 46.8942L51.0121 47.2858L51.7382 47.8078L51.9996 47.9963L62.1658 48.9752C62.4171 48.825 62.6596 48.6603 62.8919 48.4822L63.6181 47.5323L63.7706 47.3293C64.1118 46.887 64.4459 46.4519 64.7726 46.0023L65.2519 45.3353L65.9781 44.3564C66.3774 43.7763 66.7696 43.1818 67.1472 42.5872L67.198 42.5002C67.2561 42.2464 67.2997 42.0216 67.3432 41.8331C67.4449 41.108 67.532 40.8035 67.5901 40.4989C67.6482 40.1944 67.7281 39.8899 67.8007 39.6578C67.8117 39.6515 67.8243 39.6481 67.837 39.6481C67.8498 39.6481 67.8623 39.6515 67.8733 39.6578C67.8152 40.0856 67.8733 40.3829 67.8733 40.789C67.8733 41.195 67.7934 41.3618 67.7571 41.6228C68.8763 39.7684 69.8475 37.8288 70.6617 35.8221C70.4312 34.8843 70.0694 33.9835 69.587 33.1465C68.5953 31.4544 67.2744 29.9777 65.7021 28.8033ZM65.3173 38.2294C65.2949 38.5783 65.201 38.9189 65.0413 39.23C64.8582 37.7749 64.4129 36.3649 63.727 35.068C63.6108 34.8215 63.4438 34.604 63.3058 34.3429C63.1679 34.0819 62.9791 33.9006 62.8048 33.6904C62.4301 33.287 62.0111 32.927 61.5558 32.6172C60.6393 31.9986 59.5983 31.5878 58.506 31.4136C57.7893 31.2479 57.0442 31.2479 56.3275 31.4136C55.8773 31.6021 55.6667 31.7979 55.2455 32.0081C54.4417 32.3623 53.6586 32.7618 52.9001 33.2045C52.1167 33.6378 51.4041 34.188 50.787 34.836C50.0861 35.5846 49.569 36.4857 49.2766 37.4681C49.0019 38.4328 49.0195 39.4572 49.3274 40.4119C49.5346 40.9479 49.8104 41.4548 50.148 41.9201C50.3368 42.1884 50.5256 42.5292 50.8741 42.9787C51.2927 43.5971 51.7799 44.1663 52.3264 44.6754C52.3918 44.7334 52.5007 44.8422 52.6387 44.9582L53.1397 45.328C53.5028 45.5745 53.8659 45.7921 54.0329 45.8718C55.0588 46.2302 56.1288 46.4473 57.2134 46.5172C57.8421 46.6035 58.4812 46.5789 59.1014 46.4447C60.0397 46.2178 60.8967 45.7359 61.5776 45.0525C61.8814 44.7721 62.204 44.5129 62.5434 44.2766C62.7176 44.1461 62.921 44.0374 63.1243 43.9141C63.3276 43.7908 63.5527 43.6603 63.7851 43.5225C64.1502 42.6394 64.4322 41.7243 64.6274 40.789C64.6789 40.4628 64.7615 40.1423 64.8743 39.8319C64.9384 39.6206 65.0185 39.4146 65.1139 39.2155C65.1266 39.2101 65.1401 39.2074 65.1539 39.2074C65.1676 39.2074 65.1812 39.2101 65.1938 39.2155C65.1722 39.4931 65.1722 39.7718 65.1938 40.0494C65.1502 40.3322 65.1139 40.5352 65.0776 40.7745C65.0413 41.0137 64.9469 41.2385 64.8598 41.6011C64.5701 42.6143 64.1003 43.5672 63.4728 44.4144C63.284 44.6319 63.0662 44.9365 62.7467 45.2555L62.5143 45.5165L62.2529 45.7631L61.9624 46.0314L61.6357 46.2634C60.6319 46.9219 59.46 47.2792 58.2591 47.293C57.1822 47.3076 56.1103 47.1459 55.0858 46.8145L54.5194 46.5897L54.0547 46.3866C53.8654 46.3108 53.6832 46.2186 53.51 46.1111C52.6135 45.7651 51.8031 45.2282 51.1355 44.5377C50.9822 44.3848 50.8171 44.2442 50.6417 44.1171L50.3803 43.9286L50.2641 43.8488C50.1274 43.6081 49.9695 43.38 49.7921 43.1673C49.6614 42.9715 49.4944 42.7757 49.2693 42.4059C49.0919 42.1078 48.9667 41.7817 48.899 41.4415C48.8328 41.1338 48.7939 40.8208 48.7828 40.5062C48.7392 40.1944 48.6085 39.5998 48.5649 38.9835C48.5397 38.6892 48.5397 38.3932 48.5649 38.0989C48.5711 37.8904 48.6028 37.6834 48.6594 37.4826C48.9745 36.5631 49.3935 35.6825 49.9083 34.8577C50.3874 34.0486 51.0187 33.3395 51.7673 32.7695C53.5054 31.5045 55.6241 30.87 57.7725 30.9713C58.8288 31.0425 59.8592 31.3288 60.8006 31.8124C61.2622 32.0515 61.702 32.3305 62.1149 32.6462C62.5288 32.958 62.8919 33.3278 63.2768 33.6831C63.5164 33.9006 63.9303 34.2124 64.3805 34.6547C64.5677 34.8967 64.7171 35.1656 64.8235 35.4523C64.9034 35.6046 64.9832 35.7569 65.0486 35.9164C65.1139 36.0759 65.143 36.2427 65.1866 36.4022C65.3445 36.9926 65.401 37.6056 65.3536 38.2149L65.3173 38.2294ZM56.3057 38.9545C56.3566 39.085 56.4655 39.1285 56.5163 39.2373C56.5671 39.346 56.6107 39.4983 56.7922 39.8173C56.8235 39.8756 56.8626 39.9292 56.9084 39.9769L57.0682 40.1001C57.1671 40.1298 57.2699 40.1445 57.3732 40.1436C57.4719 40.129 57.5722 40.129 57.6709 40.1436C57.8452 40.1436 58.0049 40.1436 58.0194 40.1436C58.1148 40.122 58.2011 40.0713 58.2663 39.9986C58.3275 39.9429 58.3812 39.8796 58.4261 39.8101C58.5132 39.6868 58.6585 39.6578 58.9852 39.6216C59.0082 39.4284 59.0446 39.237 59.0941 39.0488C59.0998 38.9811 59.1279 38.9173 59.174 38.8675L59.2975 38.7442C59.2975 38.8095 59.2975 38.8602 59.2975 38.9255C59.2956 39.038 59.2709 39.149 59.2248 39.2518C59.1626 39.4673 59.0644 39.6707 58.9344 39.8536C58.8356 40.012 58.7213 40.1602 58.5931 40.2959C58.3812 40.4462 58.1268 40.5249 57.867 40.5207C57.514 40.5446 57.1621 40.4612 56.8576 40.2814C56.7411 40.244 56.6327 40.1849 56.5381 40.1074C56.464 40.0656 56.4073 39.9988 56.3783 39.9189C56.3783 39.8536 56.1823 39.7738 56.175 39.7666C56.175 39.6071 56.0951 39.5998 56.008 39.4331C55.9574 39.2974 55.9574 39.1481 56.008 39.0125C56.008 38.94 56.008 38.824 55.9426 38.6935C55.9147 38.5869 55.9001 38.4773 55.8991 38.3672C56.0298 37.9974 56.0661 37.4898 56.3929 37.207C56.5816 37.0461 56.8047 36.9304 57.0451 36.8688C57.2855 36.8072 57.5368 36.8014 57.7798 36.8517C58.2327 36.9488 58.6351 37.2064 58.9126 37.5768C59.073 37.7482 59.1966 37.9505 59.2757 38.1714C59.3773 38.4324 59.3338 38.7007 59.2176 38.7515C59.1715 38.4563 59.0936 38.167 58.9852 37.8886C58.7561 37.498 58.3837 37.2119 57.9468 37.091C57.8234 37.091 57.6201 36.9678 57.4966 37.0475C57.4235 37.1096 57.3555 37.1775 57.2933 37.2505C56.9797 37.3953 56.6926 37.5913 56.4437 37.8306C56.3289 37.9917 56.2562 38.1789 56.2321 38.3751C56.2081 38.5713 56.2333 38.7705 56.3057 38.9545ZM58.034 35.6553C57.7421 35.5721 57.4327 35.5721 57.1408 35.6553C56.9593 35.7496 56.8794 35.8511 56.7124 35.9381C56.0517 36.2172 55.4466 36.6126 54.926 37.1055C54.648 37.3983 54.4494 37.757 54.3491 38.1478C54.2487 38.5386 54.2498 38.9486 54.3524 39.3388C54.4362 39.5542 54.5539 39.7549 54.7009 39.9334C54.9265 40.3447 55.2047 40.725 55.5287 41.0645C55.7341 41.2575 55.9635 41.4232 56.2113 41.5576C56.6311 41.6862 57.0653 41.7617 57.5039 41.7823C57.6731 41.7933 57.8429 41.7933 58.0122 41.7823C58.1501 41.7823 58.2445 41.7823 58.2591 41.7823C58.6335 41.6799 58.9726 41.4767 59.2394 41.195C59.3556 41.0762 59.4875 40.9737 59.6315 40.8905C59.8044 40.7826 59.9867 40.6904 60.1761 40.6149C60.3867 40.0276 60.4303 39.7013 60.5029 39.4983C60.5126 39.3627 60.5471 39.23 60.6045 39.1068C60.6436 39.0223 60.6872 38.94 60.7352 38.8602H60.7788C60.7679 38.976 60.7679 39.0925 60.7788 39.2083C60.7725 39.4253 60.7257 39.6392 60.6408 39.8391C60.6408 39.9261 60.5828 40.0276 60.5537 40.1291C60.5111 40.2263 60.4626 40.3207 60.4085 40.4119C60.3649 40.5134 60.3141 40.6149 60.2632 40.7092L60.0599 40.9847C59.8582 41.2761 59.6134 41.5353 59.3338 41.7533C59.137 41.8949 58.9153 41.9982 58.6802 42.0579L58.3172 42.1521C58.1937 42.1521 58.063 42.1521 57.9396 42.1521C57.2602 42.1758 56.5866 42.0208 55.9862 41.7026C55.6157 41.5665 55.2824 41.3455 55.0132 41.0572C54.9029 40.9499 54.7812 40.8551 54.6501 40.7745C54.5049 40.5134 54.4395 40.4844 54.2507 40.1799C54.1832 40.0554 54.1366 39.9207 54.1127 39.7811C54.0996 39.6509 54.0996 39.5197 54.1127 39.3895C54.1127 39.259 54.0474 39.0125 54.0256 38.766C53.9883 38.5622 53.9883 38.3534 54.0256 38.1496C54.2458 37.3881 54.6701 36.7012 55.2528 36.1629C55.9634 35.6249 56.8473 35.3668 57.7362 35.4378C58.1686 35.478 58.5888 35.6031 58.9726 35.806C59.3564 36.0088 59.6963 36.2853 59.9728 36.6197C60.0454 36.7285 60.1979 36.8735 60.3213 37.0693C60.4656 37.2944 60.578 37.5384 60.6554 37.7944C60.7442 38.0255 60.7861 38.272 60.7788 38.5194C60.7965 38.6607 60.7658 38.8038 60.6917 38.9255C60.6532 38.7903 60.6265 38.652 60.6118 38.5122V38.2802L60.5464 38.0554C60.5115 37.9047 60.4654 37.7569 60.4085 37.6131C60.3431 37.4681 60.2705 37.3375 60.2124 37.2143C59.9896 36.8079 59.6781 36.4569 59.301 36.187C58.924 35.9171 58.4909 35.7354 58.034 35.6553ZM58.3389 33.6904C57.8442 33.538 57.3178 33.5205 56.814 33.6396C56.5018 33.7991 56.3711 33.9876 56.0879 34.1399C55.5941 34.3864 55.0422 34.6547 54.4903 34.9593C53.9487 35.2442 53.458 35.6166 53.038 36.0614C52.5595 36.5784 52.2175 37.2064 52.0432 37.8886C51.8896 38.56 51.9401 39.2619 52.1884 39.9044C52.3477 40.2628 52.5527 40.5991 52.7984 40.905C52.9364 41.079 53.0526 41.3183 53.2559 41.6301C53.5069 42.0701 53.8091 42.479 54.1563 42.8482C54.3182 43.023 54.4929 43.1854 54.6791 43.334C54.8689 43.4796 55.0677 43.6128 55.2746 43.7328C55.9801 43.9584 56.7129 44.0876 57.453 44.1171C57.8761 44.1797 58.3071 44.1625 58.7238 44.0664C59.3518 43.8984 59.9155 43.5475 60.3431 43.0585C60.5344 42.8546 60.7575 42.6832 61.0039 42.5509C61.3222 42.3918 61.6496 42.2514 61.9842 42.1304C62.1957 41.5024 62.3727 40.8634 62.5143 40.2161C62.548 39.9895 62.6166 39.7693 62.7176 39.5636C62.7833 39.4172 62.861 39.2765 62.95 39.143C62.9626 39.1376 62.9762 39.1349 62.9899 39.1349C63.0037 39.1349 63.0173 39.1376 63.0299 39.143C63.0115 39.3384 63.0115 39.535 63.0299 39.7303C62.9826 40.0898 62.9024 40.4442 62.7903 40.789C62.5799 41.4966 62.2509 42.1635 61.8172 42.7612C61.4595 43.2593 61.0426 43.7122 60.5755 44.1099C59.867 44.5791 59.0366 44.8312 58.1865 44.835C57.4292 44.843 56.6758 44.7254 55.9572 44.4869C55.5717 44.3619 55.2014 44.1941 54.8534 43.9866C54.2182 43.7569 53.6547 43.3643 53.2196 42.8482C53.0206 42.6433 52.8017 42.4587 52.566 42.2972C52.3675 41.9647 52.1518 41.6428 51.9198 41.3328C51.7006 40.9163 51.6073 40.4453 51.6511 39.9769C51.6511 39.7593 51.5204 39.346 51.4623 38.911C51.4013 38.5583 51.4013 38.1978 51.4623 37.8451C51.6784 37.1873 51.9454 36.5473 52.2611 35.9309C52.5635 35.3235 52.9976 34.7909 53.5318 34.3719C54.7867 33.4518 56.3406 33.0328 57.8887 33.1973C59.3781 33.3702 60.7473 34.0978 61.7228 35.2348C61.8826 35.4016 62.1295 35.6553 62.449 35.9599C62.7621 36.3002 63.0084 36.6962 63.1751 37.1273C63.266 37.338 63.3129 37.5649 63.3131 37.7944C63.307 38.0005 63.2752 38.2051 63.2187 38.4034C63.188 38.6678 63.085 38.9187 62.921 39.1285C62.8193 38.6862 62.7249 38.1714 62.5579 37.6783C62.438 37.1751 62.2576 36.6881 62.0205 36.2282C61.6372 35.5562 61.1071 34.9791 60.4698 34.5398C59.8324 34.1004 59.1041 33.8101 58.3389 33.6904Z" fill="#E62617"/>
<path d="M70.4367 29.8474L69.8921 29.1223C69.7033 28.883 69.558 28.622 69.362 28.3972C68.9897 27.9313 68.5818 27.495 68.142 27.092L67.4812 26.4902L66.7551 25.9464C66.2794 25.5879 65.7823 25.2585 65.2665 24.9603C65.0123 24.8008 64.7291 24.6993 64.4677 24.5615C64.2023 24.4253 63.9282 24.3066 63.6472 24.2062C63.0903 23.9957 62.5171 23.8308 61.9334 23.7131C61.6435 23.6429 61.3503 23.5873 61.0548 23.5464L60.1616 23.4739C58.5855 23.3584 57.0009 23.4856 55.4634 23.8509C54.4831 24.1482 54.0111 24.3802 53.0018 24.7138C51.1547 25.3166 49.3559 26.0584 47.621 26.9325C45.8565 27.7977 44.2254 28.9112 42.7776 30.2389C41.1057 31.7486 39.9247 33.7234 39.3864 35.9091C38.9553 38.0994 39.2777 40.3708 40.3014 42.3552C40.9016 43.5238 41.6324 44.6208 42.4798 45.6253C42.8429 46.0676 43.2641 46.5969 43.8305 47.2277L46.3938 47.4743L45.9944 47.0827L45.3699 46.5897C45.0141 46.0531 44.789 45.7413 44.5349 45.4223C44.2807 45.1032 44.0629 44.6972 43.6562 44.0736C43.0951 43.0759 42.7188 41.9853 42.5452 40.8542C42.5089 40.5787 42.4072 40.1871 42.3128 39.7303C42.2184 39.2735 42.1676 38.7297 42.1531 38.1931C42.1531 37.9321 42.1531 37.6638 42.1531 37.4028C42.1457 37.1597 42.1652 36.9165 42.2112 36.6777C42.2838 36.2209 42.3564 35.8439 42.4145 35.6191C43.5648 32.498 45.7338 29.8544 48.5723 28.1144C50.1598 27.1726 51.8704 26.4552 53.6553 25.9827C55.4527 25.4857 57.3192 25.2848 59.1813 25.3881C61.0608 25.5865 62.8758 26.1848 64.504 27.1428C65.3165 27.5981 66.0868 28.1247 66.8059 28.7162C67.5362 29.3011 68.1944 29.9704 68.7665 30.7102C69.3006 31.3703 69.786 32.0682 70.2188 32.7985C70.5715 33.4356 70.854 34.109 71.0612 34.807C71.3807 33.9296 71.6566 33.0523 71.9035 32.1749C71.7438 31.8849 71.584 31.6021 71.417 31.3338C71.083 30.8263 70.7199 30.3477 70.4367 29.8474Z" fill="#E62617"/>
<path d="M29.3438 23.6117L29.8594 23.1186L30.9849 22.031C31.4424 21.6612 31.9943 21.2552 32.6841 20.7331L33.2287 20.3198L33.737 19.9863L34.6374 19.4062C35.1063 19.0894 35.5911 18.7965 36.0898 18.5288C37.0337 18.0213 37.9269 17.55 39.4446 16.8466C40.5701 16.2883 42.7921 15.2007 45.0069 14.1928C47.2217 13.1849 49.4074 12.2641 50.4167 11.9305C54.0447 10.6112 57.8631 9.8888 61.7229 9.79153C63.619 9.7666 65.5118 9.95633 67.3651 10.3571C67.9823 10.4949 68.585 10.6616 69.1805 10.8357C68.6751 10.0621 68.1247 9.31877 67.5321 8.60964C66.1557 8.36706 64.7616 8.23852 63.364 8.22534C62.7903 8.22534 62.2094 8.22534 61.6358 8.26885H60.7716C60.4812 8.26885 60.198 8.3341 59.9075 8.36311L58.1865 8.55888L56.4438 8.88517L55.5869 9.04469L54.7518 9.26947L53.0744 9.71177L51.4261 10.2628C51.1574 10.3571 50.8815 10.4441 50.6128 10.5456L49.8067 10.8792C48.7393 11.3142 47.6283 11.7493 46.5826 12.1698C45.537 12.5904 44.4042 13.0399 43.3803 13.4895C41.2686 14.3959 39.2037 15.4074 37.1935 16.5203C36.4674 16.9482 35.8646 17.3397 35.291 17.695C34.7173 18.0503 34.2235 18.4201 33.7152 18.7971L32.9891 19.3337L32.2629 19.9355L31.4714 20.5736C31.1955 20.7911 30.9123 21.0231 30.6364 21.2987C30.3604 21.5742 30.0409 21.828 29.7359 22.1398L29.2567 22.6111L28.9081 22.9881L28.7847 24.3005L28.8936 24.1773L29.3438 23.6117Z" fill="#E62617"/>
<path d="M31.4932 24.2571C32.1212 23.6571 32.7909 23.1022 33.4974 22.5967C34.806 21.583 36.1657 20.6367 37.5711 19.7616C40.8757 17.7599 44.3801 16.1075 48.0276 14.831C48.9353 14.5119 49.8212 14.1784 50.7507 13.8884C51.6701 13.5647 52.6057 13.2888 53.5537 13.0618L55.006 12.7282C55.478 12.605 55.9717 12.5759 56.4583 12.4962L57.9106 12.2859L59.3629 12.2134C63.3153 12.0251 67.2476 12.8804 70.7634 14.6932L71.3299 14.9977C70.931 13.9772 70.4602 12.9862 69.9211 12.0321C68.0174 11.2524 66.0169 10.7329 63.9739 10.4877C59.6909 10.116 55.3785 10.6954 51.3462 12.1844C47.3189 13.6241 43.4019 15.3544 39.6261 17.3615C37.4124 18.5778 35.2955 19.962 33.294 21.5018C31.7778 22.5732 30.3998 23.8274 29.1913 25.236C29.0025 25.4535 28.7919 25.671 28.6031 25.9176L28.3707 28.2886C28.7817 27.5943 29.2352 26.9259 29.7286 26.2874C30.2624 25.5653 30.8525 24.8865 31.4932 24.2571Z" fill="#E62617"/>
<path d="M30.6363 18.2679C30.7878 18.1163 30.9478 17.9735 31.1155 17.8401C32.4226 16.7887 33.2432 16.2159 34.1218 15.5851L35.5741 14.599C36.1478 14.2582 36.794 13.8159 37.6654 13.3518C38.1374 13.0908 38.5658 12.8515 38.958 12.6267L40.0545 12.0901C40.7152 11.7566 41.3034 11.5391 41.8626 11.2998C42.9954 10.843 44.0846 10.4514 45.9145 9.89313L47.1998 9.56684L47.5774 9.45808C47.679 9.45808 47.8243 9.35657 47.9477 9.31306L48.7683 8.95777L49.6469 8.58797L50.5836 8.23268L51.5567 7.86289L52.5443 7.54385L54.5049 6.91302L56.3493 6.46346C56.9302 6.33295 57.453 6.16618 57.925 6.10817L59.0941 5.9414L60.7062 5.73113L62.3473 5.64412C62.8919 5.64412 63.4365 5.56436 63.9884 5.57161H64.3878C63.5428 4.90181 62.6523 4.29128 61.7228 3.74438H61.5558C60.2632 3.92566 58.9562 4.08518 57.6709 4.35346C55.093 4.83202 52.537 5.47009 50.0027 6.14443C47.4621 6.75301 44.9734 7.56035 42.5597 8.55897C40.1891 9.61535 37.9273 10.9 35.8065 12.3947C35.0222 12.9167 34.3542 13.4533 33.7732 13.9101C33.1923 14.3669 32.6768 14.8672 32.1467 15.3385C31.2462 16.1724 30.3603 16.999 29.351 18.0649L29.1985 19.6383L29.5906 19.2468L30.6363 18.2679Z" fill="#E62617"/>
<path d="M29.5544 21.1392L30.0555 20.7041C31.1681 19.7426 32.3527 18.8675 33.5991 18.0866C34.5649 17.4485 35.5234 16.9337 37.1137 16.0853C38.3263 15.4835 40.6791 14.2218 43.0826 13.185C45.4862 12.1481 47.8462 11.1765 48.8918 10.7487C52.7011 9.18625 56.7175 8.18483 60.8152 7.77581C62.8088 7.59116 64.8159 7.60816 66.806 7.82657C66.2614 7.2465 65.6805 6.68818 65.0778 6.15886C63.3811 6.0808 61.6809 6.14386 59.9947 6.34739C58.7743 6.47116 57.5621 6.66484 56.3639 6.92746C55.7685 7.05797 55.1658 7.18124 54.5703 7.31901L52.8131 7.84832C51.6484 8.19373 50.502 8.59788 49.3784 9.05922L48.536 9.42176L48.1221 9.59578C47.9738 9.66615 47.821 9.72671 47.6646 9.77705L45.9146 10.2919C44.5123 10.7516 43.1376 11.2914 41.7973 11.9088L40.9042 12.3221L39.9384 12.7789C39.3139 13.0835 38.6676 13.4387 37.9487 13.852C36.0592 14.9101 34.2466 16.0998 32.5244 17.4122C31.3306 18.3398 30.1888 19.3323 29.1042 20.3851L28.9735 21.6903L29.1042 21.567L29.5544 21.1392Z" fill="#E62617"/>
<path d="M46.1614 4.29534L46.4083 4.21558H46.4809L46.6043 4.17208L47.0836 3.9908L48.0349 3.64276C48.6666 3.38898 49.3201 3.20046 49.9664 2.99018C52.0744 2.33533 54.2206 1.80987 56.3929 1.41674C55.1026 1.08322 53.7754 0.912705 52.4426 0.90918C46.3357 0.90918 41.3906 4.46211 38.2609 7.51473C39.5808 6.81762 40.9357 6.18839 42.3201 5.6295C43.5836 5.13161 44.864 4.68689 46.1614 4.29534Z" fill="#E62617"/>
<path d="M31.8925 14.4754C32.9382 13.6851 33.933 12.9455 35.6612 11.8651C37.7486 10.4805 39.9326 9.2471 42.1966 8.1744C42.8719 7.84811 43.569 7.59433 44.2298 7.3188C44.8906 7.04326 45.5514 6.83299 46.1541 6.65897C47.3595 6.28917 48.3326 5.98464 48.9934 5.83237C51.2154 5.25955 53.481 4.72298 55.7466 4.21542C56.8866 3.96164 58.034 3.74411 59.174 3.49033L60.8587 3.2293C60.2996 2.92476 59.7332 2.63473 59.145 2.36645C58.5568 2.09816 58.034 1.90239 57.4748 1.71387L56.6398 1.9459L55.1875 2.25768C54.2362 2.47521 53.3067 2.787 52.0723 3.09153L51.2662 3.29456L50.4602 3.54109L48.8118 4.06315L47.149 4.66498L46.7205 4.82449L46.2703 4.96226L45.3844 5.25955C42.9942 6.00121 40.6698 6.9398 38.4351 8.06564C37.9559 8.30492 37.4911 8.5587 37.0264 8.79073C36.903 8.92849 36.7723 9.06626 36.6633 9.19678L36.5399 9.06626C34.1336 10.4353 31.8669 12.0357 29.7722 13.8446L29.5107 16.5419C29.7867 16.2881 30.0481 16.0489 30.2805 15.8168C30.8759 15.3093 31.3842 14.8742 31.8925 14.4754Z" fill="#E62617"/>
<path d="M36.1913 8.66775C35.7121 8.14569 35.1602 7.59462 34.5502 7.02905C33.0079 8.0025 31.524 9.06536 30.1062 10.2122L29.8085 13.3156C31.4568 11.8475 33.2224 10.5162 35.0876 9.33483C35.4507 9.1028 35.821 8.88528 36.1913 8.66775Z" fill="#E62617"/>
<path d="M33.1052 5.76733C32.1661 6.3329 31.2535 6.92264 30.3676 7.53655L30.1934 9.30576C31.4053 8.30744 32.6707 7.37553 33.9839 6.51417L33.1052 5.76733Z" fill="#E62617"/>
</g>
<defs>
<clipPath id="clip0_329_5506">
<rect width="73" height="70" fill="white" transform="translate(0 0.90918)"/>
</clipPath>
</defs>
</svg>
