<svg width="549" height="752" viewBox="0 0 549 752" fill="none" xmlns="http://www.w3.org/2000/svg">
<g opacity="0.5">
<path d="M-84.71 230.33C-83.2774 232.701 -81.5567 234.886 -79.587 236.834C-78.6455 237.589 -77.5613 238.145 -76.3993 238.471C-73.4669 240.203 -70.0742 240.996 -66.677 240.746C-64.1308 240.738 -61.6495 239.943 -59.5731 238.471C-58.3181 237.17 -57.218 235.727 -56.2944 234.174C-55.015 232.409 -54.0449 230.441 -53.4255 228.352C-52.3941 226.233 -51.9387 223.88 -52.1049 221.53C-52.3054 220.276 -52.665 219.054 -53.175 217.891C-53.9208 215.729 -55.1334 213.757 -56.727 212.115C-59.4342 208.607 -63.3124 206.186 -67.6561 205.293C-69.9926 204.782 -72.4163 204.819 -74.7357 205.403C-77.0552 205.987 -79.207 207.102 -81.0214 208.659C-84.2318 211.456 -86.7136 220.711 -86.4859 221.939C-86.2582 223.167 -85.3703 228.443 -84.71 230.33ZM-80.8848 214.799C-78.9267 212.07 -75.147 210.91 -72.7335 209.227C-69.5003 206.134 -67.5878 207.385 -66.4493 207.681C-63.0343 208.661 -60.0035 210.665 -57.7675 213.423C-55.5316 216.181 -54.1986 219.559 -53.9492 223.099C-53.9492 224.327 -55.1559 225.941 -55.2698 226.715C-57.7744 234.06 -61.3719 236.629 -64.7417 237.039C-66.1813 237.27 -67.6335 237.414 -69.0905 237.471C-70.0324 237.311 -70.9947 237.311 -71.9366 237.471C-72.9458 237.461 -73.9491 237.316 -74.9194 237.039L-76.3993 235.834C-76.8384 235.362 -77.2346 234.852 -77.5833 234.31C-79.3138 231.172 -79.4048 229.557 -80.2017 228.648C-80.9987 227.738 -81.7728 227.26 -82.2281 225.987C-83.0066 224.172 -83.2983 222.186 -83.0748 220.224C-82.8512 218.262 -82.12 216.392 -80.9531 214.799H-80.8848ZM-40.2195 214.071C-40.9641 211.658 -42.0448 209.361 -43.43 207.249C-44.6823 205.293 -46.1167 203.906 -46.8225 202.837C-49.5016 199.614 -52.7914 196.95 -56.5032 194.999C-60.215 193.048 -64.2758 191.848 -68.453 191.467C-77.0964 190.875 -85.6535 193.499 -92.4742 198.835C-98.2119 203.269 -101.787 210.955 -104.337 218.028C-104.781 219.99 -104.858 222.018 -104.564 224.009C-104.428 226.419 -103.859 228.829 -103.79 230.035C-103.827 231.292 -103.736 232.549 -103.517 233.787C-103.283 235.164 -102.805 236.489 -102.105 237.698C-100.352 240.655 -99.5098 241.382 -98.2347 243.452C-96.9597 245.521 -89.537 250.842 -85.3247 252.389C-79.5319 255.488 -73.016 256.987 -66.4493 256.732C-65.2654 256.732 -64.0358 256.732 -62.829 256.596L-59.2999 255.686C-57.0605 255.053 -54.9383 254.062 -53.0157 252.753C-50.2962 250.622 -47.9164 248.092 -45.9573 245.248L-44.0219 242.633C-43.4983 241.655 -43.0429 240.7 -42.5647 239.745C-42.0866 238.79 -41.5629 237.903 -41.1758 236.993C-40.7888 236.084 -40.561 235.06 -40.3106 234.174C-39.2922 232.015 -38.6089 229.715 -38.2841 227.351C-38.4735 222.87 -39.122 218.42 -40.2195 214.071ZM-40.6749 227.215C-41.2168 228.401 -41.5555 229.669 -41.6767 230.967C-42.3598 232.991 -44.3179 240.313 -50.1012 244.475C-51.5129 245.269 -52.7951 246.274 -53.9036 247.454C-56.4935 250.148 -59.7672 252.09 -63.3755 253.071C-70.0377 253.862 -76.7922 253.218 -83.1844 251.183C-85.5705 249.893 -87.7818 248.303 -89.7647 246.453C-92.8619 243.144 -95.5665 239.489 -97.8249 235.561C-99.2012 233.79 -100.327 231.839 -101.172 229.762C-103.722 222.439 -100.99 213.684 -95.6618 207.772C-91.313 202.769 -83.8448 199.267 -78.3119 196.402C-74.4626 194.143 -69.9499 193.284 -65.5385 193.968C-61.2487 194.681 -57.167 196.322 -53.5798 198.778C-49.9926 201.233 -46.9868 204.442 -44.7733 208.181C-42.3862 212.205 -40.9676 216.728 -40.6294 221.393C-40.4108 223.329 -40.4261 225.283 -40.6749 227.215ZM-30.4517 190.239C-39.8592 179.213 -53.0917 172.146 -67.4967 170.455C-82.3565 168.988 -97.2368 173.036 -109.3 181.825C-114.49 185.846 -118.695 190.994 -121.596 196.879C-124.646 202.835 -127.234 209.016 -129.337 215.367C-129.83 218.788 -129.768 222.267 -129.155 225.669C-128.517 229.898 -127.447 233.878 -127.311 235.993C-127.037 241.678 -127.607 243.27 -124.692 249.091C-122.811 252.613 -120.632 255.968 -118.18 259.12C-115.903 261.94 -103.403 271.968 -96.2994 274.765C-92.9482 276.806 -89.3727 278.454 -85.6435 279.677C-78.6879 281.928 -71.4156 283.049 -64.1041 282.997C-55.8676 282.943 -47.8265 280.485 -40.9709 275.925C-34.8688 271.377 -31.5218 265.76 -28.9717 262.94C-24.7781 257.147 -21.5915 250.689 -19.5453 243.838C-18.1792 238.995 -16.4943 237.016 -15.6291 230.057C-15.131 222.749 -15.8622 215.408 -17.7921 208.34C-21.0936 199.676 -27.6511 193.4 -30.4517 190.239ZM-20.4561 231.922C-21.4468 233.914 -22.1227 236.046 -22.4598 238.244C-23.3705 241.701 -27.7194 258.711 -35.2787 263.941C-43.2478 269.399 -48.4163 274.038 -59.0949 275.47C-59.7097 276.062 -65.0149 276.539 -71.3902 275.971C-77.7655 275.402 -86.0306 274.902 -92.2693 272.241C-94.2531 271.073 -96.1618 269.782 -97.9843 268.375C-99.7953 266.997 -101.493 265.476 -103.062 263.827C-106.388 260.215 -109.319 256.259 -111.805 252.025C-113.74 248.955 -114.856 246.704 -116.177 245.021C-118.454 241.428 -120.548 239.699 -122.074 235.288C-124.49 229.088 -124.982 222.305 -123.485 215.822C-121.876 209.187 -118.646 203.053 -114.082 197.971C-109.983 193.667 -105.188 190.085 -99.8969 187.374C-94.5689 184.417 -88.3758 180.165 -84.4595 178.118C-72.6197 172.001 -66.6542 174.184 -62.6469 175.094C-55.3622 176.367 -48.4534 179.247 -42.4232 183.523C-36.3931 187.799 -31.3933 193.364 -27.7877 199.813C-25.4759 204.209 -23.7242 208.876 -22.5736 213.707C-21.0481 218.414 -20.1373 218.983 -19.7275 223.463C-19.3947 226.303 -19.6425 229.181 -20.4561 231.922ZM-6.06616 185.645C-8.7453 181.815 -11.7058 178.19 -14.9233 174.798C-18.6573 171.41 -22.1638 167.817 -26.3077 164.792C-30.2793 161.708 -34.5331 159.005 -39.0128 156.719C-48.0844 152.065 -58.0065 149.295 -68.1797 148.578C-88.9943 147.548 -109.529 153.707 -126.332 166.02C-133.583 171.527 -139.699 178.385 -144.342 186.214C-149.319 194.183 -153.361 202.699 -156.387 211.592C-156.964 213.534 -157.263 215.547 -157.275 217.573C-157.524 220.395 -157.524 223.233 -157.275 226.055C-156.91 232.013 -155.59 237.835 -155.225 240.814C-155.107 243.874 -154.718 246.918 -154.064 249.91C-153.396 253.19 -152.18 256.334 -150.467 259.211C-148.326 262.849 -146.733 264.737 -145.457 266.602C-144.182 268.466 -143.181 271.582 -140.904 273.151C-138.627 274.72 -139.128 274.333 -137.238 275.766C-135.348 277.199 -119.592 290.979 -109.483 295.073C-107.792 296.092 -106.026 296.981 -104.2 297.733L-99.6464 299.712C-97.9615 300.326 -96.0944 300.94 -93.9997 301.645C-84.1027 304.828 -73.7489 306.365 -63.3528 306.193C-51.7386 306.087 -40.4017 302.636 -30.7021 296.255C-21.8677 290.024 -16.6537 282.611 -13.1245 278.381C-7.01868 270.233 -2.43683 261.05 0.400208 251.274C1.24268 247.75 1.97125 245.43 2.47217 243.27C2.97308 241.109 3.17798 239.085 3.63336 236.448C4.08875 233.81 4.4303 220.757 4.74908 218.664C5.25372 212.931 4.34698 207.162 2.10785 201.859C-0.0502319 196.188 -2.78943 190.754 -6.06616 185.645ZM-1.51239 243.725C-3.63562 251.575 -6.3139 259.266 -9.52704 266.738C-11.6901 271.081 -27.1046 290.752 -55.2698 298.575C-61.2567 299.846 -67.4174 300.084 -73.4849 299.28C-83.0023 298.211 -95.1609 296.869 -104.2 293.003C-107.167 291.413 -110.047 289.667 -112.83 287.773C-114.537 286.545 -116.245 285.249 -117.702 284.18C-119.159 283.111 -120.138 282.02 -120.753 281.474C-126.033 276.521 -130.766 271.017 -134.87 265.055C-138.035 260.734 -139.879 257.437 -141.701 254.845C-144.843 249.478 -147.507 246.704 -149.647 240.223C-152.672 231.002 -152.823 221.082 -150.08 211.774C-147.347 202.25 -142.446 193.486 -135.758 186.168C-129.766 179.909 -122.856 174.595 -115.266 170.409C-107.547 165.861 -97.5061 161.313 -92.497 158.834C-82.776 153.825 -71.7858 151.807 -60.9165 153.035C-45.0347 155.56 -30.4511 163.307 -19.4771 175.048C-17.8377 177.118 -16.0845 179.164 -14.65 181.37C-13.2156 183.576 -11.7356 185.782 -10.5744 188.192C-4.08527 199.562 0.810059 216.777 1.01495 221.825C1.26099 229.217 0.370239 236.603 -1.62622 243.725H-1.51239ZM26.0608 190.716C25.2639 188.715 24.2848 186.782 23.3057 184.895C21.408 181.225 19.1177 177.771 16.475 174.593C11.4431 168.544 7.20813 162.723 4.2254 159.744C-5.15302 150.074 -16.1875 142.157 -28.3569 136.367C-40.5815 130.236 -53.9492 126.713 -67.6105 126.02C-95.2684 124.836 -122.601 132.352 -145.753 147.509C-165.221 159.971 -180.749 183.28 -186.874 207.34C-187.483 209.961 -187.841 212.633 -187.944 215.322C-188.028 219.115 -187.914 222.91 -187.603 226.692C-186.851 230.649 -186.715 234.651 -185.713 238.062C-184.916 240.81 -184.293 243.605 -183.846 246.431C-182.434 251.638 -181.842 254.936 -180.749 258.256C-179.248 262.434 -177.326 266.45 -175.011 270.24C-172.95 273.659 -170.668 276.94 -168.181 280.064C-166.223 282.338 -164.697 284.839 -161.806 288.614C-161.806 288.614 -159.665 290.456 -157.252 292.457C-154.838 294.459 -152.265 296.801 -151.059 298.234C-147.894 302.622 -133.982 313.492 -120.73 320.133C-102.117 331.394 -80.8741 337.588 -59.1177 338.098C-43.4983 338.098 -26.9453 333.55 -15.0826 325.318C-9.69336 321.651 -4.78961 317.318 -0.487793 312.424C1.33374 310.15 3.22357 308.308 4.70355 306.397C6.18353 304.487 7.43579 302.782 8.55145 301.281C16.5053 290.034 22.303 277.412 25.6509 264.055C26.63 259.325 27.4724 256.141 28.0417 253.185C28.6109 250.228 29.1573 249.705 30.1136 242.769C31.0699 235.834 31.2293 224.85 31.4343 220.529C31.373 212.502 30.2086 204.521 27.9733 196.811C27.4724 194.764 26.8349 192.695 26.0608 190.716ZM26.8349 241.291C26.2885 244.293 25.4233 247.181 24.3987 254.231C22.8959 261.053 12.4222 290.343 6.04694 297.188C3.51959 299.894 -16.5399 324.59 -47.5284 331.458C-55.9842 333.024 -64.644 333.154 -73.1434 331.844C-87.6132 329.869 -101.705 325.737 -114.947 319.587C-116.882 318.313 -122.051 315.516 -126.741 311.992C-129.018 310.241 -131.295 308.512 -133.39 306.989C-135.485 305.465 -136.76 303.987 -137.693 303.236C-142.657 298.961 -146.323 294.55 -149.897 290.979C-152.994 287.022 -155.954 283.839 -158.163 280.746C-160.371 277.653 -162.352 275.038 -164.06 272.696C-165.767 270.354 -166.974 268.148 -168.226 266.329C-172.772 259.911 -176.591 253.008 -179.611 245.748C-184.21 233.101 -185.001 219.385 -181.888 206.294C-178.593 193.042 -171.909 180.873 -162.489 170.978C-147.416 154.718 -121.846 142.575 -101.718 135.798C-96.7118 133.588 -91.4832 131.919 -86.1217 130.818C-76.8091 129.241 -67.3223 128.966 -57.9337 129.999C-43.4595 132.171 -29.657 137.556 -17.5417 145.758C-11.5177 149.857 -5.95953 154.6 -0.965881 159.903C1.31097 162.723 3.72449 165.474 5.86475 168.431C8.00507 171.387 10.077 174.389 11.6708 177.663C16.5776 186.256 20.4015 195.422 23.0552 204.952C26.7169 216.671 28.017 228.999 26.8804 241.223L26.8349 241.291ZM51.9946 166.384C47.873 159.352 43.2703 152.612 38.2194 146.213C32.6844 139.087 26.3514 132.617 19.3439 126.929C12.4232 121.148 5.01038 115.982 -2.81018 111.488C-18.5476 102.217 -36.0965 96.4312 -54.2679 94.524C-72.2963 93.5409 -90.3652 95.4761 -107.775 100.255C-125.052 104.824 -141.606 111.782 -156.956 120.926C-182.138 136.412 -206.046 162.655 -216.496 193.468C-217.066 195.742 -217.772 199.335 -218.5 203.678C-218.946 206.009 -219.144 208.379 -219.092 210.751C-219.092 213.275 -219.092 215.822 -219.092 218.414C-218.933 223.599 -217.885 228.716 -217.567 233.241C-216.656 237.789 -215.608 241.496 -215.29 244.134C-212.261 257.778 -211.92 261.076 -204.52 275.311C-200.649 281.474 -198.395 285.067 -196.027 288.296C-193.659 291.525 -191.473 294.413 -187.921 299.666C-187.921 299.666 -185.257 302.145 -182.298 304.874C-179.338 307.603 -176.15 310.9 -174.511 312.606C-170.253 318.2 -152.812 333.072 -135.803 342.168C-127.455 347.465 -118.609 351.936 -109.391 355.517C-105.679 357.094 -101.878 358.453 -98.007 359.588C-93.7619 360.992 -89.4355 362.139 -85.0515 363.021C-80.4038 364.141 -75.6767 364.901 -70.912 365.295C-68.4302 365.545 -65.9712 365.727 -63.4438 365.955L-56.0439 366.182C-36.1439 366.728 -14.8777 366.751 3.15527 361.179C11.3771 358.679 19.0493 354.643 25.7648 349.286C30.6791 345.267 34.9217 340.492 38.3333 335.141C43.4562 326.955 45.3916 317.336 46.4162 308.421C47.4408 299.507 47.6457 290.82 48.4882 282.997C49.2927 274.306 50.8158 265.696 53.0419 257.255C54.1349 252.707 60.7151 232.877 61.8763 227.692C64.0629 217.789 64.4255 207.571 62.9465 197.539C61.2137 186.562 57.5195 175.987 52.0401 166.316L51.9946 166.384ZM50.3779 252.116C48.688 257.992 47.4175 263.98 46.5756 270.035C45.5386 276.297 44.8772 282.615 44.5947 288.955C43.9572 297.097 41.8852 314.129 40.428 318.404C38.9708 322.68 33.0281 333.459 27.5408 337.984C22.1724 342.553 16.2426 346.42 9.89484 349.491C-3.19727 355.835 -19.5226 359.588 -40.1968 360.02C-43.9397 360.293 -47.6954 360.346 -51.4446 360.179C-54.5412 360.179 -58.1387 360.065 -62.1005 359.929C-66.0623 359.792 -70.0923 359.337 -74.5323 359.019C-93.4225 356.358 -111.746 350.611 -128.768 342.009L-135.075 338.052L-139.446 335.232C-140.949 334.141 -142.452 332.958 -144 331.799C-146.983 329.525 -150.102 327.25 -152.516 324.976C-154.929 322.702 -156.933 320.974 -158.049 319.951C-167.856 310.998 -176.749 301.095 -184.597 290.388C-190.654 282.406 -194.069 276.084 -197.393 271.195C-200.285 266.101 -202.562 262.099 -204.884 258.074L-207.844 251.434C-209.106 248.896 -210.105 246.237 -210.827 243.497C-216.189 226.738 -216.189 208.726 -210.827 191.967C-205.03 175.112 -194.957 160.045 -181.592 148.237C-169.985 137.873 -156.795 129.428 -142.52 123.223C-128.499 116.985 -114.04 111.778 -99.2593 107.645C-95.343 106.622 -88.8311 103.779 -83.822 102.642C-70.098 99.1402 -55.7032 99.2185 -42.0182 102.87C-23.6215 107.783 -6.38037 116.284 8.71088 127.884C23.8416 139.316 36.5168 153.669 45.9836 170.091C52.1162 181.391 56.2888 193.647 58.3243 206.339C61.4437 224.099 51.1066 249.523 50.3779 252.116ZM86.5578 183.258C82.759 170.796 77.4042 158.862 70.6196 147.737C64.0849 137.504 36.8304 109.919 28.6109 102.915C24.3759 99.5951 20.0649 96.3887 15.6782 93.296C11.0106 90.6581 6.57062 87.4517 1.69806 85.2458C-3.11548 82.8065 -8.10889 80.7387 -13.2383 79.0604L-20.957 76.5135C-23.5527 75.854 -26.2394 75.3992 -28.8806 74.8762C-31.5139 74.252 -34.1828 73.7888 -36.8725 73.489L-44.9555 72.9205C-47.649 72.6601 -50.3562 72.5689 -53.0612 72.6476C-55.7252 72.6476 -58.3891 72.7841 -61.0531 72.9205C-103.771 75.9815 -145.17 89.0293 -181.91 111.011C-197.932 120.835 -212.275 133.157 -224.397 147.509C-236.829 162.45 -246.711 180.369 -250.536 199.585C-252.124 209.617 -251.978 219.847 -250.103 229.83C-248.044 240.121 -244.908 250.167 -240.745 259.802C-239.22 263.759 -237.876 266.897 -236.556 269.626C-235.235 272.355 -234.12 274.788 -232.776 277.153C-231.398 279.766 -229.877 282.301 -228.222 284.748C-226.113 288.129 -223.834 291.4 -221.392 294.55C-215.996 301.508 -212.512 305.26 -209.256 308.785C-206 312.31 -202.972 315.607 -197.871 320.997C-197.871 320.997 -196.983 321.77 -195.595 322.839C-194.206 323.908 -192.589 325.409 -190.608 326.909C-186.874 330.025 -182.502 333.39 -180.385 335.369C-174.413 340.674 -168.076 345.552 -161.418 349.968C-151.694 356.519 -141.547 362.421 -131.045 367.638C-120.532 373.39 -109.575 378.295 -98.2802 382.305C-88.6025 385.812 -78.6482 388.505 -68.5213 390.355C-62.8073 391.404 -57.0233 392.027 -51.2169 392.22C-45.3198 392.448 -39.3998 392.561 -33.3433 392.948C-21.253 393.539 -8.86676 394.38 3.31464 393.948C15.2377 393.881 27.0467 391.623 38.1511 387.285C40.7345 386.204 43.2312 384.927 45.6193 383.465C47.8785 382.002 50.0386 380.391 52.0856 378.644C55.9197 375.42 59.0572 371.451 61.3071 366.978C64.4418 360.097 66.6543 352.833 67.8873 345.375C70.0503 334.391 77.3136 305.01 79.636 300.508C81.936 296.101 84.6017 291.894 87.6052 287.932C94.4358 278.836 100.834 260.53 100.788 251.274C100.766 245.294 92.6826 203.042 86.5578 183.212V183.258ZM95.9158 258.62C94.9741 262.731 93.5447 266.716 91.658 270.49C88.5906 277.614 84.8229 284.417 80.4102 290.797C77.2697 295.578 74.8743 300.807 73.3063 306.306C71.6214 312.469 63.6295 346.534 60.4874 355.017C59.0121 359.087 57.0958 362.983 54.7723 366.637C52.3796 370.129 49.4254 373.203 46.0291 375.733C38.3615 381.313 29.5513 385.126 20.2319 386.899C9.05066 388.981 -2.32812 389.812 -13.6938 389.378C-15.9706 389.673 -33.867 388.377 -55.9529 387.763C-77.6744 386.012 -103.768 378.03 -123.098 368.797C-126.445 367.137 -134.711 362.748 -142.611 357.723C-150.512 352.697 -158.049 347.171 -161.009 344.897C-174.11 335.067 -186.372 324.168 -197.667 312.31C-206.182 303.396 -211.783 296.392 -216.337 290.775C-225.126 279.268 -230.294 272.946 -237.262 259.074C-246.551 240.086 -250.923 217.96 -246.142 196.811C-241.36 175.662 -228.951 156.606 -213.309 141.824C-199.319 128.963 -183.554 118.172 -166.496 109.783C-149.691 101.376 -132.286 94.2239 -114.423 88.3841C-105.065 85.1094 -100.125 82.9263 -90.6299 80.0383C-75.7689 76.481 -60.448 75.2308 -45.2059 76.3316L-36.5537 77.0593C-33.7076 77.4004 -30.8843 78.1508 -28.0609 78.6739C-22.4067 79.8098 -16.8552 81.407 -11.4624 83.4494C-8.76514 84.4593 -6.12732 85.6209 -3.56158 86.9287C-0.988647 88.2249 1.72083 89.2027 4.1571 90.7718C9.17468 93.6289 14.004 96.8039 18.6154 100.277L25.446 105.553L31.7758 111.42C36.059 115.285 40.0048 119.507 43.5701 124.041C45.5054 126.315 46.9626 128.703 48.7386 131.023L53.9755 137.845C57.1176 142.666 60.5784 147.305 63.5612 152.217C71.6357 165.69 78.4277 179.889 83.8483 194.628C89.6999 209.818 94.2537 232.764 95.3922 237.516C96.5306 242.269 97.7373 251.957 95.9158 258.574V258.62ZM102.177 161.972C98.6188 149.788 93.6361 138.064 87.3319 127.043C83.9393 121.472 80.2963 116.4 76.585 111.329C74.808 108.726 72.9006 106.214 70.87 103.802L64.3125 96.8435C62.1622 94.4465 59.8818 92.169 57.4819 90.0214C54.8406 87.9975 52.2905 85.8371 49.5811 83.9497C44.1917 80.3964 38.5446 77.2495 32.6865 74.5351C27.9406 72.0603 23.0073 69.9617 17.9323 68.2587L10.1226 65.6435L2.17615 63.3695C-3.1745 62.2097 -8.61627 61.0954 -14.0353 59.7765L-30.7477 57.9345C-33.5482 57.6844 -47.5739 56.9566 -47.5739 56.9566L-64.5595 56.5246C-75.739 57.4342 -87.0096 57.5252 -98.0981 58.503C-109.578 60.0785 -120.9 62.6503 -131.933 66.1893C-138.588 68.037 -145.139 70.2383 -151.56 72.7841C-157.525 74.9444 -162.762 76.65 -166.154 78.0826C-184.62 84.7683 -188.923 85.7234 -208.095 97.0482C-216.542 102.733 -224.17 105.576 -230.021 111.397C-233.937 115.332 -257.344 137.231 -259.985 139.323C-267.225 145.406 -273.132 152.915 -277.335 161.381C-283.485 173.776 -286.421 187.514 -285.873 201.336C-285.922 215.291 -283.518 229.145 -278.769 242.269C-271.939 262.463 -258.778 286.59 -240.882 308.467C-231.904 319.463 -222.001 329.672 -211.282 338.985C-206.137 343.806 -200.49 347.876 -195.344 352.265C-190.198 356.654 -184.301 359.997 -178.951 363.499C-173.6 367.001 -168.112 369.934 -163.012 372.595C-157.912 375.256 -152.88 377.871 -148.19 379.986C-143.499 382.101 -139.082 384.147 -135.234 385.966L-124.578 390.515C-101.511 399.869 -77.6832 407.234 -53.3572 412.527C-36.1667 416.211 -29.7914 417.917 -16.6537 420.35C5.52325 424.421 19.2984 423.829 24.5353 423.42C31.8974 422.196 39.1096 420.199 46.0519 417.462C53.1385 414.502 59.5172 410.077 64.7679 404.477C69.9018 398.629 74.1654 392.074 77.4274 385.011C80.4014 378.416 83.0012 371.659 85.2144 364.772C89.5633 351.878 92.6599 340.463 95.8475 334.004C100.538 323.134 108.712 314.493 116.203 304.578C119.917 298.64 123.015 292.339 125.447 285.772C127.481 280.168 128.574 274.267 128.68 268.307C128.68 259.029 120.119 219.733 112.56 196.583C108.917 185.213 105.889 173.752 102.177 161.927V161.972ZM122.533 254.39C124.331 267.42 124.81 281.36 119.026 293.39C113.243 305.42 102.906 314.561 96.5989 326.523C90.2919 338.484 86.9221 351.537 82.3683 364.045C79.6572 372.426 76.1976 380.546 72.0312 388.309C67.6528 396.559 61.4176 403.681 53.8161 409.116C46.1938 414.214 37.4548 417.404 28.3376 418.417C24.0116 419.304 19.6627 419.122 15.496 419.577C6.36975 419.763 -2.73907 418.7 -11.5762 416.416C-16.9952 414.824 -22.3915 413.937 -35.347 411.595C-48.3025 409.253 -98.5307 395.836 -103.813 394.062C-109.052 392.039 -114.128 389.622 -119 386.831C-123.759 383.829 -128.472 381.1 -133.185 378.462C-137.898 375.824 -142.452 373.141 -147.142 370.662C-151.833 368.183 -156.455 365.568 -161.236 363.044C-180.112 352.697 -200.057 340.554 -220.845 320.542C-232.309 309.289 -242.453 296.769 -251.082 283.225C-258.497 271.962 -265.036 260.148 -270.641 247.886C-276.189 235.831 -279.793 222.975 -281.32 209.796C-281.893 201.416 -281.296 192.996 -279.544 184.781C-277.677 176.677 -274.493 168.934 -270.117 161.859C-264.347 153.241 -257.184 145.641 -248.919 139.368C-245.39 136.344 -242.089 133.479 -238.947 130.841C-235.804 128.203 -232.685 126.133 -229.839 124.018C-218.637 115.354 -209.802 110.147 -202.903 105.326C-188.718 96.5251 -181.159 90.84 -164.765 83.3812C-142.03 73.2439 -117.926 66.5012 -93.2256 63.3695L-74.4868 62.1642L-65.0604 61.6185C-61.9411 61.6185 -58.8445 61.8231 -55.7024 61.9141C-49.4409 62.278 -43.1112 62.3689 -36.8953 63.0056L-18.3842 65.9846C1.12878 70.2599 23.1691 78.2418 40.6556 92.2272C49.2851 99.0494 56.2524 107.873 63.2197 116.014C69.7316 124.723 76.585 132.569 81.4348 140.846C84.4858 145.508 86.8993 149.192 89.5177 152.876C90.7245 154.695 91.954 156.606 93.138 158.652C94.6096 160.807 95.8824 163.09 96.9404 165.474C100.26 173.556 103.103 181.825 105.456 190.239C108.234 199.335 111.012 208.431 113.266 215.549C116.749 228.375 120.779 241.132 122.533 254.39ZM155.844 269.012C152.225 236.826 144.733 205.193 133.53 174.798C127.728 158.745 120.576 143.21 112.15 128.362C108.348 121.358 103.999 115.309 100.379 109.851C96.7583 104.393 93.0469 100.095 90.6107 96.366C88.6753 93.3187 86.3301 90.6126 84.0987 87.7701C81.8674 84.9275 79.6588 82.0622 77.1314 79.4698C72.0854 74.2601 66.6921 69.3977 60.9883 64.9158C58.0739 62.6418 55.2505 60.3677 52.3588 58.2756L43.0464 52.4085C41.4981 51.4762 39.927 50.4756 38.4926 49.566L33.5518 47.1555L23.6245 42.38L13.1964 38.787L7.95947 37.0359C6.16077 36.5129 4.20264 36.1718 2.31281 35.7625C-4.82422 34.4926 -12.0207 33.5818 -19.2493 33.0337C-33.3433 31.8512 -47.369 31.2372 -61.4629 30.9188C-90.0698 31.1438 -118.515 35.2286 -146.027 43.0622C-173.466 50.6521 -199.876 61.5571 -224.67 75.5357C-246.449 87.8814 -265.892 103.944 -282.116 122.995C-290.631 132.95 -298.001 143.827 -304.088 155.423C-309.507 167.294 -314.471 179.551 -316.475 192.422C-316.794 194.218 -317.158 196.606 -317.59 199.403C-318.023 202.2 -317.59 205.498 -317.773 209.045V214.571C-317.773 216.459 -317.317 218.437 -317.112 220.37C-316.52 224.35 -316.247 228.488 -315.336 232.513C-314.426 236.539 -313.287 240.541 -312.262 244.475C-311.238 248.409 -309.576 251.934 -308.415 255.436C-306.348 261.035 -303.992 266.523 -301.356 271.877C-291.634 292.23 -289.448 296.778 -273.077 316.54C-269.161 320.86 -265.996 324.249 -263.332 327.205C-260.668 330.161 -258.05 332.208 -255.773 334.459C-251.06 338.757 -247.143 343.214 -239.835 349.809C-239.652 349.923 -235.281 353.311 -229.976 357.177C-224.67 361.043 -218.591 365.159 -215.768 367.706C-211.669 371.572 -201.788 378.212 -189.697 385.898C-183.459 389.469 -176.719 393.471 -169.752 397.268C-162.785 401.066 -155.476 404.568 -148.417 407.843C-145.936 409.025 -140.63 411.481 -133.276 414.983C-129.587 416.757 -125.17 418.394 -120.412 420.327C-115.653 422.26 -110.371 424.557 -104.473 426.399C-76.8836 436.405 -48.2718 443.337 -19.1583 447.07C-2.97089 449.192 13.3662 449.953 29.681 449.344C33.7339 449.117 37.7868 449.094 41.7258 448.73L53.5201 447.207C61.2858 446.447 68.931 444.752 76.289 442.158C83.2322 439.581 89.5995 435.663 95.0278 430.629C99.8024 426.097 103.809 420.821 106.89 415.006C111.433 406.148 115.462 397.037 118.958 387.718C121.69 380.895 125.06 374.664 128.065 368.001C131.166 361.595 135.151 355.655 139.905 350.355C144.735 344.841 148.829 338.726 152.087 332.162C155.069 325.681 155.707 318.518 156.641 312.014C157.52 304.232 157.787 296.393 157.437 288.569C157.238 282.027 156.706 275.5 155.844 269.012ZM151.7 321.77C149.887 328.865 146.734 335.549 142.41 341.463C137.856 348.285 131.64 353.607 126.472 362.43C122.578 369.252 113.084 388.104 107.391 398.997C101.699 409.89 96.0069 419.964 87.0587 427.036C78.1105 434.108 66.2479 438.179 52.5182 440.157L42.0218 441.84C38.4698 442.408 34.7585 442.454 30.9789 442.795C27.1992 443.136 23.3513 443.364 19.435 443.477L7.25366 443.273C1.20831 443.375 -4.83588 443.01 -10.8248 442.181C-15.7429 441.703 -21.4579 441.271 -27.7422 440.089C-34.0264 438.906 -40.9254 438.247 -48.0748 436.473C-76.8775 430.538 -111.463 420.555 -137.648 408.957L-148.554 403.727C-153.108 401.157 -158.641 398.155 -164.082 395.108C-169.524 392.061 -174.693 388.604 -179.224 385.853C-183.755 383.101 -187.421 380.759 -189.379 379.213C-207.33 366.855 -224.361 353.212 -240.336 338.393C-246.164 332.64 -251.196 327.637 -255.636 323.294L-266.793 311.241C-269.868 308.099 -272.756 304.781 -275.445 301.304C-278.018 298.211 -280.432 295.3 -282.936 292.367C-285.441 289.433 -287.308 286.09 -289.767 282.656C-290.928 280.883 -292.18 279.086 -293.455 277.176C-294.73 275.266 -295.732 273.06 -296.871 270.809L-301.812 261.212L-305.614 251.343C-308.528 244.793 -309.53 237.698 -311.397 230.876C-313.795 216.818 -313.633 202.443 -310.919 188.442C-310.73 186.663 -310.349 184.909 -309.781 183.212L-308.255 178.073C-307.382 174.593 -306.217 171.192 -304.772 167.908L-300.445 158.016L-295.026 148.669C-293.273 145.528 -291.27 142.532 -289.038 139.709C-286.761 136.844 -284.826 133.842 -282.526 131.091C-277.856 125.627 -272.876 120.433 -267.613 115.536C-250.764 99.6179 -228.063 85.6325 -204.201 74.899C-181.405 64.6653 -157.796 56.3439 -133.618 50.0208C-121.049 45.8365 -114.196 44.222 -101.536 40.0377C-93.2028 38.0593 -82.2282 37.5135 -71.3446 36.7858C-60.3472 37.0815 -49.532 38.1957 -40.8343 38.8779C-25.5791 40.3106 -10.119 40.9701 4.70355 44.3584C19.3837 48.7261 33.2947 55.3468 45.938 63.9835C58.4927 72.7536 69.8776 83.0851 79.8182 94.7286C82.4273 97.5367 84.8751 100.49 87.1497 103.575C89.4266 106.622 91.8857 109.578 93.9804 112.671C98.261 119.038 102.701 125.292 106.458 132.023C117.011 150.116 125.86 169.148 132.893 188.874C140.315 208.954 148.216 238.562 149.491 248.727C150.47 256.846 153.612 276.971 154.273 291.934C154.723 301.955 153.82 311.991 151.586 321.77H151.7ZM161.468 182.53L152.906 160.767L143.799 139.255C140.588 132.16 137.15 125.133 133.872 118.083C130.593 111.034 126.244 104.302 122.647 97.4803L121.189 94.9106L119.391 92.6365L115.839 87.9065L108.644 78.4919C103.68 72.3975 97.9877 66.917 92.7054 61.0727C70.1414 38.7415 41.9307 22.9369 12.2628 11.9759C-3.17578 7.00937 -19.3358 4.64987 -35.5519 4.9946C-51.4184 5.20099 -67.2448 6.63794 -82.8885 9.29254C-95.7757 11.4074 -108.959 14.4319 -122.21 17.9794C-128.859 19.7304 -135.462 21.5042 -142.27 23.6873C-149.078 25.8704 -155.931 27.7579 -162.534 30.5095C-189.362 40.7923 -215.179 53.5359 -239.652 68.5771C-252.027 76.6143 -263.896 85.401 -275.195 94.8878C-278.747 97.7304 -282.321 100.596 -285.759 103.438L-295.413 112.08C-301.037 117.992 -306.047 122.95 -309.075 126.747L-314.722 133.274C-316.338 135.32 -317.682 137.367 -319.002 139.164C-321.536 142.484 -323.819 145.988 -325.833 149.647C-328.094 153.335 -330.087 157.181 -331.798 161.154C-336.286 171.661 -339.349 182.72 -340.906 194.037C-341.551 197.924 -341.916 201.853 -341.999 205.793C-342.592 214.121 -342.592 222.48 -341.999 230.808C-341.999 230.944 -341.634 232.536 -341.088 235.038C-340.541 237.539 -340.018 240.836 -338.811 244.361L-335.51 254.913C-334.599 258.347 -333.233 261.144 -332.572 263.19C-331.227 267.741 -329.427 272.144 -327.199 276.334C-325.764 279.086 -324.216 282.065 -322.508 285.271C-320.801 288.478 -318.273 291.502 -315.997 294.823C-314.858 296.46 -313.72 298.234 -312.422 299.871C-311.124 301.508 -309.621 303.055 -308.232 304.692C-305.318 307.853 -302.608 311.514 -299.375 314.402C-292.977 320.497 -286.511 326.727 -280.272 332.595C-275.718 336.756 -261.488 350.469 -240.108 367.274C-214.171 387.04 -186.623 404.604 -157.753 419.782C-126.406 436.34 -93.2674 449.265 -58.9811 458.304C-27.1047 466.218 0.787292 468.81 17.7274 470.766C25.9925 471.63 53.3607 474.541 59.6904 474.814C83.4384 475.792 100.879 460.942 107.027 452.96C114.04 443.864 120.483 436.359 124.582 430.788C128.627 424.896 132.966 419.211 137.583 413.755C143.184 407.638 154.819 400.93 157.164 399.224C160.517 397.202 163.707 394.921 166.704 392.402C171.466 387.955 175.384 382.685 178.271 376.848C185.466 363.203 188.585 344.169 188.471 324.908C188.471 286.249 178.385 246.112 174.036 227.42C170.234 212.456 166.477 197.539 161.354 182.53H161.468ZM184.054 339.212C183.325 350.966 180.72 362.527 176.336 373.459C171.896 383.852 159.191 394.426 156.094 395.813C150.05 399.073 144.351 402.936 139.086 407.343C133.371 411.891 128.453 417.303 118.73 431.106C113.698 437.929 107.778 447.025 96.9859 456.417C90.7142 461.578 83.4776 465.443 75.697 467.787C66.8626 470.243 46.0974 470.925 33.6428 468.378C29.977 467.65 26.4023 466.741 22.9415 465.922C15.8831 464.376 8.98407 463.011 2.22174 461.374L-38.2159 453.301C-65.5385 447.843 -94.66 440.953 -128.768 426.126C-130.498 425.535 -137.17 422.465 -147.188 417.781C-156.91 412.596 -169.957 406.024 -183.982 397.45C-212.079 380.6 -245.458 358.473 -269.115 337.12C-271.119 335.232 -274.785 332.003 -278.929 327.864C-283.073 323.726 -287.809 318.609 -292.59 313.583C-300.228 305.754 -307.006 297.132 -312.809 287.864C-317.203 281.61 -319.64 274.856 -322.805 268.944C-323.988 265.874 -325.081 262.827 -326.083 259.848C-327.199 257.046 -328.074 254.155 -328.702 251.206C-330.146 245.985 -331.204 240.664 -331.867 235.288C-332.163 232.786 -332.481 230.353 -332.755 228.011C-333.028 225.669 -332.891 223.463 -332.959 221.189C-333.439 207.546 -331.905 193.907 -328.406 180.711C-327.745 178.164 -327.267 175.753 -326.607 173.479L-324.33 166.998C-323.647 164.906 -322.964 162.882 -322.304 160.858C-321.643 158.834 -320.596 157.038 -319.753 155.128C-318.911 153.217 -318.046 151.262 -317.203 149.283C-316.361 147.305 -315.063 145.463 -313.947 143.462C-312.832 141.46 -311.67 139.346 -310.327 137.14C-308.984 134.934 -307.253 132.978 -305.591 130.681C-295.879 118.182 -284.37 107.186 -271.438 98.0488C-258.803 88.1433 -245.647 78.9202 -232.025 70.4191C-204.846 53.1313 -175.218 40.0227 -144.137 31.5328C-116.928 24.2315 -89.1972 19.0313 -61.1897 15.9783C-32.2049 13.0902 -2.92407 13.3176 20.3913 22.9369C34.1665 27.8261 41.8852 29.9409 55.114 36.3765C65.0111 41.7383 74.2752 48.1914 82.7326 55.615C85.0095 57.6844 87.2864 59.731 89.4039 61.7549C91.5214 63.7788 93.4796 66.1211 95.4604 68.2132C99.2629 72.5339 103.202 76.3316 106.207 80.152L113.903 90.3852C116.681 93.6239 119.087 97.1632 121.076 100.937L127.246 112.125L130.297 117.765L133.052 123.541C140.566 138.868 147.146 154.695 153.407 170.591C160.238 186.305 164.564 202.905 168.867 219.46C173.171 236.016 176.723 252.866 179.569 269.717C182.984 290.638 185.739 315.221 183.94 339.212H184.054ZM217.092 265.055C213.312 248.364 208.895 231.809 204.023 215.435C201.518 207.203 199.287 199.153 196.19 190.785C193.094 182.416 189.655 174.753 186.035 166.953C178.612 151.353 170.848 136.139 162.674 121.108C154.5 106.076 145.711 91.2721 135.944 76.8546C133.462 73.2161 130.957 69.6913 128.134 66.0983C126.586 64.3246 125.447 62.5963 123.58 60.7771C121.713 58.9578 120.051 57.1613 118.525 55.8424C112.104 50.0435 105.547 44.4721 98.6709 39.1053C84.9357 28.3057 70.2505 18.7689 54.7951 10.6115C27.6315 -4.16103 -2.75641 -12.0258 -33.6849 -12.2882C-37.6533 -12.3718 -41.623 -12.2047 -45.5702 -11.7879L-57.4556 -10.9465C-61.4068 -10.6783 -65.338 -10.1695 -69.2271 -9.4229L-81.0214 -7.55818C-96.5953 -4.55643 -111.782 -0.394897 -126.741 3.63016C-135.189 5.90424 -153.882 11.703 -172.598 19.0027C-191.314 26.3025 -210.007 34.489 -219.479 38.6733C-232.139 44.1083 -239.766 47.5421 -247.53 51.6581C-251.825 53.7605 -255.991 56.1144 -260.008 58.7077C-265.592 62.032 -270.989 65.6608 -276.174 69.5776C-280.973 73.0009 -285.593 76.6669 -290.017 80.5613C-291.884 82.1077 -293.569 83.563 -295.186 84.9275C-296.802 86.2919 -298.169 87.7473 -299.557 89.1118L-308.323 97.3438L-319.048 108.214C-319.184 108.214 -320.163 109.76 -321.734 111.966C-323.305 114.172 -325.537 117.219 -327.882 120.425C-330.227 123.632 -332.436 127.248 -334.508 130.545C-336.58 133.842 -338.674 136.48 -339.881 138.527C-341.771 141.369 -344.64 145.94 -348.01 151.762C-349.421 154.809 -351.015 158.22 -352.563 161.904C-354.112 165.588 -355.546 169.613 -356.594 173.888C-359.204 182.961 -360.853 192.283 -361.512 201.7C-362.093 211.446 -361.719 221.225 -360.396 230.899C-358.144 250.358 -352.226 269.215 -342.955 286.477C-342.044 288.114 -341.156 289.774 -340.291 291.48L-337.172 296.505C-335.168 299.985 -332.618 303.327 -330.341 306.739C-325.332 313.561 -319.549 320.155 -313.72 327.205C-307.276 333.618 -301.06 340.713 -293.888 347.08C-286.716 353.448 -279.703 360.315 -271.757 366.25C-263.81 372.186 -256.296 378.803 -248.077 384.443C-239.857 390.083 -231.865 396.086 -223.487 401.203C-207.713 411.669 -191.286 421.118 -174.306 429.492C-142.179 445.524 -113.194 455.507 -95.7301 462.352C-62.8372 474.148 -29.0447 483.274 5.3183 489.641C29.6583 494.075 51.4481 495.326 57.3908 496.076C67.8873 497.372 90.2236 498.35 97.6235 496.417C105.023 494.484 110.101 488.094 115.656 481.909C121.212 475.723 126.449 468.264 132.642 461.238C138.998 453.729 146.361 447.133 154.523 441.635C163.158 436.115 172.412 431.627 182.096 428.264C192.161 424.761 201.155 418.731 208.212 410.754C214.048 403.756 218.485 395.704 221.281 387.035C223.407 380.603 224.932 373.987 225.835 367.274C227.976 350.133 227.976 332.793 225.835 315.653C223.85 298.632 220.893 281.739 216.978 265.055H217.092ZM224.082 356.95C222.852 375.483 218.139 394.722 205.707 408.957C201.624 413.385 196.896 417.172 191.682 420.191C186.001 423.018 180.145 425.479 174.15 427.559C161.686 432.216 150.204 439.157 140.292 448.025C130.183 456.849 122.829 467.992 115.11 477.702C111.431 482.496 106.872 486.548 101.676 489.641C97.1226 492.392 76.2207 494.189 64.0621 492.597C59.144 491.915 48.6475 490.527 30.273 488.867C12.0579 485.979 -58.207 470.288 -64.3546 468.401C-70.5022 466.513 -81.7045 462.17 -88.8767 458.873C-96.0489 455.575 -102.857 451.823 -109.779 448.73C-113.239 447.138 -116.609 445.638 -120.138 444.069L-130.339 439.293C-137.17 436.109 -144.16 433.221 -151.195 430.197L-172.461 420.305C-179.816 417.053 -186.965 412.959 -194.593 409.094C-202.22 405.228 -209.916 400.771 -217.817 395.972C-221.802 393.585 -225.923 391.151 -229.998 388.582C-234.074 386.012 -238.104 383.01 -242.271 380.099C-248.538 376.139 -254.532 371.763 -260.213 367.001C-264.767 363.18 -270.527 358.996 -276.379 353.834C-282.23 348.672 -288.628 343.123 -295.004 336.87C-298.123 333.686 -301.356 330.366 -304.635 327.069L-309.576 322.02C-311.147 320.224 -312.65 318.382 -314.13 316.54L-323.624 305.556C-326.47 301.645 -329.59 297.847 -332.14 293.708C-342.516 278.109 -349.968 260.757 -354.135 242.497C-356.391 230.685 -357.171 218.639 -356.457 206.635C-355.626 194.743 -353.167 183.021 -349.148 171.796C-347.577 167.93 -346.279 164.087 -344.458 160.653C-343.615 158.902 -342.773 157.197 -341.93 155.514C-341.088 153.831 -339.995 152.262 -339.062 150.693C-337.081 147.555 -335.168 144.508 -333.369 141.597C-331.571 138.686 -329.339 136.094 -327.449 133.41C-323.916 128.455 -320.115 123.695 -316.065 119.152C-312.513 114.763 -308.665 111.056 -305.25 107.509C-294.457 96.6061 -282.841 86.5479 -270.504 77.4231C-268.227 75.6494 -265.951 73.9438 -263.856 72.3065L-257.503 67.9403C-253.496 65.075 -249.716 62.3234 -245.686 59.8675C-236.901 54.0276 -227.778 48.7122 -218.363 43.9491C-187.216 28.2126 -153.723 16.8196 -119.592 7.29138L-106.841 3.58469C-102.606 2.42493 -98.2802 1.44708 -93.9997 0.423752C-85.4425 -1.71208 -76.7575 -3.29956 -67.9976 -4.32901C-50.5111 -6.33018 -32.7058 -7.39899 -15.3559 -4.57916C12.6954 -0.667786 42.6821 12.8401 68.5931 31.3509C81.6624 40.4471 93.8893 50.7485 105.615 60.9135C108.348 63.4377 111.672 65.9164 113.994 68.3724C115.291 69.5755 116.493 70.8755 117.592 72.261C118.799 73.6937 120.005 74.9672 121.098 76.4225C125.652 82.085 129.933 87.7928 133.917 93.4325C143.48 106.44 149.673 112.807 158.963 125.974C170.347 143.348 184.009 172.615 191.591 192.445C203.636 227.874 214.155 263.986 220.371 301.031C223.628 319.481 224.834 338.234 223.968 356.95H224.082ZM243.891 227.101C242.457 223.599 240.43 217.618 239.041 213.457C232.821 193.537 224.709 174.256 214.815 155.878C204.222 136.005 192.079 116.996 178.499 99.0266C165.999 82.3578 153.954 68.8499 146.212 60.2313C121.106 32.0424 91.001 8.7287 57.4136 -8.53603C23.7611 -25.6142 -14.7639 -34.8241 -52.8107 -32.55L-66.9958 -31.7996L-81.067 -29.8666C-85.6208 -29.0707 -90.4705 -28.7523 -95.0698 -27.5926L-108.868 -24.3862C-118.022 -22.1435 -127.051 -19.4184 -135.917 -16.2223C-145.025 -13.4252 -153.495 -10.1506 -162.261 -7.1261C-197.549 5.24521 -231.452 21.2497 -263.423 40.629C-276.606 48.7701 -289.767 57.889 -302.791 67.7812C-309.577 72.7819 -316.09 78.1411 -322.304 83.836C-325.377 86.7467 -328.132 90.0441 -331.07 93.1823L-335.396 97.9351C-336.807 99.5724 -337.969 101.392 -339.266 103.097L-346.803 113.399L-353.406 124.769C-355.658 128.408 -357.636 132.208 -359.326 136.139C-361.079 140.141 -363.219 143.916 -364.677 147.964C-370.929 163.94 -375.351 180.57 -377.86 197.539C-378.308 200.604 -378.544 203.696 -378.566 206.794C-378.566 210.501 -378.975 214.799 -378.839 219.46C-378.702 224.122 -378.087 229.171 -377.678 234.378C-377.268 239.586 -375.788 244.975 -374.923 250.297C-370.799 268.318 -364.024 285.63 -354.818 301.667C-347.236 314.584 -341.908 322.134 -335.305 329.115C-333.688 330.912 -332.071 332.754 -330.341 334.664C-328.611 336.574 -326.561 338.257 -324.489 340.258L-308.893 354.221C-285.35 373.937 -280.887 376.757 -260.736 393.266C-260.6 393.266 -258.983 394.426 -256.547 396.063C-254.111 397.701 -250.786 399.929 -247.166 402.203C-239.903 406.751 -231.82 412.141 -227.858 415.302C-224.898 417.576 -220.117 420.737 -214.06 424.739C-208.004 428.741 -200.809 433.494 -192.544 438.111C-174.841 448.593 -156.601 458.141 -137.898 466.718C-119.147 476.238 -99.8251 484.593 -80.0424 491.733C-43.6668 505.151 -5.9483 514.613 32.4589 519.954C37.7184 520.863 43.0692 521.182 48.3971 521.659C53.725 522.137 59.1896 522.728 64.563 523.024C69.9365 523.319 75.3782 523.296 80.7517 523.41L88.8347 523.638C91.6353 523.365 94.5497 523.274 97.3502 522.751C108.735 520.477 118.389 513.905 126.085 506.832C133.78 499.76 140.475 492.21 147.305 485.752C153.57 479.455 160.842 474.244 168.822 470.334C172.535 468.639 176.4 467.299 180.366 466.332C184.403 465.361 188.379 464.154 192.274 462.716C204.971 458.314 216.479 451.046 225.904 441.476C240.157 426.968 248.08 407.57 252.156 388.832C255.815 370.88 257.389 352.567 256.846 334.255C256.612 313.344 255.175 292.464 252.543 271.718C251.245 261.553 247.784 236.675 243.891 227.101ZM251.109 377.621C249.575 389.95 246.515 402.042 242.001 413.619C233.373 427.969 221.053 439.748 206.322 447.73C199.429 451.217 192.196 453.991 184.737 456.007C177.907 457.554 167.866 459.759 160.079 464.353C143.73 473.449 133.189 488.412 120.37 500.738C114.151 507.272 106.347 512.089 97.7145 514.723C93.0155 515.907 88.1617 516.359 83.3246 516.065L67.2498 515.951C62.9236 516.156 32.1401 514.587 -5.95233 506.378L-13.2156 504.899L-20.5244 503.057L-35.6202 499.305C-45.7523 496.645 -56.1122 493.393 -66.381 490.527C-76.5132 487.003 -86.7137 483.842 -96.436 480.112C-106.158 476.383 -115.494 472.744 -124.1 468.742C-129.929 465.808 -144.934 458.895 -159.164 450.55C-173.691 442.75 -187.352 433.471 -193.067 430.083C-200.9 425.148 -207.958 419.986 -214.698 415.484C-221.437 410.981 -227.608 406.388 -233.345 402.09C-239.083 397.792 -244.593 393.88 -249.534 390.037C-254.475 386.194 -259.006 382.51 -263.332 379.122C-271.984 372.436 -279.156 366.296 -285.532 360.929C-291.907 355.562 -297.668 351.242 -302.517 346.921C-307.367 342.6 -311.898 339.053 -316.042 335.551C-320.186 332.049 -324.307 328.956 -327.745 325.454C-331.183 321.952 -335.259 318.632 -338.72 314.539C-342.181 310.445 -346.097 305.761 -349.695 300.053C-369.731 268.83 -377.268 229.375 -371.28 191.876C-369.924 182.488 -367.869 173.215 -365.132 164.133L-360.191 150.716C-358.62 146.168 -356.184 142.097 -354.226 137.754C-353.133 135.662 -352.176 133.433 -351.015 131.364L-347.349 125.337C-344.983 121.182 -342.336 117.194 -339.426 113.399C-336.511 109.646 -333.643 105.849 -330.637 102.142L-320.733 91.9088C-317.985 89.1896 -315.057 86.6595 -311.966 84.3362C-308.824 81.9258 -305.933 79.1742 -302.495 76.9911C-295.801 72.443 -288.833 67.6219 -281.843 63.0056C-267.567 53.9094 -252.608 44.9951 -237.171 37.1042C-206.364 21.0721 -174.124 8.65582 -145.958 -2.07771C-137.83 -5.32961 -131.682 -7.87654 -125.466 -10.6736C-118.819 -13.8272 -111.974 -16.5466 -104.974 -18.8147C-102.242 -19.6561 -99.3276 -20.4975 -96.2994 -21.3389C-93.1158 -22.2322 -89.8752 -22.9084 -86.5998 -23.3628C-79.7691 -24.3634 -72.7108 -25.364 -65.5158 -26.1144C-58.3208 -26.2509 -51.0576 -26.3646 -44.1813 -26.5238C-40.7432 -26.6602 -37.3506 -26.2509 -34.2313 -26.069C-31.1119 -25.887 -27.9471 -25.6824 -25.1237 -25.2958C15.3594 -21.3844 54.1121 -5.60248 87.2636 17.6611C103.946 29.2486 119.47 42.4156 133.621 56.9794C147.64 71.7361 160.771 87.3104 172.943 103.62C189.739 125.671 204.587 149.137 217.32 173.752C242.161 222.326 247.762 264.714 248.24 271.536C248.809 280.064 249.879 288.319 251.564 308.217C252.338 318.2 253.317 330.957 253.135 348.354C253.016 358.132 252.339 367.896 251.109 377.598V377.621ZM271.009 190.444C266.865 181.211 262.425 172.137 258.053 162.996L243.709 136.367L228.34 110.283L211.923 84.8365L194.278 60.0266C187.766 52.1584 181.777 43.9491 174.81 36.2401C160.922 20.937 145.546 7.05011 128.908 -5.21591C112.037 -17.1289 93.7695 -26.9347 74.513 -34.4147C58.3256 -41.2798 41.5635 -46.7055 24.4214 -50.6287C6.47797 -54.5527 -11.8572 -56.4068 -30.224 -56.1547C-67.333 -55.1181 -104.034 -48.131 -138.923 -35.4608C-148.736 -32.2089 -169.82 -23.1354 -191.291 -13.5844C-212.762 -4.03339 -234.142 6.70013 -245.026 12.0896C-259.735 18.9118 -268.364 23.4599 -277.449 28.3264C-282.394 30.9406 -287.204 33.8019 -291.862 36.8995C-294.548 38.5596 -297.417 40.4243 -300.582 42.4709C-302.13 43.517 -303.792 44.5631 -305.523 45.7229C-307.253 46.8826 -308.961 48.2698 -310.783 49.6797C-317.431 54.7508 -322.782 58.7759 -327.176 62.3007L-338.105 72.8068L-343.069 77.5596C-344.594 79.3106 -346.143 81.1299 -347.782 83.0628C-349.421 84.9957 -351.311 86.9742 -353.247 89.18C-355.499 91.5344 -357.577 94.0502 -359.462 96.7071C-359.645 96.9572 -363.902 103.848 -368.752 111.83C-370.87 116.014 -373.101 120.471 -375.127 124.519C-376.175 126.52 -377.131 128.407 -378.065 130.09C-378.998 131.773 -379.545 133.365 -380.091 134.638C-381.73 138.322 -384.645 143.985 -387.218 151.398C-389.335 159.016 -392.773 167.93 -394.208 178.209C-398.557 200.289 -398.95 222.963 -395.369 245.18C-395.369 246.181 -395.119 247.454 -395.005 248.955C-394.891 250.456 -394.344 252.252 -393.935 254.231C-393.115 258.188 -392.09 263.145 -390.861 268.876C-389.062 274.492 -387.104 280.951 -384.668 288C-383.15 291.427 -381.563 294.997 -379.909 298.711C-379.066 300.599 -378.27 302.486 -377.382 304.419C-376.494 306.352 -375.31 308.148 -374.239 310.059L-367.409 321.861C-364.699 325.681 -361.739 329.502 -358.87 333.481C-357.277 335.437 -356.002 337.62 -354.317 339.394C-352.632 341.168 -350.833 343.146 -349.034 344.988C-345.55 348.935 -341.856 352.693 -337.969 356.245C-330.022 363.317 -322.03 370.821 -313.492 378.167L-300.172 388.832C-295.618 392.379 -291.361 396.245 -286.511 399.474C-267.656 413.276 -247.8 425.658 -227.107 436.519C-216.838 441.749 -206.615 446.934 -196.688 451.755C-186.76 456.576 -176.947 461.329 -167.475 465.877C-137.526 480.558 -106.682 493.34 -75.1243 504.149C-55.0831 511.13 -34.7017 517.096 -14.058 522.023C5.18683 526.508 24.6597 529.955 44.2759 532.347C58.757 533.916 68.6159 534.621 77.6552 534.78C82.2089 535.008 86.4667 534.78 91.0433 534.78C95.6198 534.78 100.424 534.212 105.98 533.916C132.574 532.438 157.665 520.136 172.897 512.154C193.319 501.656 212.64 489.148 230.571 474.814C249.834 459.123 267.138 439.452 277.976 419.372C286.865 403.357 293.202 386.056 296.76 368.092C304.912 328.206 300.039 286.954 290.112 248.022C285.161 228.382 278.776 209.13 271.009 190.421V190.444ZM296.055 355.904C295.508 361.384 294.21 366.773 293.208 372.208C291.774 377.507 290.658 382.919 288.655 388.127C285.265 398.631 280.785 408.752 275.289 418.326C268.075 430.949 259.309 442.622 249.196 453.074C238.426 464.189 226.582 474.213 213.836 483C188.79 500.442 149.081 519.499 141.727 522.501C136.581 524.638 121.076 529.323 113.106 529.596C99.8559 530.425 86.571 530.562 73.3063 530.005C51.7441 529.073 -30.5655 513.313 -40.5383 510.63C-49.9646 508.174 -76.1489 496.986 -92.4514 489.709L-141.245 468.151L-193.067 444.182C-213.192 435.569 -232.751 425.695 -251.629 414.62C-255.909 412.596 -284.188 394.858 -316.019 366.864L-328.155 355.994C-332.435 352.413 -336.531 348.618 -340.428 344.624C-344.162 340.508 -348.511 336.779 -351.994 332.322C-355.478 327.864 -359.075 323.362 -362.491 318.677C-374.876 300.424 -383.726 280.015 -388.584 258.506C-389.883 252.924 -390.766 247.254 -391.225 241.541C-391.589 237.812 -391.999 233.741 -392.386 229.534C-392.386 225.259 -392.386 220.848 -392.386 216.436C-392.386 214.162 -392.386 212.001 -392.386 209.818C-392.386 207.635 -391.908 205.52 -391.703 203.383C-391.248 199.176 -390.792 195.105 -390.383 191.376C-389.13 184.008 -387.582 178.004 -386.899 174.525C-382.69 157.598 -376.187 141.325 -367.568 126.156C-365.724 122.836 -363.948 119.675 -362.149 116.56C-360.35 113.444 -358.096 110.852 -356.206 108.123C-354.317 105.394 -352.404 102.824 -350.628 100.3C-348.852 97.7759 -346.621 95.752 -344.754 93.4779C-329.908 75.7176 -316.202 65.8482 -305.113 57.3887C-282.572 41.0383 -270.049 31.6692 -243.842 17.3654C-207.324 -2.01471 -169.452 -18.7346 -130.521 -32.6637C-91.5862 -46.4899 -49.532 -53.1302 -8.34308 -49.0141C27.7016 -44.6945 62.1621 -31.7187 92.0906 -11.1967C122.92 10.0202 151.882 33.443 173.581 57.0249C186.809 70.4418 194.778 77.173 207.438 91.1357C222.921 110.169 241.181 143.439 252.725 165.474C273.575 204.373 287.773 246.476 294.734 290.047C298.249 311.824 298.663 333.988 295.964 355.881L296.055 355.904ZM331.164 292.753L329.753 276.516C329.183 271.127 327.885 265.828 327.02 260.598C326.155 255.368 325.108 249.864 323.969 244.566L319.575 228.943C314.406 207.84 305.435 187.669 295.394 168.544C285.353 149.42 273.673 131.023 262.334 112.785C256.778 103.688 250.949 94.5922 245.917 85.1549C243.348 80.3344 240.528 75.6511 237.47 71.124C235.899 68.85 234.419 66.3485 232.78 64.1199L227.543 57.7299C224.082 53.3637 220.462 49.4523 216.91 45.359C213.358 41.2657 210.079 37.2861 206.641 33.2383L196.213 20.5946L185.124 8.45114C154.68 -23.5723 117.036 -47.8934 75.3099 -62.4993C40.9517 -74.8246 1.10602 -79.1681 -38.3752 -75.5978C-77.8565 -72.0275 -117.383 -61.3622 -153.814 -46.8993C-164.151 -42.7605 -187.033 -33.6416 -210.189 -23.3174C-233.345 -12.9932 -256.228 -1.16808 -267.909 4.67624C-283.278 12.9083 -292.59 17.8657 -301.88 24.0284C-313.953 31.5698 -325.425 40.0317 -336.193 49.3386C-339.631 52.2494 -342.591 55.0464 -345.3 57.6844C-348.01 60.3223 -350.309 62.5508 -352.313 64.8931L-358.051 71.2377C-359.758 73.3071 -361.329 75.2855 -362.923 77.1957C-370.166 86.0818 -376.829 95.4248 -382.869 105.167L-385.715 110.374C-387.195 113.49 -389.199 117.719 -391.316 122.267C-395.369 131.364 -399.445 142.143 -401.426 147.714C-407.174 163.167 -410.819 179.32 -412.264 195.742C-414.571 219.845 -412.637 244.165 -406.549 267.602L-404.272 277.153C-402.86 281.315 -401.494 286.568 -399.217 292.435C-393.708 307.422 -386.61 321.777 -378.042 335.255C-366.658 353.096 -353.258 369.569 -338.105 384.352C-320.742 401.161 -301.664 416.107 -281.183 428.946C-275.992 432.494 -270.641 435.768 -265.245 438.884C-259.848 441.999 -254.498 445.365 -248.988 448.48C-237.899 454.37 -226.993 460.692 -215.836 466.15C-204.679 471.607 -193.773 477.292 -182.89 482.386C-172.006 487.48 -161.35 492.233 -151.013 496.622C-130.293 505.718 -110.598 512.95 -93.7492 519.817C-76.9002 526.685 -62.5103 532.688 -51.604 537.191C-30.6033 546.233 -9.11401 554.098 12.7637 560.75C33.2672 566.988 54.4856 570.58 75.902 571.438C82.6674 571.686 89.4415 571.534 96.189 570.983C101.483 570.636 106.752 569.975 111.968 569.005C114.381 568.573 127.61 565.276 132.46 564.093C139.564 562.41 163.335 555.315 168.344 552.723C182.952 545.393 196.698 536.461 209.328 526.094C224.833 512.768 246.282 497.531 264.542 477.997C282.434 458.767 297.338 436.966 308.76 413.323C319.689 391.47 324.197 370.685 327.157 357.609L328.045 353.63L328.569 349.559L329.57 341.486L330.572 333.413C331.012 330.73 331.225 328.014 331.21 325.295L331.483 308.99C331.483 306.284 331.733 303.555 331.483 300.849L331.164 292.753ZM306.574 412.596C293.869 439.27 273.149 466.945 248.672 489.754C224.196 512.563 196.919 530.983 173.535 544.968C170.006 546.606 165.156 549.289 161.49 550.79L155.024 553.564C152.747 554.36 150.47 555.02 148.193 555.838L140.93 558.112C138.175 559.144 135.352 559.987 132.483 560.636C124.008 563.014 115.382 564.815 106.663 566.026C83.8938 569.528 45.5965 570.46 -16.0162 549.175C-35.1193 539.92 -52.6514 530.801 -70.1834 522.546C-87.7155 514.291 -105.407 506.992 -123.485 499.806C-159.62 485.07 -198.281 469.674 -243.796 444.91C-246.21 443.909 -255.021 438.633 -268.227 430.811C-274.785 426.854 -282.094 421.715 -290.404 416.371C-294.457 413.619 -298.465 410.413 -302.791 407.274L-309.348 402.431C-311.625 400.748 -313.629 398.883 -315.837 397.064C-334.555 381.628 -351.418 364.076 -366.088 344.761C-373.449 334.881 -380.011 324.433 -385.715 313.515C-391.023 303.266 -395.529 292.622 -399.194 281.678C-403.834 267.1 -406.73 252.024 -407.824 236.766C-408.924 221.51 -408.405 206.181 -406.275 191.035C-399.177 146.937 -379.219 105.908 -348.898 73.0797C-345.71 69.5322 -342.636 66.2575 -339.585 63.4377C-336.534 60.6179 -333.711 57.7753 -330.91 55.3194C-328.11 52.8634 -325.491 50.5211 -322.805 48.4972C-320.118 46.4733 -317.613 44.3129 -315.154 42.3345C-312.695 40.3561 -310.327 38.4459 -308.027 36.5357L-300.741 31.3054C-295.846 27.8943 -291.11 24.1421 -285.555 20.6855C-279.999 17.229 -274.011 13.4086 -267.089 9.31531C-247.674 -1.47096 -227.717 -11.2547 -207.298 -19.9973C-197.021 -24.3938 -186.692 -28.6614 -176.309 -32.8002C-165.927 -36.9389 -155.529 -41.108 -145.116 -45.3074L-137.352 -48.4456C-134.711 -49.4462 -132.069 -50.3103 -129.428 -51.1972L-113.49 -56.564L-97.2784 -60.8619L-89.1499 -62.9996L-80.9076 -64.5914L-64.4229 -67.6614L-47.756 -69.5488C-44.9554 -69.8217 -42.2004 -70.2765 -39.4454 -70.4357L-31.0436 -70.7313C-25.4653 -70.7313 -19.8641 -71.3226 -14.2858 -71.1861C24.8841 -70.5551 63.4106 -61.1356 98.4432 -43.6246C132.874 -26.181 163.928 -2.76578 190.156 25.5293C196.873 33.1246 202.452 38.7188 208.03 44.3129C210.762 47.1782 213.677 49.7707 216.659 52.7724C219.642 55.7741 222.898 58.8441 226.268 62.6418C228.697 65.1889 230.899 67.9434 232.848 70.8739C234.875 73.9438 237.402 77.0593 239.269 80.5158C243.276 87.338 247.261 94.6604 251.655 101.801L276.132 142.006C288.381 162.245 300.062 182.939 308.555 205.157C316.776 227.359 322.823 250.306 326.61 273.674C333.054 320.519 327.885 369.889 306.46 412.596H306.574ZM276.974 64.1654L267.411 49.3613L262.857 41.9479L257.575 34.9438L246.919 20.8902C243.344 16.3421 239.292 11.9987 235.535 7.54153C219.73 -9.84573 202.13 -25.5175 183.03 -39.213C166.646 -50.847 149.15 -60.8333 130.798 -69.0258C111.578 -77.3994 91.6026 -83.925 71.1432 -88.5144C50.3372 -93.1821 29.1523 -95.9677 7.84564 -96.8374L-8.09259 -96.9966C-13.375 -96.9966 -18.6573 -96.4963 -24.0308 -96.2917C-29.4043 -96.087 -34.6183 -95.7686 -39.9691 -95.4503L-55.6113 -93.4491C-58.5257 -93.0398 -62.442 -92.494 -66.8819 -91.8118C-71.3219 -91.1296 -76.4449 -89.6515 -82.1143 -88.378C-87.7838 -87.1045 -93.6809 -85.5354 -99.9879 -84.0345L-118.863 -77.9173C-122.097 -76.894 -125.307 -75.8934 -128.472 -74.8474L-137.853 -71.2999L-146.96 -67.866C-149.875 -66.6153 -152.721 -65.4328 -155.453 -64.2276L-163.399 -60.8619C-164.583 -60.3844 -166.041 -59.6794 -166.997 -59.4293L-170.663 -58.3832L-182.958 -54.9722C-200.604 -49.6054 -211.146 -45.8759 -222.098 -41.3279C-227.494 -39.0538 -233.186 -36.7797 -239.584 -33.6188L-250.194 -28.4567C-253.997 -26.5238 -258.095 -24.1815 -262.717 -21.6346C-271.096 -17.0864 -277.358 -12.8567 -282.936 -9.58208C-288.332 -5.9436 -292.818 -2.96458 -297.121 -0.0310516C-305.637 6.06342 -313.56 11.6576 -326.174 21.7998C-326.288 21.9363 -328.201 23.3917 -330.728 25.9159C-333.255 28.4401 -336.99 31.8057 -340.883 35.3987C-348.374 42.9258 -356.821 51.6126 -360.965 56.2517C-362.491 57.9572 -364.517 60.0721 -366.885 62.6646C-369.253 65.257 -371.689 68.4633 -374.513 71.9199C-375.902 73.7164 -377.404 75.5129 -378.93 77.4459L-383.484 83.6995C-386.512 87.9975 -389.859 92.591 -392.751 97.6849C-406.381 119.403 -416.321 143.223 -422.168 168.181C-423.161 171.512 -423.922 174.909 -424.445 178.346C-424.832 180.62 -425.265 183.212 -425.766 186.032C-425.993 187.442 -426.244 188.92 -426.54 190.444C-426.836 191.967 -426.767 193.604 -426.927 195.264C-427.2 198.63 -427.519 202.223 -427.815 206.044C-428.111 209.864 -427.815 213.889 -427.815 218.141C-427.771 227.43 -427.116 236.705 -425.857 245.908C-420.164 285.613 -399.513 333.959 -366.134 375.324C-364.085 377.939 -362.126 380.622 -359.986 383.169L-353.429 390.742C-348.875 395.677 -344.913 400.998 -339.995 405.682C-330.382 415.017 -319.881 423.395 -308.642 430.697C-287.341 444.586 -265.104 456.986 -242.089 467.81C-220.481 478.27 -200.057 487.003 -182.89 495.758C-165.517 504.149 -151.013 511.972 -140.016 518.043C-97.4606 541.375 -55.1787 567.8 -14.7867 581.444C-6.90863 583.877 -0.282837 586.242 5.84198 587.493C11.2427 588.935 16.7146 590.096 22.2356 590.972C32.3678 592.86 48.1922 594.315 54.5447 595.111C61.6713 595.813 68.8336 596.087 75.993 595.93C80.7062 595.793 103.042 593.36 106.594 592.837C116.752 591.336 126.767 588.993 136.536 585.833C160.855 578.315 184.161 567.853 205.935 554.678C229.639 540.161 251.229 522.454 270.098 502.057C284.191 486.828 296.887 470.366 308.031 452.869C332.865 413.893 348.829 369.947 354.798 324.135C360.783 277.993 355.117 231.088 338.314 187.692C321.692 144.508 300.016 103.802 276.747 64.1654H276.974ZM344.826 221.553C351.137 245.934 354.131 271.053 353.728 296.232C353.156 321.443 349.4 346.482 342.549 370.753C328.661 419.527 303.243 464.254 268.436 501.17C257.055 513.351 244.662 524.549 231.391 534.644C203.52 556.167 171.855 572.281 138.038 582.149C123.113 586.395 107.891 589.527 92.5004 591.518C88.2199 591.768 82.004 592.337 77.9966 592.405C75.5604 592.405 73.033 592.541 70.5057 592.405L62.9692 592.041C57.6868 591.745 52.4727 591.791 45.5282 590.904L33.5062 589.699L17.568 587.106C1.2309 583.725 -14.771 578.892 -30.2467 572.666C-50.3289 564.821 -74.464 552.382 -104.792 535.963C-123.599 523.638 -141.222 512.131 -159.187 502.057C-177.152 491.983 -195.321 482.887 -214.22 474.154C-233.118 465.422 -252.54 456.621 -272.895 445.888C-283.096 440.521 -293.387 434.654 -303.906 427.9C-314.904 420.968 -325.218 413.012 -334.713 404.136C-337.122 401.958 -339.402 399.642 -341.543 397.2L-354.727 382.123C-360.032 376.006 -365.473 368.229 -371.985 359.974C-374.968 355.722 -377.905 351.083 -381.093 346.33C-382.641 344.056 -384.212 341.554 -385.874 339.121C-387.537 336.688 -388.743 333.982 -390.292 331.344C-403.354 309.102 -413.102 285.078 -419.231 260.029C-425.06 235.261 -426.165 209.617 -422.487 184.44C-419.868 168.38 -415.422 152.67 -409.235 137.617C-401.835 118.606 -390.451 101.483 -386.125 94.5695C-374.779 77.839 -361.814 62.2627 -347.418 48.0651C-336.331 37.1302 -324.583 26.8853 -312.24 17.3882C-295.625 4.6698 -278.125 -6.85088 -259.871 -17.0864C-252.881 -21.0206 -246.62 -24.4771 -240.609 -27.4334L-231.843 -31.9815L-223.168 -35.9611C-210.215 -41.9412 -196.926 -47.1651 -183.368 -51.6066L-166.496 -56.564C-164.98 -57.06 -163.496 -57.6524 -162.056 -58.3377L-158.003 -60.0206L-149.875 -63.4998C-138.976 -68.0086 -127.841 -71.9257 -116.518 -75.2339L-99.1682 -80.0777C-93.4532 -81.4649 -87.6016 -82.6246 -81.8411 -83.8981C-70.2812 -86.461 -58.5806 -88.3441 -46.7997 -89.5377C0.510925 -95.1297 48.4755 -89.6806 93.3202 -73.6194C132.246 -59.3726 168.134 -37.9253 199.104 -10.4007C231.55 17.8885 256.459 52.6587 276.268 84.1543C282.074 93.2505 287.22 100.073 291.82 106.895C294.096 110.351 296.373 113.717 298.946 117.537C301.519 121.358 304.183 125.155 306.961 129.772C310.444 135.844 313.974 142.939 317.753 150.466L323.445 162.063C325.29 166.088 326.861 170.273 328.591 174.389C331.824 182.712 335.422 190.876 338.223 198.903C339.543 202.951 340.795 206.885 342.048 210.66C343.3 214.435 343.938 218.119 344.826 221.553ZM379.981 290.775L378.296 272.423L377.476 263.327C377.18 260.257 376.497 257.255 376.065 254.231L372.945 236.038L371.397 226.942C370.919 223.895 370.031 220.984 369.325 217.96C363.473 194.059 358.054 170.364 349.493 146.986C345.714 134.957 339.566 124.246 334.079 113.148C328.591 102.051 322.307 91.7269 316.387 80.9707C313.473 75.6949 310.194 70.2144 307.644 65.0523C305.367 60.3677 303.295 54.4552 301.2 48.8383C297.17 37.468 292.844 25.7794 287.88 14.2955C282.931 2.52362 276.603 -8.62112 269.028 -18.9057C266.979 -21.4299 265.021 -24.1815 262.88 -26.5693L256.232 -33.3914C253.955 -35.6655 251.928 -37.9395 249.538 -40.0316L242.479 -46.2625C204.25 -79.35 156.754 -99.4981 108.53 -110.686C87.8561 -115.459 66.8601 -118.712 45.7104 -120.419C40.3141 -120.851 34.8724 -121.215 29.4078 -121.625L12.9003 -122.216C1.69183 -122.631 -9.53162 -122.358 -20.7065 -121.397L-29.1766 -120.76C-31.9999 -120.419 -34.7322 -119.942 -37.5328 -119.533L-54.2907 -116.895C-65.3336 -114.734 -76.3993 -112.642 -87.3967 -110.072C-109.391 -105.138 -131.227 -99.9756 -152.698 -94.427C-158.823 -92.9488 -168.636 -90.0153 -180.203 -86.4223C-186.009 -84.7395 -192.293 -82.329 -198.828 -80.0322C-205.203 -77.3716 -211.965 -74.9383 -218.409 -71.7547C-240.411 -61.4029 -261.641 -49.4866 -281.934 -36.0975C-298.669 -25.5914 -308.278 -18.4509 -318.365 -10.8328C-323.305 -6.96692 -328.224 -2.73718 -334.121 2.19751C-339.699 7.54153 -346.484 13.3631 -354.089 21.6179C-364.173 32.0847 -373.581 43.1817 -382.254 54.8418C-385.806 59.1625 -388.766 63.6879 -392.364 68.668C-395.961 73.6482 -399.832 79.4698 -404.568 86.8604C-404.568 86.9969 -406.002 89.1345 -407.755 92.7047C-409.509 96.275 -411.808 100.96 -414.313 106.099C-419.026 116.446 -424.058 128.339 -426.426 134.593L-430.001 143.257C-431.23 146.759 -432.391 150.943 -433.826 155.514C-434.532 157.788 -435.306 160.221 -435.966 162.768C-436.626 165.315 -437.082 168.021 -437.696 170.818C-439.102 176.624 -440.152 182.509 -440.839 188.442C-444.461 215.631 -443.189 243.248 -437.082 269.99C-436.604 272.4 -435.829 276.062 -434.805 280.951C-433.348 285.681 -431.617 291.593 -429.545 298.461C-427.473 305.329 -423.99 312.788 -420.756 321.201C-418.912 325.363 -416.658 329.57 -414.518 334.05C-412.377 338.53 -410.192 343.146 -407.3 347.694C-404.408 352.242 -401.744 357.041 -398.83 361.952C-395.915 366.864 -392.318 371.481 -388.948 376.461C-382.391 386.58 -374.126 396.086 -366.043 406.297C-349.057 426.536 -325.264 442.113 -300.536 455.757C-250.627 482.75 -195.799 503.717 -151.628 528.936C-107.023 553.587 -69.4092 576.145 -45.5019 588.403C-22.4142 600.387 1.78912 611.28 26.6072 617.624C32.8687 619.034 39.0846 620.33 45.3005 621.24C51.448 622.117 57.6475 622.58 63.8572 622.627H72.9647C75.993 622.627 78.9074 622.127 81.8446 621.899L99.1034 620.33C107.915 619.171 115.269 617.647 121.872 616.624C128.361 615.214 133.894 613.463 139.268 612.076C144.641 610.688 149.445 608.278 154.682 606.299C159.919 604.321 165.065 601.296 171.03 598.045C182.848 591.222 203.089 581.285 208.781 578.374C215.43 574.986 228.818 565.617 246.145 554.747C269.566 540.173 291.035 522.681 310.035 502.694C330.319 480.818 346.706 455.637 358.487 428.241C369.871 402.954 373.993 379.213 376.702 364.295C377.833 358.245 378.594 352.131 378.979 345.989C379.503 339.849 380.163 333.709 380.55 327.569V309.149C380.7 303.018 380.51 296.884 379.981 290.775ZM375.655 349.695C375.336 353.038 375.222 356.404 374.676 359.701L372.786 369.662L370.919 379.576C370.376 382.905 369.616 386.194 368.642 389.423L362.836 408.775C361.901 412.006 360.721 415.161 359.307 418.213L355.39 427.536C353.637 431.334 352.362 435.427 350.153 439.202C347.945 442.977 345.964 446.797 343.755 450.732C339.41 458.728 334.487 466.396 329.024 473.677L325.039 479.407C323.673 481.318 322.057 483.046 320.486 484.842C317.457 488.39 314.429 492.028 311.378 495.621C308.328 499.251 305.058 502.691 301.587 505.923L291.455 515.906C264.133 541.171 232.803 560.295 206.254 575.031C202.429 576.691 196.053 580.785 191.363 583.013L177.155 590.381C172.123 592.951 167.274 595.702 160.443 598.727C158.826 599.545 157.05 600.364 155.138 601.319L148.717 603.775L141.385 606.549C138.699 607.55 135.739 608.164 132.528 609.119L122.305 611.916L110.192 614.031C100.26 615.81 90.2438 617.085 80.1824 617.852C67.3021 619.265 54.2933 619.021 41.4753 617.124C25.2053 614.487 9.25098 610.182 -6.13446 604.275C-27.3551 592.905 -46.0712 580.83 -64.605 569.255C-83.1389 557.68 -101.445 546.424 -120.799 535.463C-140.152 524.502 -160.417 513.564 -182.958 502.944C-205.499 492.324 -230.112 482.477 -256.775 470.129C-259.484 469.038 -270.117 464.239 -285.555 456.235C-300.992 448.23 -321.325 437.087 -341.179 421.214C-343.752 419.327 -346.029 417.098 -348.465 414.938L-352.085 411.686L-355.455 408.138C-360.009 403.59 -364.244 397.905 -368.684 392.698C-373.124 387.49 -377.791 381.964 -381.685 376.188C-385.578 370.412 -390.223 364.818 -393.98 358.905C-409.175 336.441 -420.911 311.827 -428.794 285.885C-433.478 269.242 -436.266 252.124 -437.104 234.856C-438.675 213.207 -434.828 191.649 -433.552 183.212C-429.373 162.216 -422.597 141.821 -413.379 122.495C-406.315 107.636 -398.141 93.3298 -388.925 79.6972C-376.388 61.4245 -362.376 44.2057 -347.031 28.2127C-335.487 15.7281 -325.81 6.65466 -315.883 -2.50978C-310.874 -7.05789 -305.591 -11.4013 -299.945 -16.1541C-294.025 -20.7022 -287.877 -25.7733 -280.363 -30.8217C-259.849 -45.2856 -237.98 -57.7298 -215.062 -67.9797C-192.179 -78.3949 -167.475 -84.4439 -142.998 -91.266C-118.499 -97.7471 -93.8176 -103.91 -68.8628 -108.549C-56.431 -111.164 -43.817 -112.71 -31.2941 -114.439C-18.7109 -115.647 -6.05896 -115.982 6.57062 -115.439C47.1675 -113.802 93.4796 -107.002 136.809 -91.7663C178.129 -77.7229 216.08 -55.2668 248.263 -25.8188C265.066 -10.5145 272.944 -0.804245 283.942 19.6622C287.289 26.4844 290.499 34.2161 293.732 42.6074C295.326 46.7689 296.874 51.1123 298.536 55.5013L301.018 62.0733L303.841 68.3724C312.949 85.0639 322.398 101.71 329.457 115.15L338.564 133.092C339.293 134.593 340.181 136.071 340.841 137.64L342.64 142.325L346.192 151.739C348.626 157.995 350.716 164.38 352.453 170.864C354.343 177.345 356.438 183.712 358.1 190.216C361.356 203.292 364.93 216.209 367.89 229.353L371.465 249.182C372.835 255.763 373.846 262.413 374.493 269.103C375.632 282.52 377.727 295.846 377.317 309.308C377.317 316.13 377.522 322.793 377.317 329.502L375.655 349.695ZM404.89 212.229C403.729 207.044 400.996 198.812 399.653 192.831C397.018 179.352 393.38 166.088 388.77 153.149C383.533 139.073 376.269 125.042 370.031 110.602C363.714 96.0992 358.188 81.2658 353.478 66.1666L352.499 63.3922C352.272 62.6057 351.967 61.8439 351.588 61.1182L350.973 59.8447L348.56 54.7281C347.042 51.2109 345.524 47.7164 344.006 44.2447C341 37.1951 338.086 30.282 335.285 23.5736C329.548 10.1567 324.174 -2.35059 318.3 -13.2888C316.973 -16.0536 315.451 -18.721 313.746 -21.2707C312.294 -23.7581 310.641 -26.1234 308.805 -28.343C305.549 -32.3908 302.612 -36.0748 300.016 -39.2812C291.688 -49.7289 282.235 -59.2309 271.828 -67.6159C266.83 -72.0545 261.609 -76.2365 256.186 -80.1459C250.897 -84.2138 245.402 -88.0088 239.724 -91.5162C217.206 -105.697 192.915 -116.852 167.478 -124.695C116.795 -140.613 63.8344 -144.956 11.6025 -145.161C-40.9988 -145.354 -93.3275 -137.61 -143.613 -122.193C-149.852 -120.169 -156.182 -118.35 -162.261 -115.917L-171.505 -112.528L-176.059 -110.777L-177.197 -110.368L-177.971 -110.118L-180.248 -109.39C-192.984 -105.615 -205.423 -101.31 -217.567 -96.4736C-241.926 -86.694 -265.327 -74.6811 -287.467 -60.5891C-326.254 -36.0284 -360.475 -4.92729 -388.607 31.3281C-417.728 68.759 -439.973 112.921 -450.857 159.039C-451.585 162.314 -452.542 166.566 -453.566 171.66C-454.591 176.754 -455.16 182.643 -456.139 189.079C-456.617 195.56 -457.346 202.564 -457.71 209.841C-457.71 213.48 -457.71 217.209 -457.847 221.007V226.646L-457.551 232.354C-457.369 236.197 -457.187 240.018 -456.982 243.725C-456.777 247.431 -456.185 251.252 -455.843 254.958C-455.502 258.665 -455.046 262.349 -454.5 265.897C-453.953 269.444 -453.225 272.719 -452.656 276.198C-451.662 282.325 -450.355 288.397 -448.739 294.39C-447.442 299.825 -446.462 304.601 -445.165 308.353C-443.647 313.371 -442.281 317.919 -441.066 321.997C-439.791 326.159 -438.334 329.82 -437.082 333.368C-435.829 336.915 -434.623 340.19 -433.439 343.374C-432.255 346.557 -430.797 349.513 -429.454 352.47C-426.761 359.29 -423.674 365.949 -420.21 372.413L-413.948 384.215C-411.376 388.377 -408.416 392.834 -405.205 397.86C-402.572 401.991 -399.674 405.949 -396.53 409.708C-393.775 413.187 -391.43 416.416 -388.948 419.145C-383.78 424.398 -379.727 429.128 -375.287 433.017C-365.108 442.356 -353.929 450.547 -341.953 457.44C-341.725 457.44 -339.494 458.986 -335.737 460.737C-331.98 462.488 -326.88 465.013 -321.302 467.309C-310.145 471.857 -297.212 476.406 -290.495 478.816C-280.75 482.455 -259.575 488.685 -234.484 497.622C-209.393 506.559 -181.478 520.863 -156.523 535.19C-147.416 540.238 -119.592 557.657 -81.2263 581.876C-59.7863 595.507 -37.6559 608.024 -14.9233 619.375C-8.68457 622.286 -2.2182 625.174 4.38477 627.88C11.0923 630.54 17.9319 632.855 24.8768 634.816C39.1578 639.182 54.0227 641.345 68.9574 641.229C76.4939 640.888 84.0759 641.229 91.7263 640.365L103.111 639.091L108.758 638.5L114.381 637.318L125.561 635.043C129.25 634.179 132.847 632.906 136.513 631.86C143.867 629.881 150.789 626.743 157.802 624.151C171.6 618.124 184.783 611.461 197.784 605.299C204.296 602.161 210.648 598.84 216.955 595.702C223.195 592.698 229.275 589.373 235.17 585.742C272.739 564.058 306.465 536.328 334.989 503.671C371.693 462.079 397.08 410.003 406.689 363.112C407.668 358.564 408.966 354.357 409.467 350.332C409.967 346.307 410.468 342.691 410.946 339.189C411.999 332.947 412.729 326.655 413.132 320.337C413.542 308.694 415.136 293.049 413.952 278.699C414.385 257.46 405.619 217.368 404.89 212.161V212.229ZM412.085 307.966C411.812 313.174 411.721 319.223 411.197 326.159C410.286 333.186 409.193 341.19 407.987 350.514C407.19 355.062 405.846 359.929 404.753 365.204C404.161 367.797 403.547 370.526 402.932 373.323C402.364 376.228 401.603 379.092 400.655 381.896C398.788 387.74 396.784 393.903 394.644 400.52C392.504 407.138 389.27 413.71 386.379 420.987C383.151 428.597 379.518 436.028 375.495 443.25C373.218 447.116 371.625 451.3 369.006 455.143C366.388 458.986 363.974 463.08 361.401 467.218L355.846 474.973C353.842 477.406 351.861 479.817 349.88 482.159C345.941 486.934 342.093 491.619 338.245 496.213L325.882 509.084C321.981 513.422 317.839 517.538 313.473 521.409L300.722 533.12C296.601 537.168 291.842 540.443 287.448 544.15C283.053 547.856 278.591 551.495 273.9 554.951C269.21 558.408 264.429 561.614 259.647 565.025C257.37 566.685 254.911 568.414 252.475 570.119C250.039 571.825 247.42 573.257 244.893 574.827L229.387 584.264C224.219 587.516 218.504 590.063 212.948 593.042C207.392 596.021 201.723 598.977 195.803 601.865C172.078 613.235 147.442 627.539 116.749 633.497C115.269 633.747 111.535 634.816 105.82 635.612L95.8019 636.749C91.6303 637.351 87.425 637.693 83.2108 637.772C78.657 637.772 73.5795 637.977 68.2744 638.136C66.931 638.136 65.5876 638.136 64.1987 638.136C62.8098 638.136 61.4664 637.931 60.0775 637.795L51.4481 637.181C48.4423 636.85 45.4556 636.364 42.4999 635.726C39.4944 635.134 36.3295 634.725 33.233 633.952C30.1364 633.179 26.9943 632.155 23.7839 631.246C20.4967 630.399 17.265 629.351 14.1071 628.108C-11.8039 619.011 -38.8079 604.298 -64.8783 588.721C-90.9487 573.144 -116.45 556.839 -139.515 543.194C-147.416 538.351 -167.407 526.23 -188.195 515.337C-204.789 506.507 -222.011 498.907 -239.721 492.597C-264.539 483.501 -286.693 477.179 -305.546 469.856C-322.087 463.725 -337.846 455.664 -352.495 445.842C-377.541 428.264 -391.202 410.185 -401.653 395.404C-404.112 391.599 -406.473 387.998 -408.734 384.602C-411.011 381.168 -412.696 377.598 -414.563 374.278C-418.275 367.638 -421.826 361.452 -424.718 354.812C-427.61 348.172 -431.025 341.691 -433.826 334.346L-438.379 322.793C-439.723 318.655 -441.089 314.311 -442.523 309.695C-458.67 258.197 -460.066 203.215 -446.554 150.966C-432.892 98.6628 -404.864 50.703 -368.228 11.1118C-335.786 -23.3189 -297.547 -51.7973 -255.249 -73.0281C-233.617 -83.9822 -211.113 -93.1249 -187.967 -100.362L-179.543 -102.886L-175.148 -104.251L-171.095 -105.706C-165.608 -107.685 -160.28 -109.64 -154.952 -111.596C-149.624 -113.552 -144.251 -114.962 -139.014 -116.599C-136.395 -117.418 -133.823 -118.236 -131.181 -119.032L-123.485 -120.988C-111.509 -123.876 -102.515 -126.946 -93.2711 -129.015L-79.1088 -132.04C-74.1907 -133.245 -68.8856 -134.519 -62.8974 -135.724C-55.0649 -136.929 -46.0711 -137.793 -36.5082 -138.794C-31.7723 -139.158 -26.8542 -139.863 -21.8678 -139.976L-6.70367 -140.181C12.2423 -140.551 31.1949 -139.967 50.082 -138.43C78.6549 -136.628 107.043 -132.598 134.987 -126.377C162.938 -120.133 189.93 -110.191 215.248 -96.8147C240.469 -83.2704 263.335 -65.7469 282.962 -44.9209L290.385 -37.1891L297.216 -28.957C299.493 -26.1827 301.77 -23.4538 304.046 -20.6795C306.323 -17.9051 308.031 -14.9488 309.625 -11.5832C316.456 0.85582 322.216 14.1136 328.09 27.0757C331.756 35.194 335.376 43.6989 339.475 52.3403C341.296 56.661 343.846 61.0954 345.668 65.257C347.353 69.8051 349.015 74.3531 350.745 79.1059C357.9 97.9692 366.266 116.351 375.791 134.138C380.457 142.975 384.578 152.088 388.132 161.427C391.479 170.727 394.234 180.119 396.557 189.375C397.786 193.923 398.97 198.471 400.154 203.019C400.746 205.293 401.315 207.567 401.907 209.682C402.499 211.797 402.704 214.23 403.114 216.368C404.685 224.759 406.188 232.877 407.668 240.609C408.442 245.862 410.058 257.915 410.468 262.053C410.673 264.85 412.222 302.645 412.085 307.898V307.966ZM438.611 262.895C438.406 261.098 438.611 239.222 437.381 232.832C436.152 225.714 432.577 202.814 428.524 181.643L428.091 179.232L427.909 177.959V177.663V177.027C427.682 175.321 427.545 173.593 427.34 171.842C426.885 168.385 426.748 164.769 425.951 161.131C425.154 157.493 424.585 153.74 423.902 149.92C423.219 146.099 421.944 142.416 420.988 138.55C416.338 122.539 410.735 106.82 404.207 91.4768C402.568 87.5654 400.86 83.6313 399.266 79.6972C397.492 76.0146 395.97 72.2158 394.712 68.3269C392.435 61.1636 390.614 52.545 388.792 44.5176C385.195 28.0307 381.962 11.8622 376.725 -3.87421C376.015 -5.97275 375.171 -8.02359 374.197 -10.0141C373.336 -12.0573 372.324 -14.0336 371.169 -15.9267L365.318 -25.3185C361.379 -31.413 357.713 -37.2118 353.797 -42.4194C349.88 -47.627 346.556 -52.6299 343.232 -57.0415C339.907 -61.4532 336.697 -65.3418 333.965 -68.7529C329.753 -74.4608 323.468 -79.1681 318.755 -84.5576C314.042 -89.9471 297.284 -102.363 294.506 -104.569L286.059 -111.073C280.435 -115.437 274.55 -119.455 268.436 -123.103C244.255 -137.747 218.037 -148.736 190.634 -155.713C177.11 -159.579 163.312 -162.012 149.65 -164.809C135.852 -166.765 122.077 -169.198 108.211 -170.449C80.5468 -173.655 52.7915 -174.997 25.0817 -176.384C-3.37939 -177.68 -31.1347 -173.132 -58.503 -168.584C-85.8712 -164.036 -113.148 -157.987 -140.061 -151.619C-153.54 -148.367 -167.02 -145.07 -180.476 -141.409C-187.307 -139.521 -193.91 -137.361 -200.581 -135.314C-207.252 -133.268 -213.855 -130.653 -220.413 -128.128C-246.451 -117.851 -271.426 -105.063 -294.981 -89.9471C-336.239 -63.386 -372.57 -29.8775 -402.359 9.08789C-433.526 49.6201 -456.157 96.0327 -468.89 145.531C-469.914 148.919 -470.711 153.581 -471.804 158.971C-472.305 161.699 -472.852 164.61 -473.421 167.68C-473.99 170.75 -474.241 174.116 -474.673 177.55C-475.106 180.983 -475.516 184.599 -475.971 188.26C-476.426 191.922 -476.381 195.788 -476.677 199.631C-476.973 203.474 -477.223 207.476 -477.155 211.524C-477.087 215.572 -477.155 219.551 -477.018 223.667C-477.246 231.786 -476.176 239.927 -475.766 247.841C-475.356 255.754 -473.808 263.372 -472.965 270.581C-470.506 284.839 -468.025 297.028 -465.907 305.147C-463.63 316.153 -460.739 324.613 -458.553 332.299C-456.367 339.985 -453.703 346.353 -451.381 353.106C-450.105 356.449 -449.104 359.929 -447.373 363.431C-445.643 366.933 -443.89 370.48 -441.795 374.323C-437.537 381.964 -432.3 390.583 -425.082 401.043C-415.812 414.626 -405.424 427.412 -394.026 439.27C-389.472 443.818 -385.214 448.094 -379.863 452.664C-373.634 458.167 -366.86 463.02 -359.645 467.15L-352.814 470.425C-350.81 471.357 -348.533 472.699 -345.847 473.677C-343.16 474.654 -340.2 475.769 -337.172 476.929C-325.059 481.477 -310.987 485.206 -303.838 487.594C-293.319 491.164 -270.709 497.44 -244.161 507.31C-230.727 511.858 -216.656 518.134 -202.107 524.047C-195.094 527.526 -188.013 530.869 -180.954 534.439C-173.896 538.01 -167.293 542.08 -160.599 545.81C-150.967 551.154 -121.664 570.324 -82.2965 598.227C-72.3465 605.049 -61.8044 612.598 -50.42 620.057C-44.7278 623.81 -39.0355 627.63 -32.979 631.428C-26.9225 635.225 -20.7065 638.796 -14.3541 642.571C11.261 657.17 42.7276 666.607 75.196 665.129C91.4432 664.341 107.518 661.436 123.011 656.488C138.63 651.94 153.339 644.913 168.184 639.887L179.569 635.817L190.543 631.268C197.852 628.312 204.933 625.083 211.946 621.968L232.689 612.462L242.798 607.8C246.122 606.163 249.356 604.412 252.634 602.729C279.001 590.04 300.563 573.303 318.664 558.294C333.401 545.335 347.054 531.196 359.489 516.019C378.124 493.289 393.581 468.135 405.436 441.249C411.743 428.287 416.047 414.824 420.737 401.93C422.581 395.336 424.403 388.809 426.156 382.396C427.981 376.16 429.463 369.829 430.596 363.431C438.201 324.135 438.861 309.513 439.18 279.132C439.18 275.243 439.18 271.604 439.021 267.989C438.656 266.374 438.633 264.623 438.611 262.827V262.895ZM436.562 290.183C436.448 294.413 435.992 299.166 435.696 304.715C435.537 307.512 435.332 310.536 435.15 313.811C435.038 317.314 434.711 320.808 434.171 324.271C433.146 331.662 432.349 340.19 430.664 350.059C429.663 354.971 428.661 360.201 427.499 365.796C426.93 368.593 426.384 371.481 425.769 374.483C425.154 377.484 424.13 380.463 423.264 383.579C415.017 416.036 402.329 447.204 385.559 476.201C353.683 520.181 319.757 552.996 278.181 579.989C275.563 581.694 272.944 583.377 270.348 585.105C267.749 586.871 265.042 588.473 262.243 589.904L245.371 599C233.827 605.003 221.509 610.711 208.941 616.601C202.588 619.489 196.167 622.604 189.519 625.401C182.87 628.198 176.131 631.246 169.027 633.724C154.569 638.614 140.133 645.641 124.468 650.643C113.228 654.571 101.617 657.344 89.8137 658.921C65.2341 662.336 40.1927 659.81 16.7938 651.553C13.4012 650.28 9.96313 648.938 6.52502 647.596C3.08691 646.254 -0.191772 644.39 -3.65265 642.775C-10.6086 639.326 -17.387 635.532 -23.9625 631.405C-30.7932 627.562 -37.4872 623.105 -44.2268 618.738C-50.9664 614.372 -57.8882 609.961 -64.4456 605.367C-91.3585 587.379 -117.611 568.664 -141.974 553.678L-150.376 548.22C-153.882 546.082 -158.049 543.672 -162.602 540.898C-167.156 538.123 -172.052 535.122 -177.357 532.256C-182.662 529.391 -188.286 526.617 -193.887 523.774C-199.488 520.931 -205.135 518.339 -210.645 515.951C-216.155 513.564 -221.483 511.244 -226.31 509.129C-236.192 505.059 -244.525 502.08 -249.079 500.215C-275.377 490.368 -299.17 483.66 -319.526 476.86C-329.034 473.82 -338.329 470.15 -347.349 465.877L-359.144 459.6C-362.627 457.428 -365.993 455.075 -369.23 452.551C-380.309 443.802 -390.415 433.891 -399.376 422.988C-407.345 413.528 -413.766 404.909 -419.367 397.018C-424.969 389.127 -429.568 381.85 -433.871 374.915C-438.006 368.452 -441.615 361.669 -444.664 354.63C-451.566 338.871 -457.304 322.629 -461.831 306.034C-477.197 250.821 -477.504 192.51 -462.719 137.14C-448.011 81.6301 -417.865 30.7368 -379.158 -11.4696C-327.153 -67.3368 -261.267 -108.458 -188.195 -130.653C-164.173 -137.861 -140.38 -143.387 -118.499 -148.845C-93.0207 -155.121 -79.4731 -159.101 -54.063 -164.763C-34.4119 -168.809 -14.4736 -171.31 5.56879 -172.245C10.9877 -172.541 16.4523 -172.245 21.803 -172.245C27.1537 -172.245 32.3678 -171.563 37.468 -171.222C47.7368 -170.562 57.4819 -169.994 66.043 -169.152C96.4186 -167.082 126.651 -163.285 156.595 -157.782C186.468 -151.938 216.067 -143.524 243.299 -129.834C256.906 -123.038 269.823 -114.942 281.87 -105.661L290.84 -98.6112C293.778 -96.178 296.077 -93.0398 298.901 -90.5156L307.211 -82.7383L314.953 -74.3698C317.48 -71.5273 320.235 -68.8894 322.603 -65.9331L329.753 -57.0415C334.693 -51.2427 339.111 -45.0118 343.414 -38.8491C345.691 -35.7564 347.968 -32.7319 350.062 -29.5255L356.301 -19.9745L362.54 -10.378C363.519 -8.74068 364.179 -7.03516 365.022 -5.37509C365.885 -3.71806 366.587 -1.98174 367.116 -0.190247C373.264 17.6156 377.203 37.7182 382.554 58.1392C383.863 63.3175 385.459 68.4193 387.335 73.4208C389.339 78.4237 391.889 83.1765 394.029 88.0657C398.583 97.8441 403.137 107.623 407.144 117.628C415.364 137.458 421.807 157.834 424.175 178.027C426.452 187.988 428.524 197.675 430.596 206.976C432.076 215.936 433.51 225.168 433.806 230.376C434.102 235.583 436.539 281.678 436.562 290.206V290.183ZM461.357 143.803C458.283 130.158 456.279 114.627 451.771 98.3217C450.678 94.2738 449.79 90.1123 448.492 85.9508C447.195 81.7893 445.646 77.6732 444.212 73.4435C441.297 65.0295 437.973 56.7747 434.763 48.3153C431.552 39.8558 428.228 31.4191 425.336 23.0051L420.988 10.4751C419.621 6.08612 418.233 1.69724 416.844 -2.62347C411.36 -19.4209 404.443 -35.7174 396.169 -51.3337C383.406 -75.4307 366.994 -97.4146 347.512 -116.508C341.979 -121.67 336.492 -126.9 330.527 -131.585C327.635 -134.041 324.652 -136.338 321.578 -138.544L317.025 -141.864C315.476 -143.001 305.344 -148.186 302.043 -150.05L292.207 -155.508C288.928 -157.35 285.376 -158.828 282.097 -160.534C278.818 -162.239 275.267 -163.786 271.897 -165.218C258.139 -171.125 243.979 -176.049 229.524 -179.954C215.181 -183.996 200.634 -187.276 185.944 -189.778C156.714 -194.687 127.211 -197.815 97.6007 -199.147C82.8465 -199.996 68.1074 -200.549 53.3835 -200.807C38.6747 -201.194 23.9433 -201.353 9.09796 -201.012C-5.72461 -201.148 -20.5016 -199.67 -35.3242 -198.738C-42.7469 -198.101 -50.0785 -197.055 -57.4556 -196.214L-68.5213 -194.849L-79.4731 -192.984C-108.796 -188.159 -137.678 -180.964 -165.836 -171.472C-194.069 -162.376 -221.346 -149.482 -247.371 -136.065C-260.236 -129.243 -273.874 -123.012 -286.693 -115.598C-293.25 -112.119 -299.603 -108.299 -305.956 -104.41C-312.308 -100.521 -318.524 -96.5873 -324.763 -92.494C-365.747 -65.2054 -405.797 -29.5028 -437.059 14.5001C-468.721 58.7965 -489.62 109.848 -498.102 163.61C-498.558 167.407 -499.195 172.319 -499.924 178.118C-500.652 183.917 -500.926 190.716 -501.176 198.062C-501.637 214.438 -501.089 230.827 -499.537 247.136C-496.326 276.164 -490.62 304.862 -482.483 332.913C-476.017 355.653 -471.736 369.502 -465.201 383.283C-457.059 401.003 -446.408 417.461 -433.575 432.153C-421.996 445.319 -408.888 457.06 -394.527 467.127C-381.838 476.28 -368.463 484.445 -354.522 491.551C-354.317 491.551 -351.516 492.824 -347.213 494.78C-342.909 496.736 -336.967 498.964 -330.591 501.42C-317.795 506.287 -302.973 510.88 -295.254 513.2C-289.653 514.996 -280.887 517.748 -269.958 521.182C-259.029 524.615 -245.754 528.186 -231.934 534.235C-224.944 536.986 -217.68 539.897 -210.167 542.876L-187.967 553.655L-176.719 559.181L-165.836 565.389C-158.618 569.573 -151.309 573.621 -144.319 577.783L-115.106 597.226C-101.149 607.118 -82.9796 619.83 -62.3509 635.066C-52.0366 642.593 -40.9254 650.712 -29.2905 659.171C-17.3072 668.469 -4.16595 676.175 9.80377 682.094C17.2686 685.063 24.9889 687.346 32.8687 688.916C40.9985 690.351 49.2511 690.976 57.5046 690.78C65.932 690.411 74.3117 689.315 82.5504 687.506C90.8414 685.478 98.9819 682.88 106.913 679.729C138.243 666.812 172.397 661.059 205.116 651.712C221.374 647.327 237.12 641.229 252.088 633.52C259.237 629.336 266.227 625.219 273.149 621.194C280.071 617.169 286.264 612.28 292.616 607.914C318.118 590.495 340.704 572.325 357.326 553.587C361.573 549.282 365.558 544.726 369.257 539.943C372.945 535.531 376.474 531.278 379.799 527.231C386.014 518.839 391.365 511.13 396.056 504.49C413.062 478.336 427.221 450.442 438.292 421.283C448.466 394.069 456.214 366.012 461.448 337.438C463.087 326.955 464.84 318.132 465.774 310.286C466.708 302.441 467.368 295.527 468.051 288.978C468.734 282.429 468.871 276.13 469.28 269.49C469.69 262.849 470.168 255.845 469.918 247.727C469.667 239.609 469.804 229.057 469.918 221.416C470.351 212.934 466.685 167.476 461.357 143.825V143.803ZM467.231 259.37C466.958 263.918 466.685 268.898 466.32 274.856C466.161 277.835 465.979 281.019 465.842 284.453C465.706 287.887 465.045 291.548 464.636 295.527C463.679 303.418 463.133 312.56 461.152 323.021C460.309 328.228 459.444 333.845 458.442 339.871C457.441 345.898 455.801 352.129 454.39 358.883C446.744 393.634 435.195 427.413 419.963 459.578C393.484 505.906 358.825 547.064 317.662 581.057C307.075 588.948 296.259 596.976 284.898 604.844C279.16 608.733 273.513 613.144 267.48 616.737C261.446 620.33 255.253 624.151 248.923 627.971C223.399 642.161 192.228 649.552 157.847 658.17C154.5 659.262 140.679 662.332 120.529 669.222C115.543 671.019 110.192 672.997 104.431 675.158C98.5757 677.48 92.5931 679.469 86.5122 681.116C72.7313 685.001 58.3659 686.395 44.0938 685.232C28.1948 683.718 12.7667 679.007 -1.2619 671.383C-8.68634 667.517 -15.8102 663.1 -22.5736 658.17L-43.6121 643.253C-71.6862 623.378 -99.3959 603.184 -124.988 586.811C-129.428 583.945 -137.033 578.624 -146.573 572.666C-156.295 567.049 -167.498 559.886 -179.201 553.61C-185.098 550.54 -191.018 547.538 -196.733 544.65C-202.448 541.762 -207.821 538.669 -213.104 536.691L-237.125 526.685C-243.814 523.865 -250.655 521.42 -257.617 519.362C-264.448 517.225 -270.846 515.087 -277.085 513.063C-289.653 508.833 -301.333 506.059 -311.989 501.829C-330.812 495.271 -348.978 486.965 -366.248 477.02C-379.335 469.518 -391.732 460.873 -403.293 451.186C-412.122 443.793 -420.416 435.783 -428.111 427.218C-439.74 414.185 -449.754 399.8 -457.938 384.375C-465.611 370.162 -471.599 354.63 -478.134 333.641C-496.076 276.289 -503.066 214.23 -492.274 154.15C-487.028 124.089 -477.514 94.9291 -464.017 67.5537C-450.397 40.233 -433.284 14.7936 -413.106 -8.12669C-380.956 -45.1028 -336.124 -79.5092 -287.513 -106.138C-281.388 -109.39 -275.377 -112.824 -269.298 -115.871L-250.764 -125.104C-238.377 -131.335 -226.173 -137.407 -214.197 -143.296C-191.026 -153.839 -167.189 -162.856 -142.839 -170.289C-136.168 -172.268 -130.384 -174.451 -124.852 -175.906L-108.913 -180.454C-103.813 -181.932 -98.6901 -183.524 -92.9751 -184.661C-87.2601 -185.798 -81.5906 -187.527 -74.7599 -188.937C-53.8401 -192.767 -32.6708 -195.085 -11.4169 -195.872C11.5342 -196.691 34.5991 -196.054 52.8597 -195.349C85.1916 -194.258 117.546 -192.78 149.719 -188.982C181.891 -185.184 213.882 -179.158 244.506 -168.516C259.836 -163.296 274.722 -156.855 289.019 -149.254C296.159 -145.455 303.07 -141.241 309.716 -136.633C316.342 -132.085 322.899 -127.31 329.092 -122.125C341.517 -111.769 352.889 -100.214 363.041 -87.6275C373.132 -74.9704 382.049 -61.4218 389.68 -47.1494C399.781 -28.2942 407.995 -8.48985 414.202 11.9759C421.466 33.2838 430.983 54.2733 439.248 75.6494C455.027 118.492 465.478 194.037 465.774 199.722C466.07 205.407 468.142 244.407 467.231 259.393V259.37ZM507.646 186.305C507.646 177.572 506.439 156.242 503.548 130.704C501.658 115.855 497.309 99.5269 493.712 82.5397C492.095 73.8983 490.387 64.9386 488.68 55.7742C486.972 46.6097 484.444 37.2179 482.122 27.8033C476.888 8.9191 470.181 -9.52678 462.063 -27.3652C454.128 -44.4436 444.688 -60.7827 433.852 -76.1891C416.991 -99.6942 397.041 -120.828 374.539 -139.021C362.221 -149.186 325.13 -168.834 323.445 -169.835C319.985 -171.79 316.387 -173.473 312.926 -175.338C305.936 -179.09 298.696 -182.16 291.523 -185.525C262.555 -197.949 232.482 -207.626 201.7 -214.429C171.018 -221.159 139.924 -225.854 108.621 -228.482C77.3859 -231.224 46.0246 -232.264 14.6763 -231.598C-16.7758 -230.896 -48.1318 -227.856 -79.1316 -222.502C-110.136 -216.992 -140.68 -209.154 -170.503 -199.056C-185.28 -193.598 -200.103 -188.232 -214.47 -181.66L-225.262 -176.93L-235.782 -171.608C-242.817 -168.152 -249.785 -164.536 -256.889 -161.284C-285.558 -148.09 -312.938 -132.263 -338.674 -114.007C-383.791 -81.9238 -422.787 -42.0283 -453.817 3.78934C-486.305 51.5023 -508.532 105.426 -519.095 162.154C-523.935 191.459 -525.06 221.257 -522.442 250.842C-522.01 255.39 -521.6 259.939 -521.099 264.487C-520.598 269.035 -519.824 273.583 -519.186 277.926C-518.093 286.818 -516.044 295.277 -514.633 303.305C-513.221 311.332 -510.898 318.564 -509.373 325.136C-507.847 331.708 -505.889 337.256 -504.66 341.827C-497.601 366.023 -492.365 380.259 -487.082 395.404C-484.282 402.931 -481.413 410.64 -477.588 419.691C-475.652 424.239 -473.466 429.06 -470.757 434.381C-469.247 437.16 -467.574 439.848 -465.748 442.431C-463.835 445.069 -461.786 447.889 -459.646 450.8C-457.818 453.342 -455.793 455.737 -453.589 457.963C-451.54 460.237 -449.627 462.238 -447.783 464.217L-436.558 473.79L-426.221 480.84C-423.01 483.114 -419.709 484.569 -416.567 486.389C-401.9 494.193 -386.598 500.743 -370.824 505.968C-370.574 505.968 -367.5 506.946 -362.673 508.242C-357.846 509.538 -351.288 511.449 -344.458 513.2C-330.523 516.929 -314.63 521.182 -306.57 523.865C-294.822 527.913 -269.457 535.349 -239.926 547.538L-228.723 552.313C-224.898 553.905 -221.187 555.952 -217.339 557.794L-205.75 563.524L-199.898 566.412L-194.206 569.801C-186.646 574.349 -178.814 578.579 -171.437 583.445C-164.06 588.312 -156.774 593.246 -149.556 598.022C-144.661 601.819 -134.096 609.392 -119.592 620.376C-112.329 625.879 -104.018 632.155 -94.8422 639.137L-80.2701 650.007C-75.147 653.713 -69.7736 657.534 -64.3318 661.377C-58.89 665.22 -52.9473 669.336 -46.8225 673.202C-40.6977 677.068 -34.5501 681.389 -27.9926 685.323C-14.9005 693.214 -0.943176 701.241 14.0615 708.473L25.6054 713.544C29.6127 714.976 33.5745 716.636 37.6957 717.864C46.1185 720.615 54.9272 722.005 63.7889 721.98C72.8597 721.593 81.7751 719.495 90.0641 715.795C98.3521 712.316 106.412 708.541 114.791 705.448C131.595 699.285 148.762 693.441 166.181 688.256C183.599 683.071 200.972 677.909 217.98 671.838C226.518 668.995 234.852 665.493 243.026 662.15C247.124 660.399 251.109 658.375 255.07 656.465C259.089 654.66 263.004 652.633 266.797 650.393C274.333 645.959 281.961 641.888 289.11 637.318C296.259 632.747 302.976 627.744 309.739 623.105L329.229 608.801C332.325 606.413 335.627 604.253 338.519 601.683C341.41 599.113 344.234 596.635 347.102 594.11C352.612 589.017 358.487 584.491 363.314 579.352C368.141 574.212 372.968 569.232 377.59 564.434C382.104 559.861 386.368 555.048 390.363 550.017C394.257 545.309 397.991 540.761 401.475 536.486C407.918 527.39 413.724 519.362 418.688 512.381C436.69 484.615 451.861 455.117 463.975 424.33C476.02 394.199 484.035 363.908 490.569 335.937C492.846 324.908 494.964 315.676 496.353 307.375C497.742 299.075 498.903 291.844 500.064 284.953C501.225 278.063 501.817 271.309 502.728 264.487C503.639 257.664 504.618 250.092 505.164 241.519C505.711 232.946 506.508 225.032 506.713 216.891C506.917 208.75 507.601 195.06 507.646 186.327V186.305ZM503.365 229.648C501.703 243.997 500.588 258.006 495.51 291.502C494.099 299.825 492.892 309.467 490.455 320.428C489.294 325.954 488.179 331.799 486.835 338.166C485.492 344.533 483.602 351.128 481.894 358.223C472.769 394.839 460.024 430.459 443.848 464.558C415.069 513.239 378.363 556.786 335.24 593.405C332.638 595.777 329.893 597.987 327.02 600.023L318.505 606.368C312.721 610.62 307.12 615.055 300.995 619.239L282.78 632.133C276.291 635.953 269.756 639.864 263.062 643.867C236.241 659.785 204 669.927 168.07 681.025C164.587 682.344 150.242 686.551 129.022 693.873L111.9 700.104C105.82 702.378 99.3539 705.243 92.8876 708.131C86.3289 711.184 79.4581 713.517 72.3955 715.09C64.9562 716.535 57.2985 716.434 49.8998 714.794C34.3487 711.929 18.547 704.357 2.81372 696.329C-12.9196 688.302 -28.6757 678.819 -43.9309 669.04C-74.5551 649.552 -103.267 627.289 -129.314 608.392C-138.285 601.82 -160.553 584.605 -184.734 569.96C-203.942 558.032 -224.055 547.623 -244.889 538.828C-270.878 528.362 -297.394 519.254 -324.33 511.54C-347.736 504.467 -367.955 498.396 -384.986 491.71C-399.906 486.286 -414.046 478.923 -427.041 469.811C-428.429 468.856 -429.773 467.901 -431.162 466.968C-432.551 466.036 -433.621 464.694 -434.828 463.83C-437.104 461.738 -439.541 459.782 -441.772 457.804C-444.003 455.825 -445.779 453.551 -447.601 451.482C-449.56 449.626 -451.344 447.594 -452.929 445.41C-454.454 443.273 -456.025 441.226 -457.483 439.179L-459.759 436.2C-460.374 435.177 -460.943 434.176 -461.581 433.176C-464.017 429.31 -465.975 425.012 -467.979 421.01C-471.85 412.8 -475.333 404.955 -478.703 396.973C-485.352 380.941 -492.182 364.454 -499.514 342.396C-509.525 311.941 -515.772 280.378 -518.116 248.409C-520.354 216.25 -518.325 183.936 -512.082 152.308C-505.621 120.608 -495.186 89.8485 -481.026 60.7543C-466.635 31.756 -448.973 4.49524 -428.384 -20.4975C-395.528 -60.6573 -349.808 -99.4072 -299.011 -128.924C-292.636 -132.517 -286.26 -136.11 -279.794 -139.59C-273.328 -143.069 -266.861 -146.412 -260.167 -149.414C-246.847 -155.44 -234.006 -161.989 -221.323 -168.356C-196.817 -179.691 -171.659 -189.563 -145.981 -197.919C-139.15 -200.466 -132.707 -202.012 -126.901 -203.945C-121.095 -205.878 -115.721 -207.652 -110.279 -209.198L-93.4532 -213.746L-84.3457 -216.316C-81.1353 -217.067 -77.7199 -217.703 -74.1452 -218.454C-64.7644 -220.159 -54.1769 -222.365 -42.7241 -223.434L-25.192 -225.344C-19.2038 -225.935 -13.1245 -226.095 -6.97693 -226.481C-0.829285 -226.868 5.20447 -227.209 11.2382 -227.232H29.0208C40.5646 -227.345 51.4937 -226.8 61.216 -226.481C129.659 -223.661 198.649 -214.36 263.29 -190.642C279.443 -184.779 295.188 -177.851 310.422 -169.903C314.224 -167.856 318.118 -166.06 321.806 -163.808C325.495 -161.557 328.933 -158.987 332.644 -156.804C336.356 -154.621 339.839 -152.256 343.414 -149.846C346.989 -147.435 350.586 -145.116 354.001 -142.523C381.948 -122.53 406.39 -98.0564 426.338 -70.0946C451.634 -35.7109 471.125 10.4068 482.122 57.4797C484.74 69.3048 487.245 81.1526 490.296 92.682C493.347 104.211 496.717 115.423 498.789 126.656C500.861 137.89 502.022 148.988 503.684 159.653C504.458 169.022 505.164 216.14 503.365 229.671V229.648ZM548.903 120.016C548.653 113.308 547.901 105.917 547.013 98.0943C544.637 60.8695 536.757 24.2011 523.63 -10.7191C521.915 -15.5609 519.954 -20.3122 517.755 -24.9547C515.479 -29.6392 513.68 -34.4375 511.357 -39.0083C506.417 -48.1045 501.863 -57.3372 496.148 -65.8421C490.916 -74.3907 485.247 -82.6641 479.162 -90.6293C476.293 -94.6089 472.969 -98.2246 470.055 -102C467.14 -105.774 463.975 -109.39 460.674 -112.665C440.135 -134.685 416.912 -154.044 391.547 -170.289C335.399 -206.674 271.054 -228.255 205.844 -240.944C173.098 -247.2 139.985 -251.363 106.708 -253.406C90.087 -254.316 73.4656 -255.157 56.7988 -254.975L31.753 -254.611C23.4196 -254.429 15.1545 -253.565 6.84381 -253.088L-5.63354 -252.201C-9.80023 -251.905 -13.8759 -251.246 -18.0426 -250.768L-42.838 -247.653L-67.2917 -243.218C-71.3902 -242.468 -75.5341 -241.808 -79.5642 -240.944L-91.7456 -238.102C-124.315 -230.7 -156.282 -220.864 -187.375 -208.675L-210.531 -199.261C-218.159 -195.941 -225.695 -192.302 -233.3 -188.823C-240.905 -185.344 -248.145 -181.318 -255.636 -177.612L-261.215 -174.724C-262.626 -173.996 -264.858 -172.95 -266.634 -172.109L-278.018 -166.742C-308.023 -151.867 -336.426 -133.968 -362.787 -113.324C-408.965 -77.1914 -448.478 -33.2881 -479.546 16.4103C-511.764 67.713 -535.557 126.111 -545.325 185.85C-550.299 216.949 -551.309 248.552 -548.331 279.905C-546.447 298.65 -543.197 317.232 -538.608 335.505C-536.331 343.851 -534.054 351.583 -531.96 358.451C-529.865 365.318 -527.793 371.231 -526.267 375.983C-520.248 395.101 -512.961 413.797 -504.455 431.948C-500.509 440.329 -496.124 448.497 -491.317 456.417C-484.734 467.223 -477.108 477.361 -468.548 486.684L-465.087 490.436C-463.903 491.551 -462.811 492.711 -461.558 493.734C-459.433 495.866 -457.15 497.835 -454.728 499.624C-450.518 502.736 -446.002 505.41 -441.248 507.606C-433.691 511.086 -425.936 514.123 -418.024 516.702C-403.543 521.25 -389.95 525.048 -367.158 530.346C-366.908 530.346 -363.561 531.142 -358.37 532.234L-349.444 534.144C-346.12 534.758 -342.773 536.122 -339.039 537.168C-324.376 541.83 -307.686 547.06 -299.148 550.108C-292.863 552.245 -283.05 555.633 -270.778 559.795C-264.63 561.864 -258.027 564.48 -250.832 567.095C-243.637 569.71 -235.918 572.348 -228.063 575.759C-193.869 589.717 -161.231 607.208 -130.68 627.948C-125.17 631.564 -114.492 640.319 -99.0772 652.099C-91.1991 657.784 -83.1389 665.447 -74.0314 673.634C-64.9238 681.821 -54.7917 690.735 -44.1813 700.604C-32.8011 711.086 -20.5533 720.588 -7.56891 729.007C6.73999 738.424 22.5463 745.344 39.1757 749.474C57.1763 753.617 75.9787 752.649 93.4568 746.677C111.444 740.855 127.36 729.758 143.548 719.888C147.571 717.439 151.836 715.412 156.276 713.839C160.898 712.813 165.597 712.167 170.325 711.906L184.851 710.405L199.196 707.472C218.136 703.24 236.381 696.349 253.386 687.005C270.417 678.068 286.401 667.926 302.157 658.489C310.103 653.804 317.822 648.892 325.426 644.003L336.697 636.749C340.272 634.088 343.824 631.473 347.285 628.858C372.773 609.721 395.854 587.578 416.024 562.911C418.301 560.204 420.578 557.589 422.695 554.974C424.813 552.359 426.725 549.607 428.661 547.038C432.554 541.807 436.266 536.85 439.772 532.074C446.466 522.341 452.044 513.404 457.099 505.832C494.053 445.297 517.437 376.347 530.233 316.631C532.806 304.919 534.468 294.959 536.221 286.181C537.974 277.403 538.817 269.626 539.955 262.281C541.094 254.936 541.913 247.863 542.801 240.404C543.689 232.946 544.623 225.077 545.26 215.958C547.013 197.584 548.266 157.333 548.198 157.492C548.471 152.944 549.04 143.03 548.926 138.823C548.812 134.616 549.085 126.816 548.972 120.039L548.903 120.016ZM544.486 203.36C542.892 218.642 541.913 233.605 536.54 269.308C535.826 273.765 535.067 278.571 534.263 283.725C533.307 288.819 532.236 294.299 531.144 300.235C529.185 312.06 525.838 325.249 522.446 340.622C512.898 379.694 499.797 417.814 483.306 454.506C452.91 512.154 418.916 557.862 375.495 599.113C354.001 620.126 328.341 637.386 299.743 654.941C285.399 663.719 270.713 673.02 254.911 681.889C238.415 691.137 220.821 698.281 202.543 703.151C200.607 703.561 195.712 704.538 188.585 706.085C184.387 706.949 180.134 707.527 175.857 707.813C170.939 708.359 165.862 708.791 159.6 709.587C153.339 710.383 147.237 713.885 141.226 717.341L122.647 728.825C109.691 736.648 94.7318 744.266 77.5869 747.2C59.6582 750.164 41.26 748.215 24.3531 741.56C6.68445 735.102 -9.80029 724.641 -25.1465 712.952C-32.7513 706.994 -40.1284 700.741 -47.1413 694.214C-54.1541 687.688 -61.5085 681.48 -68.5668 675.226L-89.3093 656.806C-96.527 651.303 -103.585 645.913 -110.371 640.683L-119.842 633.315L-126.172 628.358C-128.449 626.72 -131.113 625.129 -133.754 623.355C-139.059 619.853 -144.865 616.101 -150.899 612.144C-153.882 610.188 -156.979 608.187 -160.007 606.117C-163.035 604.048 -166.519 602.502 -169.775 600.66C-190.769 588.984 -212.454 578.596 -234.712 569.551C-266.064 557.271 -294.093 547.97 -318.752 539.692C-324.922 537.578 -330.887 535.599 -336.648 533.643L-345.164 530.801C-348.442 529.914 -350.992 529.345 -353.861 528.663C-364.995 526.094 -375.287 523.706 -384.85 521.25C-401.593 517.3 -418.006 512.062 -433.94 505.582C-440.258 503.039 -446.244 499.74 -451.768 495.758C-454.278 493.856 -456.666 491.798 -458.917 489.595C-461.117 487.61 -463.207 485.508 -465.179 483.296C-472.35 475.629 -478.827 467.342 -484.532 458.531C-489.974 450.527 -494.391 442.613 -498.808 434.427C-508.252 415.96 -516.334 396.83 -522.989 377.189C-528.793 361.119 -533.74 344.753 -537.811 328.16C-541.786 311.49 -544.571 294.559 -546.145 277.494C-548.908 243.165 -547.017 208.621 -540.521 174.798C-533.935 140.924 -523.294 107.963 -508.827 76.6272C-494.455 45.2387 -476.712 15.5017 -455.912 -12.0608C-419.621 -60.4666 -375.006 -102.046 -324.148 -134.86L-314.221 -141.204L-304.088 -147.117C-297.258 -151.142 -290.427 -154.758 -283.596 -158.351C-276.766 -161.944 -269.685 -165.173 -262.763 -168.516C-255.841 -171.858 -249.102 -175.52 -242.271 -178.976C-235.44 -182.433 -228.951 -185.616 -222.12 -188.8C-215.29 -191.984 -208.823 -195.099 -202.107 -197.76L-182.389 -206.015C-175.899 -208.766 -169.296 -210.836 -162.99 -213.246C-155.544 -215.861 -149.078 -218.499 -142.907 -220.455C-136.737 -222.411 -130.954 -224.321 -125.193 -226.14C-113.809 -230.051 -102.105 -232.962 -86.9641 -236.987C-63.6067 -242.513 -39.9264 -246.577 -16.0617 -249.153C-12.8058 -249.517 -9.6181 -249.995 -6.40765 -250.268C-3.19727 -250.541 0.0358887 -250.723 3.22357 -250.927C9.59888 -251.405 15.9286 -251.814 22.0535 -252.201C28.1783 -252.587 34.1893 -252.724 39.9271 -252.724L56.3662 -252.906C92.9584 -252.945 129.511 -250.499 165.771 -245.583C202.123 -240.915 238.014 -233.179 273.058 -222.456C290.609 -217.134 307.875 -210.918 324.789 -203.832C341.659 -196.641 358.075 -188.431 373.947 -179.249C405.937 -161.094 434.904 -138.079 459.809 -111.028C493.637 -74.0276 518.214 -29.5549 531.531 18.7526C538.473 43.0592 543.003 67.9893 545.055 93.1823C546.558 105.303 546.558 117.219 547.059 128.658C547.355 139.459 546.9 149.897 546.877 159.857C546.057 171.319 545.921 189.716 544.554 203.383L544.486 203.36Z" fill="#AD0C00"/>
</g>
</svg>
