<svg width="54" height="28" viewBox="0 0 54 28" fill="none" xmlns="http://www.w3.org/2000/svg">
<g clip-path="url(#clip0_391_4420)">
<path d="M4.70748 2.26261H5.0038C5.33984 2.27399 5.67552 2.23181 5.9971 2.1378C6.15764 2.09179 6.31069 2.02457 6.45182 1.9381V0H0V1.9381C0.166659 2.05459 0.357193 2.13601 0.559083 2.17703C0.803141 2.23372 1.05338 2.26245 1.30453 2.26261H1.32503V10.163H1.30453C1.05325 10.161 0.802726 10.1897 0.559083 10.2486C0.359361 10.2949 0.169981 10.3752 0 10.4857L0 12.4238H4.70748V2.26261ZM8.45707 8.76694C8.40724 9.17108 8.38359 9.57778 8.38625 9.98472H5.38211V12.4238H11.1593V7.65436H8.87452C8.6527 7.99187 8.51025 8.37151 8.45707 8.76694ZM20.6302 20.4241H17.2552V15.5779H12.5514V17.516C12.7069 17.6136 12.8773 17.6876 13.0565 17.7354C13.3178 17.8085 13.5893 17.8434 13.8615 17.8388H13.882V25.741C13.6028 25.7351 13.3243 25.7706 13.0565 25.8462C12.8778 25.8936 12.7076 25.9663 12.5514 26.0619V27.9929H17.2552V22.8222H20.6302V20.4241ZM17.9317 18.0082H20.7699C20.7953 18.258 20.8421 18.5055 20.9097 18.7481C20.9842 19.0101 21.0978 19.2606 21.247 19.4916H23.5318V15.569H17.941L17.9317 18.0082ZM20.8724 24.6302C20.8118 24.9404 20.775 25.2544 20.7625 25.5698H17.9354V27.9929H23.5355V23.7137H21.2452C21.0668 23.9964 20.9407 24.3065 20.8724 24.6302ZM18.3268 10.4857C18.1352 10.3729 17.9246 10.2926 17.7043 10.2486C17.4538 10.1923 17.1975 10.1636 16.9402 10.163H16.8005L17.2962 8.88997H21.0868L20.0767 6.34564H18.2634L19.1561 4.04738L17.7714 0.534896L13.9007 10.163C13.4297 10.1601 12.9656 10.2711 12.5514 10.4857V12.4238H18.3286L18.3268 10.4857ZM21.767 1.1215C21.6941 1.08531 21.6187 1.05374 21.5415 1.027C21.3886 0.969166 21.2309 0.923834 21.07 0.891493C20.9899 0.875446 20.9097 0.855833 20.8277 0.846918L20.5817 0.827305C20.1477 0.796502 19.7113 0.830792 19.2884 0.928935C19.0592 0.994906 18.9157 1.0484 18.7293 1.10723L18.8672 1.46383C19.3435 1.34368 19.8365 1.29555 20.3283 1.32119C20.8456 1.37357 21.3451 1.53167 21.7931 1.78477C22.0158 1.90751 22.2272 2.04829 22.4248 2.20555C22.5745 2.32438 22.7146 2.4537 22.8441 2.59246L22.395 1.47631C22.2655 1.38554 22.1304 1.30218 21.9906 1.22669C21.9179 1.1839 21.8397 1.15716 21.767 1.1215ZM20.9731 6.52573C21.3737 6.24547 21.6712 5.85098 21.8229 5.39888C21.8651 5.21613 21.8943 5.03088 21.9105 4.84437C21.8505 4.50881 21.7354 4.18445 21.5694 3.88334C21.5378 3.81915 21.4912 3.76032 21.4539 3.70504C21.4166 3.64977 21.3644 3.58915 21.316 3.52675C21.0005 3.20526 20.5822 2.99325 20.127 2.9241C19.9033 2.90706 19.6784 2.93313 19.4654 3.00076L19.622 3.39837C19.8791 3.37448 20.1384 3.41068 20.3776 3.50385C20.6169 3.59702 20.8289 3.74438 20.9954 3.93327C21.1357 4.04982 21.2471 4.19477 21.3216 4.35762C21.3493 4.43041 21.3656 4.50671 21.37 4.58405C21.37 4.61971 21.37 4.71956 21.3812 4.7998C21.3884 4.90445 21.3853 5.00951 21.3719 5.1136C21.3598 5.21048 21.338 5.30602 21.3067 5.39888C21.2478 5.58539 21.1571 5.76131 21.0383 5.91951C20.9522 6.03346 20.8568 6.14077 20.7532 6.24045L20.8948 6.59705C20.9209 6.5703 20.9489 6.5489 20.9731 6.52573ZM20.442 5.42028C20.5801 5.29296 20.6738 5.12795 20.7103 4.94778C20.7103 4.86755 20.7103 4.82298 20.7103 4.757C20.6939 4.64218 20.6547 4.53142 20.5948 4.43072C20.5321 4.32842 20.4468 4.24057 20.3447 4.17339C20.2426 4.10622 20.1263 4.06137 20.004 4.04203C19.964 4.03487 19.9229 4.03487 19.8829 4.04203L20.017 4.38258C20.1106 4.4155 20.1927 4.47296 20.2537 4.5484C20.2982 4.5942 20.3324 4.64819 20.3544 4.70708C20.3552 4.71776 20.3552 4.72849 20.3544 4.73917C20.3535 4.74449 20.3535 4.74991 20.3544 4.75522C20.3688 4.83287 20.3618 4.91279 20.3339 4.98701C20.3208 5.02246 20.3053 5.05701 20.2873 5.09042L20.4215 5.42741L20.442 5.42028ZM22.1192 2.23408C21.6911 1.91749 21.2004 1.68702 20.6768 1.55655C20.5029 1.50811 20.3243 1.47703 20.1438 1.46383C20.0488 1.45848 19.9536 1.45848 19.8586 1.46383C19.7198 1.46641 19.583 1.49551 19.4561 1.54941C19.4116 1.55985 19.368 1.57356 19.3256 1.59042C19.235 1.62884 19.1416 1.66102 19.0461 1.6867L18.966 1.70988L19.1747 2.23586C19.4302 2.19547 19.6893 2.17994 19.9481 2.18951C20.3372 2.20814 20.718 2.30408 21.0663 2.47122C21.4099 2.6402 21.7192 2.86664 21.9794 3.13984C22.1816 3.34453 22.3684 3.56259 22.5385 3.79241C22.5665 3.84412 22.5944 3.89761 22.6187 3.9511C22.6429 4.00458 22.6559 4.06521 22.6727 4.12048C22.7245 4.32699 22.7446 4.53961 22.7323 4.75166C22.7323 4.81406 22.7323 4.86755 22.7174 4.91569C22.7266 5.07782 22.7266 5.24031 22.7174 5.40245C22.7044 5.50408 22.6932 5.58074 22.682 5.65741C22.6708 5.73408 22.6429 5.8268 22.6149 5.95517C22.5189 6.31979 22.3534 6.66433 22.1267 6.97147L22.0167 7.11055C21.9757 7.16225 21.9235 7.21396 21.8713 7.27458C21.7478 7.40922 21.6077 7.52897 21.4539 7.63118C21.4185 7.65436 21.3812 7.67575 21.3439 7.69715L21.6477 8.46383C21.8257 8.42153 21.9987 8.36178 22.1639 8.28553C22.3449 8.20246 22.514 8.0976 22.6671 7.97351C22.8218 7.8487 23.1423 7.47606 23.1516 6.63627C23.1594 6.463 23.178 6.29033 23.2076 6.11921C23.2293 5.96156 23.2732 5.80743 23.338 5.66098C23.3641 5.59501 23.4107 5.44345 23.4498 5.32756C23.5431 5.02043 23.5735 4.69895 23.5393 4.3808C23.5393 4.33444 23.5225 4.29165 23.515 4.24707L23.1423 3.32527C22.8758 2.90177 22.5265 2.5313 22.1136 2.23408H22.1192ZM20.7457 6.00688C20.9646 5.74141 21.1388 5.44482 21.2619 5.12787C21.2731 5.07794 21.2918 5.01019 21.3048 4.92282C21.3027 4.80466 21.2774 4.68793 21.2303 4.57871C21.1991 4.44697 21.1496 4.31984 21.083 4.20071C20.981 4.02441 20.839 3.8722 20.6674 3.75526C20.4959 3.63833 20.2991 3.55964 20.0916 3.52496C19.9614 3.49665 19.8254 3.50533 19.7002 3.54992L19.868 3.97071H19.9313C20.0502 3.98153 20.1657 4.01466 20.2713 4.0682C20.3768 4.12173 20.4702 4.19463 20.5463 4.28273C20.5668 4.31126 20.6078 4.35048 20.6432 4.40219C20.6813 4.45804 20.7125 4.51786 20.7364 4.58049C20.7581 4.63767 20.7694 4.69796 20.7699 4.75879C20.7771 4.80609 20.7771 4.85412 20.7699 4.90143C20.769 4.97868 20.7571 5.05546 20.7345 5.12965C20.7345 5.15461 20.6824 5.25446 20.6693 5.2812C20.6563 5.30795 20.5724 5.43097 20.5724 5.43097C20.5471 5.46513 20.5197 5.49788 20.4904 5.52904L20.6861 6.06215C20.7054 6.04497 20.7235 6.0265 20.7401 6.00688H20.7457ZM21.4912 7.32094C21.5489 7.26745 21.6104 7.21752 21.6775 7.1676C21.7365 7.11307 21.7987 7.06187 21.8639 7.01426C21.9235 6.96077 21.9869 6.90907 22.0502 6.85558C22.3093 6.57387 22.5273 5.87315 22.5721 5.68237C22.6168 5.49159 22.6261 5.41314 22.6429 5.32578C22.6617 5.18866 22.6661 5.05008 22.6559 4.91212C22.6343 4.71507 22.5932 4.52044 22.5329 4.33087C22.4564 4.07233 22.3482 3.82335 22.2105 3.58915C22.1639 3.50178 22.0987 3.42333 22.0447 3.33775C21.9906 3.25217 21.9179 3.18085 21.8583 3.10596C21.7156 2.96097 21.5569 2.83124 21.3849 2.71905C21.0397 2.496 20.6469 2.34923 20.2351 2.28935C19.964 2.24208 19.6862 2.24208 19.4151 2.28935C19.3517 2.30636 19.2894 2.32721 19.2287 2.35176L19.4151 2.82425C19.5881 2.79664 19.7637 2.78767 19.9388 2.7975C20.2262 2.82232 20.5056 2.90173 20.7606 3.03108C20.8884 3.09336 21.0094 3.16741 21.1222 3.25217C21.2377 3.33418 21.6235 3.66582 21.7483 3.78706C21.8118 3.8481 21.8664 3.91707 21.9105 3.9921C21.931 4.03133 21.9515 4.07234 21.9701 4.11335C21.9887 4.15436 21.9962 4.19893 22.0074 4.24351C22.0372 4.4033 22.0372 4.5669 22.0074 4.72669C21.9962 4.82832 22.0074 5.04585 21.9738 5.2081C21.9608 5.2812 21.9515 5.33647 21.9403 5.39531C21.9291 5.45415 21.9067 5.51834 21.8825 5.61284C21.8009 5.88001 21.6703 6.13117 21.4968 6.35456C21.3542 6.5378 21.1862 6.70156 20.9973 6.84131L21.2582 7.50102C21.3401 7.44546 21.4185 7.38533 21.493 7.32094H21.4912ZM24.2866 8.70097C24.224 8.88944 24.1493 9.07404 24.0629 9.25369C23.9707 9.44728 23.8502 9.62737 23.7051 9.78859C23.5563 9.94188 23.3753 10.0634 23.174 10.1452C23.0811 10.1802 22.9858 10.2094 22.8889 10.2326C22.7957 10.2468 22.6168 10.2611 22.5329 10.27C22.4349 10.2774 22.3365 10.2774 22.2385 10.27C22.0515 10.2685 21.8648 10.256 21.6794 10.2326C21.5993 10.245 21.5173 10.2539 21.439 10.27C21.2028 10.3101 20.975 10.3866 20.7644 10.4964V10.7211C20.8669 10.7371 20.9675 10.7496 21.0607 10.7657C21.247 10.7978 21.4036 10.8102 21.5433 10.8227C21.7138 10.8452 21.8857 10.8553 22.0577 10.853H22.4043C22.5162 10.853 22.6261 10.8406 22.7342 10.8352C22.8423 10.8299 22.9466 10.8227 23.0473 10.8085L23.3455 10.7621C23.701 10.7302 24.041 10.607 24.3294 10.4055C24.5827 10.189 24.7858 9.92419 24.9258 9.62812C25.06 9.38207 25.196 9.12175 25.3619 8.85965L24.8158 7.5028C24.7304 7.61376 24.6579 7.73334 24.5997 7.8594C24.5102 8.0377 24.4133 8.34972 24.2978 8.70097H24.2866ZM20.0413 4.43963L20.2668 5.00662C20.3009 4.94007 20.3181 4.86677 20.3171 4.79266C20.3104 4.73457 20.2921 4.67827 20.263 4.62685C20.2126 4.54289 20.1346 4.47711 20.0413 4.43963ZM19.0759 0.356597C19.3927 0.329852 19.7114 0.326286 20.032 0.303108L20.5128 0.313805H20.755C20.8352 0.313805 20.9134 0.329852 20.9917 0.336984L21.4688 0.388691L21.9328 0.486755L21.9943 0.499236L21.8043 0H18.282L18.4684 0.46001C18.7237 0.399389 18.9529 0.356597 19.0759 0.356597ZM23.4815 5.40245C23.4405 5.5326 23.4014 5.67881 23.3809 5.75904C23.3166 5.98864 23.273 6.22306 23.2504 6.45976C23.2262 6.67371 23.2187 6.90729 23.1908 7.15334C23.1722 7.40918 23.0939 7.65778 22.9616 7.8808C22.8641 8.02734 22.7426 8.15796 22.6019 8.2677C22.4119 8.4142 22.1943 8.52436 21.9608 8.59221C21.8807 8.61539 21.7987 8.635 21.7167 8.65104L21.9962 9.36424C22.149 9.35448 22.3009 9.33482 22.4509 9.3054C22.7163 9.25719 22.9671 9.15304 23.1852 9.00051C23.282 8.93292 23.3664 8.85037 23.4349 8.75624C23.4996 8.65576 23.5539 8.54947 23.597 8.43887C23.6865 8.20708 23.9139 7.27815 23.9698 7.11055C24.0139 6.96068 24.0818 6.81817 24.171 6.68798C24.2512 6.57387 24.3201 6.47937 24.3779 6.39379L23.6679 4.64824C23.6578 4.73041 23.6429 4.81196 23.6231 4.89251C23.5933 5.06647 23.5458 5.23725 23.4815 5.40245ZM24.9612 11.0634C24.8149 11.2187 24.6431 11.35 24.4524 11.4521L24.2978 11.5234C24.2444 11.5447 24.1896 11.5626 24.1338 11.5769C24.0222 11.6114 23.9073 11.6353 23.7909 11.6482C23.6735 11.6643 23.5542 11.6482 23.4349 11.6643C23.3156 11.6803 23.202 11.6536 23.0827 11.6482C22.8479 11.6482 22.6131 11.6179 22.3782 11.5965C22.0055 11.5537 21.4464 11.502 20.7867 11.3808V11.757C22.0763 12.0833 22.231 12.0066 22.7323 12.0833C23.2579 12.1296 23.4778 12.1724 23.6958 12.1867C24.0114 12.2109 24.3288 12.2026 24.6425 12.1617C24.6854 12.1461 24.7272 12.1277 24.7674 12.1065C24.9112 12.0202 25.0375 11.9096 25.1401 11.7802C25.3511 11.4891 25.5907 11.2181 25.8557 10.9707C26.1388 10.7294 26.4661 10.5402 26.8211 10.4126L26.972 10.3574C26.6234 10.2341 26.2554 10.1684 25.8837 10.163L25.8203 10.0043L25.7868 10.04C25.6302 10.2094 25.5315 10.352 25.4141 10.5036C25.2734 10.699 25.1203 10.886 24.9556 11.0634H24.9612ZM26.6776 11.5894C26.4511 11.6966 26.2445 11.8387 26.0663 12.0102C25.9228 12.1403 25.7812 12.2866 25.6302 12.431H27.1211C27.1584 12.4114 27.1957 12.3882 27.2348 12.3686V11.4111C27.1603 11.4325 27.0857 11.4539 27.0075 11.4735C26.8941 11.5027 26.7837 11.5415 26.6776 11.5894ZM25.647 11.3344C25.4718 11.5288 25.3246 11.732 25.1625 11.8979C25.0269 12.0488 24.8501 12.1605 24.6518 12.2206L24.5493 12.242C24.205 12.3057 23.8527 12.3201 23.5039 12.2848C23.0036 12.2544 22.5057 12.1949 22.013 12.1065C21.6198 12.0387 21.2023 11.9496 20.7718 11.8426V12.3543L20.8426 12.3739L21.0681 12.4274H25.2687L25.2855 12.4149C25.6582 12.0744 25.9508 11.6643 26.4167 11.4182C26.6382 11.3103 26.8748 11.2334 27.1193 11.19L27.2255 11.1597V10.4857C27.181 10.4583 27.135 10.4333 27.0876 10.4109L27.0466 10.4269C26.7765 10.5208 26.5184 10.6434 26.2769 10.7924C26.0425 10.9425 25.8306 11.1224 25.647 11.3273V11.3344ZM24.9128 10.0863C24.8247 10.2451 24.7102 10.3891 24.5736 10.5125C24.4192 10.6465 24.2378 10.7491 24.0406 10.8138C23.8322 10.8842 23.6157 10.9303 23.3958 10.9511L23.0603 10.9921C22.9466 11.001 22.8311 11.0028 22.7156 11.0082C22.2512 11.0254 21.7861 11.0051 21.3253 10.9475C21.1389 10.9279 20.9526 10.8994 20.7811 10.8691V11.1508C21.1539 11.2132 21.5955 11.272 21.9328 11.3291C22.1192 11.3719 22.3205 11.4093 22.5199 11.4503C22.6205 11.4735 23.1405 11.5644 23.2653 11.568C23.5233 11.5837 23.7822 11.5614 24.0331 11.502C24.2542 11.4383 24.4601 11.3335 24.6388 11.1936C24.8693 10.9929 25.0738 10.7667 25.2482 10.5196C25.3972 10.2954 25.5757 10.0904 25.7793 9.90983L25.4066 8.98268C25.3544 9.10036 25.3041 9.21982 25.2557 9.33928C25.1559 9.58952 25.0414 9.83418 24.9128 10.0721V10.0863ZM20.8128 0.483189C20.6264 0.467142 20.4587 0.463576 20.2798 0.454661C20.1904 0.454661 20.0935 0.443963 20.0115 0.443963L19.7543 0.445746L19.2194 0.479623C18.9871 0.508151 18.756 0.547376 18.5262 0.5973L18.6771 0.977076C19.1506 0.850705 19.6365 0.771241 20.127 0.739939C20.2034 0.739939 20.2798 0.731024 20.3562 0.731024C20.4332 0.726601 20.5104 0.726601 20.5873 0.731024L20.8165 0.747071C21.1983 0.802081 21.5694 0.910832 21.9179 1.06979C22.0455 1.1226 22.1699 1.18213 22.2907 1.24809H22.3018L22.1024 0.750637C21.8553 0.65837 21.6011 0.584455 21.3421 0.529547L20.8128 0.483189ZM24.1077 6.89302C24.0429 7.02143 23.9941 7.15667 23.9623 7.29598C23.8934 7.58125 23.8598 7.88614 23.7983 8.18747C23.7633 8.39054 23.7007 8.58836 23.612 8.77585C23.5479 8.8977 23.4585 9.00571 23.3492 9.09323C23.2902 9.14108 23.2279 9.18515 23.1628 9.22517C23.095 9.26551 23.024 9.30069 22.9504 9.33036C22.6599 9.44048 22.3514 9.50084 22.0391 9.50866L22.3093 10.163C22.2012 10.163 22.0968 10.1773 21.9925 10.1862C22.0297 10.1862 22.0652 10.1862 22.0931 10.1862H22.3093C22.4286 10.1737 22.5534 10.1862 22.682 10.1559C22.9414 10.1273 23.1899 10.0399 23.407 9.90092C23.6236 9.75256 23.8011 9.55779 23.925 9.33215C24.0436 9.12111 24.1422 8.90032 24.2195 8.67244C24.3266 8.32102 24.4624 7.97822 24.6258 7.64722C24.6738 7.56724 24.7273 7.4904 24.786 7.41722L24.4003 6.45797C24.3835 6.48293 24.3667 6.5079 24.3462 6.53464C24.2584 6.64315 24.1799 6.75823 24.1114 6.87876L24.1077 6.89302ZM6.45182 17.516V15.5779H0V17.516C0.167076 17.6318 0.357451 17.7132 0.559083 17.755C0.806246 17.8118 1.05966 17.8399 1.31385 17.8388H1.33435V25.741H1.30453C1.05325 25.7389 0.802726 25.7677 0.559083 25.8265C0.359236 25.8716 0.169733 25.9514 0 26.0619L0 27.9929H4.70748V17.8299H5.0038C5.33978 17.8427 5.67562 17.8011 5.9971 17.7068C6.15715 17.6636 6.31017 17.5994 6.45182 17.516ZM9.27519 27.6363C9.00497 27.7629 8.67138 27.9144 8.44961 27.9929H10.1958C10.5277 27.771 10.8474 27.5329 11.1537 27.2797V26.4363C11.0717 26.5076 10.9879 26.579 10.9021 26.6467C10.4011 27.035 9.85525 27.367 9.27519 27.6363ZM11.1537 27.9929V27.3849C10.8874 27.6014 10.6093 27.8043 10.3207 27.9929H11.1537ZM6.50587 25.7641C6.29743 25.8344 6.08095 25.8805 5.86106 25.9014L5.52561 25.9424C5.47529 25.9424 5.42684 25.9424 5.37838 25.9514V26.4862L5.60761 26.5326C5.90388 26.5484 6.20095 26.5219 6.48909 26.4542C6.71017 26.3894 6.91591 26.2841 7.09477 26.1439C7.30148 25.9748 7.48496 25.7813 7.64081 25.568H6.89536C6.77569 25.6504 6.6446 25.7164 6.50587 25.7641ZM9.35346 23.892C9.44322 23.6813 9.5058 23.461 9.53983 23.2359H8.87079C8.64741 23.572 8.50483 23.9514 8.45334 24.3467C8.43657 24.4715 8.42352 24.5981 8.41234 24.7264C8.52639 24.6433 8.6518 24.5755 8.78506 24.525C9.04255 24.38 9.24247 24.1574 9.35346 23.892ZM9.81191 26.3293C9.70097 26.3684 9.58771 26.4011 9.47274 26.4274C9.35941 26.4543 9.24897 26.4913 9.14288 26.538C8.91555 26.644 8.70832 26.7856 8.52975 26.957C8.34339 27.1353 8.14771 27.3385 7.9278 27.5329C7.70009 27.7447 7.41678 27.8938 7.10781 27.9643C7.02954 27.9786 6.94568 27.9822 6.86741 27.9893H6.63632L6.17414 27.9786C6.02133 27.9697 5.86665 27.9536 5.71383 27.9412C5.60202 27.9305 5.4902 27.9216 5.37838 27.9091V27.9929H8.30052C9.03892 27.6745 9.74884 27.2988 10.4232 26.8696C10.6793 26.6985 10.9233 26.5115 11.1537 26.3097V25.2399C11.0489 25.4199 10.9198 25.586 10.7698 25.7338C10.5022 25.9988 10.1744 26.2014 9.81191 26.3258V26.3293ZM8.37507 25.5716H7.79362C7.67998 25.728 7.55545 25.8769 7.4209 26.0173C7.27541 26.1734 7.1034 26.3048 6.91213 26.406L6.75745 26.4791C6.70448 26.4993 6.65035 26.5165 6.59532 26.5308C6.48311 26.5653 6.36763 26.5892 6.25055 26.6021C6.13501 26.62 6.01574 26.6128 5.89647 26.62C5.77719 26.6271 5.66165 26.6075 5.54611 26.6021L5.38025 26.5932V27.055C5.7716 27.0942 5.96169 27.1281 6.15737 27.1406C6.35305 27.1531 6.65496 27.1638 6.82268 27.1887C6.96422 27.1663 7.10127 27.123 7.22895 27.0604C7.37326 26.9747 7.49965 26.864 7.60167 26.7341C7.81494 26.4442 8.05507 26.1733 8.31916 25.9246C8.60146 25.6836 8.92819 25.4949 9.28265 25.3683C9.45429 25.312 9.62177 25.2447 9.78396 25.1668C9.93212 25.0842 10.0665 24.9808 10.1828 24.8602C10.5134 24.4545 10.6972 23.957 10.7064 23.4427C10.7064 23.3732 10.7064 23.3054 10.7064 23.2359H9.64978C9.6128 23.4981 9.53161 23.7528 9.40937 23.9901C9.24823 24.2032 9.05258 24.3904 8.82979 24.5446C8.81515 24.5559 8.79956 24.566 8.7832 24.5749C8.6422 24.638 8.51555 24.7271 8.41048 24.837C8.38625 25.0759 8.37507 25.3184 8.37507 25.568V25.5716ZM10.7624 23.7137C10.7363 23.8955 10.6926 24.0746 10.6319 24.2486C10.5525 24.4854 10.426 24.7052 10.2592 24.8958C10.0569 25.1116 9.80031 25.2743 9.51373 25.3683C9.23827 25.4568 8.97487 25.5765 8.72915 25.7249C8.49734 25.8755 8.28795 26.0554 8.10671 26.2598C7.92035 26.4542 7.7843 26.6592 7.62217 26.825C7.48663 26.9764 7.30888 27.0877 7.10968 27.146C7.03239 27.1639 6.95395 27.177 6.87486 27.1852C6.57237 27.218 6.26752 27.2263 5.96356 27.2101C5.73433 27.1923 5.55543 27.1798 5.37279 27.1602V27.6951C5.66068 27.733 5.95068 27.7544 6.24123 27.7593C6.39964 27.7593 6.55059 27.7593 6.69968 27.7593C6.83752 27.7659 6.97564 27.7533 7.10968 27.7219C7.3543 27.6488 7.57553 27.5175 7.75262 27.3403C8.12534 27.0015 8.4198 26.5914 8.88383 26.3454C9.10532 26.2359 9.3428 26.1589 9.58828 26.1172C9.80034 26.0614 10.0063 25.9861 10.2033 25.8925C10.5837 25.6934 10.9079 25.4089 11.1481 25.0634V23.2323H10.8089C10.8025 23.3935 10.7869 23.5542 10.7624 23.7137ZM5.82751 25.7089C6.02437 25.6827 6.21753 25.6354 6.40337 25.568H5.37838V25.7695C5.42897 25.7668 5.47936 25.7614 5.52933 25.7534L5.82751 25.7089ZM29.2792 25.741H29.1599V15.5779H25.2091V17.516C25.3841 17.6288 25.5793 17.7098 25.7849 17.755C26.0291 17.8107 26.2793 17.8388 26.5304 17.8388V25.741H26.4707C26.1792 25.7317 25.8886 25.7772 25.6153 25.8747C25.4718 25.9227 25.3327 25.9823 25.1998 26.053V27.9929H30.6191V26.0619C30.4727 25.9691 30.3133 25.8965 30.1458 25.8462C29.8646 25.7672 29.5721 25.7317 29.2792 25.741ZM39.4247 15.5779H34.1041V17.516C34.2477 17.61 34.4046 17.6838 34.57 17.7354C34.8168 17.8105 35.0751 17.8455 35.3341 17.8388H35.4738V22.2873L38.0922 27.0907V17.8388H38.1518C38.4432 17.8482 38.7337 17.8034 39.0072 17.7068C39.1518 17.6548 39.2915 17.591 39.4247 17.516V15.5779ZM29.9482 13.729C30.0172 13.1317 30.321 12.6895 30.88 12.6895C31.6441 12.6895 32.7101 13.6416 34.1209 13.6416C36.1354 13.6416 36.646 11.7588 36.0199 10.0988H35.0881C35.0191 10.6961 34.8104 11.1383 34.2308 11.1383C33.3754 11.1383 32.3094 10.1862 30.921 10.1862C28.9512 10.1862 28.3511 12.069 29.022 13.729H29.9482ZM34.4861 21.9129C34.46 21.9379 34.4284 21.9717 34.3911 22.011C34.3479 22.0588 34.2969 22.0998 34.2401 22.1322C34.1713 22.1667 34.0958 22.1873 34.0184 22.1928C33.9381 22.1977 33.8575 22.1898 33.7798 22.1696C33.5808 22.1149 33.3952 22.0227 33.2338 21.8986C33.0432 21.7625 32.8764 21.5982 32.7399 21.4119C32.7143 21.3358 32.7017 21.2564 32.7026 21.1765C32.7026 21.1426 32.7026 21.0588 32.7026 20.9786C32.7066 20.8918 32.7295 20.8068 32.7697 20.729C32.8406 20.6256 32.8648 20.5846 32.9393 20.4847C32.9779 20.4354 33.0196 20.3883 33.0642 20.3439C33.2087 20.2476 33.3724 20.1808 33.545 20.1477L33.3885 19.8625C33.1273 19.9306 32.8828 20.0476 32.6691 20.2066C32.5103 20.3261 32.3827 20.4793 32.2964 20.6541C32.2127 20.8212 32.1993 21.0127 32.2591 21.189C32.275 21.2413 32.3009 21.2902 32.3355 21.3334C32.3635 21.3726 32.3952 21.4101 32.4268 21.46C32.4995 21.5545 32.5517 21.715 32.7641 22.0199C32.7846 22.0448 32.8368 22.109 32.8946 22.1679C32.9412 22.2149 32.991 22.259 33.0437 22.2998C33.2301 22.3917 33.4247 22.4674 33.6251 22.5262C33.7009 22.5515 33.7781 22.5729 33.8562 22.5904C33.894 22.5941 33.9321 22.5941 33.9699 22.5904C34.1492 22.5815 34.3198 22.5135 34.4526 22.3979C34.5311 22.3465 34.6126 22.2994 34.6967 22.257L34.4973 21.9004C34.4938 21.9053 34.4901 21.9101 34.4861 21.9147V21.9129ZM31.044 15.5779H29.8327V16.2252C30.2216 15.986 30.6276 15.7733 31.0478 15.5886L31.044 15.5779ZM33.5674 20.326C33.299 20.3029 33.1443 20.4063 32.876 20.8431C32.8531 20.8925 32.8412 20.946 32.8412 21C32.8412 21.0541 32.8531 21.1075 32.876 21.1569C32.8894 21.1876 32.9091 21.2155 32.9337 21.2389C32.9561 21.2603 32.9971 21.3602 33.0195 21.3869C33.0838 21.47 33.1393 21.559 33.1853 21.6526C33.312 21.8309 33.6084 21.9093 33.709 21.9539C33.763 21.9735 33.8078 21.986 33.845 21.9967C33.8823 22.0074 33.9047 21.9967 33.9103 21.9967C34.048 22.005 34.1854 21.9766 34.3072 21.9147C34.3314 21.8897 34.3836 21.8273 34.4414 21.756L33.6419 20.326H33.5674ZM31.4074 22.6029L31.6124 22.8062C31.82 23.0109 32.0416 23.2021 32.2759 23.3785C32.4937 23.5367 32.7264 23.6752 32.971 23.7922C33.0176 23.8118 33.0642 23.8278 33.1126 23.8456L33.2636 23.8902C33.3139 23.9045 33.3661 23.9205 33.4183 23.933L33.5804 23.9615C33.7847 23.9956 33.9918 24.0111 34.1991 24.0079C34.4439 23.9958 34.6828 23.9312 34.898 23.8189C35.0742 23.7306 35.2356 23.6176 35.3769 23.4837L35.1701 23.1075C34.9861 23.2647 34.7788 23.395 34.5551 23.4944L34.4302 23.5461L34.3016 23.5853C34.2184 23.6102 34.1329 23.6275 34.0463 23.637C33.965 23.6424 33.8835 23.6424 33.8022 23.637C33.7258 23.637 33.655 23.6139 33.586 23.6032C33.4748 23.5739 33.3663 23.5357 33.2617 23.489C33.2045 23.4647 33.1491 23.4367 33.0959 23.4052C32.8293 23.2908 32.5907 23.1244 32.3952 22.9167C32.3503 22.8713 32.301 22.8301 32.2479 22.7937L32.138 22.7117C32.0727 22.6279 32.0373 22.5744 31.9889 22.5227C31.9271 22.4574 31.8698 22.3883 31.8174 22.3158C31.7543 22.2381 31.7028 22.1523 31.6646 22.0609C31.6311 21.9913 31.6106 21.92 31.5677 21.8059C31.5509 21.7649 31.523 21.7043 31.4913 21.6276C31.4596 21.5509 31.4168 21.4778 31.3832 21.394C31.3683 21.353 31.3497 21.312 31.3329 21.271C31.3161 21.23 31.3105 21.1908 31.2993 21.1533L31.2733 21.0517C31.2716 21.025 31.2716 20.9982 31.2733 20.9715C31.2838 20.6894 31.3555 20.4125 31.4838 20.1584C31.6121 19.9042 31.7943 19.6784 32.0187 19.4952C32.3069 19.3054 32.6096 19.1367 32.9244 18.9906L32.753 18.6768L32.6076 18.7392C32.4622 18.7998 32.3094 18.8711 32.1547 18.9514C31.9942 19.0309 31.844 19.1285 31.7075 19.242C31.4337 19.4488 31.1724 19.6702 30.9248 19.9052C30.65 20.1796 30.4777 20.5331 30.4346 20.9109C30.4285 21.1193 30.4692 21.3267 30.5539 21.5189C30.6087 21.6506 30.6774 21.7766 30.7589 21.8951L30.7962 21.9485C30.9358 22.1255 31.0918 22.2902 31.2621 22.4407C31.3087 22.4906 31.3515 22.5423 31.4074 22.6011V22.6029ZM32.1231 20.7343C32.133 20.6961 32.1473 20.659 32.1659 20.6238C32.2659 20.4679 32.3813 20.3216 32.5107 20.187C32.6326 20.0551 32.7792 19.9462 32.9431 19.866C33.0625 19.8105 33.1873 19.7663 33.3158 19.7341L32.9859 19.1297C32.8816 19.1831 32.7641 19.2366 32.6542 19.3079C32.5322 19.3773 32.4184 19.4592 32.315 19.5522C32.1109 19.7263 31.918 19.9121 31.7373 20.1085C31.5405 20.3395 31.4309 20.6272 31.4261 20.9251C31.4453 21.2198 31.5407 21.5053 31.7038 21.756C31.7502 21.8333 31.8052 21.9056 31.8678 21.9717L32.0373 22.1714C32.1007 22.2499 32.179 22.3497 32.2796 22.4817C32.4197 22.6596 32.5716 22.8287 32.7343 22.988C32.8136 23.057 32.8976 23.1207 32.9859 23.1788C33.0701 23.2406 33.1592 23.296 33.2524 23.3446C33.4007 23.4088 33.5597 23.4474 33.722 23.4587C33.8766 23.4683 34.0317 23.4557 34.1824 23.4213C34.2513 23.3981 34.3221 23.3821 34.3799 23.3571L34.542 23.2894C34.5994 23.2619 34.6537 23.2291 34.7042 23.1913C34.8362 23.1063 34.9559 23.005 35.0601 22.89L34.8085 22.4317C34.7179 22.5281 34.6123 22.6105 34.4954 22.676C34.3891 22.7247 34.2752 22.7566 34.1581 22.7705C34.0334 22.7815 33.9076 22.7737 33.7854 22.7473C33.4699 22.6721 33.175 22.5329 32.9207 22.339C32.7445 22.2428 32.5838 22.1227 32.4436 21.9824C32.369 21.8992 32.3063 21.8069 32.2572 21.7078C32.2209 21.6608 32.1891 21.6106 32.1622 21.5581C32.1307 21.5028 32.1105 21.4423 32.1026 21.3798C32.0989 21.3204 32.0989 21.2609 32.1026 21.2015C32.1026 21.1409 32.0858 21.0232 32.0914 20.9073C32.0974 20.8484 32.108 20.79 32.1231 20.7326V20.7343ZM36.6367 27.9733L36.5901 28.0018H37.8537L37.4623 27.2886C37.2115 27.5418 36.9349 27.7706 36.6367 27.9715V27.9733ZM29.8327 18.5003C29.9631 18.4022 30.0992 18.3113 30.2371 18.2239C30.2371 18.2239 31.1559 17.5 31.2844 17.4269C31.4089 17.3479 31.5377 17.2752 31.6702 17.2094C31.7392 17.1755 31.8118 17.1416 31.8827 17.1113L31.605 16.6032L31.3254 16.7636C30.8707 17.0186 30.3489 17.2718 29.8346 17.5678L29.8327 18.5003ZM29.8327 19.6218C29.9186 19.4916 30.0206 19.3719 30.1365 19.2652C30.3299 19.1075 30.5412 18.9712 30.7664 18.8586C30.9825 18.7392 31.195 18.6268 31.3963 18.502C31.588 18.3503 31.7897 18.2103 32.0001 18.083C32.1082 18.0295 32.22 17.9796 32.3337 17.9333L31.9609 17.2415C31.8994 17.2718 31.8398 17.3021 31.7876 17.3342C31.7354 17.3663 31.6814 17.4109 31.6367 17.4447L31.4969 17.525C31.395 17.5816 31.301 17.6506 31.2174 17.73C31.1286 17.8128 31.0319 17.8874 30.9285 17.9529C30.8279 18.026 30.7235 18.0955 30.621 18.1722C30.4104 18.3237 30.1961 18.4824 29.9948 18.6572C29.9426 18.7035 29.8905 18.7499 29.8401 18.798L29.8327 19.6218ZM34.8644 26.2955C35.0253 26.2939 35.1848 26.2662 35.3359 26.2135C35.4615 26.1664 35.5815 26.1066 35.6937 26.0352C35.8177 25.9584 35.9337 25.8707 36.0404 25.7731C36.1774 25.6577 36.3068 25.5345 36.428 25.404L36.1764 24.944C36.0366 25.0581 35.8932 25.1686 35.7478 25.272L35.5428 25.4147C35.4754 25.4635 35.4044 25.5076 35.3303 25.5466C35.1849 25.6227 35.0276 25.6757 34.8644 25.7035C34.5794 25.7553 34.2877 25.7643 33.9997 25.7303C33.6677 25.6931 33.3406 25.6238 33.0232 25.5234C32.9058 25.4931 32.7865 25.4557 32.6691 25.4165L33.0418 26.1154C33.2585 26.169 33.4781 26.2113 33.6997 26.242C34.085 26.2914 34.4741 26.3087 34.8626 26.2937L34.8644 26.2955ZM37.317 27.0871C37.326 27.0797 37.3341 27.0713 37.3412 27.0622L37.0505 26.5273C36.8861 26.7111 36.7032 26.8789 36.5044 27.0283C36.1095 27.3128 35.6485 27.5019 35.1608 27.5792C35.0396 27.5953 34.9203 27.6167 34.8011 27.6274L34.447 27.6434H34.3575L34.2662 27.6309L34.0966 27.606L33.8525 27.5703L34.0836 27.9911H36.2006C36.5286 27.8068 36.8279 27.5794 37.0896 27.3153C37.1716 27.2494 37.2405 27.1638 37.3151 27.0853L37.317 27.0871ZM29.8346 17.3164L30.0973 17.188L31.0291 16.7315C31.1969 16.6495 31.3646 16.5657 31.536 16.489L31.1633 15.7937C30.7912 15.962 30.4303 16.152 30.0824 16.3625C29.9985 16.4142 29.9165 16.4694 29.8346 16.5247V17.3164ZM33.0176 25.3951L33.2543 25.4699C33.8245 25.6108 34.6017 25.6482 35.1179 25.4396C35.1828 25.4162 35.2452 25.387 35.3043 25.3523C35.362 25.3166 35.4179 25.2738 35.472 25.2382C35.5782 25.1633 35.6807 25.1009 35.7571 25.0367C35.9174 24.9119 36.0236 24.8281 36.046 24.8031L36.0814 24.771L35.854 24.3574C35.7664 24.418 35.6677 24.475 35.5838 24.5357C35.4999 24.5963 35.3322 24.6623 35.2111 24.7229C35.0899 24.7835 34.9558 24.8174 34.8383 24.8673L34.747 24.8994L34.652 24.919L34.4656 24.9564C34.3426 24.9564 34.2271 24.9761 34.119 24.9707C34.0109 24.9654 33.9121 24.96 33.8208 24.9493L33.5804 24.9101C33.4833 24.8936 33.3874 24.871 33.2934 24.8423C33.1572 24.815 33.0227 24.7799 32.8909 24.7371C32.7636 24.6992 32.6391 24.6534 32.5182 24.5998C32.4585 24.5767 32.4026 24.5553 32.3504 24.5321L32.2125 24.4608L32.1231 24.4126L32.5685 25.2275L32.6784 25.272C32.7996 25.3184 32.9132 25.3541 33.0157 25.3933L33.0176 25.3951ZM29.8346 20.2244L30.2669 21.016V20.9822C30.3037 20.6229 30.4317 20.2777 30.6396 19.9766C30.7379 19.8293 30.8476 19.6892 30.9676 19.5576C31.085 19.4292 31.2136 19.3169 31.3403 19.201C31.6402 18.9395 31.9911 18.7371 32.3728 18.6055C32.4641 18.5716 32.5592 18.5395 32.6486 18.5092L32.3858 18.0295C32.2801 18.0692 32.1779 18.1169 32.0802 18.1722C32.0299 18.2025 31.9889 18.231 31.9498 18.2578C31.9111 18.282 31.8738 18.3082 31.8379 18.3362C31.7671 18.3897 31.7038 18.4539 31.6162 18.527C31.318 18.7838 30.9304 18.9888 30.5688 19.2402C30.264 19.4583 30.0127 19.7377 29.8327 20.0586L29.8346 20.2244ZM34.3445 27.4758H34.4097H34.5644C34.6632 27.4758 34.7619 27.4758 34.8533 27.4598C35.0171 27.4424 35.1795 27.415 35.3397 27.3777C35.51 27.3436 35.6749 27.2878 35.8298 27.2119C36.0393 27.1213 36.2334 27.0011 36.4056 26.8553C36.5664 26.7258 36.7125 26.5806 36.8417 26.4221C36.8715 26.3864 36.8976 26.349 36.9256 26.3133L36.5324 25.6001C36.4075 25.7196 36.2771 25.839 36.1373 25.9567C35.981 26.0871 35.8111 26.2018 35.6304 26.299C35.4513 26.4003 35.2519 26.4641 35.0452 26.4862C34.8519 26.5022 34.6576 26.5058 34.4638 26.4969C34.1211 26.481 33.7807 26.4362 33.4462 26.3632C33.3363 26.34 33.2356 26.3151 33.1369 26.2901L33.7444 27.4009C33.9308 27.433 34.0985 27.4491 34.2662 27.4758H34.3445ZM33.0027 24.623L33.1499 24.6801C33.1984 24.6961 33.2468 24.7068 33.2897 24.7211L33.491 24.7764C33.6121 24.7942 33.7407 24.8102 33.873 24.8245C34.0082 24.8343 34.144 24.8343 34.2793 24.8245C34.3445 24.8138 34.4134 24.8138 34.4787 24.7978L34.665 24.7496C34.7899 24.7068 34.911 24.6533 35.0284 24.6141C35.2241 24.5345 35.4113 24.4372 35.5875 24.3235L35.7627 24.2129L35.4887 23.7119C35.2384 23.9063 34.9502 24.0511 34.6408 24.1381C34.4258 24.1992 34.2011 24.2228 33.9774 24.2076C33.873 24.1969 33.7724 24.1791 33.6773 24.1684L33.4108 24.1024C33.2487 24.0525 33.1089 24.0026 33.0046 23.9598C32.9002 23.917 32.8182 23.8795 32.794 23.8617C32.4565 23.7302 32.1422 23.5498 31.8622 23.3268C31.7998 23.2761 31.7338 23.2296 31.6646 23.1877L31.5174 23.0986C31.436 23.0006 31.3476 22.9083 31.2528 22.8222L31.9218 24.0453C32.0895 24.1577 32.2945 24.2789 32.5312 24.4019C32.6839 24.4776 32.8407 24.5454 33.0008 24.6052L33.0027 24.623ZM52.6489 25.7481L48.5583 15.5851H45.036L49.067 25.7481C48.7804 25.7593 48.495 25.7915 48.2135 25.8444C47.9763 25.8851 47.7473 25.9615 47.5351 26.0708V27.9929H54V26.0583C53.6944 25.8711 53.2452 25.7641 52.647 25.7356L52.6489 25.7481ZM45.2038 21L45.0808 21.1284C45.0435 21.1747 45.0006 21.2211 44.9652 21.2728C44.8925 21.3726 44.8254 21.4939 44.7509 21.6133C44.4639 22.0948 44.1378 22.651 43.7576 23.2376C43.3576 23.861 42.8904 24.4424 42.3636 24.9725C41.8059 25.5291 41.1465 25.9835 40.418 26.3133C40.0586 26.4714 39.6841 26.5961 39.2998 26.6859V27.326C39.8218 27.1987 40.327 27.015 40.8056 26.7787C41.0237 26.6521 41.2082 26.5487 41.3442 26.4648C41.4803 26.3811 41.5604 26.3133 41.5939 26.2866C42.2244 25.8276 42.7857 25.2876 43.2619 24.6819C43.6774 24.1559 44.0632 23.6089 44.4173 23.0433C44.5869 22.7723 44.7565 22.5084 44.9223 22.2392C44.9876 22.1411 45.0509 22.0413 45.1199 21.9414H45.0155L45.474 20.7682C45.3789 20.8361 45.288 20.9094 45.2019 20.9875L45.2038 21ZM45.0826 27.9929V27.7486L44.8963 27.9929H45.0826ZM47.6041 23.8653L47.5482 23.9562C47.4494 24.1184 47.3488 24.2878 47.2425 24.4608H47.8408L47.6041 23.8653ZM39.3054 26.5183C39.7838 26.3964 40.2464 26.2235 40.6845 26.0031C40.9459 25.8678 41.1953 25.7122 41.4299 25.5377C42.0211 25.0998 42.54 24.5793 42.9693 23.9936C43.37 23.4587 43.698 22.9238 44.0129 22.4228C44.1694 22.1661 44.326 21.9129 44.4788 21.6597L44.7174 21.2835C44.805 21.1541 44.9075 21.0344 45.023 20.9269C45.1943 20.7688 45.3816 20.6272 45.5821 20.5043L45.9231 19.6253L45.8653 19.4773L45.8504 19.4898C45.61 19.7038 45.3603 19.9159 45.1255 20.1424C45.0043 20.2529 44.8963 20.3742 44.7844 20.499C44.6788 20.6226 44.5805 20.7518 44.49 20.8859C44.3036 21.1605 44.0688 21.5385 43.8116 21.9878C43.5545 22.4371 43.2675 22.9595 42.9041 23.4944C42.5233 24.0685 42.0409 24.5748 41.4784 24.9903C41.2651 25.1436 41.0388 25.2796 40.8019 25.3968L40.6621 25.7534C40.1913 25.7515 39.7274 25.8625 39.3129 26.0762L39.3054 26.5183ZM47.2258 22.9131C47.0292 23.1083 46.8674 23.333 46.7468 23.5782C46.581 23.8528 46.4058 24.1505 46.2231 24.4608H46.9965L47.2332 24.0828L47.5128 23.637L47.2258 22.9131ZM44.1024 17.9012C44.3279 17.6665 44.5072 17.3946 44.6316 17.0988C44.6913 16.9384 44.7304 16.8118 44.7602 16.703L44.5254 16.1093L43.6085 18.3844C43.7949 18.2078 43.9682 18.0509 44.1024 17.9012ZM44.6148 24.4679H45.0193C45.1292 24.2896 45.2354 24.1113 45.3417 23.933C45.528 23.6192 45.7051 23.3108 45.9007 23.0041C45.9977 22.849 46.0871 22.7028 46.1971 22.5405C46.2544 22.4633 46.3167 22.3894 46.3834 22.3194C46.4542 22.2534 46.5176 22.1821 46.5921 22.1251C46.6667 22.068 46.7543 21.9949 46.8381 21.9343H46.3182C46.0349 22.1701 45.8042 22.4582 45.6398 22.7812C45.3268 23.2733 44.9969 23.8563 44.6148 24.4679ZM44.1303 25.8533L44.1825 25.7784C44.0321 25.7555 43.8801 25.743 43.7278 25.741C43.4841 26.0469 43.2208 26.3381 42.9395 26.6128C42.3488 27.1893 41.6544 27.6592 40.8895 28H42.0338L42.0673 27.9786C42.1658 27.9178 42.2592 27.8498 42.3468 27.7753C43.0383 27.2234 43.6395 26.5756 44.1303 25.8533ZM41.6182 27.4758C41.7579 27.3813 41.853 27.3171 41.8884 27.2975C42.5448 26.8386 43.1199 26.2817 43.5917 25.6482L44.0483 24.475H44.3949C44.5478 24.2326 44.695 23.9901 44.8366 23.7511L45.3584 22.8775L45.6249 22.446C45.7223 22.2966 45.8374 22.1584 45.9678 22.0341C46.007 21.9967 46.0461 21.9646 46.0871 21.9289H45.4125C45.3584 22.0092 45.3044 22.0894 45.2503 22.1768C44.9428 22.6885 44.5888 23.2769 44.162 23.8884C43.715 24.5394 43.1991 25.1446 42.6227 25.6946C42.0168 26.2755 41.3107 26.752 40.5354 27.1032C40.141 27.2776 39.7288 27.4126 39.3054 27.5061V27.9929H40.5317C40.718 27.9269 40.8783 27.8574 41.0255 27.7896C41.2678 27.6701 41.4709 27.5632 41.6182 27.4758ZM43.9253 19.0779L44.5645 18.5627C44.8147 18.3597 45.0343 18.1245 45.2168 17.8637L44.8441 16.9063L44.7938 17.0489C44.7059 17.2876 44.5802 17.5119 44.421 17.714C44.1532 18.0259 43.859 18.3163 43.5414 18.5823L42.8631 20.2654C42.9767 20.1174 43.096 19.9712 43.2358 19.8286C43.4244 19.5463 43.657 19.2932 43.9253 19.0779ZM42.9227 21.4315C43.2153 20.996 43.5372 20.5791 43.8862 20.1834C44.098 19.8671 44.3524 19.5787 44.6428 19.3258C44.8963 19.094 45.1292 18.9032 45.3286 18.7249C45.3864 18.6732 45.4423 18.6251 45.4945 18.5751L45.2727 18.0082L45.2597 18.0278C45.2157 18.09 45.1678 18.1495 45.1162 18.2061L45.0342 18.2988L44.9373 18.3933C44.5962 18.7285 44.1545 19.0048 43.7613 19.349C43.3681 19.6931 43.0848 20.1495 42.8295 20.6131C42.7196 20.7914 42.5947 21.041 42.4456 21.3263L41.7002 23.1628C41.8399 23.0059 41.9704 22.8418 42.0934 22.6778C42.3878 22.257 42.645 21.8416 42.9227 21.4244V21.4315ZM44.982 26.0155C44.8163 25.933 44.6395 25.8729 44.4564 25.8372H44.4434C44.4061 25.8872 44.3707 25.9389 44.3316 25.9906C44.0597 26.3637 43.7647 26.7209 43.4482 27.0604C43.1173 27.4129 42.7523 27.7346 42.358 28.0214H43.3979C43.7953 27.6229 44.1598 27.1955 44.4881 26.743C44.6652 26.4827 44.8273 26.2438 44.982 26.0084V26.0155ZM44.2216 27.4223C44.0576 27.6066 43.8899 27.7902 43.7185 27.9733L43.6812 28.0071H44.6689L44.7528 27.9002L45.0826 27.4419V26.299C44.954 26.4773 44.8161 26.6556 44.6819 26.8464C44.5478 27.0372 44.3782 27.2226 44.2216 27.4152V27.4223ZM46.7133 23.1966C46.8275 23.0267 46.964 22.8715 47.1195 22.7348L47.1419 22.717L46.9071 22.1268C46.6285 22.3459 46.3979 22.6156 46.2287 22.9203C45.9529 23.3874 45.6547 23.917 45.3193 24.475H45.9324L46.4076 23.6887C46.5101 23.5176 46.6033 23.3571 46.7133 23.1895V23.1966ZM42.1362 24.1808C42.5151 23.74 42.8508 23.2667 43.1389 22.7669C43.4259 22.2927 43.698 21.822 43.9943 21.3584C44.1471 21.1266 44.3167 20.9002 44.4956 20.6755C44.6899 20.4498 44.9071 20.2432 45.1441 20.0586C45.3864 19.8232 45.6193 19.6146 45.8318 19.4203L45.5411 18.6839C45.2 18.9852 44.818 19.2759 44.4658 19.6111C44.3577 19.7109 44.2608 19.8179 44.1639 19.9266C44.0689 20.0408 43.9805 20.1598 43.8992 20.2832C43.7334 20.5257 43.5731 20.7771 43.4184 21.0321C43.2637 21.2871 43.0587 21.6419 42.8146 22.0502C42.5433 22.5168 42.2249 22.9569 41.8642 23.3642C41.738 23.4989 41.6036 23.6263 41.4616 23.7458L40.8783 25.1971C41.3553 24.9268 41.7807 24.5807 42.1362 24.1737V24.1808Z" fill="#FAE8C9"/>
</g>
<defs>
<clipPath id="clip0_391_4420">
<rect width="54" height="28" fill="white"/>
</clipPath>
</defs>
</svg>
